G04 #@! TF.GenerationSoftware,KiCad,Pcbnew,(5.0.2)-1*
G04 #@! TF.CreationDate,2019-03-13T03:57:08-07:00*
G04 #@! TF.ProjectId,ssk-controller,73736b2d-636f-46e7-9472-6f6c6c65722e,rev?*
G04 #@! TF.SameCoordinates,Original*
G04 #@! TF.FileFunction,Legend,Top*
G04 #@! TF.FilePolarity,Positive*
%FSLAX46Y46*%
G04 Gerber Fmt 4.6, Leading zero omitted, Abs format (unit mm)*
G04 Created by KiCad (PCBNEW (5.0.2)-1) date 3/13/2019 3:57:08 AM*
%MOMM*%
%LPD*%
G01*
G04 APERTURE LIST*
%ADD10C,0.200000*%
%ADD11C,0.120000*%
%ADD12C,0.150000*%
%ADD13C,0.010000*%
%ADD14R,2.430000X1.540000*%
%ADD15O,2.100000X2.100000*%
%ADD16R,2.100000X2.100000*%
%ADD17R,1.700000X1.100000*%
%ADD18R,1.100000X1.700000*%
%ADD19R,2.200000X1.500000*%
%ADD20R,1.100000X1.000000*%
%ADD21R,1.100000X1.400000*%
%ADD22O,1.400000X2.000000*%
%ADD23O,1.400000X2.500000*%
%ADD24C,1.050000*%
%ADD25R,0.700000X1.850000*%
%ADD26R,1.000000X1.850000*%
%ADD27R,1.800000X1.600000*%
%ADD28R,0.950000X1.900000*%
%ADD29R,1.900000X0.950000*%
%ADD30C,3.900000*%
%ADD31R,1.650000X1.400000*%
%ADD32R,1.400000X1.650000*%
%ADD33C,1.187400*%
G04 APERTURE END LIST*
D10*
X136500000Y-66750000D02*
G75*
G03X136500000Y-66750000I-250000J0D01*
G01*
X143000000Y-57000000D02*
X143000000Y-55500000D01*
X183000000Y-57000000D02*
X143000000Y-57000000D01*
X183000000Y-55500000D02*
X183000000Y-57000000D01*
X218000000Y-54000000D02*
X218000000Y-55500000D01*
X198000000Y-54000000D02*
X218000000Y-54000000D01*
X198000000Y-55500000D02*
X198000000Y-54000000D01*
D11*
G04 #@! TO.C,F1*
X118930000Y-65500000D02*
X118930000Y-63500000D01*
X121070000Y-63500000D02*
X121070000Y-65500000D01*
G04 #@! TO.C,J1*
X142670000Y-55330000D02*
X142670000Y-54000000D01*
X144000000Y-55330000D02*
X142670000Y-55330000D01*
X145270000Y-55330000D02*
X145270000Y-52670000D01*
X145270000Y-52670000D02*
X183430000Y-52670000D01*
X145270000Y-55330000D02*
X183430000Y-55330000D01*
X183430000Y-55330000D02*
X183430000Y-52670000D01*
G04 #@! TO.C,J2*
X218330000Y-55670000D02*
X218330000Y-57000000D01*
X217000000Y-55670000D02*
X218330000Y-55670000D01*
X215730000Y-55670000D02*
X215730000Y-58330000D01*
X215730000Y-58330000D02*
X197890000Y-58330000D01*
X215730000Y-55670000D02*
X197890000Y-55670000D01*
X197890000Y-55670000D02*
X197890000Y-58330000D01*
G04 #@! TO.C,R67*
X117380000Y-63400000D02*
X117380000Y-64600000D01*
X115620000Y-64600000D02*
X115620000Y-63400000D01*
G04 #@! TO.C,R68*
X112620000Y-64600000D02*
X112620000Y-63400000D01*
X114380000Y-63400000D02*
X114380000Y-64600000D01*
G04 #@! TO.C,R70*
X114400000Y-79120000D02*
X115600000Y-79120000D01*
X115600000Y-80880000D02*
X114400000Y-80880000D01*
G04 #@! TO.C,R71*
X150120000Y-67600000D02*
X150120000Y-66400000D01*
X151880000Y-66400000D02*
X151880000Y-67600000D01*
G04 #@! TO.C,R73*
X119880000Y-58900000D02*
X119880000Y-60100000D01*
X118120000Y-60100000D02*
X118120000Y-58900000D01*
G04 #@! TO.C,R74*
X110120000Y-60100000D02*
X110120000Y-58900000D01*
X111880000Y-58900000D02*
X111880000Y-60100000D01*
D12*
G04 #@! TO.C,SW1*
X116000000Y-75000000D02*
G75*
G03X116000000Y-75000000I-1000000J0D01*
G01*
X117600000Y-72400000D02*
X117600000Y-77600000D01*
X112400000Y-72400000D02*
X117600000Y-72400000D01*
X112400000Y-77600000D02*
X112400000Y-72400000D01*
X117600000Y-77600000D02*
X112400000Y-77600000D01*
G04 #@! TO.C,U2*
X114350000Y-60950000D02*
X115650000Y-60950000D01*
X114350000Y-58050000D02*
X114350000Y-60950000D01*
X115650000Y-58050000D02*
X114350000Y-58050000D01*
X115650000Y-58050000D02*
X115650000Y-60950000D01*
D11*
G04 #@! TO.C,Y1*
X144000000Y-83850000D02*
X140000000Y-83850000D01*
X144000000Y-87150000D02*
X144000000Y-83850000D01*
D12*
G04 #@! TO.C,U1*
X136825000Y-67900000D02*
X135550000Y-67900000D01*
X147175000Y-67325000D02*
X146500000Y-67325000D01*
X147175000Y-77675000D02*
X146500000Y-77675000D01*
X136825000Y-77675000D02*
X137500000Y-77675000D01*
X136825000Y-67325000D02*
X137500000Y-67325000D01*
X136825000Y-77675000D02*
X136825000Y-77000000D01*
X147175000Y-77675000D02*
X147175000Y-77000000D01*
X147175000Y-67325000D02*
X147175000Y-68000000D01*
X136825000Y-67325000D02*
X136825000Y-67900000D01*
D11*
G04 #@! TO.C,C2*
X132150000Y-66500000D02*
X132150000Y-67500000D01*
X133850000Y-67500000D02*
X133850000Y-66500000D01*
G04 #@! TO.C,C3*
X147500000Y-62650000D02*
X146500000Y-62650000D01*
X146500000Y-64350000D02*
X147500000Y-64350000D01*
G04 #@! TO.C,C4*
X136850000Y-84000000D02*
X136850000Y-83000000D01*
X135150000Y-83000000D02*
X135150000Y-84000000D01*
G04 #@! TO.C,C5*
X150150000Y-77000000D02*
X150150000Y-78000000D01*
X151850000Y-78000000D02*
X151850000Y-77000000D01*
G04 #@! TO.C,C6*
X132500000Y-71650000D02*
X131500000Y-71650000D01*
X131500000Y-73350000D02*
X132500000Y-73350000D01*
G04 #@! TO.C,C7*
X147350000Y-86000000D02*
X147350000Y-85000000D01*
X145650000Y-85000000D02*
X145650000Y-86000000D01*
G04 #@! TO.C,C8*
X141500000Y-90350000D02*
X142500000Y-90350000D01*
X142500000Y-88650000D02*
X141500000Y-88650000D01*
G04 #@! TO.C,J3*
X93670000Y-73670000D02*
X95000000Y-73670000D01*
X93670000Y-75000000D02*
X93670000Y-73670000D01*
X93670000Y-76270000D02*
X96330000Y-76270000D01*
X96330000Y-76270000D02*
X96330000Y-76330000D01*
X93670000Y-76270000D02*
X93670000Y-76330000D01*
X93670000Y-76330000D02*
X96330000Y-76330000D01*
D13*
G04 #@! TO.C,G\002A\002A\002A*
G36*
X175947740Y-94390455D02*
X175973775Y-94437566D01*
X175929280Y-94499068D01*
X175819030Y-94550890D01*
X175812512Y-94552631D01*
X175671896Y-94620209D01*
X175537023Y-94731559D01*
X175520412Y-94750258D01*
X175450897Y-94845397D01*
X175411185Y-94945480D01*
X175393283Y-95082967D01*
X175389200Y-95283297D01*
X175385298Y-95482267D01*
X175371002Y-95598677D01*
X175342428Y-95651357D01*
X175311405Y-95660400D01*
X175227109Y-95622865D01*
X175207991Y-95593635D01*
X175198784Y-95517722D01*
X175193833Y-95364365D01*
X175193572Y-95157647D01*
X175196885Y-94975468D01*
X175207930Y-94707688D01*
X175225460Y-94530116D01*
X175251076Y-94431473D01*
X175278256Y-94401880D01*
X175342234Y-94424991D01*
X175371901Y-94482135D01*
X175394828Y-94546676D01*
X175435657Y-94555812D01*
X175525236Y-94511103D01*
X175559044Y-94491590D01*
X175705156Y-94422692D01*
X175840303Y-94382687D01*
X175846400Y-94381802D01*
X175947740Y-94390455D01*
X175947740Y-94390455D01*
G37*
X175947740Y-94390455D02*
X175973775Y-94437566D01*
X175929280Y-94499068D01*
X175819030Y-94550890D01*
X175812512Y-94552631D01*
X175671896Y-94620209D01*
X175537023Y-94731559D01*
X175520412Y-94750258D01*
X175450897Y-94845397D01*
X175411185Y-94945480D01*
X175393283Y-95082967D01*
X175389200Y-95283297D01*
X175385298Y-95482267D01*
X175371002Y-95598677D01*
X175342428Y-95651357D01*
X175311405Y-95660400D01*
X175227109Y-95622865D01*
X175207991Y-95593635D01*
X175198784Y-95517722D01*
X175193833Y-95364365D01*
X175193572Y-95157647D01*
X175196885Y-94975468D01*
X175207930Y-94707688D01*
X175225460Y-94530116D01*
X175251076Y-94431473D01*
X175278256Y-94401880D01*
X175342234Y-94424991D01*
X175371901Y-94482135D01*
X175394828Y-94546676D01*
X175435657Y-94555812D01*
X175525236Y-94511103D01*
X175559044Y-94491590D01*
X175705156Y-94422692D01*
X175840303Y-94382687D01*
X175846400Y-94381802D01*
X175947740Y-94390455D01*
G36*
X173293700Y-93841270D02*
X173325904Y-93855601D01*
X173349294Y-93893707D01*
X173365256Y-93969675D01*
X173375172Y-94097591D01*
X173380427Y-94291544D01*
X173382406Y-94565620D01*
X173382600Y-94746000D01*
X173381785Y-95067695D01*
X173378420Y-95301883D01*
X173371119Y-95462653D01*
X173358499Y-95564091D01*
X173339174Y-95620283D01*
X173311762Y-95645318D01*
X173293700Y-95650729D01*
X173262130Y-95649911D01*
X173239032Y-95624619D01*
X173223097Y-95561533D01*
X173213017Y-95447333D01*
X173207483Y-95268700D01*
X173205186Y-95012315D01*
X173204800Y-94745999D01*
X173205465Y-94418762D01*
X173208333Y-94179802D01*
X173214712Y-94015798D01*
X173225913Y-93913431D01*
X173243242Y-93859383D01*
X173268010Y-93840332D01*
X173293700Y-93841270D01*
X173293700Y-93841270D01*
G37*
X173293700Y-93841270D02*
X173325904Y-93855601D01*
X173349294Y-93893707D01*
X173365256Y-93969675D01*
X173375172Y-94097591D01*
X173380427Y-94291544D01*
X173382406Y-94565620D01*
X173382600Y-94746000D01*
X173381785Y-95067695D01*
X173378420Y-95301883D01*
X173371119Y-95462653D01*
X173358499Y-95564091D01*
X173339174Y-95620283D01*
X173311762Y-95645318D01*
X173293700Y-95650729D01*
X173262130Y-95649911D01*
X173239032Y-95624619D01*
X173223097Y-95561533D01*
X173213017Y-95447333D01*
X173207483Y-95268700D01*
X173205186Y-95012315D01*
X173204800Y-94745999D01*
X173205465Y-94418762D01*
X173208333Y-94179802D01*
X173214712Y-94015798D01*
X173225913Y-93913431D01*
X173243242Y-93859383D01*
X173268010Y-93840332D01*
X173293700Y-93841270D01*
G36*
X172631319Y-93835930D02*
X172657682Y-93858119D01*
X172675822Y-93911958D01*
X172687271Y-94011242D01*
X172693562Y-94169763D01*
X172696227Y-94401316D01*
X172696798Y-94719693D01*
X172696800Y-94746000D01*
X172696318Y-95071076D01*
X172693853Y-95308346D01*
X172687871Y-95471605D01*
X172676839Y-95574645D01*
X172659226Y-95631260D01*
X172633498Y-95655243D01*
X172598122Y-95660388D01*
X172595200Y-95660400D01*
X172559080Y-95656069D01*
X172532717Y-95633880D01*
X172514577Y-95580041D01*
X172503128Y-95480757D01*
X172496837Y-95322236D01*
X172494172Y-95090683D01*
X172493601Y-94772306D01*
X172493600Y-94746000D01*
X172494081Y-94420923D01*
X172496546Y-94183653D01*
X172502528Y-94020394D01*
X172513560Y-93917354D01*
X172531173Y-93860739D01*
X172556901Y-93836756D01*
X172592277Y-93831611D01*
X172595200Y-93831600D01*
X172631319Y-93835930D01*
X172631319Y-93835930D01*
G37*
X172631319Y-93835930D02*
X172657682Y-93858119D01*
X172675822Y-93911958D01*
X172687271Y-94011242D01*
X172693562Y-94169763D01*
X172696227Y-94401316D01*
X172696798Y-94719693D01*
X172696800Y-94746000D01*
X172696318Y-95071076D01*
X172693853Y-95308346D01*
X172687871Y-95471605D01*
X172676839Y-95574645D01*
X172659226Y-95631260D01*
X172633498Y-95655243D01*
X172598122Y-95660388D01*
X172595200Y-95660400D01*
X172559080Y-95656069D01*
X172532717Y-95633880D01*
X172514577Y-95580041D01*
X172503128Y-95480757D01*
X172496837Y-95322236D01*
X172494172Y-95090683D01*
X172493601Y-94772306D01*
X172493600Y-94746000D01*
X172494081Y-94420923D01*
X172496546Y-94183653D01*
X172502528Y-94020394D01*
X172513560Y-93917354D01*
X172531173Y-93860739D01*
X172556901Y-93836756D01*
X172592277Y-93831611D01*
X172595200Y-93831600D01*
X172631319Y-93835930D01*
G36*
X170714805Y-94389908D02*
X170756637Y-94450158D01*
X170709211Y-94510197D01*
X170583967Y-94556345D01*
X170573813Y-94558457D01*
X170425512Y-94613237D01*
X170306056Y-94687378D01*
X170243216Y-94749715D01*
X170202939Y-94830047D01*
X170177899Y-94954062D01*
X170160771Y-95147447D01*
X170156800Y-95210772D01*
X170140558Y-95424194D01*
X170119768Y-95555591D01*
X170089345Y-95624535D01*
X170044208Y-95650599D01*
X170042500Y-95650937D01*
X170005598Y-95649659D01*
X169980541Y-95618741D01*
X169965078Y-95542428D01*
X169956954Y-95404960D01*
X169953918Y-95190584D01*
X169953600Y-95029124D01*
X169955159Y-94761260D01*
X169961166Y-94579236D01*
X169973615Y-94467325D01*
X169994499Y-94409798D01*
X170025812Y-94390926D01*
X170034555Y-94390400D01*
X170111114Y-94433114D01*
X170142611Y-94494030D01*
X170173813Y-94564974D01*
X170228063Y-94546505D01*
X170252155Y-94526624D01*
X170375968Y-94449561D01*
X170523974Y-94395506D01*
X170655418Y-94376502D01*
X170714805Y-94389908D01*
X170714805Y-94389908D01*
G37*
X170714805Y-94389908D02*
X170756637Y-94450158D01*
X170709211Y-94510197D01*
X170583967Y-94556345D01*
X170573813Y-94558457D01*
X170425512Y-94613237D01*
X170306056Y-94687378D01*
X170243216Y-94749715D01*
X170202939Y-94830047D01*
X170177899Y-94954062D01*
X170160771Y-95147447D01*
X170156800Y-95210772D01*
X170140558Y-95424194D01*
X170119768Y-95555591D01*
X170089345Y-95624535D01*
X170044208Y-95650599D01*
X170042500Y-95650937D01*
X170005598Y-95649659D01*
X169980541Y-95618741D01*
X169965078Y-95542428D01*
X169956954Y-95404960D01*
X169953918Y-95190584D01*
X169953600Y-95029124D01*
X169955159Y-94761260D01*
X169961166Y-94579236D01*
X169973615Y-94467325D01*
X169994499Y-94409798D01*
X170025812Y-94390926D01*
X170034555Y-94390400D01*
X170111114Y-94433114D01*
X170142611Y-94494030D01*
X170173813Y-94564974D01*
X170228063Y-94546505D01*
X170252155Y-94526624D01*
X170375968Y-94449561D01*
X170523974Y-94395506D01*
X170655418Y-94376502D01*
X170714805Y-94389908D01*
G36*
X168160779Y-94392758D02*
X168303440Y-94512774D01*
X168318217Y-94534096D01*
X168362588Y-94630772D01*
X168389551Y-94770388D01*
X168402195Y-94975040D01*
X168404200Y-95149031D01*
X168401962Y-95376923D01*
X168393002Y-95522292D01*
X168373944Y-95604159D01*
X168341415Y-95641548D01*
X168315300Y-95650299D01*
X168272667Y-95648579D01*
X168246244Y-95610696D01*
X168232268Y-95518357D01*
X168226975Y-95353272D01*
X168226400Y-95218228D01*
X168215843Y-94932416D01*
X168180601Y-94734282D01*
X168115318Y-94611758D01*
X168014638Y-94552778D01*
X167926592Y-94542800D01*
X167785495Y-94568195D01*
X167684680Y-94652283D01*
X167617597Y-94806915D01*
X167577693Y-95043941D01*
X167566000Y-95195080D01*
X167550204Y-95412779D01*
X167530295Y-95548186D01*
X167501429Y-95620607D01*
X167458767Y-95649347D01*
X167451700Y-95650931D01*
X167414798Y-95649656D01*
X167389742Y-95618741D01*
X167374278Y-95542429D01*
X167366154Y-95404965D01*
X167363118Y-95190591D01*
X167362800Y-95029124D01*
X167364502Y-94760009D01*
X167370864Y-94577024D01*
X167383765Y-94464735D01*
X167405084Y-94407712D01*
X167436700Y-94390522D01*
X167440594Y-94390400D01*
X167525313Y-94428988D01*
X167544706Y-94458983D01*
X167579838Y-94494253D01*
X167656416Y-94480495D01*
X167765891Y-94431154D01*
X167979761Y-94365210D01*
X168160779Y-94392758D01*
X168160779Y-94392758D01*
G37*
X168160779Y-94392758D02*
X168303440Y-94512774D01*
X168318217Y-94534096D01*
X168362588Y-94630772D01*
X168389551Y-94770388D01*
X168402195Y-94975040D01*
X168404200Y-95149031D01*
X168401962Y-95376923D01*
X168393002Y-95522292D01*
X168373944Y-95604159D01*
X168341415Y-95641548D01*
X168315300Y-95650299D01*
X168272667Y-95648579D01*
X168246244Y-95610696D01*
X168232268Y-95518357D01*
X168226975Y-95353272D01*
X168226400Y-95218228D01*
X168215843Y-94932416D01*
X168180601Y-94734282D01*
X168115318Y-94611758D01*
X168014638Y-94552778D01*
X167926592Y-94542800D01*
X167785495Y-94568195D01*
X167684680Y-94652283D01*
X167617597Y-94806915D01*
X167577693Y-95043941D01*
X167566000Y-95195080D01*
X167550204Y-95412779D01*
X167530295Y-95548186D01*
X167501429Y-95620607D01*
X167458767Y-95649347D01*
X167451700Y-95650931D01*
X167414798Y-95649656D01*
X167389742Y-95618741D01*
X167374278Y-95542429D01*
X167366154Y-95404965D01*
X167363118Y-95190591D01*
X167362800Y-95029124D01*
X167364502Y-94760009D01*
X167370864Y-94577024D01*
X167383765Y-94464735D01*
X167405084Y-94407712D01*
X167436700Y-94390522D01*
X167440594Y-94390400D01*
X167525313Y-94428988D01*
X167544706Y-94458983D01*
X167579838Y-94494253D01*
X167656416Y-94480495D01*
X167765891Y-94431154D01*
X167979761Y-94365210D01*
X168160779Y-94392758D01*
G36*
X161854010Y-94419182D02*
X161978803Y-94529959D01*
X162026671Y-94606058D01*
X162056832Y-94702762D01*
X162073068Y-94843810D01*
X162079157Y-95052943D01*
X162079600Y-95162975D01*
X162077930Y-95393654D01*
X162070800Y-95540213D01*
X162055029Y-95620107D01*
X162027439Y-95650791D01*
X161990700Y-95650917D01*
X161947753Y-95628254D01*
X161918208Y-95567328D01*
X161897806Y-95449548D01*
X161882290Y-95256323D01*
X161876400Y-95151892D01*
X161861203Y-94935482D01*
X161841495Y-94754639D01*
X161820457Y-94635464D01*
X161809901Y-94606300D01*
X161724602Y-94555643D01*
X161589404Y-94546283D01*
X161447907Y-94579764D01*
X161421203Y-94592527D01*
X161317887Y-94704115D01*
X161249768Y-94906810D01*
X161218180Y-95195928D01*
X161216000Y-95312380D01*
X161211529Y-95502386D01*
X161195251Y-95610312D01*
X161162864Y-95655400D01*
X161138205Y-95660400D01*
X161053909Y-95622865D01*
X161034791Y-95593635D01*
X161025607Y-95517800D01*
X161020651Y-95364421D01*
X161020350Y-95157482D01*
X161023685Y-94971937D01*
X161032076Y-94724707D01*
X161043937Y-94561442D01*
X161062458Y-94464508D01*
X161090827Y-94416270D01*
X161127100Y-94399977D01*
X161199141Y-94417791D01*
X161216000Y-94491903D01*
X161222889Y-94566704D01*
X161260115Y-94554991D01*
X161300083Y-94516774D01*
X161479951Y-94395243D01*
X161672082Y-94362858D01*
X161854010Y-94419182D01*
X161854010Y-94419182D01*
G37*
X161854010Y-94419182D02*
X161978803Y-94529959D01*
X162026671Y-94606058D01*
X162056832Y-94702762D01*
X162073068Y-94843810D01*
X162079157Y-95052943D01*
X162079600Y-95162975D01*
X162077930Y-95393654D01*
X162070800Y-95540213D01*
X162055029Y-95620107D01*
X162027439Y-95650791D01*
X161990700Y-95650917D01*
X161947753Y-95628254D01*
X161918208Y-95567328D01*
X161897806Y-95449548D01*
X161882290Y-95256323D01*
X161876400Y-95151892D01*
X161861203Y-94935482D01*
X161841495Y-94754639D01*
X161820457Y-94635464D01*
X161809901Y-94606300D01*
X161724602Y-94555643D01*
X161589404Y-94546283D01*
X161447907Y-94579764D01*
X161421203Y-94592527D01*
X161317887Y-94704115D01*
X161249768Y-94906810D01*
X161218180Y-95195928D01*
X161216000Y-95312380D01*
X161211529Y-95502386D01*
X161195251Y-95610312D01*
X161162864Y-95655400D01*
X161138205Y-95660400D01*
X161053909Y-95622865D01*
X161034791Y-95593635D01*
X161025607Y-95517800D01*
X161020651Y-95364421D01*
X161020350Y-95157482D01*
X161023685Y-94971937D01*
X161032076Y-94724707D01*
X161043937Y-94561442D01*
X161062458Y-94464508D01*
X161090827Y-94416270D01*
X161127100Y-94399977D01*
X161199141Y-94417791D01*
X161216000Y-94491903D01*
X161222889Y-94566704D01*
X161260115Y-94554991D01*
X161300083Y-94516774D01*
X161479951Y-94395243D01*
X161672082Y-94362858D01*
X161854010Y-94419182D01*
G36*
X159102281Y-94388301D02*
X159200759Y-94442233D01*
X159268056Y-94527532D01*
X159309525Y-94661594D01*
X159330522Y-94861816D01*
X159336399Y-95145595D01*
X159336400Y-95149060D01*
X159333839Y-95387366D01*
X159324538Y-95540656D01*
X159306071Y-95625426D01*
X159276011Y-95658168D01*
X159261167Y-95660400D01*
X159209440Y-95641356D01*
X159172364Y-95574861D01*
X159146949Y-95446868D01*
X159130204Y-95243329D01*
X159120539Y-95000000D01*
X159107800Y-94568200D01*
X158941490Y-94552191D01*
X158826655Y-94552938D01*
X158757853Y-94601223D01*
X158700190Y-94715659D01*
X158658692Y-94872834D01*
X158632168Y-95092125D01*
X158625200Y-95281493D01*
X158622618Y-95477932D01*
X158611751Y-95592279D01*
X158587921Y-95643980D01*
X158546446Y-95652478D01*
X158536300Y-95650836D01*
X158494168Y-95629501D01*
X158466182Y-95572368D01*
X158448533Y-95460760D01*
X158437412Y-95276006D01*
X158432917Y-95143852D01*
X158418476Y-94875511D01*
X158389735Y-94695726D01*
X158340468Y-94591774D01*
X158264451Y-94550931D01*
X158155458Y-94560475D01*
X158148335Y-94562221D01*
X158040205Y-94630236D01*
X157966646Y-94775625D01*
X157925389Y-95005407D01*
X157914000Y-95286980D01*
X157910033Y-95484831D01*
X157895510Y-95600183D01*
X157866496Y-95651919D01*
X157836205Y-95660400D01*
X157751909Y-95622865D01*
X157732791Y-95593635D01*
X157723607Y-95517800D01*
X157718651Y-95364421D01*
X157718350Y-95157482D01*
X157721685Y-94971937D01*
X157730076Y-94724707D01*
X157741937Y-94561442D01*
X157760458Y-94464508D01*
X157788827Y-94416270D01*
X157825100Y-94399977D01*
X157900376Y-94420062D01*
X157914000Y-94470748D01*
X157921108Y-94527590D01*
X157958972Y-94515444D01*
X158016255Y-94466006D01*
X158169837Y-94385120D01*
X158339666Y-94381783D01*
X158488472Y-94453795D01*
X158528565Y-94496233D01*
X158592934Y-94561903D01*
X158623671Y-94557850D01*
X158624070Y-94552907D01*
X158670125Y-94480758D01*
X158781828Y-94419169D01*
X158923242Y-94380511D01*
X159058431Y-94377154D01*
X159102281Y-94388301D01*
X159102281Y-94388301D01*
G37*
X159102281Y-94388301D02*
X159200759Y-94442233D01*
X159268056Y-94527532D01*
X159309525Y-94661594D01*
X159330522Y-94861816D01*
X159336399Y-95145595D01*
X159336400Y-95149060D01*
X159333839Y-95387366D01*
X159324538Y-95540656D01*
X159306071Y-95625426D01*
X159276011Y-95658168D01*
X159261167Y-95660400D01*
X159209440Y-95641356D01*
X159172364Y-95574861D01*
X159146949Y-95446868D01*
X159130204Y-95243329D01*
X159120539Y-95000000D01*
X159107800Y-94568200D01*
X158941490Y-94552191D01*
X158826655Y-94552938D01*
X158757853Y-94601223D01*
X158700190Y-94715659D01*
X158658692Y-94872834D01*
X158632168Y-95092125D01*
X158625200Y-95281493D01*
X158622618Y-95477932D01*
X158611751Y-95592279D01*
X158587921Y-95643980D01*
X158546446Y-95652478D01*
X158536300Y-95650836D01*
X158494168Y-95629501D01*
X158466182Y-95572368D01*
X158448533Y-95460760D01*
X158437412Y-95276006D01*
X158432917Y-95143852D01*
X158418476Y-94875511D01*
X158389735Y-94695726D01*
X158340468Y-94591774D01*
X158264451Y-94550931D01*
X158155458Y-94560475D01*
X158148335Y-94562221D01*
X158040205Y-94630236D01*
X157966646Y-94775625D01*
X157925389Y-95005407D01*
X157914000Y-95286980D01*
X157910033Y-95484831D01*
X157895510Y-95600183D01*
X157866496Y-95651919D01*
X157836205Y-95660400D01*
X157751909Y-95622865D01*
X157732791Y-95593635D01*
X157723607Y-95517800D01*
X157718651Y-95364421D01*
X157718350Y-95157482D01*
X157721685Y-94971937D01*
X157730076Y-94724707D01*
X157741937Y-94561442D01*
X157760458Y-94464508D01*
X157788827Y-94416270D01*
X157825100Y-94399977D01*
X157900376Y-94420062D01*
X157914000Y-94470748D01*
X157921108Y-94527590D01*
X157958972Y-94515444D01*
X158016255Y-94466006D01*
X158169837Y-94385120D01*
X158339666Y-94381783D01*
X158488472Y-94453795D01*
X158528565Y-94496233D01*
X158592934Y-94561903D01*
X158623671Y-94557850D01*
X158624070Y-94552907D01*
X158670125Y-94480758D01*
X158781828Y-94419169D01*
X158923242Y-94380511D01*
X159058431Y-94377154D01*
X159102281Y-94388301D01*
G36*
X153312226Y-93856054D02*
X153346349Y-93887697D01*
X153361506Y-93960897D01*
X153373831Y-94113758D01*
X153383123Y-94324377D01*
X153389178Y-94570849D01*
X153391796Y-94831271D01*
X153390773Y-95083737D01*
X153385908Y-95306344D01*
X153376998Y-95477188D01*
X153363842Y-95574364D01*
X153361964Y-95580045D01*
X153292972Y-95651955D01*
X153200215Y-95647102D01*
X153172666Y-95626533D01*
X153161464Y-95566879D01*
X153151826Y-95423074D01*
X153144415Y-95212562D01*
X153139894Y-94952786D01*
X153138800Y-94735938D01*
X153139940Y-94417071D01*
X153144231Y-94185558D01*
X153152976Y-94027170D01*
X153167477Y-93927677D01*
X153189039Y-93872850D01*
X153218963Y-93848460D01*
X153220126Y-93848003D01*
X153312226Y-93856054D01*
X153312226Y-93856054D01*
G37*
X153312226Y-93856054D02*
X153346349Y-93887697D01*
X153361506Y-93960897D01*
X153373831Y-94113758D01*
X153383123Y-94324377D01*
X153389178Y-94570849D01*
X153391796Y-94831271D01*
X153390773Y-95083737D01*
X153385908Y-95306344D01*
X153376998Y-95477188D01*
X153363842Y-95574364D01*
X153361964Y-95580045D01*
X153292972Y-95651955D01*
X153200215Y-95647102D01*
X153172666Y-95626533D01*
X153161464Y-95566879D01*
X153151826Y-95423074D01*
X153144415Y-95212562D01*
X153139894Y-94952786D01*
X153138800Y-94735938D01*
X153139940Y-94417071D01*
X153144231Y-94185558D01*
X153152976Y-94027170D01*
X153167477Y-93927677D01*
X153189039Y-93872850D01*
X153218963Y-93848460D01*
X153220126Y-93848003D01*
X153312226Y-93856054D01*
G36*
X149447712Y-93848815D02*
X149664633Y-93884583D01*
X149840152Y-93946578D01*
X149884192Y-93973801D01*
X150019728Y-94133373D01*
X150075211Y-94332629D01*
X150041620Y-94538871D01*
X150040700Y-94541108D01*
X149988418Y-94646835D01*
X149947258Y-94696349D01*
X149944936Y-94696815D01*
X149883869Y-94725508D01*
X149815495Y-94772207D01*
X149749575Y-94836950D01*
X149765217Y-94898864D01*
X149794643Y-94935692D01*
X149857521Y-95033601D01*
X149928041Y-95178533D01*
X149995039Y-95341577D01*
X150047350Y-95493826D01*
X150073813Y-95606370D01*
X150069604Y-95647728D01*
X150000205Y-95658349D01*
X149914483Y-95584594D01*
X149824565Y-95439625D01*
X149775420Y-95328485D01*
X149679746Y-95114727D01*
X149584918Y-94983373D01*
X149472583Y-94917055D01*
X149324388Y-94898406D01*
X149320926Y-94898400D01*
X149125600Y-94898400D01*
X149125600Y-95279400D01*
X149123200Y-95474200D01*
X149112258Y-95588497D01*
X149087159Y-95643347D01*
X149042288Y-95659802D01*
X149024000Y-95660400D01*
X148987005Y-95655878D01*
X148960280Y-95632861D01*
X148942159Y-95577171D01*
X148930977Y-95474627D01*
X148925067Y-95311052D01*
X148922765Y-95072266D01*
X148922400Y-94795542D01*
X148922400Y-94034800D01*
X149125600Y-94034800D01*
X149125600Y-94695200D01*
X149381909Y-94695200D01*
X149560684Y-94683001D01*
X149682113Y-94637176D01*
X149762909Y-94570509D01*
X149848053Y-94463455D01*
X149887301Y-94370903D01*
X149887600Y-94365000D01*
X149853798Y-94276011D01*
X149771555Y-94168331D01*
X149762909Y-94159490D01*
X149656797Y-94078453D01*
X149525820Y-94041673D01*
X149381909Y-94034800D01*
X149125600Y-94034800D01*
X148922400Y-94034800D01*
X148922400Y-93930685D01*
X149062100Y-93876389D01*
X149232498Y-93844381D01*
X149447712Y-93848815D01*
X149447712Y-93848815D01*
G37*
X149447712Y-93848815D02*
X149664633Y-93884583D01*
X149840152Y-93946578D01*
X149884192Y-93973801D01*
X150019728Y-94133373D01*
X150075211Y-94332629D01*
X150041620Y-94538871D01*
X150040700Y-94541108D01*
X149988418Y-94646835D01*
X149947258Y-94696349D01*
X149944936Y-94696815D01*
X149883869Y-94725508D01*
X149815495Y-94772207D01*
X149749575Y-94836950D01*
X149765217Y-94898864D01*
X149794643Y-94935692D01*
X149857521Y-95033601D01*
X149928041Y-95178533D01*
X149995039Y-95341577D01*
X150047350Y-95493826D01*
X150073813Y-95606370D01*
X150069604Y-95647728D01*
X150000205Y-95658349D01*
X149914483Y-95584594D01*
X149824565Y-95439625D01*
X149775420Y-95328485D01*
X149679746Y-95114727D01*
X149584918Y-94983373D01*
X149472583Y-94917055D01*
X149324388Y-94898406D01*
X149320926Y-94898400D01*
X149125600Y-94898400D01*
X149125600Y-95279400D01*
X149123200Y-95474200D01*
X149112258Y-95588497D01*
X149087159Y-95643347D01*
X149042288Y-95659802D01*
X149024000Y-95660400D01*
X148987005Y-95655878D01*
X148960280Y-95632861D01*
X148942159Y-95577171D01*
X148930977Y-95474627D01*
X148925067Y-95311052D01*
X148922765Y-95072266D01*
X148922400Y-94795542D01*
X148922400Y-94034800D01*
X149125600Y-94034800D01*
X149125600Y-94695200D01*
X149381909Y-94695200D01*
X149560684Y-94683001D01*
X149682113Y-94637176D01*
X149762909Y-94570509D01*
X149848053Y-94463455D01*
X149887301Y-94370903D01*
X149887600Y-94365000D01*
X149853798Y-94276011D01*
X149771555Y-94168331D01*
X149762909Y-94159490D01*
X149656797Y-94078453D01*
X149525820Y-94041673D01*
X149381909Y-94034800D01*
X149125600Y-94034800D01*
X148922400Y-94034800D01*
X148922400Y-93930685D01*
X149062100Y-93876389D01*
X149232498Y-93844381D01*
X149447712Y-93848815D01*
G36*
X147818465Y-94403693D02*
X147844056Y-94447068D01*
X147815974Y-94519912D01*
X147715165Y-94558186D01*
X147565708Y-94613242D01*
X147446056Y-94687378D01*
X147383216Y-94749715D01*
X147342939Y-94830047D01*
X147317899Y-94954062D01*
X147300771Y-95147447D01*
X147296800Y-95210772D01*
X147280558Y-95424194D01*
X147259768Y-95555591D01*
X147229345Y-95624535D01*
X147184208Y-95650599D01*
X147182500Y-95650937D01*
X147145598Y-95649659D01*
X147120541Y-95618741D01*
X147105078Y-95542428D01*
X147096954Y-95404960D01*
X147093918Y-95190584D01*
X147093600Y-95029124D01*
X147095578Y-94757171D01*
X147102631Y-94572052D01*
X147116435Y-94459061D01*
X147138665Y-94403487D01*
X147166376Y-94390400D01*
X147238967Y-94432683D01*
X147271140Y-94491181D01*
X147297773Y-94556446D01*
X147338301Y-94560782D01*
X147425011Y-94504792D01*
X147439663Y-94494326D01*
X147590986Y-94411134D01*
X147725598Y-94379948D01*
X147818465Y-94403693D01*
X147818465Y-94403693D01*
G37*
X147818465Y-94403693D02*
X147844056Y-94447068D01*
X147815974Y-94519912D01*
X147715165Y-94558186D01*
X147565708Y-94613242D01*
X147446056Y-94687378D01*
X147383216Y-94749715D01*
X147342939Y-94830047D01*
X147317899Y-94954062D01*
X147300771Y-95147447D01*
X147296800Y-95210772D01*
X147280558Y-95424194D01*
X147259768Y-95555591D01*
X147229345Y-95624535D01*
X147184208Y-95650599D01*
X147182500Y-95650937D01*
X147145598Y-95649659D01*
X147120541Y-95618741D01*
X147105078Y-95542428D01*
X147096954Y-95404960D01*
X147093918Y-95190584D01*
X147093600Y-95029124D01*
X147095578Y-94757171D01*
X147102631Y-94572052D01*
X147116435Y-94459061D01*
X147138665Y-94403487D01*
X147166376Y-94390400D01*
X147238967Y-94432683D01*
X147271140Y-94491181D01*
X147297773Y-94556446D01*
X147338301Y-94560782D01*
X147425011Y-94504792D01*
X147439663Y-94494326D01*
X147590986Y-94411134D01*
X147725598Y-94379948D01*
X147818465Y-94403693D01*
G36*
X145498090Y-94403557D02*
X145494603Y-94461721D01*
X145459840Y-94595285D01*
X145399512Y-94785019D01*
X145319329Y-95011696D01*
X145310027Y-95036760D01*
X145211525Y-95293552D01*
X145136277Y-95468566D01*
X145076194Y-95576668D01*
X145023186Y-95632723D01*
X144975910Y-95650812D01*
X144855303Y-95620423D01*
X144790965Y-95549212D01*
X144743988Y-95454030D01*
X144675461Y-95291213D01*
X144596218Y-95089425D01*
X144517097Y-94877330D01*
X144448932Y-94683593D01*
X144402560Y-94536877D01*
X144391310Y-94492000D01*
X144417582Y-94428179D01*
X144473133Y-94415800D01*
X144522247Y-94433399D01*
X144571877Y-94495989D01*
X144629475Y-94618252D01*
X144702498Y-94814875D01*
X144756783Y-94974550D01*
X144943099Y-95533300D01*
X145119673Y-95003579D01*
X145230550Y-94702082D01*
X145329030Y-94499746D01*
X145414804Y-94397062D01*
X145487562Y-94394522D01*
X145498090Y-94403557D01*
X145498090Y-94403557D01*
G37*
X145498090Y-94403557D02*
X145494603Y-94461721D01*
X145459840Y-94595285D01*
X145399512Y-94785019D01*
X145319329Y-95011696D01*
X145310027Y-95036760D01*
X145211525Y-95293552D01*
X145136277Y-95468566D01*
X145076194Y-95576668D01*
X145023186Y-95632723D01*
X144975910Y-95650812D01*
X144855303Y-95620423D01*
X144790965Y-95549212D01*
X144743988Y-95454030D01*
X144675461Y-95291213D01*
X144596218Y-95089425D01*
X144517097Y-94877330D01*
X144448932Y-94683593D01*
X144402560Y-94536877D01*
X144391310Y-94492000D01*
X144417582Y-94428179D01*
X144473133Y-94415800D01*
X144522247Y-94433399D01*
X144571877Y-94495989D01*
X144629475Y-94618252D01*
X144702498Y-94814875D01*
X144756783Y-94974550D01*
X144943099Y-95533300D01*
X145119673Y-95003579D01*
X145230550Y-94702082D01*
X145329030Y-94499746D01*
X145414804Y-94397062D01*
X145487562Y-94394522D01*
X145498090Y-94403557D01*
G36*
X131865362Y-93910202D02*
X131948864Y-94000368D01*
X132060116Y-94163033D01*
X132195421Y-94388301D01*
X132313673Y-94588175D01*
X132414706Y-94751165D01*
X132487304Y-94859683D01*
X132519453Y-94896301D01*
X132555613Y-94855916D01*
X132630873Y-94744535D01*
X132734053Y-94579448D01*
X132847935Y-94388305D01*
X132984164Y-94161190D01*
X133084497Y-94011643D01*
X133159348Y-93926799D01*
X133219130Y-93893793D01*
X133248882Y-93893005D01*
X133286550Y-93902937D01*
X133313747Y-93929920D01*
X133332172Y-93988406D01*
X133343528Y-94092849D01*
X133349516Y-94257704D01*
X133351838Y-94497424D01*
X133352200Y-94770704D01*
X133351348Y-95087323D01*
X133347833Y-95316639D01*
X133340209Y-95472937D01*
X133327034Y-95570508D01*
X133306864Y-95623638D01*
X133278256Y-95646617D01*
X133263300Y-95650729D01*
X133228362Y-95649702D01*
X133203932Y-95620999D01*
X133188140Y-95549767D01*
X133179117Y-95421154D01*
X133174994Y-95220306D01*
X133173909Y-94940224D01*
X133173418Y-94212600D01*
X132909138Y-94655798D01*
X132790912Y-94845336D01*
X132684489Y-95000293D01*
X132604326Y-95100421D01*
X132572990Y-95126574D01*
X132504531Y-95132237D01*
X132430773Y-95088316D01*
X132341079Y-94983286D01*
X132224812Y-94805623D01*
X132131197Y-94647880D01*
X131908022Y-94263400D01*
X131893511Y-94948572D01*
X131886278Y-95227030D01*
X131876850Y-95419832D01*
X131862877Y-95542921D01*
X131842013Y-95612240D01*
X131811909Y-95643733D01*
X131790100Y-95650797D01*
X131758089Y-95649934D01*
X131734806Y-95624199D01*
X131718876Y-95560073D01*
X131708927Y-95444033D01*
X131703587Y-95262558D01*
X131701483Y-95002127D01*
X131701200Y-94775124D01*
X131701720Y-94454403D01*
X131704330Y-94221330D01*
X131710599Y-94061954D01*
X131722099Y-93962324D01*
X131740400Y-93908490D01*
X131767073Y-93886500D01*
X131801721Y-93882400D01*
X131865362Y-93910202D01*
X131865362Y-93910202D01*
G37*
X131865362Y-93910202D02*
X131948864Y-94000368D01*
X132060116Y-94163033D01*
X132195421Y-94388301D01*
X132313673Y-94588175D01*
X132414706Y-94751165D01*
X132487304Y-94859683D01*
X132519453Y-94896301D01*
X132555613Y-94855916D01*
X132630873Y-94744535D01*
X132734053Y-94579448D01*
X132847935Y-94388305D01*
X132984164Y-94161190D01*
X133084497Y-94011643D01*
X133159348Y-93926799D01*
X133219130Y-93893793D01*
X133248882Y-93893005D01*
X133286550Y-93902937D01*
X133313747Y-93929920D01*
X133332172Y-93988406D01*
X133343528Y-94092849D01*
X133349516Y-94257704D01*
X133351838Y-94497424D01*
X133352200Y-94770704D01*
X133351348Y-95087323D01*
X133347833Y-95316639D01*
X133340209Y-95472937D01*
X133327034Y-95570508D01*
X133306864Y-95623638D01*
X133278256Y-95646617D01*
X133263300Y-95650729D01*
X133228362Y-95649702D01*
X133203932Y-95620999D01*
X133188140Y-95549767D01*
X133179117Y-95421154D01*
X133174994Y-95220306D01*
X133173909Y-94940224D01*
X133173418Y-94212600D01*
X132909138Y-94655798D01*
X132790912Y-94845336D01*
X132684489Y-95000293D01*
X132604326Y-95100421D01*
X132572990Y-95126574D01*
X132504531Y-95132237D01*
X132430773Y-95088316D01*
X132341079Y-94983286D01*
X132224812Y-94805623D01*
X132131197Y-94647880D01*
X131908022Y-94263400D01*
X131893511Y-94948572D01*
X131886278Y-95227030D01*
X131876850Y-95419832D01*
X131862877Y-95542921D01*
X131842013Y-95612240D01*
X131811909Y-95643733D01*
X131790100Y-95650797D01*
X131758089Y-95649934D01*
X131734806Y-95624199D01*
X131718876Y-95560073D01*
X131708927Y-95444033D01*
X131703587Y-95262558D01*
X131701483Y-95002127D01*
X131701200Y-94775124D01*
X131701720Y-94454403D01*
X131704330Y-94221330D01*
X131710599Y-94061954D01*
X131722099Y-93962324D01*
X131740400Y-93908490D01*
X131767073Y-93886500D01*
X131801721Y-93882400D01*
X131865362Y-93910202D01*
G36*
X130424725Y-93842060D02*
X130447846Y-93867421D01*
X130463780Y-93930651D01*
X130473844Y-94045094D01*
X130479354Y-94224096D01*
X130481627Y-94481002D01*
X130482000Y-94742275D01*
X130480987Y-95072666D01*
X130477208Y-95314582D01*
X130469551Y-95481133D01*
X130456907Y-95585431D01*
X130438164Y-95640587D01*
X130412211Y-95659711D01*
X130404205Y-95660400D01*
X130320215Y-95623627D01*
X130301295Y-95594949D01*
X130293675Y-95524141D01*
X130288707Y-95370319D01*
X130286619Y-95152040D01*
X130287642Y-94887863D01*
X130290190Y-94693895D01*
X130296367Y-94382534D01*
X130304002Y-94158305D01*
X130314838Y-94006744D01*
X130330623Y-93913383D01*
X130353102Y-93863757D01*
X130384022Y-93843399D01*
X130393100Y-93841221D01*
X130424725Y-93842060D01*
X130424725Y-93842060D01*
G37*
X130424725Y-93842060D02*
X130447846Y-93867421D01*
X130463780Y-93930651D01*
X130473844Y-94045094D01*
X130479354Y-94224096D01*
X130481627Y-94481002D01*
X130482000Y-94742275D01*
X130480987Y-95072666D01*
X130477208Y-95314582D01*
X130469551Y-95481133D01*
X130456907Y-95585431D01*
X130438164Y-95640587D01*
X130412211Y-95659711D01*
X130404205Y-95660400D01*
X130320215Y-95623627D01*
X130301295Y-95594949D01*
X130293675Y-95524141D01*
X130288707Y-95370319D01*
X130286619Y-95152040D01*
X130287642Y-94887863D01*
X130290190Y-94693895D01*
X130296367Y-94382534D01*
X130304002Y-94158305D01*
X130314838Y-94006744D01*
X130330623Y-93913383D01*
X130353102Y-93863757D01*
X130384022Y-93843399D01*
X130393100Y-93841221D01*
X130424725Y-93842060D01*
G36*
X124092191Y-93891566D02*
X124166091Y-93930722D01*
X124260859Y-94035726D01*
X124384395Y-94216472D01*
X124490467Y-94390400D01*
X124608198Y-94584597D01*
X124708568Y-94741450D01*
X124779843Y-94843171D01*
X124808760Y-94873000D01*
X124846626Y-94832239D01*
X124924424Y-94721693D01*
X125030263Y-94558962D01*
X125134824Y-94390400D01*
X125283391Y-94156278D01*
X125395717Y-94004332D01*
X125479511Y-93925136D01*
X125529438Y-93907800D01*
X125566156Y-93912681D01*
X125593074Y-93936708D01*
X125612039Y-93993950D01*
X125624899Y-94098479D01*
X125633502Y-94264365D01*
X125639695Y-94505681D01*
X125644499Y-94784100D01*
X125649044Y-95101292D01*
X125650140Y-95330996D01*
X125646382Y-95487304D01*
X125636363Y-95584306D01*
X125618676Y-95636094D01*
X125591916Y-95656760D01*
X125557033Y-95660400D01*
X125516476Y-95654574D01*
X125487932Y-95626613D01*
X125468801Y-95560789D01*
X125456482Y-95441376D01*
X125448374Y-95252646D01*
X125441878Y-94978873D01*
X125441533Y-94961900D01*
X125427400Y-94263400D01*
X125178664Y-94686947D01*
X125064119Y-94872541D01*
X124960787Y-95023097D01*
X124883589Y-95117662D01*
X124857225Y-95138394D01*
X124793260Y-95141750D01*
X124721190Y-95095773D01*
X124630935Y-94989239D01*
X124512414Y-94810920D01*
X124407006Y-94636990D01*
X124185920Y-94264116D01*
X124171660Y-94948931D01*
X124164529Y-95227296D01*
X124155171Y-95420011D01*
X124141243Y-95543024D01*
X124120399Y-95612285D01*
X124090296Y-95643744D01*
X124068500Y-95650797D01*
X124036544Y-95649936D01*
X124013283Y-95624254D01*
X123997352Y-95560254D01*
X123987387Y-95444439D01*
X123982023Y-95263314D01*
X123979895Y-95003382D01*
X123979600Y-94771591D01*
X123979600Y-93875333D01*
X124092191Y-93891566D01*
X124092191Y-93891566D01*
G37*
X124092191Y-93891566D02*
X124166091Y-93930722D01*
X124260859Y-94035726D01*
X124384395Y-94216472D01*
X124490467Y-94390400D01*
X124608198Y-94584597D01*
X124708568Y-94741450D01*
X124779843Y-94843171D01*
X124808760Y-94873000D01*
X124846626Y-94832239D01*
X124924424Y-94721693D01*
X125030263Y-94558962D01*
X125134824Y-94390400D01*
X125283391Y-94156278D01*
X125395717Y-94004332D01*
X125479511Y-93925136D01*
X125529438Y-93907800D01*
X125566156Y-93912681D01*
X125593074Y-93936708D01*
X125612039Y-93993950D01*
X125624899Y-94098479D01*
X125633502Y-94264365D01*
X125639695Y-94505681D01*
X125644499Y-94784100D01*
X125649044Y-95101292D01*
X125650140Y-95330996D01*
X125646382Y-95487304D01*
X125636363Y-95584306D01*
X125618676Y-95636094D01*
X125591916Y-95656760D01*
X125557033Y-95660400D01*
X125516476Y-95654574D01*
X125487932Y-95626613D01*
X125468801Y-95560789D01*
X125456482Y-95441376D01*
X125448374Y-95252646D01*
X125441878Y-94978873D01*
X125441533Y-94961900D01*
X125427400Y-94263400D01*
X125178664Y-94686947D01*
X125064119Y-94872541D01*
X124960787Y-95023097D01*
X124883589Y-95117662D01*
X124857225Y-95138394D01*
X124793260Y-95141750D01*
X124721190Y-95095773D01*
X124630935Y-94989239D01*
X124512414Y-94810920D01*
X124407006Y-94636990D01*
X124185920Y-94264116D01*
X124171660Y-94948931D01*
X124164529Y-95227296D01*
X124155171Y-95420011D01*
X124141243Y-95543024D01*
X124120399Y-95612285D01*
X124090296Y-95643744D01*
X124068500Y-95650797D01*
X124036544Y-95649936D01*
X124013283Y-95624254D01*
X123997352Y-95560254D01*
X123987387Y-95444439D01*
X123982023Y-95263314D01*
X123979895Y-95003382D01*
X123979600Y-94771591D01*
X123979600Y-93875333D01*
X124092191Y-93891566D01*
G36*
X121285805Y-93889869D02*
X121297881Y-93891566D01*
X121372117Y-93931152D01*
X121467229Y-94037264D01*
X121591059Y-94219739D01*
X121691581Y-94385519D01*
X121808765Y-94579423D01*
X121909266Y-94736428D01*
X121981089Y-94838365D01*
X122010185Y-94868119D01*
X122049863Y-94829345D01*
X122129097Y-94720455D01*
X122235843Y-94558855D01*
X122340824Y-94390400D01*
X122489391Y-94156278D01*
X122601717Y-94004332D01*
X122685511Y-93925136D01*
X122735438Y-93907800D01*
X122772156Y-93912681D01*
X122799074Y-93936708D01*
X122818039Y-93993950D01*
X122830899Y-94098479D01*
X122839502Y-94264365D01*
X122845695Y-94505681D01*
X122850499Y-94784100D01*
X122855044Y-95101292D01*
X122856140Y-95330996D01*
X122852382Y-95487304D01*
X122842363Y-95584306D01*
X122824676Y-95636094D01*
X122797916Y-95656760D01*
X122763033Y-95660400D01*
X122722476Y-95654574D01*
X122693932Y-95626613D01*
X122674801Y-95560789D01*
X122662482Y-95441376D01*
X122654374Y-95252646D01*
X122647878Y-94978873D01*
X122647533Y-94961900D01*
X122633400Y-94263400D01*
X122384664Y-94686947D01*
X122270119Y-94872541D01*
X122166787Y-95023097D01*
X122089589Y-95117662D01*
X122063225Y-95138394D01*
X121999260Y-95141750D01*
X121927190Y-95095773D01*
X121836935Y-94989239D01*
X121718414Y-94810920D01*
X121613006Y-94636990D01*
X121391920Y-94264116D01*
X121377660Y-94948931D01*
X121370529Y-95227296D01*
X121361171Y-95420011D01*
X121347243Y-95543024D01*
X121326399Y-95612285D01*
X121296296Y-95643744D01*
X121274500Y-95650797D01*
X121242544Y-95649936D01*
X121219283Y-95624254D01*
X121203352Y-95560254D01*
X121193387Y-95444439D01*
X121188023Y-95263314D01*
X121185895Y-95003382D01*
X121185600Y-94771591D01*
X121185895Y-94450527D01*
X121187948Y-94217351D01*
X121193507Y-94058351D01*
X121204323Y-93959815D01*
X121222145Y-93908031D01*
X121248722Y-93889286D01*
X121285805Y-93889869D01*
X121285805Y-93889869D01*
G37*
X121285805Y-93889869D02*
X121297881Y-93891566D01*
X121372117Y-93931152D01*
X121467229Y-94037264D01*
X121591059Y-94219739D01*
X121691581Y-94385519D01*
X121808765Y-94579423D01*
X121909266Y-94736428D01*
X121981089Y-94838365D01*
X122010185Y-94868119D01*
X122049863Y-94829345D01*
X122129097Y-94720455D01*
X122235843Y-94558855D01*
X122340824Y-94390400D01*
X122489391Y-94156278D01*
X122601717Y-94004332D01*
X122685511Y-93925136D01*
X122735438Y-93907800D01*
X122772156Y-93912681D01*
X122799074Y-93936708D01*
X122818039Y-93993950D01*
X122830899Y-94098479D01*
X122839502Y-94264365D01*
X122845695Y-94505681D01*
X122850499Y-94784100D01*
X122855044Y-95101292D01*
X122856140Y-95330996D01*
X122852382Y-95487304D01*
X122842363Y-95584306D01*
X122824676Y-95636094D01*
X122797916Y-95656760D01*
X122763033Y-95660400D01*
X122722476Y-95654574D01*
X122693932Y-95626613D01*
X122674801Y-95560789D01*
X122662482Y-95441376D01*
X122654374Y-95252646D01*
X122647878Y-94978873D01*
X122647533Y-94961900D01*
X122633400Y-94263400D01*
X122384664Y-94686947D01*
X122270119Y-94872541D01*
X122166787Y-95023097D01*
X122089589Y-95117662D01*
X122063225Y-95138394D01*
X121999260Y-95141750D01*
X121927190Y-95095773D01*
X121836935Y-94989239D01*
X121718414Y-94810920D01*
X121613006Y-94636990D01*
X121391920Y-94264116D01*
X121377660Y-94948931D01*
X121370529Y-95227296D01*
X121361171Y-95420011D01*
X121347243Y-95543024D01*
X121326399Y-95612285D01*
X121296296Y-95643744D01*
X121274500Y-95650797D01*
X121242544Y-95649936D01*
X121219283Y-95624254D01*
X121203352Y-95560254D01*
X121193387Y-95444439D01*
X121188023Y-95263314D01*
X121185895Y-95003382D01*
X121185600Y-94771591D01*
X121185895Y-94450527D01*
X121187948Y-94217351D01*
X121193507Y-94058351D01*
X121204323Y-93959815D01*
X121222145Y-93908031D01*
X121248722Y-93889286D01*
X121285805Y-93889869D01*
G36*
X119165230Y-93912329D02*
X119191969Y-93935380D01*
X119210089Y-93991147D01*
X119221260Y-94093826D01*
X119227154Y-94257610D01*
X119229442Y-94496695D01*
X119229800Y-94770704D01*
X119228952Y-95087291D01*
X119225445Y-95316578D01*
X119217833Y-95472858D01*
X119204670Y-95570424D01*
X119184508Y-95623568D01*
X119155902Y-95646584D01*
X119140746Y-95650758D01*
X119052560Y-95632529D01*
X119025102Y-95598615D01*
X119016879Y-95526134D01*
X119011476Y-95371094D01*
X119009162Y-95152506D01*
X119010210Y-94889378D01*
X119012555Y-94718560D01*
X119018454Y-94414981D01*
X119025347Y-94198372D01*
X119035321Y-94054111D01*
X119050462Y-93967576D01*
X119072855Y-93924142D01*
X119104585Y-93909187D01*
X119128200Y-93907800D01*
X119165230Y-93912329D01*
X119165230Y-93912329D01*
G37*
X119165230Y-93912329D02*
X119191969Y-93935380D01*
X119210089Y-93991147D01*
X119221260Y-94093826D01*
X119227154Y-94257610D01*
X119229442Y-94496695D01*
X119229800Y-94770704D01*
X119228952Y-95087291D01*
X119225445Y-95316578D01*
X119217833Y-95472858D01*
X119204670Y-95570424D01*
X119184508Y-95623568D01*
X119155902Y-95646584D01*
X119140746Y-95650758D01*
X119052560Y-95632529D01*
X119025102Y-95598615D01*
X119016879Y-95526134D01*
X119011476Y-95371094D01*
X119009162Y-95152506D01*
X119010210Y-94889378D01*
X119012555Y-94718560D01*
X119018454Y-94414981D01*
X119025347Y-94198372D01*
X119035321Y-94054111D01*
X119050462Y-93967576D01*
X119072855Y-93924142D01*
X119104585Y-93909187D01*
X119128200Y-93907800D01*
X119165230Y-93912329D01*
G36*
X174575950Y-94411900D02*
X174741719Y-94532042D01*
X174860055Y-94724672D01*
X174909252Y-94882293D01*
X174907077Y-94989419D01*
X174841956Y-95055379D01*
X174702315Y-95089500D01*
X174476581Y-95101111D01*
X174392379Y-95101600D01*
X174162504Y-95106791D01*
X174024563Y-95127895D01*
X173969178Y-95173203D01*
X173986968Y-95251009D01*
X174068555Y-95369605D01*
X174077021Y-95380422D01*
X174147118Y-95458869D01*
X174220119Y-95497151D01*
X174330063Y-95504754D01*
X174483421Y-95493690D01*
X174657395Y-95483583D01*
X174749933Y-95495026D01*
X174779411Y-95530596D01*
X174779600Y-95535219D01*
X174767013Y-95596098D01*
X174713325Y-95634908D01*
X174594643Y-95663957D01*
X174500200Y-95679159D01*
X174283114Y-95679492D01*
X174144600Y-95641159D01*
X173936843Y-95498307D01*
X173809167Y-95295771D01*
X173764352Y-95039806D01*
X173781555Y-94857178D01*
X173966800Y-94857178D01*
X173978435Y-94904240D01*
X174027000Y-94932004D01*
X174132978Y-94945348D01*
X174316855Y-94949151D01*
X174353235Y-94949200D01*
X174549542Y-94946455D01*
X174662419Y-94935497D01*
X174709949Y-94912239D01*
X174710216Y-94872595D01*
X174708835Y-94868845D01*
X174681497Y-94774427D01*
X174678000Y-94745473D01*
X174632876Y-94654404D01*
X174520075Y-94580281D01*
X174373450Y-94543779D01*
X174346150Y-94542800D01*
X174181722Y-94580685D01*
X174047132Y-94677487D01*
X173972885Y-94807924D01*
X173966800Y-94857178D01*
X173781555Y-94857178D01*
X173784047Y-94830732D01*
X173866434Y-94618032D01*
X174008138Y-94467697D01*
X174187840Y-94381829D01*
X174384217Y-94362530D01*
X174575950Y-94411900D01*
X174575950Y-94411900D01*
G37*
X174575950Y-94411900D02*
X174741719Y-94532042D01*
X174860055Y-94724672D01*
X174909252Y-94882293D01*
X174907077Y-94989419D01*
X174841956Y-95055379D01*
X174702315Y-95089500D01*
X174476581Y-95101111D01*
X174392379Y-95101600D01*
X174162504Y-95106791D01*
X174024563Y-95127895D01*
X173969178Y-95173203D01*
X173986968Y-95251009D01*
X174068555Y-95369605D01*
X174077021Y-95380422D01*
X174147118Y-95458869D01*
X174220119Y-95497151D01*
X174330063Y-95504754D01*
X174483421Y-95493690D01*
X174657395Y-95483583D01*
X174749933Y-95495026D01*
X174779411Y-95530596D01*
X174779600Y-95535219D01*
X174767013Y-95596098D01*
X174713325Y-95634908D01*
X174594643Y-95663957D01*
X174500200Y-95679159D01*
X174283114Y-95679492D01*
X174144600Y-95641159D01*
X173936843Y-95498307D01*
X173809167Y-95295771D01*
X173764352Y-95039806D01*
X173781555Y-94857178D01*
X173966800Y-94857178D01*
X173978435Y-94904240D01*
X174027000Y-94932004D01*
X174132978Y-94945348D01*
X174316855Y-94949151D01*
X174353235Y-94949200D01*
X174549542Y-94946455D01*
X174662419Y-94935497D01*
X174709949Y-94912239D01*
X174710216Y-94872595D01*
X174708835Y-94868845D01*
X174681497Y-94774427D01*
X174678000Y-94745473D01*
X174632876Y-94654404D01*
X174520075Y-94580281D01*
X174373450Y-94543779D01*
X174346150Y-94542800D01*
X174181722Y-94580685D01*
X174047132Y-94677487D01*
X173972885Y-94807924D01*
X173966800Y-94857178D01*
X173781555Y-94857178D01*
X173784047Y-94830732D01*
X173866434Y-94618032D01*
X174008138Y-94467697D01*
X174187840Y-94381829D01*
X174384217Y-94362530D01*
X174575950Y-94411900D01*
G36*
X171797371Y-94429770D02*
X171962787Y-94564608D01*
X172079892Y-94764748D01*
X172122403Y-94936381D01*
X172112428Y-95190820D01*
X172020989Y-95408182D01*
X171863665Y-95573610D01*
X171656032Y-95672245D01*
X171413669Y-95689226D01*
X171344897Y-95678012D01*
X171171975Y-95593504D01*
X171039322Y-95437731D01*
X170954529Y-95235631D01*
X170926931Y-95025400D01*
X171122000Y-95025400D01*
X171157621Y-95253881D01*
X171260139Y-95413796D01*
X171423035Y-95497324D01*
X171524213Y-95508000D01*
X171713592Y-95473196D01*
X171812626Y-95401066D01*
X171880128Y-95280987D01*
X171907791Y-95100691D01*
X171909400Y-95025400D01*
X171883887Y-94790597D01*
X171803387Y-94637326D01*
X171661956Y-94558139D01*
X171524213Y-94542800D01*
X171333790Y-94585540D01*
X171200511Y-94708547D01*
X171130897Y-94904000D01*
X171122000Y-95025400D01*
X170926931Y-95025400D01*
X170925190Y-95012141D01*
X170958895Y-94792200D01*
X171030231Y-94644400D01*
X171200075Y-94467550D01*
X171397134Y-94376193D01*
X171602527Y-94365283D01*
X171797371Y-94429770D01*
X171797371Y-94429770D01*
G37*
X171797371Y-94429770D02*
X171962787Y-94564608D01*
X172079892Y-94764748D01*
X172122403Y-94936381D01*
X172112428Y-95190820D01*
X172020989Y-95408182D01*
X171863665Y-95573610D01*
X171656032Y-95672245D01*
X171413669Y-95689226D01*
X171344897Y-95678012D01*
X171171975Y-95593504D01*
X171039322Y-95437731D01*
X170954529Y-95235631D01*
X170926931Y-95025400D01*
X171122000Y-95025400D01*
X171157621Y-95253881D01*
X171260139Y-95413796D01*
X171423035Y-95497324D01*
X171524213Y-95508000D01*
X171713592Y-95473196D01*
X171812626Y-95401066D01*
X171880128Y-95280987D01*
X171907791Y-95100691D01*
X171909400Y-95025400D01*
X171883887Y-94790597D01*
X171803387Y-94637326D01*
X171661956Y-94558139D01*
X171524213Y-94542800D01*
X171333790Y-94585540D01*
X171200511Y-94708547D01*
X171130897Y-94904000D01*
X171122000Y-95025400D01*
X170926931Y-95025400D01*
X170925190Y-95012141D01*
X170958895Y-94792200D01*
X171030231Y-94644400D01*
X171200075Y-94467550D01*
X171397134Y-94376193D01*
X171602527Y-94365283D01*
X171797371Y-94429770D01*
G36*
X169092394Y-94042793D02*
X169125699Y-94169786D01*
X169131020Y-94225738D01*
X169146641Y-94441200D01*
X169372320Y-94441200D01*
X169521932Y-94451424D01*
X169589429Y-94486104D01*
X169598000Y-94517400D01*
X169568323Y-94567430D01*
X169467251Y-94590362D01*
X169367422Y-94593600D01*
X169136844Y-94593600D01*
X169166200Y-95482600D01*
X169356700Y-95498366D01*
X169489890Y-95529627D01*
X169546080Y-95583473D01*
X169517725Y-95642007D01*
X169432900Y-95679181D01*
X169296376Y-95706356D01*
X169190799Y-95690834D01*
X169090000Y-95645659D01*
X169030357Y-95608821D01*
X168991304Y-95556400D01*
X168966770Y-95466671D01*
X168950683Y-95317908D01*
X168937600Y-95100308D01*
X168924871Y-94877100D01*
X168910902Y-94735700D01*
X168889168Y-94656450D01*
X168853146Y-94619696D01*
X168796310Y-94605783D01*
X168772500Y-94602925D01*
X168670992Y-94569389D01*
X168632800Y-94517400D01*
X168676764Y-94461877D01*
X168772500Y-94431874D01*
X168861433Y-94410451D01*
X168905772Y-94353275D01*
X168925385Y-94230298D01*
X168927973Y-94196767D01*
X168946496Y-94057265D01*
X168982240Y-93998002D01*
X169029573Y-93994005D01*
X169092394Y-94042793D01*
X169092394Y-94042793D01*
G37*
X169092394Y-94042793D02*
X169125699Y-94169786D01*
X169131020Y-94225738D01*
X169146641Y-94441200D01*
X169372320Y-94441200D01*
X169521932Y-94451424D01*
X169589429Y-94486104D01*
X169598000Y-94517400D01*
X169568323Y-94567430D01*
X169467251Y-94590362D01*
X169367422Y-94593600D01*
X169136844Y-94593600D01*
X169166200Y-95482600D01*
X169356700Y-95498366D01*
X169489890Y-95529627D01*
X169546080Y-95583473D01*
X169517725Y-95642007D01*
X169432900Y-95679181D01*
X169296376Y-95706356D01*
X169190799Y-95690834D01*
X169090000Y-95645659D01*
X169030357Y-95608821D01*
X168991304Y-95556400D01*
X168966770Y-95466671D01*
X168950683Y-95317908D01*
X168937600Y-95100308D01*
X168924871Y-94877100D01*
X168910902Y-94735700D01*
X168889168Y-94656450D01*
X168853146Y-94619696D01*
X168796310Y-94605783D01*
X168772500Y-94602925D01*
X168670992Y-94569389D01*
X168632800Y-94517400D01*
X168676764Y-94461877D01*
X168772500Y-94431874D01*
X168861433Y-94410451D01*
X168905772Y-94353275D01*
X168925385Y-94230298D01*
X168927973Y-94196767D01*
X168946496Y-94057265D01*
X168982240Y-93998002D01*
X169029573Y-93994005D01*
X169092394Y-94042793D01*
G36*
X166696446Y-94401369D02*
X166884711Y-94511537D01*
X167022381Y-94691009D01*
X167036843Y-94722919D01*
X167099938Y-94979410D01*
X167079586Y-95220974D01*
X166984602Y-95429437D01*
X166823798Y-95586625D01*
X166605990Y-95674363D01*
X166572744Y-95679890D01*
X166424069Y-95687843D01*
X166315697Y-95678012D01*
X166212644Y-95627576D01*
X166090853Y-95530923D01*
X166061697Y-95502048D01*
X165979769Y-95404740D01*
X165935507Y-95306575D01*
X165917713Y-95170988D01*
X165915044Y-95025400D01*
X166092800Y-95025400D01*
X166128421Y-95253881D01*
X166230939Y-95413796D01*
X166393835Y-95497324D01*
X166495013Y-95508000D01*
X166667302Y-95480423D01*
X166765072Y-95419100D01*
X166849115Y-95264612D01*
X166882652Y-95072492D01*
X166868176Y-94875218D01*
X166808182Y-94705268D01*
X166705161Y-94595123D01*
X166701671Y-94593210D01*
X166509293Y-94536888D01*
X166336098Y-94570469D01*
X166198511Y-94682294D01*
X166112958Y-94860703D01*
X166092800Y-95025400D01*
X165915044Y-95025400D01*
X165915000Y-95023041D01*
X165919704Y-94838188D01*
X165941964Y-94717973D01*
X165993997Y-94625577D01*
X166076843Y-94535310D01*
X166267634Y-94408394D01*
X166482461Y-94365367D01*
X166696446Y-94401369D01*
X166696446Y-94401369D01*
G37*
X166696446Y-94401369D02*
X166884711Y-94511537D01*
X167022381Y-94691009D01*
X167036843Y-94722919D01*
X167099938Y-94979410D01*
X167079586Y-95220974D01*
X166984602Y-95429437D01*
X166823798Y-95586625D01*
X166605990Y-95674363D01*
X166572744Y-95679890D01*
X166424069Y-95687843D01*
X166315697Y-95678012D01*
X166212644Y-95627576D01*
X166090853Y-95530923D01*
X166061697Y-95502048D01*
X165979769Y-95404740D01*
X165935507Y-95306575D01*
X165917713Y-95170988D01*
X165915044Y-95025400D01*
X166092800Y-95025400D01*
X166128421Y-95253881D01*
X166230939Y-95413796D01*
X166393835Y-95497324D01*
X166495013Y-95508000D01*
X166667302Y-95480423D01*
X166765072Y-95419100D01*
X166849115Y-95264612D01*
X166882652Y-95072492D01*
X166868176Y-94875218D01*
X166808182Y-94705268D01*
X166705161Y-94595123D01*
X166701671Y-94593210D01*
X166509293Y-94536888D01*
X166336098Y-94570469D01*
X166198511Y-94682294D01*
X166112958Y-94860703D01*
X166092800Y-95025400D01*
X165915044Y-95025400D01*
X165915000Y-95023041D01*
X165919704Y-94838188D01*
X165941964Y-94717973D01*
X165993997Y-94625577D01*
X166076843Y-94535310D01*
X166267634Y-94408394D01*
X166482461Y-94365367D01*
X166696446Y-94401369D01*
G36*
X165237892Y-93861266D02*
X165417515Y-93891776D01*
X165563869Y-93940550D01*
X165649512Y-94001997D01*
X165661000Y-94034800D01*
X165621892Y-94091588D01*
X165534000Y-94095252D01*
X165399546Y-94078339D01*
X165230332Y-94056764D01*
X165197486Y-94052544D01*
X164954569Y-94065277D01*
X164750324Y-94159799D01*
X164594247Y-94320577D01*
X164495831Y-94532082D01*
X164464571Y-94778782D01*
X164509962Y-95045145D01*
X164540343Y-95127519D01*
X164668528Y-95312062D01*
X164860261Y-95440435D01*
X165088937Y-95503324D01*
X165327951Y-95491411D01*
X165456787Y-95448417D01*
X165576956Y-95415343D01*
X165642408Y-95443688D01*
X165660115Y-95509316D01*
X165597113Y-95572200D01*
X165474242Y-95626359D01*
X165312342Y-95665814D01*
X165132253Y-95684587D01*
X164954813Y-95676699D01*
X164879838Y-95662475D01*
X164621118Y-95550189D01*
X164426022Y-95363487D01*
X164301952Y-95112581D01*
X164256310Y-94807682D01*
X164256257Y-94802285D01*
X164289488Y-94472935D01*
X164395943Y-94213277D01*
X164577281Y-94020885D01*
X164835159Y-93893333D01*
X164888609Y-93877407D01*
X165052442Y-93854612D01*
X165237892Y-93861266D01*
X165237892Y-93861266D01*
G37*
X165237892Y-93861266D02*
X165417515Y-93891776D01*
X165563869Y-93940550D01*
X165649512Y-94001997D01*
X165661000Y-94034800D01*
X165621892Y-94091588D01*
X165534000Y-94095252D01*
X165399546Y-94078339D01*
X165230332Y-94056764D01*
X165197486Y-94052544D01*
X164954569Y-94065277D01*
X164750324Y-94159799D01*
X164594247Y-94320577D01*
X164495831Y-94532082D01*
X164464571Y-94778782D01*
X164509962Y-95045145D01*
X164540343Y-95127519D01*
X164668528Y-95312062D01*
X164860261Y-95440435D01*
X165088937Y-95503324D01*
X165327951Y-95491411D01*
X165456787Y-95448417D01*
X165576956Y-95415343D01*
X165642408Y-95443688D01*
X165660115Y-95509316D01*
X165597113Y-95572200D01*
X165474242Y-95626359D01*
X165312342Y-95665814D01*
X165132253Y-95684587D01*
X164954813Y-95676699D01*
X164879838Y-95662475D01*
X164621118Y-95550189D01*
X164426022Y-95363487D01*
X164301952Y-95112581D01*
X164256310Y-94807682D01*
X164256257Y-94802285D01*
X164289488Y-94472935D01*
X164395943Y-94213277D01*
X164577281Y-94020885D01*
X164835159Y-93893333D01*
X164888609Y-93877407D01*
X165052442Y-93854612D01*
X165237892Y-93861266D01*
G36*
X162752691Y-93998957D02*
X162782715Y-94061065D01*
X162790761Y-94196177D01*
X162790800Y-94212600D01*
X162790800Y-94441200D01*
X163019400Y-94441200D01*
X163170073Y-94451172D01*
X163238704Y-94485080D01*
X163248000Y-94517400D01*
X163218323Y-94567430D01*
X163117251Y-94590362D01*
X163017422Y-94593600D01*
X162786844Y-94593600D01*
X162816200Y-95482600D01*
X163015429Y-95508000D01*
X163163539Y-95542651D01*
X163227335Y-95590778D01*
X163201665Y-95640754D01*
X163091234Y-95679053D01*
X162963027Y-95702120D01*
X162884671Y-95703136D01*
X162806727Y-95681589D01*
X162790800Y-95675945D01*
X162697111Y-95621497D01*
X162635995Y-95526161D01*
X162601673Y-95371977D01*
X162588365Y-95140980D01*
X162587600Y-95044464D01*
X162586401Y-94831566D01*
X162578974Y-94699701D01*
X162559573Y-94628301D01*
X162522451Y-94596799D01*
X162461861Y-94584630D01*
X162459020Y-94584274D01*
X162347672Y-94550107D01*
X162326221Y-94501250D01*
X162396503Y-94459783D01*
X162447900Y-94450525D01*
X162534700Y-94431286D01*
X162575377Y-94380358D01*
X162587133Y-94268027D01*
X162587600Y-94209225D01*
X162594457Y-94067660D01*
X162622837Y-94001253D01*
X162684456Y-93984035D01*
X162689200Y-93984000D01*
X162752691Y-93998957D01*
X162752691Y-93998957D01*
G37*
X162752691Y-93998957D02*
X162782715Y-94061065D01*
X162790761Y-94196177D01*
X162790800Y-94212600D01*
X162790800Y-94441200D01*
X163019400Y-94441200D01*
X163170073Y-94451172D01*
X163238704Y-94485080D01*
X163248000Y-94517400D01*
X163218323Y-94567430D01*
X163117251Y-94590362D01*
X163017422Y-94593600D01*
X162786844Y-94593600D01*
X162816200Y-95482600D01*
X163015429Y-95508000D01*
X163163539Y-95542651D01*
X163227335Y-95590778D01*
X163201665Y-95640754D01*
X163091234Y-95679053D01*
X162963027Y-95702120D01*
X162884671Y-95703136D01*
X162806727Y-95681589D01*
X162790800Y-95675945D01*
X162697111Y-95621497D01*
X162635995Y-95526161D01*
X162601673Y-95371977D01*
X162588365Y-95140980D01*
X162587600Y-95044464D01*
X162586401Y-94831566D01*
X162578974Y-94699701D01*
X162559573Y-94628301D01*
X162522451Y-94596799D01*
X162461861Y-94584630D01*
X162459020Y-94584274D01*
X162347672Y-94550107D01*
X162326221Y-94501250D01*
X162396503Y-94459783D01*
X162447900Y-94450525D01*
X162534700Y-94431286D01*
X162575377Y-94380358D01*
X162587133Y-94268027D01*
X162587600Y-94209225D01*
X162594457Y-94067660D01*
X162622837Y-94001253D01*
X162684456Y-93984035D01*
X162689200Y-93984000D01*
X162752691Y-93998957D01*
G36*
X160278946Y-94357315D02*
X160409394Y-94408935D01*
X160432848Y-94420278D01*
X160588035Y-94523319D01*
X160681869Y-94668082D01*
X160703737Y-94725475D01*
X160751071Y-94885825D01*
X160752928Y-94993034D01*
X160696594Y-95057615D01*
X160569360Y-95090081D01*
X160358512Y-95100947D01*
X160248971Y-95101600D01*
X160031476Y-95102592D01*
X159897570Y-95108771D01*
X159829239Y-95124933D01*
X159808473Y-95155879D01*
X159817259Y-95206408D01*
X159819991Y-95215900D01*
X159907248Y-95379326D01*
X160058328Y-95473099D01*
X160281423Y-95501636D01*
X160345949Y-95499306D01*
X160525575Y-95501276D01*
X160626942Y-95527900D01*
X160643682Y-95571083D01*
X160569429Y-95622726D01*
X160469847Y-95656859D01*
X160291998Y-95699151D01*
X160163373Y-95703035D01*
X160037950Y-95665468D01*
X159946000Y-95622221D01*
X159758003Y-95474856D01*
X159640468Y-95265823D01*
X159603643Y-95015288D01*
X159607442Y-94956096D01*
X159624175Y-94892788D01*
X159808772Y-94892788D01*
X159827027Y-94926850D01*
X159895658Y-94943397D01*
X160033967Y-94948743D01*
X160171176Y-94949200D01*
X160368503Y-94946310D01*
X160484726Y-94934445D01*
X160540256Y-94908810D01*
X160555504Y-94864611D01*
X160555600Y-94858903D01*
X160510818Y-94696991D01*
X160389571Y-94585735D01*
X160211501Y-94542845D01*
X160204992Y-94542800D01*
X160013741Y-94580350D01*
X159883083Y-94697341D01*
X159821585Y-94834900D01*
X159808772Y-94892788D01*
X159624175Y-94892788D01*
X159674752Y-94701436D01*
X159818354Y-94513742D01*
X160031050Y-94394878D01*
X160171564Y-94353813D01*
X160278946Y-94357315D01*
X160278946Y-94357315D01*
G37*
X160278946Y-94357315D02*
X160409394Y-94408935D01*
X160432848Y-94420278D01*
X160588035Y-94523319D01*
X160681869Y-94668082D01*
X160703737Y-94725475D01*
X160751071Y-94885825D01*
X160752928Y-94993034D01*
X160696594Y-95057615D01*
X160569360Y-95090081D01*
X160358512Y-95100947D01*
X160248971Y-95101600D01*
X160031476Y-95102592D01*
X159897570Y-95108771D01*
X159829239Y-95124933D01*
X159808473Y-95155879D01*
X159817259Y-95206408D01*
X159819991Y-95215900D01*
X159907248Y-95379326D01*
X160058328Y-95473099D01*
X160281423Y-95501636D01*
X160345949Y-95499306D01*
X160525575Y-95501276D01*
X160626942Y-95527900D01*
X160643682Y-95571083D01*
X160569429Y-95622726D01*
X160469847Y-95656859D01*
X160291998Y-95699151D01*
X160163373Y-95703035D01*
X160037950Y-95665468D01*
X159946000Y-95622221D01*
X159758003Y-95474856D01*
X159640468Y-95265823D01*
X159603643Y-95015288D01*
X159607442Y-94956096D01*
X159624175Y-94892788D01*
X159808772Y-94892788D01*
X159827027Y-94926850D01*
X159895658Y-94943397D01*
X160033967Y-94948743D01*
X160171176Y-94949200D01*
X160368503Y-94946310D01*
X160484726Y-94934445D01*
X160540256Y-94908810D01*
X160555504Y-94864611D01*
X160555600Y-94858903D01*
X160510818Y-94696991D01*
X160389571Y-94585735D01*
X160211501Y-94542845D01*
X160204992Y-94542800D01*
X160013741Y-94580350D01*
X159883083Y-94697341D01*
X159821585Y-94834900D01*
X159808772Y-94892788D01*
X159624175Y-94892788D01*
X159674752Y-94701436D01*
X159818354Y-94513742D01*
X160031050Y-94394878D01*
X160171564Y-94353813D01*
X160278946Y-94357315D01*
G36*
X156976946Y-94357315D02*
X157107394Y-94408935D01*
X157130848Y-94420278D01*
X157286035Y-94523319D01*
X157379869Y-94668082D01*
X157401737Y-94725475D01*
X157449071Y-94885825D01*
X157450928Y-94993034D01*
X157394594Y-95057615D01*
X157267360Y-95090081D01*
X157056512Y-95100947D01*
X156946971Y-95101600D01*
X156729487Y-95102579D01*
X156595657Y-95108717D01*
X156527534Y-95124813D01*
X156507170Y-95155667D01*
X156516621Y-95206078D01*
X156519585Y-95215900D01*
X156591511Y-95376821D01*
X156700102Y-95467600D01*
X156867727Y-95501247D01*
X157006927Y-95499368D01*
X157208524Y-95495461D01*
X157315080Y-95513666D01*
X157331057Y-95555572D01*
X157290407Y-95600132D01*
X157142559Y-95668309D01*
X156946898Y-95690010D01*
X156746786Y-95663588D01*
X156644000Y-95624663D01*
X156455061Y-95473927D01*
X156337564Y-95262379D01*
X156301802Y-95010348D01*
X156305442Y-94956096D01*
X156325629Y-94879718D01*
X156494058Y-94879718D01*
X156552937Y-94925400D01*
X156697185Y-94945554D01*
X156872600Y-94949200D01*
X157067400Y-94946800D01*
X157181697Y-94935858D01*
X157236547Y-94910759D01*
X157253002Y-94865888D01*
X157253600Y-94847600D01*
X157210657Y-94703407D01*
X157100433Y-94602006D01*
X156950830Y-94550660D01*
X156789754Y-94556632D01*
X156645107Y-94627186D01*
X156596887Y-94676650D01*
X156511669Y-94799728D01*
X156494058Y-94879718D01*
X156325629Y-94879718D01*
X156372752Y-94701436D01*
X156516354Y-94513742D01*
X156729050Y-94394878D01*
X156869564Y-94353813D01*
X156976946Y-94357315D01*
X156976946Y-94357315D01*
G37*
X156976946Y-94357315D02*
X157107394Y-94408935D01*
X157130848Y-94420278D01*
X157286035Y-94523319D01*
X157379869Y-94668082D01*
X157401737Y-94725475D01*
X157449071Y-94885825D01*
X157450928Y-94993034D01*
X157394594Y-95057615D01*
X157267360Y-95090081D01*
X157056512Y-95100947D01*
X156946971Y-95101600D01*
X156729487Y-95102579D01*
X156595657Y-95108717D01*
X156527534Y-95124813D01*
X156507170Y-95155667D01*
X156516621Y-95206078D01*
X156519585Y-95215900D01*
X156591511Y-95376821D01*
X156700102Y-95467600D01*
X156867727Y-95501247D01*
X157006927Y-95499368D01*
X157208524Y-95495461D01*
X157315080Y-95513666D01*
X157331057Y-95555572D01*
X157290407Y-95600132D01*
X157142559Y-95668309D01*
X156946898Y-95690010D01*
X156746786Y-95663588D01*
X156644000Y-95624663D01*
X156455061Y-95473927D01*
X156337564Y-95262379D01*
X156301802Y-95010348D01*
X156305442Y-94956096D01*
X156325629Y-94879718D01*
X156494058Y-94879718D01*
X156552937Y-94925400D01*
X156697185Y-94945554D01*
X156872600Y-94949200D01*
X157067400Y-94946800D01*
X157181697Y-94935858D01*
X157236547Y-94910759D01*
X157253002Y-94865888D01*
X157253600Y-94847600D01*
X157210657Y-94703407D01*
X157100433Y-94602006D01*
X156950830Y-94550660D01*
X156789754Y-94556632D01*
X156645107Y-94627186D01*
X156596887Y-94676650D01*
X156511669Y-94799728D01*
X156494058Y-94879718D01*
X156325629Y-94879718D01*
X156372752Y-94701436D01*
X156516354Y-94513742D01*
X156729050Y-94394878D01*
X156869564Y-94353813D01*
X156976946Y-94357315D01*
G36*
X155827220Y-94377580D02*
X155959804Y-94423671D01*
X156023281Y-94497360D01*
X156023740Y-94499564D01*
X156015345Y-94543514D01*
X155953856Y-94561645D01*
X155818512Y-94558346D01*
X155765224Y-94554236D01*
X155601214Y-94545855D01*
X155501215Y-94562688D01*
X155428616Y-94615896D01*
X155382106Y-94671032D01*
X155288435Y-94872102D01*
X155272400Y-95025399D01*
X155314254Y-95262096D01*
X155382106Y-95379767D01*
X155456345Y-95460935D01*
X155535777Y-95498576D01*
X155657273Y-95504012D01*
X155763106Y-95496738D01*
X155922178Y-95488224D01*
X156004238Y-95500448D01*
X156032736Y-95538962D01*
X156034400Y-95560970D01*
X155986577Y-95638717D01*
X155875650Y-95679450D01*
X155727077Y-95703908D01*
X155617078Y-95699083D01*
X155491608Y-95659197D01*
X155422230Y-95630989D01*
X155229892Y-95500928D01*
X155112052Y-95302332D01*
X155069528Y-95036628D01*
X155069389Y-95017561D01*
X155106034Y-94747822D01*
X155214141Y-94547290D01*
X155391674Y-94419129D01*
X155472326Y-94391281D01*
X155654928Y-94364858D01*
X155827220Y-94377580D01*
X155827220Y-94377580D01*
G37*
X155827220Y-94377580D02*
X155959804Y-94423671D01*
X156023281Y-94497360D01*
X156023740Y-94499564D01*
X156015345Y-94543514D01*
X155953856Y-94561645D01*
X155818512Y-94558346D01*
X155765224Y-94554236D01*
X155601214Y-94545855D01*
X155501215Y-94562688D01*
X155428616Y-94615896D01*
X155382106Y-94671032D01*
X155288435Y-94872102D01*
X155272400Y-95025399D01*
X155314254Y-95262096D01*
X155382106Y-95379767D01*
X155456345Y-95460935D01*
X155535777Y-95498576D01*
X155657273Y-95504012D01*
X155763106Y-95496738D01*
X155922178Y-95488224D01*
X156004238Y-95500448D01*
X156032736Y-95538962D01*
X156034400Y-95560970D01*
X155986577Y-95638717D01*
X155875650Y-95679450D01*
X155727077Y-95703908D01*
X155617078Y-95699083D01*
X155491608Y-95659197D01*
X155422230Y-95630989D01*
X155229892Y-95500928D01*
X155112052Y-95302332D01*
X155069528Y-95036628D01*
X155069389Y-95017561D01*
X155106034Y-94747822D01*
X155214141Y-94547290D01*
X155391674Y-94419129D01*
X155472326Y-94391281D01*
X155654928Y-94364858D01*
X155827220Y-94377580D01*
G36*
X154508057Y-94386972D02*
X154624303Y-94431085D01*
X154634535Y-94438822D01*
X154721919Y-94570352D01*
X154781406Y-94792819D01*
X154811430Y-95099029D01*
X154814916Y-95266700D01*
X154811439Y-95470627D01*
X154798205Y-95591736D01*
X154771551Y-95648625D01*
X154737405Y-95660400D01*
X154652519Y-95621394D01*
X154633017Y-95591097D01*
X154598367Y-95554713D01*
X154523907Y-95568435D01*
X154420670Y-95616497D01*
X154250357Y-95689826D01*
X154118828Y-95703914D01*
X153984275Y-95661384D01*
X153952443Y-95645871D01*
X153819522Y-95527297D01*
X153762181Y-95360426D01*
X153763814Y-95349564D01*
X153965134Y-95349564D01*
X154013890Y-95467697D01*
X154093686Y-95520501D01*
X154224429Y-95516468D01*
X154375176Y-95471341D01*
X154490095Y-95402973D01*
X154502519Y-95389758D01*
X154543588Y-95298360D01*
X154568968Y-95177800D01*
X154567993Y-95066453D01*
X154516645Y-95018696D01*
X154471418Y-95009051D01*
X154317110Y-95015029D01*
X154157368Y-95062376D01*
X154030012Y-95136031D01*
X153976003Y-95206338D01*
X153965134Y-95349564D01*
X153763814Y-95349564D01*
X153790161Y-95174342D01*
X153792552Y-95168448D01*
X153884278Y-95022372D01*
X154027683Y-94927724D01*
X154243667Y-94872224D01*
X154312562Y-94862895D01*
X154480163Y-94838586D01*
X154564472Y-94806054D01*
X154583508Y-94749412D01*
X154555291Y-94652772D01*
X154554191Y-94649851D01*
X154522968Y-94584972D01*
X154474385Y-94551804D01*
X154382253Y-94544006D01*
X154220386Y-94555238D01*
X154179155Y-94559040D01*
X153997189Y-94571915D01*
X153895552Y-94566086D01*
X153854261Y-94538969D01*
X153850000Y-94516456D01*
X153895577Y-94453413D01*
X154013055Y-94406085D01*
X154173550Y-94377330D01*
X154348178Y-94370007D01*
X154508057Y-94386972D01*
X154508057Y-94386972D01*
G37*
X154508057Y-94386972D02*
X154624303Y-94431085D01*
X154634535Y-94438822D01*
X154721919Y-94570352D01*
X154781406Y-94792819D01*
X154811430Y-95099029D01*
X154814916Y-95266700D01*
X154811439Y-95470627D01*
X154798205Y-95591736D01*
X154771551Y-95648625D01*
X154737405Y-95660400D01*
X154652519Y-95621394D01*
X154633017Y-95591097D01*
X154598367Y-95554713D01*
X154523907Y-95568435D01*
X154420670Y-95616497D01*
X154250357Y-95689826D01*
X154118828Y-95703914D01*
X153984275Y-95661384D01*
X153952443Y-95645871D01*
X153819522Y-95527297D01*
X153762181Y-95360426D01*
X153763814Y-95349564D01*
X153965134Y-95349564D01*
X154013890Y-95467697D01*
X154093686Y-95520501D01*
X154224429Y-95516468D01*
X154375176Y-95471341D01*
X154490095Y-95402973D01*
X154502519Y-95389758D01*
X154543588Y-95298360D01*
X154568968Y-95177800D01*
X154567993Y-95066453D01*
X154516645Y-95018696D01*
X154471418Y-95009051D01*
X154317110Y-95015029D01*
X154157368Y-95062376D01*
X154030012Y-95136031D01*
X153976003Y-95206338D01*
X153965134Y-95349564D01*
X153763814Y-95349564D01*
X153790161Y-95174342D01*
X153792552Y-95168448D01*
X153884278Y-95022372D01*
X154027683Y-94927724D01*
X154243667Y-94872224D01*
X154312562Y-94862895D01*
X154480163Y-94838586D01*
X154564472Y-94806054D01*
X154583508Y-94749412D01*
X154555291Y-94652772D01*
X154554191Y-94649851D01*
X154522968Y-94584972D01*
X154474385Y-94551804D01*
X154382253Y-94544006D01*
X154220386Y-94555238D01*
X154179155Y-94559040D01*
X153997189Y-94571915D01*
X153895552Y-94566086D01*
X153854261Y-94538969D01*
X153850000Y-94516456D01*
X153895577Y-94453413D01*
X154013055Y-94406085D01*
X154173550Y-94377330D01*
X154348178Y-94370007D01*
X154508057Y-94386972D01*
G36*
X151083942Y-94413353D02*
X151247733Y-94551865D01*
X151354256Y-94771372D01*
X151356801Y-94780395D01*
X151384163Y-94919117D01*
X151366171Y-95011598D01*
X151289248Y-95066833D01*
X151139820Y-95093815D01*
X150904310Y-95101539D01*
X150871979Y-95101600D01*
X150662839Y-95103900D01*
X150535570Y-95113662D01*
X150470494Y-95135173D01*
X150447932Y-95172722D01*
X150446400Y-95194344D01*
X150481481Y-95291496D01*
X150566441Y-95399780D01*
X150571723Y-95404824D01*
X150658824Y-95472905D01*
X150753448Y-95502315D01*
X150893545Y-95501341D01*
X150978123Y-95493550D01*
X151145551Y-95482063D01*
X151232771Y-95493631D01*
X151259131Y-95531044D01*
X151259200Y-95534072D01*
X151246789Y-95595559D01*
X151193605Y-95634627D01*
X151075716Y-95663700D01*
X150979800Y-95679159D01*
X150762714Y-95679492D01*
X150624200Y-95641159D01*
X150429768Y-95518750D01*
X150312836Y-95351207D01*
X150259393Y-95117436D01*
X150256888Y-95088112D01*
X150269949Y-94847600D01*
X150446400Y-94847600D01*
X150455282Y-94899253D01*
X150495875Y-94929705D01*
X150589097Y-94944454D01*
X150755867Y-94949001D01*
X150832835Y-94949200D01*
X151029142Y-94946455D01*
X151142019Y-94935497D01*
X151189549Y-94912239D01*
X151189816Y-94872595D01*
X151188435Y-94868845D01*
X151161097Y-94774427D01*
X151157600Y-94745473D01*
X151112422Y-94654291D01*
X150999274Y-94580272D01*
X150851736Y-94543803D01*
X150823771Y-94542799D01*
X150652502Y-94579925D01*
X150518508Y-94676107D01*
X150450005Y-94808552D01*
X150446400Y-94847600D01*
X150269949Y-94847600D01*
X150272039Y-94809126D01*
X150362305Y-94593631D01*
X150525331Y-94446003D01*
X150626707Y-94401209D01*
X150873420Y-94361310D01*
X151083942Y-94413353D01*
X151083942Y-94413353D01*
G37*
X151083942Y-94413353D02*
X151247733Y-94551865D01*
X151354256Y-94771372D01*
X151356801Y-94780395D01*
X151384163Y-94919117D01*
X151366171Y-95011598D01*
X151289248Y-95066833D01*
X151139820Y-95093815D01*
X150904310Y-95101539D01*
X150871979Y-95101600D01*
X150662839Y-95103900D01*
X150535570Y-95113662D01*
X150470494Y-95135173D01*
X150447932Y-95172722D01*
X150446400Y-95194344D01*
X150481481Y-95291496D01*
X150566441Y-95399780D01*
X150571723Y-95404824D01*
X150658824Y-95472905D01*
X150753448Y-95502315D01*
X150893545Y-95501341D01*
X150978123Y-95493550D01*
X151145551Y-95482063D01*
X151232771Y-95493631D01*
X151259131Y-95531044D01*
X151259200Y-95534072D01*
X151246789Y-95595559D01*
X151193605Y-95634627D01*
X151075716Y-95663700D01*
X150979800Y-95679159D01*
X150762714Y-95679492D01*
X150624200Y-95641159D01*
X150429768Y-95518750D01*
X150312836Y-95351207D01*
X150259393Y-95117436D01*
X150256888Y-95088112D01*
X150269949Y-94847600D01*
X150446400Y-94847600D01*
X150455282Y-94899253D01*
X150495875Y-94929705D01*
X150589097Y-94944454D01*
X150755867Y-94949001D01*
X150832835Y-94949200D01*
X151029142Y-94946455D01*
X151142019Y-94935497D01*
X151189549Y-94912239D01*
X151189816Y-94872595D01*
X151188435Y-94868845D01*
X151161097Y-94774427D01*
X151157600Y-94745473D01*
X151112422Y-94654291D01*
X150999274Y-94580272D01*
X150851736Y-94543803D01*
X150823771Y-94542799D01*
X150652502Y-94579925D01*
X150518508Y-94676107D01*
X150450005Y-94808552D01*
X150446400Y-94847600D01*
X150269949Y-94847600D01*
X150272039Y-94809126D01*
X150362305Y-94593631D01*
X150525331Y-94446003D01*
X150626707Y-94401209D01*
X150873420Y-94361310D01*
X151083942Y-94413353D01*
G36*
X146399702Y-94389350D02*
X146444042Y-94406473D01*
X146626492Y-94511735D01*
X146725560Y-94652343D01*
X146759008Y-94854028D01*
X146759220Y-94863071D01*
X146763400Y-95076200D01*
X146318900Y-95090877D01*
X146104773Y-95099993D01*
X145972785Y-95113395D01*
X145903479Y-95136086D01*
X145877397Y-95173070D01*
X145874400Y-95205177D01*
X145908780Y-95312265D01*
X145982468Y-95412868D01*
X146059185Y-95474067D01*
X146151246Y-95501336D01*
X146292824Y-95501487D01*
X146388868Y-95493886D01*
X146563153Y-95483586D01*
X146656246Y-95494538D01*
X146686839Y-95529369D01*
X146687200Y-95535829D01*
X146641879Y-95599306D01*
X146527796Y-95652524D01*
X146377772Y-95687128D01*
X146224628Y-95694763D01*
X146128400Y-95678074D01*
X145901687Y-95571002D01*
X145757279Y-95418548D01*
X145684831Y-95205709D01*
X145671389Y-95015222D01*
X145692877Y-94858903D01*
X145874400Y-94858903D01*
X145887484Y-94906748D01*
X145940787Y-94934174D01*
X146055383Y-94946534D01*
X146230000Y-94949200D01*
X146418418Y-94945877D01*
X146526428Y-94932342D01*
X146575103Y-94903243D01*
X146585600Y-94858903D01*
X146541006Y-94696629D01*
X146419394Y-94585881D01*
X146239015Y-94542882D01*
X146230000Y-94542800D01*
X146047450Y-94582440D01*
X145922864Y-94690544D01*
X145874492Y-94850889D01*
X145874400Y-94858903D01*
X145692877Y-94858903D01*
X145708282Y-94746848D01*
X145816777Y-94546714D01*
X145994309Y-94418802D01*
X146073425Y-94391524D01*
X146248992Y-94362492D01*
X146399702Y-94389350D01*
X146399702Y-94389350D01*
G37*
X146399702Y-94389350D02*
X146444042Y-94406473D01*
X146626492Y-94511735D01*
X146725560Y-94652343D01*
X146759008Y-94854028D01*
X146759220Y-94863071D01*
X146763400Y-95076200D01*
X146318900Y-95090877D01*
X146104773Y-95099993D01*
X145972785Y-95113395D01*
X145903479Y-95136086D01*
X145877397Y-95173070D01*
X145874400Y-95205177D01*
X145908780Y-95312265D01*
X145982468Y-95412868D01*
X146059185Y-95474067D01*
X146151246Y-95501336D01*
X146292824Y-95501487D01*
X146388868Y-95493886D01*
X146563153Y-95483586D01*
X146656246Y-95494538D01*
X146686839Y-95529369D01*
X146687200Y-95535829D01*
X146641879Y-95599306D01*
X146527796Y-95652524D01*
X146377772Y-95687128D01*
X146224628Y-95694763D01*
X146128400Y-95678074D01*
X145901687Y-95571002D01*
X145757279Y-95418548D01*
X145684831Y-95205709D01*
X145671389Y-95015222D01*
X145692877Y-94858903D01*
X145874400Y-94858903D01*
X145887484Y-94906748D01*
X145940787Y-94934174D01*
X146055383Y-94946534D01*
X146230000Y-94949200D01*
X146418418Y-94945877D01*
X146526428Y-94932342D01*
X146575103Y-94903243D01*
X146585600Y-94858903D01*
X146541006Y-94696629D01*
X146419394Y-94585881D01*
X146239015Y-94542882D01*
X146230000Y-94542800D01*
X146047450Y-94582440D01*
X145922864Y-94690544D01*
X145874492Y-94850889D01*
X145874400Y-94858903D01*
X145692877Y-94858903D01*
X145708282Y-94746848D01*
X145816777Y-94546714D01*
X145994309Y-94418802D01*
X146073425Y-94391524D01*
X146248992Y-94362492D01*
X146399702Y-94389350D01*
G36*
X143733667Y-94374262D02*
X143901569Y-94403348D01*
X144031902Y-94460593D01*
X144060565Y-94484387D01*
X144111156Y-94546998D01*
X144145231Y-94628897D01*
X144167232Y-94752169D01*
X144181597Y-94938897D01*
X144189783Y-95127132D01*
X144196940Y-95366852D01*
X144195736Y-95522598D01*
X144184083Y-95611801D01*
X144159896Y-95651896D01*
X144125967Y-95660400D01*
X144038397Y-95623875D01*
X144015817Y-95591097D01*
X143981167Y-95554713D01*
X143906707Y-95568435D01*
X143803470Y-95616497D01*
X143633157Y-95689826D01*
X143501628Y-95703914D01*
X143367075Y-95661384D01*
X143335243Y-95645871D01*
X143201252Y-95527644D01*
X143142733Y-95365233D01*
X143154601Y-95289412D01*
X143346388Y-95289412D01*
X143353167Y-95372660D01*
X143424349Y-95480101D01*
X143548931Y-95528580D01*
X143695994Y-95515810D01*
X143834614Y-95439507D01*
X143864156Y-95410425D01*
X143929572Y-95299486D01*
X143976585Y-95154573D01*
X143976644Y-95154275D01*
X144010496Y-94985017D01*
X143768358Y-95012309D01*
X143549978Y-95064887D01*
X143406066Y-95160081D01*
X143346388Y-95289412D01*
X143154601Y-95289412D01*
X143169919Y-95191561D01*
X143184706Y-95161641D01*
X143316414Y-95015908D01*
X143512902Y-94906505D01*
X143739076Y-94851118D01*
X143807723Y-94847678D01*
X143931836Y-94841876D01*
X143977964Y-94813309D01*
X143969556Y-94745031D01*
X143965976Y-94733300D01*
X143917764Y-94628055D01*
X143839896Y-94571410D01*
X143708376Y-94554198D01*
X143524900Y-94564791D01*
X143355631Y-94575619D01*
X143265613Y-94565585D01*
X143234017Y-94531325D01*
X143232800Y-94517588D01*
X143277764Y-94444998D01*
X143394444Y-94396182D01*
X143555519Y-94372238D01*
X143733667Y-94374262D01*
X143733667Y-94374262D01*
G37*
X143733667Y-94374262D02*
X143901569Y-94403348D01*
X144031902Y-94460593D01*
X144060565Y-94484387D01*
X144111156Y-94546998D01*
X144145231Y-94628897D01*
X144167232Y-94752169D01*
X144181597Y-94938897D01*
X144189783Y-95127132D01*
X144196940Y-95366852D01*
X144195736Y-95522598D01*
X144184083Y-95611801D01*
X144159896Y-95651896D01*
X144125967Y-95660400D01*
X144038397Y-95623875D01*
X144015817Y-95591097D01*
X143981167Y-95554713D01*
X143906707Y-95568435D01*
X143803470Y-95616497D01*
X143633157Y-95689826D01*
X143501628Y-95703914D01*
X143367075Y-95661384D01*
X143335243Y-95645871D01*
X143201252Y-95527644D01*
X143142733Y-95365233D01*
X143154601Y-95289412D01*
X143346388Y-95289412D01*
X143353167Y-95372660D01*
X143424349Y-95480101D01*
X143548931Y-95528580D01*
X143695994Y-95515810D01*
X143834614Y-95439507D01*
X143864156Y-95410425D01*
X143929572Y-95299486D01*
X143976585Y-95154573D01*
X143976644Y-95154275D01*
X144010496Y-94985017D01*
X143768358Y-95012309D01*
X143549978Y-95064887D01*
X143406066Y-95160081D01*
X143346388Y-95289412D01*
X143154601Y-95289412D01*
X143169919Y-95191561D01*
X143184706Y-95161641D01*
X143316414Y-95015908D01*
X143512902Y-94906505D01*
X143739076Y-94851118D01*
X143807723Y-94847678D01*
X143931836Y-94841876D01*
X143977964Y-94813309D01*
X143969556Y-94745031D01*
X143965976Y-94733300D01*
X143917764Y-94628055D01*
X143839896Y-94571410D01*
X143708376Y-94554198D01*
X143524900Y-94564791D01*
X143355631Y-94575619D01*
X143265613Y-94565585D01*
X143234017Y-94531325D01*
X143232800Y-94517588D01*
X143277764Y-94444998D01*
X143394444Y-94396182D01*
X143555519Y-94372238D01*
X143733667Y-94374262D01*
G36*
X142566678Y-93870836D02*
X142750704Y-93920506D01*
X142768432Y-93929363D01*
X142850621Y-93993164D01*
X142841710Y-94040049D01*
X142751647Y-94063665D01*
X142590381Y-94057657D01*
X142571333Y-94055263D01*
X142317186Y-94040544D01*
X142145951Y-94076521D01*
X142051507Y-94164947D01*
X142035454Y-94208642D01*
X142036158Y-94369310D01*
X142129181Y-94501404D01*
X142318015Y-94609455D01*
X142355920Y-94624281D01*
X142583305Y-94718688D01*
X142732553Y-94808501D01*
X142824947Y-94910068D01*
X142876885Y-95024446D01*
X142906482Y-95243920D01*
X142850596Y-95430220D01*
X142722647Y-95573406D01*
X142536058Y-95663541D01*
X142304253Y-95690688D01*
X142040653Y-95644907D01*
X142039404Y-95644517D01*
X141889537Y-95575412D01*
X141819682Y-95492146D01*
X141818380Y-95486520D01*
X141821105Y-95421009D01*
X141884025Y-95418403D01*
X141919576Y-95428300D01*
X142044711Y-95456934D01*
X142213563Y-95484576D01*
X142271092Y-95491943D01*
X142475352Y-95488124D01*
X142605558Y-95416840D01*
X142667177Y-95273863D01*
X142674000Y-95180391D01*
X142662255Y-95059143D01*
X142613604Y-94972578D01*
X142507918Y-94900247D01*
X142325070Y-94821702D01*
X142318400Y-94819120D01*
X142144702Y-94735259D01*
X141986829Y-94632381D01*
X141947753Y-94599640D01*
X141837269Y-94437104D01*
X141812976Y-94253354D01*
X141873423Y-94077462D01*
X141979467Y-93963678D01*
X142137819Y-93894303D01*
X142347970Y-93862728D01*
X142566678Y-93870836D01*
X142566678Y-93870836D01*
G37*
X142566678Y-93870836D02*
X142750704Y-93920506D01*
X142768432Y-93929363D01*
X142850621Y-93993164D01*
X142841710Y-94040049D01*
X142751647Y-94063665D01*
X142590381Y-94057657D01*
X142571333Y-94055263D01*
X142317186Y-94040544D01*
X142145951Y-94076521D01*
X142051507Y-94164947D01*
X142035454Y-94208642D01*
X142036158Y-94369310D01*
X142129181Y-94501404D01*
X142318015Y-94609455D01*
X142355920Y-94624281D01*
X142583305Y-94718688D01*
X142732553Y-94808501D01*
X142824947Y-94910068D01*
X142876885Y-95024446D01*
X142906482Y-95243920D01*
X142850596Y-95430220D01*
X142722647Y-95573406D01*
X142536058Y-95663541D01*
X142304253Y-95690688D01*
X142040653Y-95644907D01*
X142039404Y-95644517D01*
X141889537Y-95575412D01*
X141819682Y-95492146D01*
X141818380Y-95486520D01*
X141821105Y-95421009D01*
X141884025Y-95418403D01*
X141919576Y-95428300D01*
X142044711Y-95456934D01*
X142213563Y-95484576D01*
X142271092Y-95491943D01*
X142475352Y-95488124D01*
X142605558Y-95416840D01*
X142667177Y-95273863D01*
X142674000Y-95180391D01*
X142662255Y-95059143D01*
X142613604Y-94972578D01*
X142507918Y-94900247D01*
X142325070Y-94821702D01*
X142318400Y-94819120D01*
X142144702Y-94735259D01*
X141986829Y-94632381D01*
X141947753Y-94599640D01*
X141837269Y-94437104D01*
X141812976Y-94253354D01*
X141873423Y-94077462D01*
X141979467Y-93963678D01*
X142137819Y-93894303D01*
X142347970Y-93862728D01*
X142566678Y-93870836D01*
G36*
X140490409Y-94402641D02*
X140664175Y-94508944D01*
X140786214Y-94668346D01*
X140835448Y-94866533D01*
X140833619Y-94923800D01*
X140819800Y-95076200D01*
X140375300Y-95090877D01*
X140161173Y-95099993D01*
X140029185Y-95113395D01*
X139959879Y-95136086D01*
X139933797Y-95173070D01*
X139930800Y-95205177D01*
X139965189Y-95312854D01*
X140036807Y-95410807D01*
X140120143Y-95473685D01*
X140227284Y-95501230D01*
X140393651Y-95501529D01*
X140426180Y-95499707D01*
X140607873Y-95501273D01*
X140711802Y-95527156D01*
X140731525Y-95569574D01*
X140660601Y-95620742D01*
X140556247Y-95656859D01*
X140408803Y-95694173D01*
X140304451Y-95702085D01*
X140188968Y-95680393D01*
X140098873Y-95655136D01*
X139910170Y-95551030D01*
X139781025Y-95371194D01*
X139718182Y-95126691D01*
X139713085Y-95022225D01*
X139735298Y-94830073D01*
X139930800Y-94830073D01*
X139937065Y-94892363D01*
X139970584Y-94928019D01*
X140053439Y-94944440D01*
X140207713Y-94949023D01*
X140286400Y-94949200D01*
X140474818Y-94945877D01*
X140582828Y-94932342D01*
X140631503Y-94903243D01*
X140642000Y-94858903D01*
X140596928Y-94697742D01*
X140476475Y-94585551D01*
X140302780Y-94542807D01*
X140300219Y-94542800D01*
X140113201Y-94578072D01*
X139983898Y-94674124D01*
X139931149Y-94816305D01*
X139930800Y-94830073D01*
X139735298Y-94830073D01*
X139743285Y-94760989D01*
X139838979Y-94570168D01*
X140007807Y-94436656D01*
X140072009Y-94406589D01*
X140285995Y-94363751D01*
X140490409Y-94402641D01*
X140490409Y-94402641D01*
G37*
X140490409Y-94402641D02*
X140664175Y-94508944D01*
X140786214Y-94668346D01*
X140835448Y-94866533D01*
X140833619Y-94923800D01*
X140819800Y-95076200D01*
X140375300Y-95090877D01*
X140161173Y-95099993D01*
X140029185Y-95113395D01*
X139959879Y-95136086D01*
X139933797Y-95173070D01*
X139930800Y-95205177D01*
X139965189Y-95312854D01*
X140036807Y-95410807D01*
X140120143Y-95473685D01*
X140227284Y-95501230D01*
X140393651Y-95501529D01*
X140426180Y-95499707D01*
X140607873Y-95501273D01*
X140711802Y-95527156D01*
X140731525Y-95569574D01*
X140660601Y-95620742D01*
X140556247Y-95656859D01*
X140408803Y-95694173D01*
X140304451Y-95702085D01*
X140188968Y-95680393D01*
X140098873Y-95655136D01*
X139910170Y-95551030D01*
X139781025Y-95371194D01*
X139718182Y-95126691D01*
X139713085Y-95022225D01*
X139735298Y-94830073D01*
X139930800Y-94830073D01*
X139937065Y-94892363D01*
X139970584Y-94928019D01*
X140053439Y-94944440D01*
X140207713Y-94949023D01*
X140286400Y-94949200D01*
X140474818Y-94945877D01*
X140582828Y-94932342D01*
X140631503Y-94903243D01*
X140642000Y-94858903D01*
X140596928Y-94697742D01*
X140476475Y-94585551D01*
X140302780Y-94542807D01*
X140300219Y-94542800D01*
X140113201Y-94578072D01*
X139983898Y-94674124D01*
X139931149Y-94816305D01*
X139930800Y-94830073D01*
X139735298Y-94830073D01*
X139743285Y-94760989D01*
X139838979Y-94570168D01*
X140007807Y-94436656D01*
X140072009Y-94406589D01*
X140285995Y-94363751D01*
X140490409Y-94402641D01*
G36*
X139238503Y-94378946D02*
X139371580Y-94414640D01*
X139443122Y-94471893D01*
X139448200Y-94494082D01*
X139424866Y-94537740D01*
X139341371Y-94555121D01*
X139183698Y-94550992D01*
X139015001Y-94547843D01*
X138905209Y-94573776D01*
X138813125Y-94640510D01*
X138789998Y-94662983D01*
X138701123Y-94781314D01*
X138664648Y-94926411D01*
X138660800Y-95025400D01*
X138677118Y-95202146D01*
X138737292Y-95328163D01*
X138789998Y-95387816D01*
X138883852Y-95465650D01*
X138985890Y-95499974D01*
X139137309Y-95502505D01*
X139183698Y-95499807D01*
X139345021Y-95495881D01*
X139426463Y-95514046D01*
X139448200Y-95556509D01*
X139403493Y-95632181D01*
X139288125Y-95680271D01*
X139130224Y-95696929D01*
X138957918Y-95678305D01*
X138838600Y-95639952D01*
X138651465Y-95526357D01*
X138535922Y-95371524D01*
X138477506Y-95152780D01*
X138468041Y-95059167D01*
X138461441Y-94881825D01*
X138480498Y-94763867D01*
X138535595Y-94664231D01*
X138582945Y-94604830D01*
X138727438Y-94479644D01*
X138894369Y-94397231D01*
X138905808Y-94394016D01*
X139073407Y-94370257D01*
X139238503Y-94378946D01*
X139238503Y-94378946D01*
G37*
X139238503Y-94378946D02*
X139371580Y-94414640D01*
X139443122Y-94471893D01*
X139448200Y-94494082D01*
X139424866Y-94537740D01*
X139341371Y-94555121D01*
X139183698Y-94550992D01*
X139015001Y-94547843D01*
X138905209Y-94573776D01*
X138813125Y-94640510D01*
X138789998Y-94662983D01*
X138701123Y-94781314D01*
X138664648Y-94926411D01*
X138660800Y-95025400D01*
X138677118Y-95202146D01*
X138737292Y-95328163D01*
X138789998Y-95387816D01*
X138883852Y-95465650D01*
X138985890Y-95499974D01*
X139137309Y-95502505D01*
X139183698Y-95499807D01*
X139345021Y-95495881D01*
X139426463Y-95514046D01*
X139448200Y-95556509D01*
X139403493Y-95632181D01*
X139288125Y-95680271D01*
X139130224Y-95696929D01*
X138957918Y-95678305D01*
X138838600Y-95639952D01*
X138651465Y-95526357D01*
X138535922Y-95371524D01*
X138477506Y-95152780D01*
X138468041Y-95059167D01*
X138461441Y-94881825D01*
X138480498Y-94763867D01*
X138535595Y-94664231D01*
X138582945Y-94604830D01*
X138727438Y-94479644D01*
X138894369Y-94397231D01*
X138905808Y-94394016D01*
X139073407Y-94370257D01*
X139238503Y-94378946D01*
G36*
X137739376Y-94374375D02*
X137907564Y-94403812D01*
X138038398Y-94461454D01*
X138067443Y-94485549D01*
X138118456Y-94547913D01*
X138152560Y-94628059D01*
X138174182Y-94748199D01*
X138187749Y-94930547D01*
X138195524Y-95128294D01*
X138201534Y-95368102D01*
X138199421Y-95523841D01*
X138187061Y-95612866D01*
X138162333Y-95652530D01*
X138130429Y-95660400D01*
X138043386Y-95623410D01*
X138021417Y-95591097D01*
X137986767Y-95554713D01*
X137912307Y-95568435D01*
X137809070Y-95616497D01*
X137639957Y-95689109D01*
X137508999Y-95701586D01*
X137373596Y-95655447D01*
X137331458Y-95633522D01*
X137205603Y-95513508D01*
X137153399Y-95349771D01*
X137161353Y-95302513D01*
X137340000Y-95302513D01*
X137380928Y-95421462D01*
X137484861Y-95492155D01*
X137623516Y-95510944D01*
X137768612Y-95474178D01*
X137891869Y-95378208D01*
X137895112Y-95374149D01*
X137969728Y-95241747D01*
X138000400Y-95113542D01*
X137993074Y-95036876D01*
X137953106Y-95004324D01*
X137853511Y-95004100D01*
X137769738Y-95012785D01*
X137567265Y-95062131D01*
X137418703Y-95150748D01*
X137344624Y-95264767D01*
X137340000Y-95302513D01*
X137161353Y-95302513D01*
X137182655Y-95175967D01*
X137212461Y-95120692D01*
X137354239Y-94985219D01*
X137559745Y-94889096D01*
X137793883Y-94848073D01*
X137820968Y-94847600D01*
X137955675Y-94827284D01*
X137999086Y-94763453D01*
X137953310Y-94651783D01*
X137931715Y-94620687D01*
X137878809Y-94569219D01*
X137799746Y-94546775D01*
X137665907Y-94548752D01*
X137550715Y-94559398D01*
X137375156Y-94573498D01*
X137279014Y-94567508D01*
X137241595Y-94538658D01*
X137238400Y-94517588D01*
X137283344Y-94444748D01*
X137399999Y-94395896D01*
X137561098Y-94372087D01*
X137739376Y-94374375D01*
X137739376Y-94374375D01*
G37*
X137739376Y-94374375D02*
X137907564Y-94403812D01*
X138038398Y-94461454D01*
X138067443Y-94485549D01*
X138118456Y-94547913D01*
X138152560Y-94628059D01*
X138174182Y-94748199D01*
X138187749Y-94930547D01*
X138195524Y-95128294D01*
X138201534Y-95368102D01*
X138199421Y-95523841D01*
X138187061Y-95612866D01*
X138162333Y-95652530D01*
X138130429Y-95660400D01*
X138043386Y-95623410D01*
X138021417Y-95591097D01*
X137986767Y-95554713D01*
X137912307Y-95568435D01*
X137809070Y-95616497D01*
X137639957Y-95689109D01*
X137508999Y-95701586D01*
X137373596Y-95655447D01*
X137331458Y-95633522D01*
X137205603Y-95513508D01*
X137153399Y-95349771D01*
X137161353Y-95302513D01*
X137340000Y-95302513D01*
X137380928Y-95421462D01*
X137484861Y-95492155D01*
X137623516Y-95510944D01*
X137768612Y-95474178D01*
X137891869Y-95378208D01*
X137895112Y-95374149D01*
X137969728Y-95241747D01*
X138000400Y-95113542D01*
X137993074Y-95036876D01*
X137953106Y-95004324D01*
X137853511Y-95004100D01*
X137769738Y-95012785D01*
X137567265Y-95062131D01*
X137418703Y-95150748D01*
X137344624Y-95264767D01*
X137340000Y-95302513D01*
X137161353Y-95302513D01*
X137182655Y-95175967D01*
X137212461Y-95120692D01*
X137354239Y-94985219D01*
X137559745Y-94889096D01*
X137793883Y-94848073D01*
X137820968Y-94847600D01*
X137955675Y-94827284D01*
X137999086Y-94763453D01*
X137953310Y-94651783D01*
X137931715Y-94620687D01*
X137878809Y-94569219D01*
X137799746Y-94546775D01*
X137665907Y-94548752D01*
X137550715Y-94559398D01*
X137375156Y-94573498D01*
X137279014Y-94567508D01*
X137241595Y-94538658D01*
X137238400Y-94517588D01*
X137283344Y-94444748D01*
X137399999Y-94395896D01*
X137561098Y-94372087D01*
X137739376Y-94374375D01*
G36*
X135205035Y-93875787D02*
X135369654Y-93918561D01*
X135452931Y-93982933D01*
X135460400Y-94012890D01*
X135444257Y-94055301D01*
X135381333Y-94071958D01*
X135249883Y-94066085D01*
X135162964Y-94056994D01*
X134916819Y-94046937D01*
X134754267Y-94084768D01*
X134667562Y-94173878D01*
X134647600Y-94282713D01*
X134673717Y-94410943D01*
X134762057Y-94515276D01*
X134927601Y-94609406D01*
X135066153Y-94665183D01*
X135304474Y-94791254D01*
X135453720Y-94959088D01*
X135510699Y-95164936D01*
X135511200Y-95187990D01*
X135480073Y-95401534D01*
X135379124Y-95550168D01*
X135229342Y-95639300D01*
X135025581Y-95699192D01*
X134827090Y-95693539D01*
X134648218Y-95644832D01*
X134535656Y-95586819D01*
X134462779Y-95515469D01*
X134438835Y-95452045D01*
X134473070Y-95417813D01*
X134553576Y-95427182D01*
X134836757Y-95486875D01*
X135059738Y-95483403D01*
X135215537Y-95418776D01*
X135297172Y-95295006D01*
X135308000Y-95209902D01*
X135274826Y-95070136D01*
X135168009Y-94948678D01*
X134976603Y-94835426D01*
X134836996Y-94775228D01*
X134618444Y-94650468D01*
X134480805Y-94494284D01*
X134421462Y-94324339D01*
X134437797Y-94158295D01*
X134527193Y-94013815D01*
X134687031Y-93908562D01*
X134914694Y-93860200D01*
X134972790Y-93858941D01*
X135205035Y-93875787D01*
X135205035Y-93875787D01*
G37*
X135205035Y-93875787D02*
X135369654Y-93918561D01*
X135452931Y-93982933D01*
X135460400Y-94012890D01*
X135444257Y-94055301D01*
X135381333Y-94071958D01*
X135249883Y-94066085D01*
X135162964Y-94056994D01*
X134916819Y-94046937D01*
X134754267Y-94084768D01*
X134667562Y-94173878D01*
X134647600Y-94282713D01*
X134673717Y-94410943D01*
X134762057Y-94515276D01*
X134927601Y-94609406D01*
X135066153Y-94665183D01*
X135304474Y-94791254D01*
X135453720Y-94959088D01*
X135510699Y-95164936D01*
X135511200Y-95187990D01*
X135480073Y-95401534D01*
X135379124Y-95550168D01*
X135229342Y-95639300D01*
X135025581Y-95699192D01*
X134827090Y-95693539D01*
X134648218Y-95644832D01*
X134535656Y-95586819D01*
X134462779Y-95515469D01*
X134438835Y-95452045D01*
X134473070Y-95417813D01*
X134553576Y-95427182D01*
X134836757Y-95486875D01*
X135059738Y-95483403D01*
X135215537Y-95418776D01*
X135297172Y-95295006D01*
X135308000Y-95209902D01*
X135274826Y-95070136D01*
X135168009Y-94948678D01*
X134976603Y-94835426D01*
X134836996Y-94775228D01*
X134618444Y-94650468D01*
X134480805Y-94494284D01*
X134421462Y-94324339D01*
X134437797Y-94158295D01*
X134527193Y-94013815D01*
X134687031Y-93908562D01*
X134914694Y-93860200D01*
X134972790Y-93858941D01*
X135205035Y-93875787D01*
G36*
X129443346Y-94357315D02*
X129573794Y-94408935D01*
X129597248Y-94420278D01*
X129752435Y-94523319D01*
X129846269Y-94668082D01*
X129868137Y-94725475D01*
X129915471Y-94885825D01*
X129917328Y-94993034D01*
X129860994Y-95057615D01*
X129733760Y-95090081D01*
X129522912Y-95100947D01*
X129413371Y-95101600D01*
X129195876Y-95102592D01*
X129061970Y-95108771D01*
X128993639Y-95124933D01*
X128972873Y-95155879D01*
X128981659Y-95206408D01*
X128984391Y-95215900D01*
X129071648Y-95379326D01*
X129222728Y-95473099D01*
X129445823Y-95501636D01*
X129510349Y-95499306D01*
X129689975Y-95501276D01*
X129791342Y-95527900D01*
X129808082Y-95571083D01*
X129733829Y-95622726D01*
X129634247Y-95656859D01*
X129456455Y-95698522D01*
X129325310Y-95701656D01*
X129192702Y-95664386D01*
X129126934Y-95637076D01*
X128940234Y-95508917D01*
X128826764Y-95315868D01*
X128783362Y-95052285D01*
X128782762Y-95022705D01*
X128799010Y-94892788D01*
X128973172Y-94892788D01*
X128991427Y-94926850D01*
X129060058Y-94943397D01*
X129198367Y-94948743D01*
X129335576Y-94949200D01*
X129532903Y-94946310D01*
X129649126Y-94934445D01*
X129704656Y-94908810D01*
X129719904Y-94864611D01*
X129720000Y-94858903D01*
X129675218Y-94696991D01*
X129553971Y-94585735D01*
X129375901Y-94542845D01*
X129369392Y-94542800D01*
X129178141Y-94580350D01*
X129047483Y-94697341D01*
X128985985Y-94834900D01*
X128973172Y-94892788D01*
X128799010Y-94892788D01*
X128815461Y-94761261D01*
X128922573Y-94566385D01*
X129109126Y-94430429D01*
X129195450Y-94394878D01*
X129335964Y-94353813D01*
X129443346Y-94357315D01*
X129443346Y-94357315D01*
G37*
X129443346Y-94357315D02*
X129573794Y-94408935D01*
X129597248Y-94420278D01*
X129752435Y-94523319D01*
X129846269Y-94668082D01*
X129868137Y-94725475D01*
X129915471Y-94885825D01*
X129917328Y-94993034D01*
X129860994Y-95057615D01*
X129733760Y-95090081D01*
X129522912Y-95100947D01*
X129413371Y-95101600D01*
X129195876Y-95102592D01*
X129061970Y-95108771D01*
X128993639Y-95124933D01*
X128972873Y-95155879D01*
X128981659Y-95206408D01*
X128984391Y-95215900D01*
X129071648Y-95379326D01*
X129222728Y-95473099D01*
X129445823Y-95501636D01*
X129510349Y-95499306D01*
X129689975Y-95501276D01*
X129791342Y-95527900D01*
X129808082Y-95571083D01*
X129733829Y-95622726D01*
X129634247Y-95656859D01*
X129456455Y-95698522D01*
X129325310Y-95701656D01*
X129192702Y-95664386D01*
X129126934Y-95637076D01*
X128940234Y-95508917D01*
X128826764Y-95315868D01*
X128783362Y-95052285D01*
X128782762Y-95022705D01*
X128799010Y-94892788D01*
X128973172Y-94892788D01*
X128991427Y-94926850D01*
X129060058Y-94943397D01*
X129198367Y-94948743D01*
X129335576Y-94949200D01*
X129532903Y-94946310D01*
X129649126Y-94934445D01*
X129704656Y-94908810D01*
X129719904Y-94864611D01*
X129720000Y-94858903D01*
X129675218Y-94696991D01*
X129553971Y-94585735D01*
X129375901Y-94542845D01*
X129369392Y-94542800D01*
X129178141Y-94580350D01*
X129047483Y-94697341D01*
X128985985Y-94834900D01*
X128973172Y-94892788D01*
X128799010Y-94892788D01*
X128815461Y-94761261D01*
X128922573Y-94566385D01*
X129109126Y-94430429D01*
X129195450Y-94394878D01*
X129335964Y-94353813D01*
X129443346Y-94357315D01*
G36*
X128386500Y-93841227D02*
X128418663Y-93855991D01*
X128442534Y-93895422D01*
X128459672Y-93973456D01*
X128471637Y-94104031D01*
X128479989Y-94301081D01*
X128486288Y-94578544D01*
X128489272Y-94759352D01*
X128493340Y-95085236D01*
X128493370Y-95322942D01*
X128488397Y-95485848D01*
X128477454Y-95587331D01*
X128459574Y-95640766D01*
X128433792Y-95659531D01*
X128424177Y-95660400D01*
X128338908Y-95619190D01*
X128315129Y-95582006D01*
X128283113Y-95530466D01*
X128231266Y-95553393D01*
X128199090Y-95581403D01*
X128052655Y-95659947D01*
X127870550Y-95690538D01*
X127713400Y-95665098D01*
X127563486Y-95574691D01*
X127469116Y-95444915D01*
X127420731Y-95255576D01*
X127408817Y-95025400D01*
X127586400Y-95025400D01*
X127611400Y-95265341D01*
X127688652Y-95421157D01*
X127821531Y-95497794D01*
X127915793Y-95508000D01*
X128078950Y-95474087D01*
X128192312Y-95374149D01*
X128282831Y-95196043D01*
X128304396Y-95002198D01*
X128264953Y-94816505D01*
X128172450Y-94662852D01*
X128034832Y-94565132D01*
X127915793Y-94542800D01*
X127752023Y-94579428D01*
X127645673Y-94692611D01*
X127593365Y-94887295D01*
X127586400Y-95025400D01*
X127408817Y-95025400D01*
X127408600Y-95021221D01*
X127412315Y-94821078D01*
X127428875Y-94691707D01*
X127466396Y-94602389D01*
X127532998Y-94522408D01*
X127543130Y-94512178D01*
X127706981Y-94407183D01*
X127899871Y-94368337D01*
X128085227Y-94398425D01*
X128191740Y-94462745D01*
X128297600Y-94558546D01*
X128297600Y-94191348D01*
X128300409Y-94000905D01*
X128312193Y-93892170D01*
X128337983Y-93845325D01*
X128382811Y-93840554D01*
X128386500Y-93841227D01*
X128386500Y-93841227D01*
G37*
X128386500Y-93841227D02*
X128418663Y-93855991D01*
X128442534Y-93895422D01*
X128459672Y-93973456D01*
X128471637Y-94104031D01*
X128479989Y-94301081D01*
X128486288Y-94578544D01*
X128489272Y-94759352D01*
X128493340Y-95085236D01*
X128493370Y-95322942D01*
X128488397Y-95485848D01*
X128477454Y-95587331D01*
X128459574Y-95640766D01*
X128433792Y-95659531D01*
X128424177Y-95660400D01*
X128338908Y-95619190D01*
X128315129Y-95582006D01*
X128283113Y-95530466D01*
X128231266Y-95553393D01*
X128199090Y-95581403D01*
X128052655Y-95659947D01*
X127870550Y-95690538D01*
X127713400Y-95665098D01*
X127563486Y-95574691D01*
X127469116Y-95444915D01*
X127420731Y-95255576D01*
X127408817Y-95025400D01*
X127586400Y-95025400D01*
X127611400Y-95265341D01*
X127688652Y-95421157D01*
X127821531Y-95497794D01*
X127915793Y-95508000D01*
X128078950Y-95474087D01*
X128192312Y-95374149D01*
X128282831Y-95196043D01*
X128304396Y-95002198D01*
X128264953Y-94816505D01*
X128172450Y-94662852D01*
X128034832Y-94565132D01*
X127915793Y-94542800D01*
X127752023Y-94579428D01*
X127645673Y-94692611D01*
X127593365Y-94887295D01*
X127586400Y-95025400D01*
X127408817Y-95025400D01*
X127408600Y-95021221D01*
X127412315Y-94821078D01*
X127428875Y-94691707D01*
X127466396Y-94602389D01*
X127532998Y-94522408D01*
X127543130Y-94512178D01*
X127706981Y-94407183D01*
X127899871Y-94368337D01*
X128085227Y-94398425D01*
X128191740Y-94462745D01*
X128297600Y-94558546D01*
X128297600Y-94191348D01*
X128300409Y-94000905D01*
X128312193Y-93892170D01*
X128337983Y-93845325D01*
X128382811Y-93840554D01*
X128386500Y-93841227D01*
G36*
X126740077Y-94394639D02*
X126940960Y-94497779D01*
X127074901Y-94674936D01*
X127138605Y-94920934D01*
X127143714Y-95028574D01*
X127112675Y-95292172D01*
X127015481Y-95484569D01*
X126846018Y-95616522D01*
X126796680Y-95639243D01*
X126642133Y-95693321D01*
X126520647Y-95699973D01*
X126392600Y-95668036D01*
X126172414Y-95553233D01*
X126030890Y-95375933D01*
X125965886Y-95132946D01*
X125961947Y-95049645D01*
X126156818Y-95049645D01*
X126196842Y-95235321D01*
X126290370Y-95388710D01*
X126429404Y-95486010D01*
X126548687Y-95508000D01*
X126725432Y-95471534D01*
X126824400Y-95406400D01*
X126896248Y-95312702D01*
X126930424Y-95194701D01*
X126938700Y-95025400D01*
X126929336Y-94848389D01*
X126893411Y-94732721D01*
X126824400Y-94644400D01*
X126670925Y-94555204D01*
X126494813Y-94546039D01*
X126332762Y-94614771D01*
X126269287Y-94676650D01*
X126178300Y-94855487D01*
X126156818Y-95049645D01*
X125961947Y-95049645D01*
X125960800Y-95025399D01*
X126000151Y-94757056D01*
X126110973Y-94551715D01*
X126282417Y-94418156D01*
X126503633Y-94365163D01*
X126740077Y-94394639D01*
X126740077Y-94394639D01*
G37*
X126740077Y-94394639D02*
X126940960Y-94497779D01*
X127074901Y-94674936D01*
X127138605Y-94920934D01*
X127143714Y-95028574D01*
X127112675Y-95292172D01*
X127015481Y-95484569D01*
X126846018Y-95616522D01*
X126796680Y-95639243D01*
X126642133Y-95693321D01*
X126520647Y-95699973D01*
X126392600Y-95668036D01*
X126172414Y-95553233D01*
X126030890Y-95375933D01*
X125965886Y-95132946D01*
X125961947Y-95049645D01*
X126156818Y-95049645D01*
X126196842Y-95235321D01*
X126290370Y-95388710D01*
X126429404Y-95486010D01*
X126548687Y-95508000D01*
X126725432Y-95471534D01*
X126824400Y-95406400D01*
X126896248Y-95312702D01*
X126930424Y-95194701D01*
X126938700Y-95025400D01*
X126929336Y-94848389D01*
X126893411Y-94732721D01*
X126824400Y-94644400D01*
X126670925Y-94555204D01*
X126494813Y-94546039D01*
X126332762Y-94614771D01*
X126269287Y-94676650D01*
X126178300Y-94855487D01*
X126156818Y-95049645D01*
X125961947Y-95049645D01*
X125960800Y-95025399D01*
X126000151Y-94757056D01*
X126110973Y-94551715D01*
X126282417Y-94418156D01*
X126503633Y-94365163D01*
X126740077Y-94394639D01*
G36*
X120204507Y-93850292D02*
X120412283Y-93875966D01*
X120581469Y-93922444D01*
X120627617Y-93945499D01*
X120746866Y-94073113D01*
X120795153Y-94241007D01*
X120772200Y-94416484D01*
X120677731Y-94566842D01*
X120633201Y-94603718D01*
X120575109Y-94651566D01*
X120574410Y-94695194D01*
X120640166Y-94760741D01*
X120706194Y-94814210D01*
X120822622Y-94925116D01*
X120872481Y-95036923D01*
X120880800Y-95147714D01*
X120844251Y-95349601D01*
X120776889Y-95473999D01*
X120618875Y-95600352D01*
X120397204Y-95679172D01*
X120140996Y-95704337D01*
X119879373Y-95669722D01*
X119864800Y-95665794D01*
X119737800Y-95630515D01*
X119724127Y-94796800D01*
X119915600Y-94796800D01*
X119915600Y-95508000D01*
X120171909Y-95508000D01*
X120350684Y-95495801D01*
X120472113Y-95449976D01*
X120552909Y-95383309D01*
X120652093Y-95231531D01*
X120674165Y-95069778D01*
X120637688Y-94965078D01*
X120539819Y-94887620D01*
X120374135Y-94828498D01*
X120174139Y-94798507D01*
X120115492Y-94796800D01*
X119915600Y-94796800D01*
X119724127Y-94796800D01*
X119723868Y-94781068D01*
X119711629Y-94034800D01*
X119915600Y-94034800D01*
X119915600Y-94593600D01*
X120147539Y-94593600D01*
X120311913Y-94582296D01*
X120446406Y-94553953D01*
X120477739Y-94541012D01*
X120555810Y-94450482D01*
X120576000Y-94314200D01*
X120551140Y-94172510D01*
X120467161Y-94085051D01*
X120309958Y-94042627D01*
X120147539Y-94034800D01*
X119915600Y-94034800D01*
X119711629Y-94034800D01*
X119709936Y-93931622D01*
X119850868Y-93877016D01*
X120002561Y-93849336D01*
X120204507Y-93850292D01*
X120204507Y-93850292D01*
G37*
X120204507Y-93850292D02*
X120412283Y-93875966D01*
X120581469Y-93922444D01*
X120627617Y-93945499D01*
X120746866Y-94073113D01*
X120795153Y-94241007D01*
X120772200Y-94416484D01*
X120677731Y-94566842D01*
X120633201Y-94603718D01*
X120575109Y-94651566D01*
X120574410Y-94695194D01*
X120640166Y-94760741D01*
X120706194Y-94814210D01*
X120822622Y-94925116D01*
X120872481Y-95036923D01*
X120880800Y-95147714D01*
X120844251Y-95349601D01*
X120776889Y-95473999D01*
X120618875Y-95600352D01*
X120397204Y-95679172D01*
X120140996Y-95704337D01*
X119879373Y-95669722D01*
X119864800Y-95665794D01*
X119737800Y-95630515D01*
X119724127Y-94796800D01*
X119915600Y-94796800D01*
X119915600Y-95508000D01*
X120171909Y-95508000D01*
X120350684Y-95495801D01*
X120472113Y-95449976D01*
X120552909Y-95383309D01*
X120652093Y-95231531D01*
X120674165Y-95069778D01*
X120637688Y-94965078D01*
X120539819Y-94887620D01*
X120374135Y-94828498D01*
X120174139Y-94798507D01*
X120115492Y-94796800D01*
X119915600Y-94796800D01*
X119724127Y-94796800D01*
X119723868Y-94781068D01*
X119711629Y-94034800D01*
X119915600Y-94034800D01*
X119915600Y-94593600D01*
X120147539Y-94593600D01*
X120311913Y-94582296D01*
X120446406Y-94553953D01*
X120477739Y-94541012D01*
X120555810Y-94450482D01*
X120576000Y-94314200D01*
X120551140Y-94172510D01*
X120467161Y-94085051D01*
X120309958Y-94042627D01*
X120147539Y-94034800D01*
X119915600Y-94034800D01*
X119711629Y-94034800D01*
X119709936Y-93931622D01*
X119850868Y-93877016D01*
X120002561Y-93849336D01*
X120204507Y-93850292D01*
G36*
X152492036Y-94413171D02*
X152643558Y-94525777D01*
X152736933Y-94718454D01*
X152772612Y-94938805D01*
X152759832Y-95219687D01*
X152683148Y-95443614D01*
X152551462Y-95600775D01*
X152373677Y-95681359D01*
X152158696Y-95675557D01*
X152114551Y-95663930D01*
X151989068Y-95612965D01*
X151916664Y-95557975D01*
X151910629Y-95544060D01*
X151902560Y-95558873D01*
X151889599Y-95654941D01*
X151874381Y-95812202D01*
X151872529Y-95834218D01*
X151842283Y-96060286D01*
X151797231Y-96186098D01*
X151737236Y-96211935D01*
X151700525Y-96186391D01*
X151689120Y-96126496D01*
X151679276Y-95982215D01*
X151671648Y-95770757D01*
X151666894Y-95509333D01*
X151665600Y-95270933D01*
X151666416Y-95025400D01*
X151868800Y-95025400D01*
X151900420Y-95260104D01*
X151992910Y-95419359D01*
X152142714Y-95498351D01*
X152224400Y-95506444D01*
X152344567Y-95492389D01*
X152407295Y-95469122D01*
X152505193Y-95349979D01*
X152564434Y-95171826D01*
X152581899Y-94970836D01*
X152554469Y-94783179D01*
X152479025Y-94645028D01*
X152478400Y-94644400D01*
X152348091Y-94568772D01*
X152188220Y-94543601D01*
X152050185Y-94576265D01*
X152041504Y-94581677D01*
X151944640Y-94698628D01*
X151883176Y-94878515D01*
X151868800Y-95025400D01*
X151666416Y-95025400D01*
X151666673Y-94948209D01*
X151670680Y-94713704D01*
X151678803Y-94554051D01*
X151692221Y-94455883D01*
X151712117Y-94405833D01*
X151739670Y-94390535D01*
X151743394Y-94390400D01*
X151827615Y-94431589D01*
X151851270Y-94468793D01*
X151883126Y-94518433D01*
X151935697Y-94496318D01*
X151975631Y-94461865D01*
X152100630Y-94400448D01*
X152276432Y-94376549D01*
X152278772Y-94376545D01*
X152492036Y-94413171D01*
X152492036Y-94413171D01*
G37*
X152492036Y-94413171D02*
X152643558Y-94525777D01*
X152736933Y-94718454D01*
X152772612Y-94938805D01*
X152759832Y-95219687D01*
X152683148Y-95443614D01*
X152551462Y-95600775D01*
X152373677Y-95681359D01*
X152158696Y-95675557D01*
X152114551Y-95663930D01*
X151989068Y-95612965D01*
X151916664Y-95557975D01*
X151910629Y-95544060D01*
X151902560Y-95558873D01*
X151889599Y-95654941D01*
X151874381Y-95812202D01*
X151872529Y-95834218D01*
X151842283Y-96060286D01*
X151797231Y-96186098D01*
X151737236Y-96211935D01*
X151700525Y-96186391D01*
X151689120Y-96126496D01*
X151679276Y-95982215D01*
X151671648Y-95770757D01*
X151666894Y-95509333D01*
X151665600Y-95270933D01*
X151666416Y-95025400D01*
X151868800Y-95025400D01*
X151900420Y-95260104D01*
X151992910Y-95419359D01*
X152142714Y-95498351D01*
X152224400Y-95506444D01*
X152344567Y-95492389D01*
X152407295Y-95469122D01*
X152505193Y-95349979D01*
X152564434Y-95171826D01*
X152581899Y-94970836D01*
X152554469Y-94783179D01*
X152479025Y-94645028D01*
X152478400Y-94644400D01*
X152348091Y-94568772D01*
X152188220Y-94543601D01*
X152050185Y-94576265D01*
X152041504Y-94581677D01*
X151944640Y-94698628D01*
X151883176Y-94878515D01*
X151868800Y-95025400D01*
X151666416Y-95025400D01*
X151666673Y-94948209D01*
X151670680Y-94713704D01*
X151678803Y-94554051D01*
X151692221Y-94455883D01*
X151712117Y-94405833D01*
X151739670Y-94390535D01*
X151743394Y-94390400D01*
X151827615Y-94431589D01*
X151851270Y-94468793D01*
X151883126Y-94518433D01*
X151935697Y-94496318D01*
X151975631Y-94461865D01*
X152100630Y-94400448D01*
X152276432Y-94376549D01*
X152278772Y-94376545D01*
X152492036Y-94413171D01*
G36*
X136650534Y-94426880D02*
X136770625Y-94509134D01*
X136869992Y-94670449D01*
X136923642Y-94887386D01*
X136929090Y-95123623D01*
X136883849Y-95342838D01*
X136834734Y-95445766D01*
X136695699Y-95594526D01*
X136521918Y-95678677D01*
X136340560Y-95693455D01*
X136178789Y-95634097D01*
X136111610Y-95572569D01*
X136075361Y-95543015D01*
X136051103Y-95571165D01*
X136033591Y-95672119D01*
X136019200Y-95838553D01*
X135991108Y-96062537D01*
X135946973Y-96187066D01*
X135886978Y-96211763D01*
X135850925Y-96186391D01*
X135839520Y-96126496D01*
X135829676Y-95982215D01*
X135822048Y-95770757D01*
X135817294Y-95509333D01*
X135816000Y-95270933D01*
X135816816Y-95025400D01*
X136019200Y-95025400D01*
X136053491Y-95233198D01*
X136144356Y-95390931D01*
X136273784Y-95487340D01*
X136423762Y-95511168D01*
X136576279Y-95451157D01*
X136628800Y-95406400D01*
X136694500Y-95308505D01*
X136725164Y-95165460D01*
X136730400Y-95025400D01*
X136701942Y-94785740D01*
X136615573Y-94628527D01*
X136469798Y-94551714D01*
X136378487Y-94542799D01*
X136218029Y-94588893D01*
X136097247Y-94715395D01*
X136029296Y-94904635D01*
X136019200Y-95025400D01*
X135816816Y-95025400D01*
X135817073Y-94948209D01*
X135821080Y-94713704D01*
X135829203Y-94554051D01*
X135842621Y-94455883D01*
X135862517Y-94405833D01*
X135890070Y-94390535D01*
X135893794Y-94390400D01*
X135978015Y-94431589D01*
X136001670Y-94468793D01*
X136033526Y-94518433D01*
X136086097Y-94496318D01*
X136126031Y-94461865D01*
X136276924Y-94386972D01*
X136464852Y-94376270D01*
X136650534Y-94426880D01*
X136650534Y-94426880D01*
G37*
X136650534Y-94426880D02*
X136770625Y-94509134D01*
X136869992Y-94670449D01*
X136923642Y-94887386D01*
X136929090Y-95123623D01*
X136883849Y-95342838D01*
X136834734Y-95445766D01*
X136695699Y-95594526D01*
X136521918Y-95678677D01*
X136340560Y-95693455D01*
X136178789Y-95634097D01*
X136111610Y-95572569D01*
X136075361Y-95543015D01*
X136051103Y-95571165D01*
X136033591Y-95672119D01*
X136019200Y-95838553D01*
X135991108Y-96062537D01*
X135946973Y-96187066D01*
X135886978Y-96211763D01*
X135850925Y-96186391D01*
X135839520Y-96126496D01*
X135829676Y-95982215D01*
X135822048Y-95770757D01*
X135817294Y-95509333D01*
X135816000Y-95270933D01*
X135816816Y-95025400D01*
X136019200Y-95025400D01*
X136053491Y-95233198D01*
X136144356Y-95390931D01*
X136273784Y-95487340D01*
X136423762Y-95511168D01*
X136576279Y-95451157D01*
X136628800Y-95406400D01*
X136694500Y-95308505D01*
X136725164Y-95165460D01*
X136730400Y-95025400D01*
X136701942Y-94785740D01*
X136615573Y-94628527D01*
X136469798Y-94551714D01*
X136378487Y-94542799D01*
X136218029Y-94588893D01*
X136097247Y-94715395D01*
X136029296Y-94904635D01*
X136019200Y-95025400D01*
X135816816Y-95025400D01*
X135817073Y-94948209D01*
X135821080Y-94713704D01*
X135829203Y-94554051D01*
X135842621Y-94455883D01*
X135862517Y-94405833D01*
X135890070Y-94390535D01*
X135893794Y-94390400D01*
X135978015Y-94431589D01*
X136001670Y-94468793D01*
X136033526Y-94518433D01*
X136086097Y-94496318D01*
X136126031Y-94461865D01*
X136276924Y-94386972D01*
X136464852Y-94376270D01*
X136650534Y-94426880D01*
G04 #@! TO.C,F1*
D12*
X122178571Y-64833333D02*
X122178571Y-65166666D01*
X122702380Y-65166666D02*
X121702380Y-65166666D01*
X121702380Y-64690476D01*
X122702380Y-63785714D02*
X122702380Y-64357142D01*
X122702380Y-64071428D02*
X121702380Y-64071428D01*
X121845238Y-64166666D01*
X121940476Y-64261904D01*
X121988095Y-64357142D01*
G04 #@! TO.C,J1*
X141122380Y-54333333D02*
X141836666Y-54333333D01*
X141979523Y-54380952D01*
X142074761Y-54476190D01*
X142122380Y-54619047D01*
X142122380Y-54714285D01*
X142122380Y-53333333D02*
X142122380Y-53904761D01*
X142122380Y-53619047D02*
X141122380Y-53619047D01*
X141265238Y-53714285D01*
X141360476Y-53809523D01*
X141408095Y-53904761D01*
G04 #@! TO.C,J2*
X218782380Y-57333333D02*
X219496666Y-57333333D01*
X219639523Y-57380952D01*
X219734761Y-57476190D01*
X219782380Y-57619047D01*
X219782380Y-57714285D01*
X218877619Y-56904761D02*
X218830000Y-56857142D01*
X218782380Y-56761904D01*
X218782380Y-56523809D01*
X218830000Y-56428571D01*
X218877619Y-56380952D01*
X218972857Y-56333333D01*
X219068095Y-56333333D01*
X219210952Y-56380952D01*
X219782380Y-56952380D01*
X219782380Y-56333333D01*
G04 #@! TO.C,R67*
X116952380Y-67892857D02*
X116476190Y-68226190D01*
X116952380Y-68464285D02*
X115952380Y-68464285D01*
X115952380Y-68083333D01*
X116000000Y-67988095D01*
X116047619Y-67940476D01*
X116142857Y-67892857D01*
X116285714Y-67892857D01*
X116380952Y-67940476D01*
X116428571Y-67988095D01*
X116476190Y-68083333D01*
X116476190Y-68464285D01*
X115952380Y-67035714D02*
X115952380Y-67226190D01*
X116000000Y-67321428D01*
X116047619Y-67369047D01*
X116190476Y-67464285D01*
X116380952Y-67511904D01*
X116761904Y-67511904D01*
X116857142Y-67464285D01*
X116904761Y-67416666D01*
X116952380Y-67321428D01*
X116952380Y-67130952D01*
X116904761Y-67035714D01*
X116857142Y-66988095D01*
X116761904Y-66940476D01*
X116523809Y-66940476D01*
X116428571Y-66988095D01*
X116380952Y-67035714D01*
X116333333Y-67130952D01*
X116333333Y-67321428D01*
X116380952Y-67416666D01*
X116428571Y-67464285D01*
X116523809Y-67511904D01*
X115952380Y-66607142D02*
X115952380Y-65940476D01*
X116952380Y-66369047D01*
G04 #@! TO.C,R68*
X113952380Y-67892857D02*
X113476190Y-68226190D01*
X113952380Y-68464285D02*
X112952380Y-68464285D01*
X112952380Y-68083333D01*
X113000000Y-67988095D01*
X113047619Y-67940476D01*
X113142857Y-67892857D01*
X113285714Y-67892857D01*
X113380952Y-67940476D01*
X113428571Y-67988095D01*
X113476190Y-68083333D01*
X113476190Y-68464285D01*
X112952380Y-67035714D02*
X112952380Y-67226190D01*
X113000000Y-67321428D01*
X113047619Y-67369047D01*
X113190476Y-67464285D01*
X113380952Y-67511904D01*
X113761904Y-67511904D01*
X113857142Y-67464285D01*
X113904761Y-67416666D01*
X113952380Y-67321428D01*
X113952380Y-67130952D01*
X113904761Y-67035714D01*
X113857142Y-66988095D01*
X113761904Y-66940476D01*
X113523809Y-66940476D01*
X113428571Y-66988095D01*
X113380952Y-67035714D01*
X113333333Y-67130952D01*
X113333333Y-67321428D01*
X113380952Y-67416666D01*
X113428571Y-67464285D01*
X113523809Y-67511904D01*
X113380952Y-66369047D02*
X113333333Y-66464285D01*
X113285714Y-66511904D01*
X113190476Y-66559523D01*
X113142857Y-66559523D01*
X113047619Y-66511904D01*
X113000000Y-66464285D01*
X112952380Y-66369047D01*
X112952380Y-66178571D01*
X113000000Y-66083333D01*
X113047619Y-66035714D01*
X113142857Y-65988095D01*
X113190476Y-65988095D01*
X113285714Y-66035714D01*
X113333333Y-66083333D01*
X113380952Y-66178571D01*
X113380952Y-66369047D01*
X113428571Y-66464285D01*
X113476190Y-66511904D01*
X113571428Y-66559523D01*
X113761904Y-66559523D01*
X113857142Y-66511904D01*
X113904761Y-66464285D01*
X113952380Y-66369047D01*
X113952380Y-66178571D01*
X113904761Y-66083333D01*
X113857142Y-66035714D01*
X113761904Y-65988095D01*
X113571428Y-65988095D01*
X113476190Y-66035714D01*
X113428571Y-66083333D01*
X113380952Y-66178571D01*
G04 #@! TO.C,R70*
X114357142Y-82202380D02*
X114023809Y-81726190D01*
X113785714Y-82202380D02*
X113785714Y-81202380D01*
X114166666Y-81202380D01*
X114261904Y-81250000D01*
X114309523Y-81297619D01*
X114357142Y-81392857D01*
X114357142Y-81535714D01*
X114309523Y-81630952D01*
X114261904Y-81678571D01*
X114166666Y-81726190D01*
X113785714Y-81726190D01*
X114690476Y-81202380D02*
X115357142Y-81202380D01*
X114928571Y-82202380D01*
X115928571Y-81202380D02*
X116023809Y-81202380D01*
X116119047Y-81250000D01*
X116166666Y-81297619D01*
X116214285Y-81392857D01*
X116261904Y-81583333D01*
X116261904Y-81821428D01*
X116214285Y-82011904D01*
X116166666Y-82107142D01*
X116119047Y-82154761D01*
X116023809Y-82202380D01*
X115928571Y-82202380D01*
X115833333Y-82154761D01*
X115785714Y-82107142D01*
X115738095Y-82011904D01*
X115690476Y-81821428D01*
X115690476Y-81583333D01*
X115738095Y-81392857D01*
X115785714Y-81297619D01*
X115833333Y-81250000D01*
X115928571Y-81202380D01*
G04 #@! TO.C,R71*
X153102380Y-67642857D02*
X152626190Y-67976190D01*
X153102380Y-68214285D02*
X152102380Y-68214285D01*
X152102380Y-67833333D01*
X152150000Y-67738095D01*
X152197619Y-67690476D01*
X152292857Y-67642857D01*
X152435714Y-67642857D01*
X152530952Y-67690476D01*
X152578571Y-67738095D01*
X152626190Y-67833333D01*
X152626190Y-68214285D01*
X152102380Y-67309523D02*
X152102380Y-66642857D01*
X153102380Y-67071428D01*
X153102380Y-65738095D02*
X153102380Y-66309523D01*
X153102380Y-66023809D02*
X152102380Y-66023809D01*
X152245238Y-66119047D01*
X152340476Y-66214285D01*
X152388095Y-66309523D01*
G04 #@! TO.C,R73*
X121452380Y-60142857D02*
X120976190Y-60476190D01*
X121452380Y-60714285D02*
X120452380Y-60714285D01*
X120452380Y-60333333D01*
X120500000Y-60238095D01*
X120547619Y-60190476D01*
X120642857Y-60142857D01*
X120785714Y-60142857D01*
X120880952Y-60190476D01*
X120928571Y-60238095D01*
X120976190Y-60333333D01*
X120976190Y-60714285D01*
X120452380Y-59809523D02*
X120452380Y-59142857D01*
X121452380Y-59571428D01*
X120452380Y-58857142D02*
X120452380Y-58238095D01*
X120833333Y-58571428D01*
X120833333Y-58428571D01*
X120880952Y-58333333D01*
X120928571Y-58285714D01*
X121023809Y-58238095D01*
X121261904Y-58238095D01*
X121357142Y-58285714D01*
X121404761Y-58333333D01*
X121452380Y-58428571D01*
X121452380Y-58714285D01*
X121404761Y-58809523D01*
X121357142Y-58857142D01*
G04 #@! TO.C,R74*
X109702380Y-60142857D02*
X109226190Y-60476190D01*
X109702380Y-60714285D02*
X108702380Y-60714285D01*
X108702380Y-60333333D01*
X108750000Y-60238095D01*
X108797619Y-60190476D01*
X108892857Y-60142857D01*
X109035714Y-60142857D01*
X109130952Y-60190476D01*
X109178571Y-60238095D01*
X109226190Y-60333333D01*
X109226190Y-60714285D01*
X108702380Y-59809523D02*
X108702380Y-59142857D01*
X109702380Y-59571428D01*
X109035714Y-58333333D02*
X109702380Y-58333333D01*
X108654761Y-58571428D02*
X109369047Y-58809523D01*
X109369047Y-58190476D01*
G04 #@! TO.C,SW1*
X113666666Y-71904761D02*
X113809523Y-71952380D01*
X114047619Y-71952380D01*
X114142857Y-71904761D01*
X114190476Y-71857142D01*
X114238095Y-71761904D01*
X114238095Y-71666666D01*
X114190476Y-71571428D01*
X114142857Y-71523809D01*
X114047619Y-71476190D01*
X113857142Y-71428571D01*
X113761904Y-71380952D01*
X113714285Y-71333333D01*
X113666666Y-71238095D01*
X113666666Y-71142857D01*
X113714285Y-71047619D01*
X113761904Y-71000000D01*
X113857142Y-70952380D01*
X114095238Y-70952380D01*
X114238095Y-71000000D01*
X114571428Y-70952380D02*
X114809523Y-71952380D01*
X115000000Y-71238095D01*
X115190476Y-71952380D01*
X115428571Y-70952380D01*
X116333333Y-71952380D02*
X115761904Y-71952380D01*
X116047619Y-71952380D02*
X116047619Y-70952380D01*
X115952380Y-71095238D01*
X115857142Y-71190476D01*
X115761904Y-71238095D01*
G04 #@! TO.C,U2*
X114238095Y-61202380D02*
X114238095Y-62011904D01*
X114285714Y-62107142D01*
X114333333Y-62154761D01*
X114428571Y-62202380D01*
X114619047Y-62202380D01*
X114714285Y-62154761D01*
X114761904Y-62107142D01*
X114809523Y-62011904D01*
X114809523Y-61202380D01*
X115238095Y-61297619D02*
X115285714Y-61250000D01*
X115380952Y-61202380D01*
X115619047Y-61202380D01*
X115714285Y-61250000D01*
X115761904Y-61297619D01*
X115809523Y-61392857D01*
X115809523Y-61488095D01*
X115761904Y-61630952D01*
X115190476Y-62202380D01*
X115809523Y-62202380D01*
G04 #@! TO.C,USB1*
X113261904Y-55952380D02*
X113261904Y-56761904D01*
X113309523Y-56857142D01*
X113357142Y-56904761D01*
X113452380Y-56952380D01*
X113642857Y-56952380D01*
X113738095Y-56904761D01*
X113785714Y-56857142D01*
X113833333Y-56761904D01*
X113833333Y-55952380D01*
X114261904Y-56904761D02*
X114404761Y-56952380D01*
X114642857Y-56952380D01*
X114738095Y-56904761D01*
X114785714Y-56857142D01*
X114833333Y-56761904D01*
X114833333Y-56666666D01*
X114785714Y-56571428D01*
X114738095Y-56523809D01*
X114642857Y-56476190D01*
X114452380Y-56428571D01*
X114357142Y-56380952D01*
X114309523Y-56333333D01*
X114261904Y-56238095D01*
X114261904Y-56142857D01*
X114309523Y-56047619D01*
X114357142Y-56000000D01*
X114452380Y-55952380D01*
X114690476Y-55952380D01*
X114833333Y-56000000D01*
X115595238Y-56428571D02*
X115738095Y-56476190D01*
X115785714Y-56523809D01*
X115833333Y-56619047D01*
X115833333Y-56761904D01*
X115785714Y-56857142D01*
X115738095Y-56904761D01*
X115642857Y-56952380D01*
X115261904Y-56952380D01*
X115261904Y-55952380D01*
X115595238Y-55952380D01*
X115690476Y-56000000D01*
X115738095Y-56047619D01*
X115785714Y-56142857D01*
X115785714Y-56238095D01*
X115738095Y-56333333D01*
X115690476Y-56380952D01*
X115595238Y-56428571D01*
X115261904Y-56428571D01*
X116785714Y-56952380D02*
X116214285Y-56952380D01*
X116500000Y-56952380D02*
X116500000Y-55952380D01*
X116404761Y-56095238D01*
X116309523Y-56190476D01*
X116214285Y-56238095D01*
G04 #@! TO.C,Y1*
X141523809Y-82976190D02*
X141523809Y-83452380D01*
X141190476Y-82452380D02*
X141523809Y-82976190D01*
X141857142Y-82452380D01*
X142714285Y-83452380D02*
X142142857Y-83452380D01*
X142428571Y-83452380D02*
X142428571Y-82452380D01*
X142333333Y-82595238D01*
X142238095Y-82690476D01*
X142142857Y-82738095D01*
G04 #@! TO.C,U1*
X141238095Y-64502380D02*
X141238095Y-65311904D01*
X141285714Y-65407142D01*
X141333333Y-65454761D01*
X141428571Y-65502380D01*
X141619047Y-65502380D01*
X141714285Y-65454761D01*
X141761904Y-65407142D01*
X141809523Y-65311904D01*
X141809523Y-64502380D01*
X142809523Y-65502380D02*
X142238095Y-65502380D01*
X142523809Y-65502380D02*
X142523809Y-64502380D01*
X142428571Y-64645238D01*
X142333333Y-64740476D01*
X142238095Y-64788095D01*
G04 #@! TO.C,C2*
X131607142Y-67166666D02*
X131654761Y-67214285D01*
X131702380Y-67357142D01*
X131702380Y-67452380D01*
X131654761Y-67595238D01*
X131559523Y-67690476D01*
X131464285Y-67738095D01*
X131273809Y-67785714D01*
X131130952Y-67785714D01*
X130940476Y-67738095D01*
X130845238Y-67690476D01*
X130750000Y-67595238D01*
X130702380Y-67452380D01*
X130702380Y-67357142D01*
X130750000Y-67214285D01*
X130797619Y-67166666D01*
X130797619Y-66785714D02*
X130750000Y-66738095D01*
X130702380Y-66642857D01*
X130702380Y-66404761D01*
X130750000Y-66309523D01*
X130797619Y-66261904D01*
X130892857Y-66214285D01*
X130988095Y-66214285D01*
X131130952Y-66261904D01*
X131702380Y-66833333D01*
X131702380Y-66214285D01*
G04 #@! TO.C,C3*
X146833333Y-62357142D02*
X146785714Y-62404761D01*
X146642857Y-62452380D01*
X146547619Y-62452380D01*
X146404761Y-62404761D01*
X146309523Y-62309523D01*
X146261904Y-62214285D01*
X146214285Y-62023809D01*
X146214285Y-61880952D01*
X146261904Y-61690476D01*
X146309523Y-61595238D01*
X146404761Y-61500000D01*
X146547619Y-61452380D01*
X146642857Y-61452380D01*
X146785714Y-61500000D01*
X146833333Y-61547619D01*
X147166666Y-61452380D02*
X147785714Y-61452380D01*
X147452380Y-61833333D01*
X147595238Y-61833333D01*
X147690476Y-61880952D01*
X147738095Y-61928571D01*
X147785714Y-62023809D01*
X147785714Y-62261904D01*
X147738095Y-62357142D01*
X147690476Y-62404761D01*
X147595238Y-62452380D01*
X147309523Y-62452380D01*
X147214285Y-62404761D01*
X147166666Y-62357142D01*
G04 #@! TO.C,C4*
X134607142Y-83666666D02*
X134654761Y-83714285D01*
X134702380Y-83857142D01*
X134702380Y-83952380D01*
X134654761Y-84095238D01*
X134559523Y-84190476D01*
X134464285Y-84238095D01*
X134273809Y-84285714D01*
X134130952Y-84285714D01*
X133940476Y-84238095D01*
X133845238Y-84190476D01*
X133750000Y-84095238D01*
X133702380Y-83952380D01*
X133702380Y-83857142D01*
X133750000Y-83714285D01*
X133797619Y-83666666D01*
X134035714Y-82809523D02*
X134702380Y-82809523D01*
X133654761Y-83047619D02*
X134369047Y-83285714D01*
X134369047Y-82666666D01*
G04 #@! TO.C,C5*
X153107142Y-77666666D02*
X153154761Y-77714285D01*
X153202380Y-77857142D01*
X153202380Y-77952380D01*
X153154761Y-78095238D01*
X153059523Y-78190476D01*
X152964285Y-78238095D01*
X152773809Y-78285714D01*
X152630952Y-78285714D01*
X152440476Y-78238095D01*
X152345238Y-78190476D01*
X152250000Y-78095238D01*
X152202380Y-77952380D01*
X152202380Y-77857142D01*
X152250000Y-77714285D01*
X152297619Y-77666666D01*
X152202380Y-76761904D02*
X152202380Y-77238095D01*
X152678571Y-77285714D01*
X152630952Y-77238095D01*
X152583333Y-77142857D01*
X152583333Y-76904761D01*
X152630952Y-76809523D01*
X152678571Y-76761904D01*
X152773809Y-76714285D01*
X153011904Y-76714285D01*
X153107142Y-76761904D01*
X153154761Y-76809523D01*
X153202380Y-76904761D01*
X153202380Y-77142857D01*
X153154761Y-77238095D01*
X153107142Y-77285714D01*
G04 #@! TO.C,C6*
X131833333Y-74357142D02*
X131785714Y-74404761D01*
X131642857Y-74452380D01*
X131547619Y-74452380D01*
X131404761Y-74404761D01*
X131309523Y-74309523D01*
X131261904Y-74214285D01*
X131214285Y-74023809D01*
X131214285Y-73880952D01*
X131261904Y-73690476D01*
X131309523Y-73595238D01*
X131404761Y-73500000D01*
X131547619Y-73452380D01*
X131642857Y-73452380D01*
X131785714Y-73500000D01*
X131833333Y-73547619D01*
X132690476Y-73452380D02*
X132500000Y-73452380D01*
X132404761Y-73500000D01*
X132357142Y-73547619D01*
X132261904Y-73690476D01*
X132214285Y-73880952D01*
X132214285Y-74261904D01*
X132261904Y-74357142D01*
X132309523Y-74404761D01*
X132404761Y-74452380D01*
X132595238Y-74452380D01*
X132690476Y-74404761D01*
X132738095Y-74357142D01*
X132785714Y-74261904D01*
X132785714Y-74023809D01*
X132738095Y-73928571D01*
X132690476Y-73880952D01*
X132595238Y-73833333D01*
X132404761Y-73833333D01*
X132309523Y-73880952D01*
X132261904Y-73928571D01*
X132214285Y-74023809D01*
G04 #@! TO.C,C7*
X148607142Y-85666666D02*
X148654761Y-85714285D01*
X148702380Y-85857142D01*
X148702380Y-85952380D01*
X148654761Y-86095238D01*
X148559523Y-86190476D01*
X148464285Y-86238095D01*
X148273809Y-86285714D01*
X148130952Y-86285714D01*
X147940476Y-86238095D01*
X147845238Y-86190476D01*
X147750000Y-86095238D01*
X147702380Y-85952380D01*
X147702380Y-85857142D01*
X147750000Y-85714285D01*
X147797619Y-85666666D01*
X147702380Y-85333333D02*
X147702380Y-84666666D01*
X148702380Y-85095238D01*
G04 #@! TO.C,C8*
X141833333Y-91607142D02*
X141785714Y-91654761D01*
X141642857Y-91702380D01*
X141547619Y-91702380D01*
X141404761Y-91654761D01*
X141309523Y-91559523D01*
X141261904Y-91464285D01*
X141214285Y-91273809D01*
X141214285Y-91130952D01*
X141261904Y-90940476D01*
X141309523Y-90845238D01*
X141404761Y-90750000D01*
X141547619Y-90702380D01*
X141642857Y-90702380D01*
X141785714Y-90750000D01*
X141833333Y-90797619D01*
X142404761Y-91130952D02*
X142309523Y-91083333D01*
X142261904Y-91035714D01*
X142214285Y-90940476D01*
X142214285Y-90892857D01*
X142261904Y-90797619D01*
X142309523Y-90750000D01*
X142404761Y-90702380D01*
X142595238Y-90702380D01*
X142690476Y-90750000D01*
X142738095Y-90797619D01*
X142785714Y-90892857D01*
X142785714Y-90940476D01*
X142738095Y-91035714D01*
X142690476Y-91083333D01*
X142595238Y-91130952D01*
X142404761Y-91130952D01*
X142309523Y-91178571D01*
X142261904Y-91226190D01*
X142214285Y-91321428D01*
X142214285Y-91511904D01*
X142261904Y-91607142D01*
X142309523Y-91654761D01*
X142404761Y-91702380D01*
X142595238Y-91702380D01*
X142690476Y-91654761D01*
X142738095Y-91607142D01*
X142785714Y-91511904D01*
X142785714Y-91321428D01*
X142738095Y-91226190D01*
X142690476Y-91178571D01*
X142595238Y-91130952D01*
G04 #@! TO.C,J3*
X94666666Y-72122380D02*
X94666666Y-72836666D01*
X94619047Y-72979523D01*
X94523809Y-73074761D01*
X94380952Y-73122380D01*
X94285714Y-73122380D01*
X95047619Y-72122380D02*
X95666666Y-72122380D01*
X95333333Y-72503333D01*
X95476190Y-72503333D01*
X95571428Y-72550952D01*
X95619047Y-72598571D01*
X95666666Y-72693809D01*
X95666666Y-72931904D01*
X95619047Y-73027142D01*
X95571428Y-73074761D01*
X95476190Y-73122380D01*
X95190476Y-73122380D01*
X95095238Y-73074761D01*
X95047619Y-73027142D01*
G04 #@! TD*
%LPC*%
D13*
G04 #@! TO.C,G\002A\002A\002A*
G36*
X114825576Y-92124450D02*
X115280219Y-92194973D01*
X115651774Y-92323875D01*
X115940418Y-92511314D01*
X116146324Y-92757445D01*
X116269669Y-93062425D01*
X116310626Y-93426410D01*
X116310462Y-93450600D01*
X116259690Y-93790793D01*
X116122813Y-94087763D01*
X115908919Y-94329051D01*
X115627094Y-94502200D01*
X115512047Y-94545047D01*
X115380139Y-94587604D01*
X115297532Y-94615787D01*
X115285639Y-94620630D01*
X115309222Y-94658458D01*
X115384184Y-94746014D01*
X115443412Y-94810241D01*
X115518073Y-94914483D01*
X115620359Y-95091612D01*
X115741250Y-95322223D01*
X115871724Y-95586910D01*
X116002760Y-95866270D01*
X116125338Y-96140897D01*
X116230436Y-96391386D01*
X116309033Y-96598332D01*
X116352109Y-96742331D01*
X116357255Y-96776009D01*
X116327355Y-96883182D01*
X116241052Y-96927267D01*
X116130926Y-96894208D01*
X116113612Y-96881104D01*
X116071715Y-96817101D01*
X115998960Y-96675688D01*
X115903216Y-96473390D01*
X115792347Y-96226726D01*
X115696953Y-96005973D01*
X115521603Y-95610061D01*
X115368317Y-95299406D01*
X115239473Y-95078607D01*
X115167838Y-94983041D01*
X114985877Y-94777555D01*
X114367738Y-94755516D01*
X113749600Y-94733477D01*
X113749600Y-95733678D01*
X113746912Y-96082968D01*
X113739273Y-96381311D01*
X113727323Y-96615381D01*
X113711698Y-96771850D01*
X113697012Y-96832139D01*
X113612292Y-96910092D01*
X113501535Y-96930069D01*
X113427866Y-96896533D01*
X113420792Y-96840206D01*
X113414218Y-96692757D01*
X113408302Y-96464660D01*
X113403201Y-96166393D01*
X113399071Y-95808431D01*
X113396070Y-95401250D01*
X113394353Y-94955327D01*
X113394000Y-94633624D01*
X113394000Y-92473809D01*
X113749600Y-92473809D01*
X113749600Y-94452968D01*
X114422700Y-94427418D01*
X114693000Y-94413233D01*
X114943638Y-94393004D01*
X115148134Y-94369330D01*
X115280008Y-94344809D01*
X115287688Y-94342563D01*
X115500188Y-94240377D01*
X115703310Y-94081304D01*
X115861656Y-93896132D01*
X115916166Y-93795925D01*
X115980231Y-93524625D01*
X115962483Y-93243167D01*
X115870410Y-92978603D01*
X115711501Y-92757985D01*
X115604286Y-92669168D01*
X115352094Y-92545980D01*
X115027482Y-92460502D01*
X114653612Y-92415991D01*
X114253642Y-92415704D01*
X113985290Y-92441504D01*
X113749600Y-92473809D01*
X113394000Y-92473809D01*
X113394000Y-92404581D01*
X113513669Y-92284912D01*
X113650102Y-92205828D01*
X113869823Y-92148584D01*
X114156477Y-92115182D01*
X114493706Y-92107621D01*
X114825576Y-92124450D01*
X114825576Y-92124450D01*
G37*
X114825576Y-92124450D02*
X115280219Y-92194973D01*
X115651774Y-92323875D01*
X115940418Y-92511314D01*
X116146324Y-92757445D01*
X116269669Y-93062425D01*
X116310626Y-93426410D01*
X116310462Y-93450600D01*
X116259690Y-93790793D01*
X116122813Y-94087763D01*
X115908919Y-94329051D01*
X115627094Y-94502200D01*
X115512047Y-94545047D01*
X115380139Y-94587604D01*
X115297532Y-94615787D01*
X115285639Y-94620630D01*
X115309222Y-94658458D01*
X115384184Y-94746014D01*
X115443412Y-94810241D01*
X115518073Y-94914483D01*
X115620359Y-95091612D01*
X115741250Y-95322223D01*
X115871724Y-95586910D01*
X116002760Y-95866270D01*
X116125338Y-96140897D01*
X116230436Y-96391386D01*
X116309033Y-96598332D01*
X116352109Y-96742331D01*
X116357255Y-96776009D01*
X116327355Y-96883182D01*
X116241052Y-96927267D01*
X116130926Y-96894208D01*
X116113612Y-96881104D01*
X116071715Y-96817101D01*
X115998960Y-96675688D01*
X115903216Y-96473390D01*
X115792347Y-96226726D01*
X115696953Y-96005973D01*
X115521603Y-95610061D01*
X115368317Y-95299406D01*
X115239473Y-95078607D01*
X115167838Y-94983041D01*
X114985877Y-94777555D01*
X114367738Y-94755516D01*
X113749600Y-94733477D01*
X113749600Y-95733678D01*
X113746912Y-96082968D01*
X113739273Y-96381311D01*
X113727323Y-96615381D01*
X113711698Y-96771850D01*
X113697012Y-96832139D01*
X113612292Y-96910092D01*
X113501535Y-96930069D01*
X113427866Y-96896533D01*
X113420792Y-96840206D01*
X113414218Y-96692757D01*
X113408302Y-96464660D01*
X113403201Y-96166393D01*
X113399071Y-95808431D01*
X113396070Y-95401250D01*
X113394353Y-94955327D01*
X113394000Y-94633624D01*
X113394000Y-92473809D01*
X113749600Y-92473809D01*
X113749600Y-94452968D01*
X114422700Y-94427418D01*
X114693000Y-94413233D01*
X114943638Y-94393004D01*
X115148134Y-94369330D01*
X115280008Y-94344809D01*
X115287688Y-94342563D01*
X115500188Y-94240377D01*
X115703310Y-94081304D01*
X115861656Y-93896132D01*
X115916166Y-93795925D01*
X115980231Y-93524625D01*
X115962483Y-93243167D01*
X115870410Y-92978603D01*
X115711501Y-92757985D01*
X115604286Y-92669168D01*
X115352094Y-92545980D01*
X115027482Y-92460502D01*
X114653612Y-92415991D01*
X114253642Y-92415704D01*
X113985290Y-92441504D01*
X113749600Y-92473809D01*
X113394000Y-92473809D01*
X113394000Y-92404581D01*
X113513669Y-92284912D01*
X113650102Y-92205828D01*
X113869823Y-92148584D01*
X114156477Y-92115182D01*
X114493706Y-92107621D01*
X114825576Y-92124450D01*
G36*
X110706539Y-92172194D02*
X110760511Y-92202768D01*
X110818265Y-92267429D01*
X110883577Y-92373414D01*
X110960222Y-92527962D01*
X111051972Y-92738311D01*
X111162604Y-93011699D01*
X111295891Y-93355365D01*
X111455607Y-93776546D01*
X111645527Y-94282482D01*
X111738793Y-94531564D01*
X111909173Y-94989700D01*
X112066826Y-95419511D01*
X112208434Y-95811527D01*
X112330679Y-96156277D01*
X112430243Y-96444292D01*
X112503809Y-96666101D01*
X112548057Y-96812235D01*
X112559671Y-96873223D01*
X112559422Y-96873738D01*
X112476518Y-96925684D01*
X112363345Y-96912785D01*
X112270211Y-96846743D01*
X112227733Y-96769140D01*
X112160841Y-96616269D01*
X112078115Y-96408953D01*
X111988138Y-96168016D01*
X111971891Y-96122843D01*
X111743000Y-95482600D01*
X109560801Y-95482600D01*
X109318387Y-96137810D01*
X109225421Y-96383094D01*
X109140173Y-96597093D01*
X109070828Y-96760015D01*
X109025574Y-96852068D01*
X109018966Y-96861710D01*
X108923661Y-96919990D01*
X108813225Y-96922681D01*
X108743727Y-96876246D01*
X108754260Y-96819172D01*
X108797416Y-96676551D01*
X108869877Y-96457865D01*
X108968324Y-96172595D01*
X109089439Y-95830225D01*
X109229904Y-95440237D01*
X109358332Y-95088900D01*
X109699021Y-95088900D01*
X109712029Y-95112108D01*
X109778302Y-95129288D01*
X109908342Y-95141161D01*
X110112650Y-95148454D01*
X110401727Y-95151889D01*
X110619964Y-95152400D01*
X110970048Y-95150754D01*
X111228921Y-95145356D01*
X111406926Y-95135510D01*
X111514406Y-95120522D01*
X111561703Y-95099699D01*
X111566113Y-95088900D01*
X111549882Y-95022743D01*
X111504241Y-94879575D01*
X111434739Y-94674646D01*
X111346925Y-94423205D01*
X111246351Y-94140502D01*
X111138566Y-93841786D01*
X111029119Y-93542308D01*
X110923560Y-93257316D01*
X110827439Y-93002060D01*
X110746307Y-92791790D01*
X110685712Y-92641755D01*
X110651205Y-92567206D01*
X110646406Y-92561764D01*
X110621794Y-92607454D01*
X110567888Y-92736205D01*
X110489570Y-92935397D01*
X110391719Y-93192411D01*
X110279219Y-93494626D01*
X110169962Y-93793500D01*
X110048105Y-94129462D01*
X109937024Y-94435461D01*
X109841619Y-94698028D01*
X109766785Y-94903691D01*
X109717419Y-95038980D01*
X109699021Y-95088900D01*
X109358332Y-95088900D01*
X109386401Y-95012113D01*
X109555612Y-94555337D01*
X109559514Y-94544873D01*
X109760084Y-94008495D01*
X109929195Y-93559941D01*
X110070043Y-93191526D01*
X110185822Y-92895569D01*
X110279728Y-92664385D01*
X110354958Y-92490291D01*
X110414708Y-92365604D01*
X110462172Y-92282641D01*
X110500547Y-92233717D01*
X110529583Y-92212607D01*
X110594850Y-92184352D01*
X110652577Y-92168468D01*
X110706539Y-92172194D01*
X110706539Y-92172194D01*
G37*
X110706539Y-92172194D02*
X110760511Y-92202768D01*
X110818265Y-92267429D01*
X110883577Y-92373414D01*
X110960222Y-92527962D01*
X111051972Y-92738311D01*
X111162604Y-93011699D01*
X111295891Y-93355365D01*
X111455607Y-93776546D01*
X111645527Y-94282482D01*
X111738793Y-94531564D01*
X111909173Y-94989700D01*
X112066826Y-95419511D01*
X112208434Y-95811527D01*
X112330679Y-96156277D01*
X112430243Y-96444292D01*
X112503809Y-96666101D01*
X112548057Y-96812235D01*
X112559671Y-96873223D01*
X112559422Y-96873738D01*
X112476518Y-96925684D01*
X112363345Y-96912785D01*
X112270211Y-96846743D01*
X112227733Y-96769140D01*
X112160841Y-96616269D01*
X112078115Y-96408953D01*
X111988138Y-96168016D01*
X111971891Y-96122843D01*
X111743000Y-95482600D01*
X109560801Y-95482600D01*
X109318387Y-96137810D01*
X109225421Y-96383094D01*
X109140173Y-96597093D01*
X109070828Y-96760015D01*
X109025574Y-96852068D01*
X109018966Y-96861710D01*
X108923661Y-96919990D01*
X108813225Y-96922681D01*
X108743727Y-96876246D01*
X108754260Y-96819172D01*
X108797416Y-96676551D01*
X108869877Y-96457865D01*
X108968324Y-96172595D01*
X109089439Y-95830225D01*
X109229904Y-95440237D01*
X109358332Y-95088900D01*
X109699021Y-95088900D01*
X109712029Y-95112108D01*
X109778302Y-95129288D01*
X109908342Y-95141161D01*
X110112650Y-95148454D01*
X110401727Y-95151889D01*
X110619964Y-95152400D01*
X110970048Y-95150754D01*
X111228921Y-95145356D01*
X111406926Y-95135510D01*
X111514406Y-95120522D01*
X111561703Y-95099699D01*
X111566113Y-95088900D01*
X111549882Y-95022743D01*
X111504241Y-94879575D01*
X111434739Y-94674646D01*
X111346925Y-94423205D01*
X111246351Y-94140502D01*
X111138566Y-93841786D01*
X111029119Y-93542308D01*
X110923560Y-93257316D01*
X110827439Y-93002060D01*
X110746307Y-92791790D01*
X110685712Y-92641755D01*
X110651205Y-92567206D01*
X110646406Y-92561764D01*
X110621794Y-92607454D01*
X110567888Y-92736205D01*
X110489570Y-92935397D01*
X110391719Y-93192411D01*
X110279219Y-93494626D01*
X110169962Y-93793500D01*
X110048105Y-94129462D01*
X109937024Y-94435461D01*
X109841619Y-94698028D01*
X109766785Y-94903691D01*
X109717419Y-95038980D01*
X109699021Y-95088900D01*
X109358332Y-95088900D01*
X109386401Y-95012113D01*
X109555612Y-94555337D01*
X109559514Y-94544873D01*
X109760084Y-94008495D01*
X109929195Y-93559941D01*
X110070043Y-93191526D01*
X110185822Y-92895569D01*
X110279728Y-92664385D01*
X110354958Y-92490291D01*
X110414708Y-92365604D01*
X110462172Y-92282641D01*
X110500547Y-92233717D01*
X110529583Y-92212607D01*
X110594850Y-92184352D01*
X110652577Y-92168468D01*
X110706539Y-92172194D01*
G36*
X103124802Y-92165680D02*
X103185571Y-92181352D01*
X103185797Y-92181424D01*
X103216285Y-92191946D01*
X103244581Y-92207932D01*
X103273948Y-92237118D01*
X103307645Y-92287241D01*
X103348934Y-92366039D01*
X103401077Y-92481248D01*
X103467335Y-92640605D01*
X103550970Y-92851847D01*
X103655242Y-93122711D01*
X103783414Y-93460934D01*
X103938746Y-93874253D01*
X104124500Y-94370404D01*
X104250223Y-94706556D01*
X104412118Y-95142966D01*
X104561171Y-95551567D01*
X104693875Y-95922242D01*
X104806722Y-96244873D01*
X104896206Y-96509343D01*
X104958820Y-96705534D01*
X104991057Y-96823327D01*
X104994144Y-96852856D01*
X104925185Y-96920110D01*
X104821576Y-96919459D01*
X104720006Y-96855338D01*
X104690094Y-96816100D01*
X104646785Y-96725794D01*
X104579341Y-96561897D01*
X104496644Y-96346902D01*
X104407579Y-96103303D01*
X104398772Y-96078539D01*
X104177697Y-95455278D01*
X103090297Y-95468939D01*
X102002898Y-95482600D01*
X101741884Y-96193800D01*
X101639334Y-96469747D01*
X101562376Y-96664327D01*
X101503089Y-96792084D01*
X101453557Y-96867566D01*
X101405859Y-96905319D01*
X101352078Y-96919889D01*
X101346233Y-96920611D01*
X101235532Y-96915482D01*
X101180668Y-96886182D01*
X101191689Y-96829927D01*
X101235280Y-96688111D01*
X101308106Y-96470217D01*
X101406835Y-96185731D01*
X101528133Y-95844136D01*
X101668666Y-95454916D01*
X101803432Y-95086755D01*
X102167200Y-95086755D01*
X102188755Y-95110827D01*
X102260818Y-95128603D01*
X102394485Y-95140855D01*
X102600852Y-95148355D01*
X102891015Y-95151876D01*
X103110423Y-95152400D01*
X103441597Y-95151786D01*
X103684196Y-95149104D01*
X103851239Y-95143086D01*
X103955747Y-95132468D01*
X104010742Y-95115985D01*
X104029243Y-95092372D01*
X104025303Y-95063500D01*
X103957408Y-94859713D01*
X103869297Y-94608898D01*
X103766398Y-94325145D01*
X103654140Y-94022547D01*
X103537953Y-93715196D01*
X103423265Y-93417186D01*
X103315506Y-93142607D01*
X103220103Y-92905553D01*
X103142488Y-92720115D01*
X103088087Y-92600387D01*
X103062331Y-92560460D01*
X103061459Y-92561600D01*
X102931097Y-92915341D01*
X102797809Y-93280819D01*
X102666186Y-93645073D01*
X102540817Y-93995144D01*
X102426292Y-94318072D01*
X102327200Y-94600898D01*
X102248130Y-94830662D01*
X102193673Y-94994405D01*
X102168417Y-95079167D01*
X102167200Y-95086755D01*
X101803432Y-95086755D01*
X101825103Y-95027555D01*
X101994108Y-94571538D01*
X101995124Y-94568813D01*
X102199942Y-94020534D01*
X102373343Y-93560258D01*
X102518992Y-93180639D01*
X102640552Y-92874330D01*
X102741688Y-92633984D01*
X102826065Y-92452253D01*
X102897346Y-92321790D01*
X102959196Y-92235249D01*
X103015279Y-92185282D01*
X103069260Y-92164541D01*
X103124802Y-92165680D01*
X103124802Y-92165680D01*
G37*
X103124802Y-92165680D02*
X103185571Y-92181352D01*
X103185797Y-92181424D01*
X103216285Y-92191946D01*
X103244581Y-92207932D01*
X103273948Y-92237118D01*
X103307645Y-92287241D01*
X103348934Y-92366039D01*
X103401077Y-92481248D01*
X103467335Y-92640605D01*
X103550970Y-92851847D01*
X103655242Y-93122711D01*
X103783414Y-93460934D01*
X103938746Y-93874253D01*
X104124500Y-94370404D01*
X104250223Y-94706556D01*
X104412118Y-95142966D01*
X104561171Y-95551567D01*
X104693875Y-95922242D01*
X104806722Y-96244873D01*
X104896206Y-96509343D01*
X104958820Y-96705534D01*
X104991057Y-96823327D01*
X104994144Y-96852856D01*
X104925185Y-96920110D01*
X104821576Y-96919459D01*
X104720006Y-96855338D01*
X104690094Y-96816100D01*
X104646785Y-96725794D01*
X104579341Y-96561897D01*
X104496644Y-96346902D01*
X104407579Y-96103303D01*
X104398772Y-96078539D01*
X104177697Y-95455278D01*
X103090297Y-95468939D01*
X102002898Y-95482600D01*
X101741884Y-96193800D01*
X101639334Y-96469747D01*
X101562376Y-96664327D01*
X101503089Y-96792084D01*
X101453557Y-96867566D01*
X101405859Y-96905319D01*
X101352078Y-96919889D01*
X101346233Y-96920611D01*
X101235532Y-96915482D01*
X101180668Y-96886182D01*
X101191689Y-96829927D01*
X101235280Y-96688111D01*
X101308106Y-96470217D01*
X101406835Y-96185731D01*
X101528133Y-95844136D01*
X101668666Y-95454916D01*
X101803432Y-95086755D01*
X102167200Y-95086755D01*
X102188755Y-95110827D01*
X102260818Y-95128603D01*
X102394485Y-95140855D01*
X102600852Y-95148355D01*
X102891015Y-95151876D01*
X103110423Y-95152400D01*
X103441597Y-95151786D01*
X103684196Y-95149104D01*
X103851239Y-95143086D01*
X103955747Y-95132468D01*
X104010742Y-95115985D01*
X104029243Y-95092372D01*
X104025303Y-95063500D01*
X103957408Y-94859713D01*
X103869297Y-94608898D01*
X103766398Y-94325145D01*
X103654140Y-94022547D01*
X103537953Y-93715196D01*
X103423265Y-93417186D01*
X103315506Y-93142607D01*
X103220103Y-92905553D01*
X103142488Y-92720115D01*
X103088087Y-92600387D01*
X103062331Y-92560460D01*
X103061459Y-92561600D01*
X102931097Y-92915341D01*
X102797809Y-93280819D01*
X102666186Y-93645073D01*
X102540817Y-93995144D01*
X102426292Y-94318072D01*
X102327200Y-94600898D01*
X102248130Y-94830662D01*
X102193673Y-94994405D01*
X102168417Y-95079167D01*
X102167200Y-95086755D01*
X101803432Y-95086755D01*
X101825103Y-95027555D01*
X101994108Y-94571538D01*
X101995124Y-94568813D01*
X102199942Y-94020534D01*
X102373343Y-93560258D01*
X102518992Y-93180639D01*
X102640552Y-92874330D01*
X102741688Y-92633984D01*
X102826065Y-92452253D01*
X102897346Y-92321790D01*
X102959196Y-92235249D01*
X103015279Y-92185282D01*
X103069260Y-92164541D01*
X103124802Y-92165680D01*
G36*
X107207358Y-92147663D02*
X107496547Y-92186691D01*
X107746922Y-92244927D01*
X107946241Y-92317774D01*
X108082261Y-92400630D01*
X108142740Y-92488895D01*
X108115433Y-92577970D01*
X108105604Y-92588567D01*
X108052884Y-92625813D01*
X107981369Y-92631124D01*
X107863720Y-92602162D01*
X107727999Y-92556272D01*
X107448354Y-92481050D01*
X107134568Y-92433905D01*
X106823381Y-92417671D01*
X106551534Y-92435181D01*
X106443018Y-92457157D01*
X106265008Y-92531566D01*
X106087355Y-92644931D01*
X106040392Y-92684295D01*
X105933902Y-92793104D01*
X105875609Y-92896799D01*
X105847612Y-93036703D01*
X105838174Y-93151137D01*
X105857372Y-93438112D01*
X105958237Y-93684656D01*
X106145128Y-93895571D01*
X106422402Y-94075657D01*
X106794419Y-94229716D01*
X106827183Y-94240659D01*
X107282127Y-94413281D01*
X107642339Y-94603468D01*
X107914082Y-94817698D01*
X108103616Y-95062452D01*
X108217205Y-95344210D01*
X108261109Y-95669451D01*
X108262084Y-95725531D01*
X108226988Y-96091022D01*
X108116108Y-96392056D01*
X107924943Y-96636570D01*
X107648994Y-96832502D01*
X107628200Y-96843648D01*
X107412408Y-96919225D01*
X107129506Y-96964023D01*
X106809321Y-96977681D01*
X106481681Y-96959839D01*
X106176416Y-96910134D01*
X106011597Y-96863203D01*
X105745395Y-96752878D01*
X105568749Y-96640010D01*
X105485948Y-96528015D01*
X105488173Y-96446229D01*
X105522379Y-96397854D01*
X105586421Y-96383140D01*
X105696425Y-96404895D01*
X105868513Y-96465929D01*
X106066610Y-96546981D01*
X106283557Y-96625799D01*
X106490439Y-96667412D01*
X106738370Y-96681412D01*
X106784711Y-96681729D01*
X107163720Y-96654123D01*
X107461474Y-96567450D01*
X107681451Y-96418706D01*
X107827128Y-96204885D01*
X107901983Y-95922984D01*
X107914330Y-95705719D01*
X107898335Y-95479313D01*
X107846066Y-95287111D01*
X107747564Y-95120025D01*
X107592870Y-94968969D01*
X107372024Y-94824854D01*
X107075067Y-94678593D01*
X106692039Y-94521100D01*
X106561400Y-94471260D01*
X106178357Y-94296066D01*
X105885497Y-94090627D01*
X105674155Y-93848194D01*
X105602932Y-93724418D01*
X105493612Y-93404623D01*
X105480957Y-93089853D01*
X105562603Y-92793169D01*
X105736184Y-92527636D01*
X105837868Y-92426841D01*
X106019043Y-92292755D01*
X106217020Y-92203682D01*
X106456330Y-92152769D01*
X106761507Y-92133162D01*
X106891600Y-92132444D01*
X107207358Y-92147663D01*
X107207358Y-92147663D01*
G37*
X107207358Y-92147663D02*
X107496547Y-92186691D01*
X107746922Y-92244927D01*
X107946241Y-92317774D01*
X108082261Y-92400630D01*
X108142740Y-92488895D01*
X108115433Y-92577970D01*
X108105604Y-92588567D01*
X108052884Y-92625813D01*
X107981369Y-92631124D01*
X107863720Y-92602162D01*
X107727999Y-92556272D01*
X107448354Y-92481050D01*
X107134568Y-92433905D01*
X106823381Y-92417671D01*
X106551534Y-92435181D01*
X106443018Y-92457157D01*
X106265008Y-92531566D01*
X106087355Y-92644931D01*
X106040392Y-92684295D01*
X105933902Y-92793104D01*
X105875609Y-92896799D01*
X105847612Y-93036703D01*
X105838174Y-93151137D01*
X105857372Y-93438112D01*
X105958237Y-93684656D01*
X106145128Y-93895571D01*
X106422402Y-94075657D01*
X106794419Y-94229716D01*
X106827183Y-94240659D01*
X107282127Y-94413281D01*
X107642339Y-94603468D01*
X107914082Y-94817698D01*
X108103616Y-95062452D01*
X108217205Y-95344210D01*
X108261109Y-95669451D01*
X108262084Y-95725531D01*
X108226988Y-96091022D01*
X108116108Y-96392056D01*
X107924943Y-96636570D01*
X107648994Y-96832502D01*
X107628200Y-96843648D01*
X107412408Y-96919225D01*
X107129506Y-96964023D01*
X106809321Y-96977681D01*
X106481681Y-96959839D01*
X106176416Y-96910134D01*
X106011597Y-96863203D01*
X105745395Y-96752878D01*
X105568749Y-96640010D01*
X105485948Y-96528015D01*
X105488173Y-96446229D01*
X105522379Y-96397854D01*
X105586421Y-96383140D01*
X105696425Y-96404895D01*
X105868513Y-96465929D01*
X106066610Y-96546981D01*
X106283557Y-96625799D01*
X106490439Y-96667412D01*
X106738370Y-96681412D01*
X106784711Y-96681729D01*
X107163720Y-96654123D01*
X107461474Y-96567450D01*
X107681451Y-96418706D01*
X107827128Y-96204885D01*
X107901983Y-95922984D01*
X107914330Y-95705719D01*
X107898335Y-95479313D01*
X107846066Y-95287111D01*
X107747564Y-95120025D01*
X107592870Y-94968969D01*
X107372024Y-94824854D01*
X107075067Y-94678593D01*
X106692039Y-94521100D01*
X106561400Y-94471260D01*
X106178357Y-94296066D01*
X105885497Y-94090627D01*
X105674155Y-93848194D01*
X105602932Y-93724418D01*
X105493612Y-93404623D01*
X105480957Y-93089853D01*
X105562603Y-92793169D01*
X105736184Y-92527636D01*
X105837868Y-92426841D01*
X106019043Y-92292755D01*
X106217020Y-92203682D01*
X106456330Y-92152769D01*
X106761507Y-92133162D01*
X106891600Y-92132444D01*
X107207358Y-92147663D01*
G36*
X100593459Y-92180586D02*
X100640109Y-92227676D01*
X100657488Y-92278323D01*
X100670738Y-92388108D01*
X100680032Y-92564283D01*
X100685541Y-92814103D01*
X100687439Y-93144821D01*
X100685896Y-93563691D01*
X100682025Y-93992976D01*
X100676228Y-94469564D01*
X100669738Y-94856142D01*
X100661927Y-95164302D01*
X100652167Y-95405636D01*
X100639831Y-95591733D01*
X100624289Y-95734184D01*
X100604916Y-95844582D01*
X100581081Y-95934515D01*
X100575993Y-95950258D01*
X100407596Y-96303239D01*
X100160134Y-96596252D01*
X99881562Y-96797377D01*
X99741410Y-96871034D01*
X99617404Y-96918278D01*
X99478492Y-96945794D01*
X99293624Y-96960266D01*
X99094162Y-96966884D01*
X98744791Y-96964101D01*
X98477167Y-96934937D01*
X98337653Y-96900677D01*
X98058504Y-96762893D01*
X97804426Y-96545321D01*
X97595570Y-96269652D01*
X97452087Y-95957579D01*
X97447233Y-95942195D01*
X97418169Y-95842104D01*
X97394936Y-95742027D01*
X97376888Y-95629540D01*
X97363377Y-95492220D01*
X97353755Y-95317646D01*
X97347374Y-95093392D01*
X97343588Y-94807037D01*
X97341749Y-94446157D01*
X97341209Y-93998329D01*
X97341200Y-93907884D01*
X97341714Y-93441809D01*
X97343549Y-93067451D01*
X97347141Y-92774931D01*
X97352929Y-92554369D01*
X97361351Y-92395888D01*
X97372843Y-92289607D01*
X97387844Y-92225647D01*
X97406790Y-92194129D01*
X97417399Y-92187629D01*
X97474968Y-92168048D01*
X97521552Y-92164302D01*
X97558474Y-92185785D01*
X97587058Y-92241889D01*
X97608627Y-92342007D01*
X97624502Y-92495531D01*
X97636008Y-92711856D01*
X97644467Y-93000373D01*
X97651202Y-93370476D01*
X97657536Y-93831558D01*
X97658400Y-93898766D01*
X97665864Y-94413757D01*
X97675054Y-94838251D01*
X97687863Y-95183349D01*
X97706185Y-95460153D01*
X97731914Y-95679766D01*
X97766943Y-95853289D01*
X97813166Y-95991826D01*
X97872477Y-96106477D01*
X97946770Y-96208346D01*
X98037938Y-96308533D01*
X98076018Y-96347092D01*
X98256019Y-96500462D01*
X98447603Y-96600186D01*
X98677923Y-96655471D01*
X98974134Y-96675521D01*
X99046590Y-96676116D01*
X99416825Y-96638561D01*
X99722733Y-96523840D01*
X99968485Y-96329830D01*
X100115703Y-96131220D01*
X100209143Y-95950811D01*
X100280457Y-95770582D01*
X100305644Y-95674020D01*
X100313544Y-95576240D01*
X100320760Y-95391083D01*
X100327033Y-95132769D01*
X100332106Y-94815519D01*
X100335721Y-94453554D01*
X100337619Y-94061096D01*
X100337840Y-93898728D01*
X100338558Y-93448151D01*
X100340701Y-93088487D01*
X100344786Y-92809051D01*
X100351330Y-92599161D01*
X100360849Y-92448134D01*
X100373858Y-92345285D01*
X100390874Y-92279931D01*
X100412414Y-92241390D01*
X100418228Y-92235028D01*
X100514981Y-92163626D01*
X100593459Y-92180586D01*
X100593459Y-92180586D01*
G37*
X100593459Y-92180586D02*
X100640109Y-92227676D01*
X100657488Y-92278323D01*
X100670738Y-92388108D01*
X100680032Y-92564283D01*
X100685541Y-92814103D01*
X100687439Y-93144821D01*
X100685896Y-93563691D01*
X100682025Y-93992976D01*
X100676228Y-94469564D01*
X100669738Y-94856142D01*
X100661927Y-95164302D01*
X100652167Y-95405636D01*
X100639831Y-95591733D01*
X100624289Y-95734184D01*
X100604916Y-95844582D01*
X100581081Y-95934515D01*
X100575993Y-95950258D01*
X100407596Y-96303239D01*
X100160134Y-96596252D01*
X99881562Y-96797377D01*
X99741410Y-96871034D01*
X99617404Y-96918278D01*
X99478492Y-96945794D01*
X99293624Y-96960266D01*
X99094162Y-96966884D01*
X98744791Y-96964101D01*
X98477167Y-96934937D01*
X98337653Y-96900677D01*
X98058504Y-96762893D01*
X97804426Y-96545321D01*
X97595570Y-96269652D01*
X97452087Y-95957579D01*
X97447233Y-95942195D01*
X97418169Y-95842104D01*
X97394936Y-95742027D01*
X97376888Y-95629540D01*
X97363377Y-95492220D01*
X97353755Y-95317646D01*
X97347374Y-95093392D01*
X97343588Y-94807037D01*
X97341749Y-94446157D01*
X97341209Y-93998329D01*
X97341200Y-93907884D01*
X97341714Y-93441809D01*
X97343549Y-93067451D01*
X97347141Y-92774931D01*
X97352929Y-92554369D01*
X97361351Y-92395888D01*
X97372843Y-92289607D01*
X97387844Y-92225647D01*
X97406790Y-92194129D01*
X97417399Y-92187629D01*
X97474968Y-92168048D01*
X97521552Y-92164302D01*
X97558474Y-92185785D01*
X97587058Y-92241889D01*
X97608627Y-92342007D01*
X97624502Y-92495531D01*
X97636008Y-92711856D01*
X97644467Y-93000373D01*
X97651202Y-93370476D01*
X97657536Y-93831558D01*
X97658400Y-93898766D01*
X97665864Y-94413757D01*
X97675054Y-94838251D01*
X97687863Y-95183349D01*
X97706185Y-95460153D01*
X97731914Y-95679766D01*
X97766943Y-95853289D01*
X97813166Y-95991826D01*
X97872477Y-96106477D01*
X97946770Y-96208346D01*
X98037938Y-96308533D01*
X98076018Y-96347092D01*
X98256019Y-96500462D01*
X98447603Y-96600186D01*
X98677923Y-96655471D01*
X98974134Y-96675521D01*
X99046590Y-96676116D01*
X99416825Y-96638561D01*
X99722733Y-96523840D01*
X99968485Y-96329830D01*
X100115703Y-96131220D01*
X100209143Y-95950811D01*
X100280457Y-95770582D01*
X100305644Y-95674020D01*
X100313544Y-95576240D01*
X100320760Y-95391083D01*
X100327033Y-95132769D01*
X100332106Y-94815519D01*
X100335721Y-94453554D01*
X100337619Y-94061096D01*
X100337840Y-93898728D01*
X100338558Y-93448151D01*
X100340701Y-93088487D01*
X100344786Y-92809051D01*
X100351330Y-92599161D01*
X100360849Y-92448134D01*
X100373858Y-92345285D01*
X100390874Y-92279931D01*
X100412414Y-92241390D01*
X100418228Y-92235028D01*
X100514981Y-92163626D01*
X100593459Y-92180586D01*
G36*
X94855106Y-92143399D02*
X95304791Y-92247832D01*
X95693889Y-92425244D01*
X96040473Y-92684309D01*
X96100646Y-92741167D01*
X96394263Y-93096132D01*
X96605186Y-93507649D01*
X96734020Y-93977340D01*
X96781370Y-94506822D01*
X96781649Y-94562433D01*
X96739472Y-95068517D01*
X96618210Y-95530739D01*
X96422492Y-95940058D01*
X96156947Y-96287430D01*
X95826203Y-96563814D01*
X95725440Y-96625600D01*
X95571664Y-96716553D01*
X95459873Y-96788796D01*
X95412685Y-96827646D01*
X95412381Y-96828800D01*
X95456087Y-96855295D01*
X95571092Y-96898446D01*
X95703036Y-96940025D01*
X95906953Y-97017390D01*
X96126866Y-97129493D01*
X96346918Y-97264380D01*
X96551250Y-97410101D01*
X96724003Y-97554702D01*
X96849320Y-97686230D01*
X96911342Y-97792734D01*
X96907520Y-97847841D01*
X96821877Y-97900498D01*
X96687604Y-97876508D01*
X96517222Y-97780362D01*
X96360259Y-97651669D01*
X96153528Y-97472049D01*
X95957286Y-97332756D01*
X95752201Y-97226916D01*
X95518941Y-97147653D01*
X95238174Y-97088092D01*
X94890569Y-97041357D01*
X94552260Y-97008661D01*
X94231032Y-96978136D01*
X93988734Y-96947480D01*
X93802781Y-96912384D01*
X93650588Y-96868542D01*
X93509571Y-96811646D01*
X93502535Y-96808440D01*
X93093824Y-96567672D01*
X92751988Y-96253884D01*
X92484868Y-95876171D01*
X92300303Y-95443629D01*
X92286797Y-95398084D01*
X92229979Y-95113506D01*
X92198454Y-94771469D01*
X92193119Y-94418583D01*
X92534806Y-94418583D01*
X92548520Y-94862441D01*
X92634839Y-95297469D01*
X92760317Y-95631954D01*
X92985818Y-96005557D01*
X93272869Y-96300509D01*
X93615866Y-96514397D01*
X94009201Y-96644810D01*
X94447268Y-96689337D01*
X94924461Y-96645565D01*
X95055200Y-96619211D01*
X95408604Y-96489665D01*
X95726129Y-96273015D01*
X95997673Y-95980432D01*
X96213132Y-95623089D01*
X96362406Y-95212157D01*
X96375547Y-95159111D01*
X96408146Y-94930239D01*
X96418575Y-94642683D01*
X96408540Y-94331670D01*
X96379749Y-94032429D01*
X96333908Y-93780188D01*
X96303865Y-93679200D01*
X96226498Y-93506235D01*
X96116854Y-93307135D01*
X96040741Y-93187563D01*
X95776523Y-92886671D01*
X95455026Y-92658122D01*
X95091739Y-92503350D01*
X94702149Y-92423791D01*
X94301744Y-92420880D01*
X93906011Y-92496053D01*
X93530438Y-92650745D01*
X93190512Y-92886392D01*
X93153122Y-92919929D01*
X92902855Y-93216570D01*
X92714617Y-93577395D01*
X92591053Y-93984150D01*
X92534806Y-94418583D01*
X92193119Y-94418583D01*
X92193019Y-94412022D01*
X92214469Y-94075214D01*
X92255661Y-93831600D01*
X92415103Y-93380267D01*
X92651927Y-92988092D01*
X92956955Y-92661036D01*
X93321012Y-92405057D01*
X93734919Y-92226117D01*
X94189498Y-92130175D01*
X94675573Y-92123192D01*
X94855106Y-92143399D01*
X94855106Y-92143399D01*
G37*
X94855106Y-92143399D02*
X95304791Y-92247832D01*
X95693889Y-92425244D01*
X96040473Y-92684309D01*
X96100646Y-92741167D01*
X96394263Y-93096132D01*
X96605186Y-93507649D01*
X96734020Y-93977340D01*
X96781370Y-94506822D01*
X96781649Y-94562433D01*
X96739472Y-95068517D01*
X96618210Y-95530739D01*
X96422492Y-95940058D01*
X96156947Y-96287430D01*
X95826203Y-96563814D01*
X95725440Y-96625600D01*
X95571664Y-96716553D01*
X95459873Y-96788796D01*
X95412685Y-96827646D01*
X95412381Y-96828800D01*
X95456087Y-96855295D01*
X95571092Y-96898446D01*
X95703036Y-96940025D01*
X95906953Y-97017390D01*
X96126866Y-97129493D01*
X96346918Y-97264380D01*
X96551250Y-97410101D01*
X96724003Y-97554702D01*
X96849320Y-97686230D01*
X96911342Y-97792734D01*
X96907520Y-97847841D01*
X96821877Y-97900498D01*
X96687604Y-97876508D01*
X96517222Y-97780362D01*
X96360259Y-97651669D01*
X96153528Y-97472049D01*
X95957286Y-97332756D01*
X95752201Y-97226916D01*
X95518941Y-97147653D01*
X95238174Y-97088092D01*
X94890569Y-97041357D01*
X94552260Y-97008661D01*
X94231032Y-96978136D01*
X93988734Y-96947480D01*
X93802781Y-96912384D01*
X93650588Y-96868542D01*
X93509571Y-96811646D01*
X93502535Y-96808440D01*
X93093824Y-96567672D01*
X92751988Y-96253884D01*
X92484868Y-95876171D01*
X92300303Y-95443629D01*
X92286797Y-95398084D01*
X92229979Y-95113506D01*
X92198454Y-94771469D01*
X92193119Y-94418583D01*
X92534806Y-94418583D01*
X92548520Y-94862441D01*
X92634839Y-95297469D01*
X92760317Y-95631954D01*
X92985818Y-96005557D01*
X93272869Y-96300509D01*
X93615866Y-96514397D01*
X94009201Y-96644810D01*
X94447268Y-96689337D01*
X94924461Y-96645565D01*
X95055200Y-96619211D01*
X95408604Y-96489665D01*
X95726129Y-96273015D01*
X95997673Y-95980432D01*
X96213132Y-95623089D01*
X96362406Y-95212157D01*
X96375547Y-95159111D01*
X96408146Y-94930239D01*
X96418575Y-94642683D01*
X96408540Y-94331670D01*
X96379749Y-94032429D01*
X96333908Y-93780188D01*
X96303865Y-93679200D01*
X96226498Y-93506235D01*
X96116854Y-93307135D01*
X96040741Y-93187563D01*
X95776523Y-92886671D01*
X95455026Y-92658122D01*
X95091739Y-92503350D01*
X94702149Y-92423791D01*
X94301744Y-92420880D01*
X93906011Y-92496053D01*
X93530438Y-92650745D01*
X93190512Y-92886392D01*
X93153122Y-92919929D01*
X92902855Y-93216570D01*
X92714617Y-93577395D01*
X92591053Y-93984150D01*
X92534806Y-94418583D01*
X92193119Y-94418583D01*
X92193019Y-94412022D01*
X92214469Y-94075214D01*
X92255661Y-93831600D01*
X92415103Y-93380267D01*
X92651927Y-92988092D01*
X92956955Y-92661036D01*
X93321012Y-92405057D01*
X93734919Y-92226117D01*
X94189498Y-92130175D01*
X94675573Y-92123192D01*
X94855106Y-92143399D01*
G36*
X234190500Y-93420500D02*
X233785688Y-93420500D01*
X233785688Y-93015688D01*
X234190500Y-93015688D01*
X234190500Y-93420500D01*
X234190500Y-93420500D01*
G37*
X234190500Y-93420500D02*
X233785688Y-93420500D01*
X233785688Y-93015688D01*
X234190500Y-93015688D01*
X234190500Y-93420500D01*
G36*
X234595313Y-94206313D02*
X234190500Y-94206313D01*
X234190500Y-93825313D01*
X234595313Y-93825313D01*
X234595313Y-94206313D01*
X234595313Y-94206313D01*
G37*
X234595313Y-94206313D02*
X234190500Y-94206313D01*
X234190500Y-93825313D01*
X234595313Y-93825313D01*
X234595313Y-94206313D01*
G36*
X233785688Y-94206313D02*
X233404688Y-94206313D01*
X233404688Y-93825313D01*
X233785688Y-93825313D01*
X233785688Y-94206313D01*
X233785688Y-94206313D01*
G37*
X233785688Y-94206313D02*
X233404688Y-94206313D01*
X233404688Y-93825313D01*
X233785688Y-93825313D01*
X233785688Y-94206313D01*
G36*
X234976313Y-95015938D02*
X234595313Y-95015938D01*
X234595313Y-94611125D01*
X234976313Y-94611125D01*
X234976313Y-95015938D01*
X234976313Y-95015938D01*
G37*
X234976313Y-95015938D02*
X234595313Y-95015938D01*
X234595313Y-94611125D01*
X234976313Y-94611125D01*
X234976313Y-95015938D01*
G36*
X234190500Y-95015938D02*
X233785688Y-95015938D01*
X233785688Y-94611125D01*
X234190500Y-94611125D01*
X234190500Y-95015938D01*
X234190500Y-95015938D01*
G37*
X234190500Y-95015938D02*
X233785688Y-95015938D01*
X233785688Y-94611125D01*
X234190500Y-94611125D01*
X234190500Y-95015938D01*
G36*
X233404688Y-95015938D02*
X232999875Y-95015938D01*
X232999875Y-94611125D01*
X233404688Y-94611125D01*
X233404688Y-95015938D01*
X233404688Y-95015938D01*
G37*
X233404688Y-95015938D02*
X232999875Y-95015938D01*
X232999875Y-94611125D01*
X233404688Y-94611125D01*
X233404688Y-95015938D01*
G36*
X235381125Y-95801750D02*
X234976313Y-95801750D01*
X234976313Y-95396938D01*
X235381125Y-95396938D01*
X235381125Y-95801750D01*
X235381125Y-95801750D01*
G37*
X235381125Y-95801750D02*
X234976313Y-95801750D01*
X234976313Y-95396938D01*
X235381125Y-95396938D01*
X235381125Y-95801750D01*
G36*
X232999875Y-95801750D02*
X232595063Y-95801750D01*
X232595063Y-95396938D01*
X232999875Y-95396938D01*
X232999875Y-95801750D01*
X232999875Y-95801750D01*
G37*
X232999875Y-95801750D02*
X232595063Y-95801750D01*
X232595063Y-95396938D01*
X232999875Y-95396938D01*
X232999875Y-95801750D01*
G36*
X234003969Y-91528045D02*
X234128087Y-91529415D01*
X234239799Y-91533572D01*
X234342392Y-91540919D01*
X234439156Y-91551860D01*
X234533378Y-91566798D01*
X234628347Y-91586137D01*
X234727351Y-91610281D01*
X234772630Y-91622418D01*
X234981177Y-91687656D01*
X235183265Y-91766992D01*
X235378128Y-91860028D01*
X235564999Y-91966368D01*
X235743114Y-92085616D01*
X235895260Y-92203617D01*
X236052928Y-92344342D01*
X236200265Y-92495787D01*
X236336586Y-92656885D01*
X236461208Y-92826567D01*
X236573447Y-93003766D01*
X236672620Y-93187416D01*
X236758042Y-93376447D01*
X236829030Y-93569793D01*
X236877784Y-93737803D01*
X236910855Y-93877789D01*
X236936215Y-94009725D01*
X236954607Y-94138997D01*
X236966775Y-94270993D01*
X236973461Y-94411100D01*
X236974114Y-94436500D01*
X236971395Y-94654797D01*
X236953200Y-94869580D01*
X236919535Y-95080821D01*
X236870406Y-95288489D01*
X236805819Y-95492555D01*
X236741622Y-95656487D01*
X236713539Y-95721752D01*
X236689477Y-95775910D01*
X236667608Y-95822613D01*
X236646107Y-95865513D01*
X236623146Y-95908263D01*
X236596900Y-95954515D01*
X236567775Y-96004156D01*
X236448556Y-96190427D01*
X236318452Y-96365153D01*
X236177329Y-96528465D01*
X236025055Y-96680496D01*
X235861497Y-96821380D01*
X235686524Y-96951248D01*
X235504156Y-97067775D01*
X235451327Y-97098744D01*
X235405414Y-97124721D01*
X235362765Y-97147531D01*
X235319728Y-97169001D01*
X235272651Y-97190957D01*
X235217881Y-97215225D01*
X235156487Y-97241622D01*
X235060254Y-97281169D01*
X234971536Y-97314208D01*
X234884422Y-97342695D01*
X234792998Y-97368589D01*
X234710406Y-97389322D01*
X234545890Y-97424876D01*
X234388795Y-97450553D01*
X234234567Y-97466893D01*
X234078649Y-97474436D01*
X233988094Y-97475013D01*
X233936875Y-97474498D01*
X233888754Y-97473793D01*
X233846874Y-97472960D01*
X233814378Y-97472063D01*
X233794410Y-97471165D01*
X233793625Y-97471109D01*
X233577451Y-97447157D01*
X233364694Y-97408170D01*
X233156213Y-97354467D01*
X232952868Y-97286363D01*
X232755516Y-97204176D01*
X232565018Y-97108225D01*
X232382232Y-96998826D01*
X232231276Y-96893796D01*
X232058349Y-96755449D01*
X231897665Y-96607088D01*
X231749451Y-96449039D01*
X231613929Y-96281632D01*
X231491324Y-96105194D01*
X231381861Y-95920052D01*
X231285763Y-95726535D01*
X231203256Y-95524971D01*
X231134563Y-95315688D01*
X231122418Y-95272630D01*
X231096052Y-95170835D01*
X231074667Y-95074511D01*
X231057859Y-94980367D01*
X231045225Y-94885117D01*
X231036360Y-94785470D01*
X231030862Y-94678140D01*
X231028326Y-94559836D01*
X231028045Y-94503969D01*
X231028720Y-94448608D01*
X231560794Y-94448608D01*
X231560897Y-94528746D01*
X231562563Y-94608410D01*
X231565759Y-94683537D01*
X231570456Y-94750060D01*
X231574176Y-94785750D01*
X231606050Y-94983048D01*
X231652701Y-95174663D01*
X231713951Y-95360222D01*
X231789619Y-95539349D01*
X231879527Y-95711669D01*
X231983494Y-95876809D01*
X232101341Y-96034393D01*
X232232888Y-96184047D01*
X232255224Y-96207260D01*
X232389458Y-96334334D01*
X232535160Y-96452270D01*
X232689631Y-96559090D01*
X232850169Y-96652816D01*
X232895958Y-96676504D01*
X232970366Y-96713153D01*
X233035607Y-96743372D01*
X233096104Y-96768940D01*
X233156278Y-96791634D01*
X233220551Y-96813233D01*
X233285625Y-96833227D01*
X233474838Y-96882640D01*
X233660589Y-96917091D01*
X233844327Y-96936714D01*
X234027503Y-96941642D01*
X234211564Y-96932011D01*
X234278106Y-96925031D01*
X234465438Y-96896087D01*
X234645019Y-96854278D01*
X234819357Y-96798854D01*
X234990959Y-96729064D01*
X235087916Y-96682866D01*
X235258548Y-96589447D01*
X235417964Y-96485712D01*
X235566922Y-96370974D01*
X235706179Y-96244550D01*
X235836494Y-96105754D01*
X235958624Y-95953903D01*
X236066892Y-95798259D01*
X236092018Y-95757068D01*
X236121341Y-95704940D01*
X236153041Y-95645496D01*
X236185299Y-95582356D01*
X236216293Y-95519140D01*
X236244206Y-95459467D01*
X236267215Y-95406957D01*
X236280653Y-95373125D01*
X236343520Y-95181584D01*
X236390916Y-94988845D01*
X236422800Y-94795450D01*
X236439130Y-94601940D01*
X236439868Y-94408857D01*
X236424972Y-94216742D01*
X236394402Y-94026136D01*
X236384599Y-93980094D01*
X236350950Y-93843801D01*
X236312642Y-93717618D01*
X236267704Y-93596007D01*
X236214163Y-93473432D01*
X236176504Y-93395958D01*
X236082799Y-93227110D01*
X235975974Y-93066673D01*
X235856798Y-92915368D01*
X235726037Y-92773914D01*
X235584460Y-92643031D01*
X235432834Y-92523440D01*
X235271927Y-92415860D01*
X235102507Y-92321011D01*
X234958325Y-92253480D01*
X234786697Y-92187085D01*
X234614143Y-92135087D01*
X234438656Y-92097078D01*
X234258226Y-92072651D01*
X234070845Y-92061397D01*
X234007938Y-92060507D01*
X233809843Y-92066877D01*
X233618215Y-92087522D01*
X233432281Y-92122673D01*
X233251265Y-92172567D01*
X233074394Y-92237435D01*
X232900894Y-92317513D01*
X232729991Y-92413035D01*
X232629294Y-92477244D01*
X232489861Y-92578772D01*
X232355663Y-92693278D01*
X232228341Y-92818839D01*
X232109535Y-92953531D01*
X232000886Y-93095431D01*
X231904035Y-93242615D01*
X231820622Y-93393161D01*
X231785826Y-93466080D01*
X231724423Y-93610939D01*
X231674192Y-93750178D01*
X231633935Y-93888126D01*
X231602456Y-94029114D01*
X231578556Y-94177471D01*
X231570155Y-94246000D01*
X231565392Y-94303170D01*
X231562282Y-94372061D01*
X231560794Y-94448608D01*
X231028720Y-94448608D01*
X231029790Y-94360973D01*
X231035664Y-94230106D01*
X231046238Y-94108025D01*
X231062085Y-93991385D01*
X231083777Y-93876844D01*
X231111887Y-93761059D01*
X231146986Y-93640687D01*
X231189647Y-93512384D01*
X231205341Y-93468125D01*
X231283726Y-93273406D01*
X231376566Y-93085072D01*
X231483672Y-92903385D01*
X231604852Y-92728608D01*
X231739917Y-92561003D01*
X231888674Y-92400833D01*
X232050933Y-92248360D01*
X232157771Y-92158179D01*
X232243600Y-92092686D01*
X232341139Y-92025360D01*
X232446748Y-91958412D01*
X232556786Y-91894055D01*
X232667613Y-91834500D01*
X232775589Y-91781958D01*
X232781594Y-91779215D01*
X232851554Y-91749342D01*
X232932735Y-91717956D01*
X233020767Y-91686536D01*
X233111279Y-91656562D01*
X233199901Y-91629511D01*
X233282264Y-91606864D01*
X233314150Y-91598971D01*
X233407375Y-91578203D01*
X233496349Y-91561543D01*
X233584353Y-91548652D01*
X233674669Y-91539195D01*
X233770578Y-91532832D01*
X233875360Y-91529228D01*
X233992295Y-91528044D01*
X234003969Y-91528045D01*
X234003969Y-91528045D01*
G37*
X234003969Y-91528045D02*
X234128087Y-91529415D01*
X234239799Y-91533572D01*
X234342392Y-91540919D01*
X234439156Y-91551860D01*
X234533378Y-91566798D01*
X234628347Y-91586137D01*
X234727351Y-91610281D01*
X234772630Y-91622418D01*
X234981177Y-91687656D01*
X235183265Y-91766992D01*
X235378128Y-91860028D01*
X235564999Y-91966368D01*
X235743114Y-92085616D01*
X235895260Y-92203617D01*
X236052928Y-92344342D01*
X236200265Y-92495787D01*
X236336586Y-92656885D01*
X236461208Y-92826567D01*
X236573447Y-93003766D01*
X236672620Y-93187416D01*
X236758042Y-93376447D01*
X236829030Y-93569793D01*
X236877784Y-93737803D01*
X236910855Y-93877789D01*
X236936215Y-94009725D01*
X236954607Y-94138997D01*
X236966775Y-94270993D01*
X236973461Y-94411100D01*
X236974114Y-94436500D01*
X236971395Y-94654797D01*
X236953200Y-94869580D01*
X236919535Y-95080821D01*
X236870406Y-95288489D01*
X236805819Y-95492555D01*
X236741622Y-95656487D01*
X236713539Y-95721752D01*
X236689477Y-95775910D01*
X236667608Y-95822613D01*
X236646107Y-95865513D01*
X236623146Y-95908263D01*
X236596900Y-95954515D01*
X236567775Y-96004156D01*
X236448556Y-96190427D01*
X236318452Y-96365153D01*
X236177329Y-96528465D01*
X236025055Y-96680496D01*
X235861497Y-96821380D01*
X235686524Y-96951248D01*
X235504156Y-97067775D01*
X235451327Y-97098744D01*
X235405414Y-97124721D01*
X235362765Y-97147531D01*
X235319728Y-97169001D01*
X235272651Y-97190957D01*
X235217881Y-97215225D01*
X235156487Y-97241622D01*
X235060254Y-97281169D01*
X234971536Y-97314208D01*
X234884422Y-97342695D01*
X234792998Y-97368589D01*
X234710406Y-97389322D01*
X234545890Y-97424876D01*
X234388795Y-97450553D01*
X234234567Y-97466893D01*
X234078649Y-97474436D01*
X233988094Y-97475013D01*
X233936875Y-97474498D01*
X233888754Y-97473793D01*
X233846874Y-97472960D01*
X233814378Y-97472063D01*
X233794410Y-97471165D01*
X233793625Y-97471109D01*
X233577451Y-97447157D01*
X233364694Y-97408170D01*
X233156213Y-97354467D01*
X232952868Y-97286363D01*
X232755516Y-97204176D01*
X232565018Y-97108225D01*
X232382232Y-96998826D01*
X232231276Y-96893796D01*
X232058349Y-96755449D01*
X231897665Y-96607088D01*
X231749451Y-96449039D01*
X231613929Y-96281632D01*
X231491324Y-96105194D01*
X231381861Y-95920052D01*
X231285763Y-95726535D01*
X231203256Y-95524971D01*
X231134563Y-95315688D01*
X231122418Y-95272630D01*
X231096052Y-95170835D01*
X231074667Y-95074511D01*
X231057859Y-94980367D01*
X231045225Y-94885117D01*
X231036360Y-94785470D01*
X231030862Y-94678140D01*
X231028326Y-94559836D01*
X231028045Y-94503969D01*
X231028720Y-94448608D01*
X231560794Y-94448608D01*
X231560897Y-94528746D01*
X231562563Y-94608410D01*
X231565759Y-94683537D01*
X231570456Y-94750060D01*
X231574176Y-94785750D01*
X231606050Y-94983048D01*
X231652701Y-95174663D01*
X231713951Y-95360222D01*
X231789619Y-95539349D01*
X231879527Y-95711669D01*
X231983494Y-95876809D01*
X232101341Y-96034393D01*
X232232888Y-96184047D01*
X232255224Y-96207260D01*
X232389458Y-96334334D01*
X232535160Y-96452270D01*
X232689631Y-96559090D01*
X232850169Y-96652816D01*
X232895958Y-96676504D01*
X232970366Y-96713153D01*
X233035607Y-96743372D01*
X233096104Y-96768940D01*
X233156278Y-96791634D01*
X233220551Y-96813233D01*
X233285625Y-96833227D01*
X233474838Y-96882640D01*
X233660589Y-96917091D01*
X233844327Y-96936714D01*
X234027503Y-96941642D01*
X234211564Y-96932011D01*
X234278106Y-96925031D01*
X234465438Y-96896087D01*
X234645019Y-96854278D01*
X234819357Y-96798854D01*
X234990959Y-96729064D01*
X235087916Y-96682866D01*
X235258548Y-96589447D01*
X235417964Y-96485712D01*
X235566922Y-96370974D01*
X235706179Y-96244550D01*
X235836494Y-96105754D01*
X235958624Y-95953903D01*
X236066892Y-95798259D01*
X236092018Y-95757068D01*
X236121341Y-95704940D01*
X236153041Y-95645496D01*
X236185299Y-95582356D01*
X236216293Y-95519140D01*
X236244206Y-95459467D01*
X236267215Y-95406957D01*
X236280653Y-95373125D01*
X236343520Y-95181584D01*
X236390916Y-94988845D01*
X236422800Y-94795450D01*
X236439130Y-94601940D01*
X236439868Y-94408857D01*
X236424972Y-94216742D01*
X236394402Y-94026136D01*
X236384599Y-93980094D01*
X236350950Y-93843801D01*
X236312642Y-93717618D01*
X236267704Y-93596007D01*
X236214163Y-93473432D01*
X236176504Y-93395958D01*
X236082799Y-93227110D01*
X235975974Y-93066673D01*
X235856798Y-92915368D01*
X235726037Y-92773914D01*
X235584460Y-92643031D01*
X235432834Y-92523440D01*
X235271927Y-92415860D01*
X235102507Y-92321011D01*
X234958325Y-92253480D01*
X234786697Y-92187085D01*
X234614143Y-92135087D01*
X234438656Y-92097078D01*
X234258226Y-92072651D01*
X234070845Y-92061397D01*
X234007938Y-92060507D01*
X233809843Y-92066877D01*
X233618215Y-92087522D01*
X233432281Y-92122673D01*
X233251265Y-92172567D01*
X233074394Y-92237435D01*
X232900894Y-92317513D01*
X232729991Y-92413035D01*
X232629294Y-92477244D01*
X232489861Y-92578772D01*
X232355663Y-92693278D01*
X232228341Y-92818839D01*
X232109535Y-92953531D01*
X232000886Y-93095431D01*
X231904035Y-93242615D01*
X231820622Y-93393161D01*
X231785826Y-93466080D01*
X231724423Y-93610939D01*
X231674192Y-93750178D01*
X231633935Y-93888126D01*
X231602456Y-94029114D01*
X231578556Y-94177471D01*
X231570155Y-94246000D01*
X231565392Y-94303170D01*
X231562282Y-94372061D01*
X231560794Y-94448608D01*
X231028720Y-94448608D01*
X231029790Y-94360973D01*
X231035664Y-94230106D01*
X231046238Y-94108025D01*
X231062085Y-93991385D01*
X231083777Y-93876844D01*
X231111887Y-93761059D01*
X231146986Y-93640687D01*
X231189647Y-93512384D01*
X231205341Y-93468125D01*
X231283726Y-93273406D01*
X231376566Y-93085072D01*
X231483672Y-92903385D01*
X231604852Y-92728608D01*
X231739917Y-92561003D01*
X231888674Y-92400833D01*
X232050933Y-92248360D01*
X232157771Y-92158179D01*
X232243600Y-92092686D01*
X232341139Y-92025360D01*
X232446748Y-91958412D01*
X232556786Y-91894055D01*
X232667613Y-91834500D01*
X232775589Y-91781958D01*
X232781594Y-91779215D01*
X232851554Y-91749342D01*
X232932735Y-91717956D01*
X233020767Y-91686536D01*
X233111279Y-91656562D01*
X233199901Y-91629511D01*
X233282264Y-91606864D01*
X233314150Y-91598971D01*
X233407375Y-91578203D01*
X233496349Y-91561543D01*
X233584353Y-91548652D01*
X233674669Y-91539195D01*
X233770578Y-91532832D01*
X233875360Y-91529228D01*
X233992295Y-91528044D01*
X234003969Y-91528045D01*
G04 #@! TD*
D14*
G04 #@! TO.C,F1*
X120000000Y-63300000D03*
X120000000Y-65700000D03*
G04 #@! TD*
D15*
G04 #@! TO.C,J1*
X182100000Y-54000000D03*
X179560000Y-54000000D03*
X177020000Y-54000000D03*
X174480000Y-54000000D03*
X171940000Y-54000000D03*
X169400000Y-54000000D03*
X166860000Y-54000000D03*
X164320000Y-54000000D03*
X161780000Y-54000000D03*
X159240000Y-54000000D03*
X156700000Y-54000000D03*
X154160000Y-54000000D03*
X151620000Y-54000000D03*
X149080000Y-54000000D03*
X146540000Y-54000000D03*
D16*
X144000000Y-54000000D03*
G04 #@! TD*
D15*
G04 #@! TO.C,J2*
X199220000Y-57000000D03*
X201760000Y-57000000D03*
X204300000Y-57000000D03*
X206840000Y-57000000D03*
X209380000Y-57000000D03*
X211920000Y-57000000D03*
X214460000Y-57000000D03*
D16*
X217000000Y-57000000D03*
G04 #@! TD*
D17*
G04 #@! TO.C,R67*
X116500000Y-64950000D03*
X116500000Y-63050000D03*
G04 #@! TD*
G04 #@! TO.C,R68*
X113500000Y-63050000D03*
X113500000Y-64950000D03*
G04 #@! TD*
D18*
G04 #@! TO.C,R70*
X115950000Y-80000000D03*
X114050000Y-80000000D03*
G04 #@! TD*
D17*
G04 #@! TO.C,R71*
X151000000Y-66050000D03*
X151000000Y-67950000D03*
G04 #@! TD*
G04 #@! TO.C,R73*
X119000000Y-60450000D03*
X119000000Y-58550000D03*
G04 #@! TD*
G04 #@! TO.C,R74*
X111000000Y-58550000D03*
X111000000Y-60450000D03*
G04 #@! TD*
D19*
G04 #@! TO.C,SW1*
X111900000Y-73150000D03*
X118100000Y-76850000D03*
X111900000Y-76850000D03*
X118100000Y-73150000D03*
G04 #@! TD*
D20*
G04 #@! TO.C,U2*
X116000000Y-60450000D03*
X114000000Y-60450000D03*
X116000000Y-58550000D03*
D21*
X114000000Y-58750000D03*
G04 #@! TD*
D22*
G04 #@! TO.C,USB1*
X110680000Y-49600000D03*
X119320000Y-49600000D03*
D23*
X110680000Y-53780000D03*
X119320000Y-53780000D03*
D24*
X117890000Y-53250000D03*
X112110000Y-53250000D03*
D25*
X115250000Y-54695000D03*
X114750000Y-54695000D03*
X114250000Y-54695000D03*
X115750000Y-54695000D03*
X113750000Y-54695000D03*
X116250000Y-54695000D03*
X113250000Y-54695000D03*
X116750000Y-54695000D03*
D26*
X117450000Y-54695000D03*
X112550000Y-54695000D03*
X118225000Y-54695000D03*
X111775000Y-54695000D03*
G04 #@! TD*
D27*
G04 #@! TO.C,Y1*
X143100000Y-86350000D03*
X140900000Y-86350000D03*
X140900000Y-84650000D03*
X143100000Y-84650000D03*
G04 #@! TD*
D28*
G04 #@! TO.C,U1*
X138000000Y-66800000D03*
X138800000Y-66800000D03*
X139600000Y-66800000D03*
X140400000Y-66800000D03*
X141200000Y-66800000D03*
X142000000Y-66800000D03*
X142800000Y-66800000D03*
X143600000Y-66800000D03*
X144400000Y-66800000D03*
X145200000Y-66800000D03*
X146000000Y-66800000D03*
D29*
X147700000Y-68500000D03*
X147700000Y-69300000D03*
X147700000Y-70100000D03*
X147700000Y-70900000D03*
X147700000Y-71700000D03*
X147700000Y-72500000D03*
X147700000Y-73300000D03*
X147700000Y-74100000D03*
X147700000Y-74900000D03*
X147700000Y-75700000D03*
X147700000Y-76500000D03*
D28*
X146000000Y-78200000D03*
X145200000Y-78200000D03*
X144400000Y-78200000D03*
X143600000Y-78200000D03*
X142800000Y-78200000D03*
X142000000Y-78200000D03*
X141200000Y-78200000D03*
X140400000Y-78200000D03*
X139600000Y-78200000D03*
X138800000Y-78200000D03*
X138000000Y-78200000D03*
D29*
X136300000Y-76500000D03*
X136300000Y-75700000D03*
X136300000Y-74900000D03*
X136300000Y-74100000D03*
X136300000Y-73300000D03*
X136300000Y-72500000D03*
X136300000Y-71700000D03*
X136300000Y-70900000D03*
X136300000Y-70100000D03*
X136300000Y-69300000D03*
X136300000Y-68500000D03*
G04 #@! TD*
D30*
G04 #@! TO.C,REF\002A\002A*
X127000000Y-55000000D03*
G04 #@! TD*
G04 #@! TO.C,REF\002A\002A*
X103000000Y-55000000D03*
G04 #@! TD*
D31*
G04 #@! TO.C,C2*
X133000000Y-68000000D03*
X133000000Y-66000000D03*
G04 #@! TD*
D32*
G04 #@! TO.C,C3*
X146000000Y-63500000D03*
X148000000Y-63500000D03*
G04 #@! TD*
D31*
G04 #@! TO.C,C4*
X136000000Y-82500000D03*
X136000000Y-84500000D03*
G04 #@! TD*
G04 #@! TO.C,C5*
X151000000Y-78500000D03*
X151000000Y-76500000D03*
G04 #@! TD*
D32*
G04 #@! TO.C,C6*
X131000000Y-72500000D03*
X133000000Y-72500000D03*
G04 #@! TD*
D31*
G04 #@! TO.C,C7*
X146500000Y-84500000D03*
X146500000Y-86500000D03*
G04 #@! TD*
D32*
G04 #@! TO.C,C8*
X143000000Y-89500000D03*
X141000000Y-89500000D03*
G04 #@! TD*
D16*
G04 #@! TO.C,J3*
X95000000Y-75000000D03*
G04 #@! TD*
D33*
G04 #@! TO.C,REF\002A\002A*
X239746000Y-77540000D03*
X239746000Y-76270000D03*
X239746000Y-72460000D03*
X239746000Y-73730000D03*
X239746000Y-75000000D03*
G04 #@! TD*
G04 #@! TO.C,REF\002A\002A*
X239746000Y-62540000D03*
X239746000Y-61270000D03*
X239746000Y-57460000D03*
X239746000Y-58730000D03*
X239746000Y-60000000D03*
G04 #@! TD*
G04 #@! TO.C,REF\002A\002A*
X239746000Y-92540000D03*
X239746000Y-91270000D03*
X239746000Y-87460000D03*
X239746000Y-88730000D03*
X239746000Y-90000000D03*
G04 #@! TD*
M02*
