M48
; DRILL file {KiCad (5.1.4)-1} date 3/23/2020 4:41:49 PM
; FORMAT={-:-/ absolute / inch / decimal}
; #@! TF.CreationDate,2020-03-23T16:41:49+09:00
; #@! TF.GenerationSoftware,Kicad,Pcbnew,(5.1.4)-1
; #@! TF.FileFunction,Plated,1,2,PTH
FMAT,2
INCH
T1C0.0157
T2C0.0362
T3C0.0394
T4C0.0906
%
G90
G05
T1
X4.4Y-2.81
X4.565Y-2.44
X4.89Y-2.645
X5.125Y-2.935
X5.125Y-2.97
X5.125Y-3.005
X5.125Y-3.04
X5.125Y-3.075
X5.295Y-2.675
X5.295Y-3.25
X5.3Y-2.885
X5.385Y-2.655
X5.8725Y-2.5425
X6.005Y-3.01
X8.8Y-3.135
X9.195Y-3.08
X9.21Y-2.95
T2
X4.4783Y-2.2835
X4.4783Y-2.3622
X4.5768Y-2.2835
X4.5768Y-2.3622
T3
X7.8433Y-2.2441
X7.9433Y-2.2441
X8.0433Y-2.2441
X8.1433Y-2.2441
X8.2433Y-2.2441
X8.3433Y-2.2441
X8.4433Y-2.2441
X8.5433Y-2.2441
X9.8425Y-2.9062
X9.8425Y-3.0063
X3.937Y-2.9528
X5.6693Y-2.126
X5.7693Y-2.126
X5.8693Y-2.126
X5.9693Y-2.126
X6.0693Y-2.126
X6.1693Y-2.126
X6.2693Y-2.126
X6.3693Y-2.126
X6.4693Y-2.126
X6.5693Y-2.126
X6.6693Y-2.126
X6.7693Y-2.126
X6.8693Y-2.126
X6.9693Y-2.126
X7.0693Y-2.126
X7.1693Y-2.126
T4
X4.2906Y-2.1768
X4.7646Y-2.1768
T0
M30
