G04 #@! TF.GenerationSoftware,KiCad,Pcbnew,(5.0.2)-1*
G04 #@! TF.CreationDate,2019-03-13T03:57:08-07:00*
G04 #@! TF.ProjectId,ssk-controller,73736b2d-636f-46e7-9472-6f6c6c65722e,rev?*
G04 #@! TF.SameCoordinates,Original*
G04 #@! TF.FileFunction,Soldermask,Bot*
G04 #@! TF.FilePolarity,Negative*
%FSLAX46Y46*%
G04 Gerber Fmt 4.6, Leading zero omitted, Abs format (unit mm)*
G04 Created by KiCad (PCBNEW (5.0.2)-1) date 3/13/2019 3:57:08 AM*
%MOMM*%
%LPD*%
G01*
G04 APERTURE LIST*
%ADD10C,0.010000*%
%ADD11C,0.100000*%
G04 APERTURE END LIST*
D10*
G04 #@! TO.C,G\002A\002A\002A*
G36*
X233809500Y-93420500D02*
X234214312Y-93420500D01*
X234214312Y-93015688D01*
X233809500Y-93015688D01*
X233809500Y-93420500D01*
X233809500Y-93420500D01*
G37*
X233809500Y-93420500D02*
X234214312Y-93420500D01*
X234214312Y-93015688D01*
X233809500Y-93015688D01*
X233809500Y-93420500D01*
G36*
X233404687Y-94206313D02*
X233809500Y-94206313D01*
X233809500Y-93825313D01*
X233404687Y-93825313D01*
X233404687Y-94206313D01*
X233404687Y-94206313D01*
G37*
X233404687Y-94206313D02*
X233809500Y-94206313D01*
X233809500Y-93825313D01*
X233404687Y-93825313D01*
X233404687Y-94206313D01*
G36*
X234214312Y-94206313D02*
X234595312Y-94206313D01*
X234595312Y-93825313D01*
X234214312Y-93825313D01*
X234214312Y-94206313D01*
X234214312Y-94206313D01*
G37*
X234214312Y-94206313D02*
X234595312Y-94206313D01*
X234595312Y-93825313D01*
X234214312Y-93825313D01*
X234214312Y-94206313D01*
G36*
X233023687Y-95015938D02*
X233404687Y-95015938D01*
X233404687Y-94611125D01*
X233023687Y-94611125D01*
X233023687Y-95015938D01*
X233023687Y-95015938D01*
G37*
X233023687Y-95015938D02*
X233404687Y-95015938D01*
X233404687Y-94611125D01*
X233023687Y-94611125D01*
X233023687Y-95015938D01*
G36*
X233809500Y-95015938D02*
X234214312Y-95015938D01*
X234214312Y-94611125D01*
X233809500Y-94611125D01*
X233809500Y-95015938D01*
X233809500Y-95015938D01*
G37*
X233809500Y-95015938D02*
X234214312Y-95015938D01*
X234214312Y-94611125D01*
X233809500Y-94611125D01*
X233809500Y-95015938D01*
G36*
X234595312Y-95015938D02*
X235000125Y-95015938D01*
X235000125Y-94611125D01*
X234595312Y-94611125D01*
X234595312Y-95015938D01*
X234595312Y-95015938D01*
G37*
X234595312Y-95015938D02*
X235000125Y-95015938D01*
X235000125Y-94611125D01*
X234595312Y-94611125D01*
X234595312Y-95015938D01*
G36*
X232618875Y-95801750D02*
X233023687Y-95801750D01*
X233023687Y-95396938D01*
X232618875Y-95396938D01*
X232618875Y-95801750D01*
X232618875Y-95801750D01*
G37*
X232618875Y-95801750D02*
X233023687Y-95801750D01*
X233023687Y-95396938D01*
X232618875Y-95396938D01*
X232618875Y-95801750D01*
G36*
X235000125Y-95801750D02*
X235404937Y-95801750D01*
X235404937Y-95396938D01*
X235000125Y-95396938D01*
X235000125Y-95801750D01*
X235000125Y-95801750D01*
G37*
X235000125Y-95801750D02*
X235404937Y-95801750D01*
X235404937Y-95396938D01*
X235000125Y-95396938D01*
X235000125Y-95801750D01*
G36*
X233996031Y-91528045D02*
X233871913Y-91529415D01*
X233760201Y-91533572D01*
X233657608Y-91540919D01*
X233560844Y-91551860D01*
X233466622Y-91566798D01*
X233371653Y-91586137D01*
X233272649Y-91610281D01*
X233227370Y-91622418D01*
X233018823Y-91687656D01*
X232816735Y-91766992D01*
X232621872Y-91860028D01*
X232435001Y-91966368D01*
X232256886Y-92085616D01*
X232104740Y-92203617D01*
X231947072Y-92344342D01*
X231799735Y-92495787D01*
X231663414Y-92656885D01*
X231538792Y-92826567D01*
X231426553Y-93003766D01*
X231327380Y-93187416D01*
X231241958Y-93376447D01*
X231170970Y-93569793D01*
X231122216Y-93737803D01*
X231089145Y-93877789D01*
X231063785Y-94009725D01*
X231045393Y-94138997D01*
X231033225Y-94270993D01*
X231026539Y-94411100D01*
X231025886Y-94436500D01*
X231028605Y-94654797D01*
X231046800Y-94869580D01*
X231080465Y-95080821D01*
X231129594Y-95288489D01*
X231194181Y-95492555D01*
X231258378Y-95656487D01*
X231286461Y-95721752D01*
X231310523Y-95775910D01*
X231332392Y-95822613D01*
X231353893Y-95865513D01*
X231376854Y-95908263D01*
X231403100Y-95954515D01*
X231432225Y-96004156D01*
X231551444Y-96190427D01*
X231681548Y-96365153D01*
X231822671Y-96528465D01*
X231974945Y-96680496D01*
X232138503Y-96821380D01*
X232313476Y-96951248D01*
X232495844Y-97067775D01*
X232548673Y-97098744D01*
X232594586Y-97124721D01*
X232637235Y-97147531D01*
X232680272Y-97169001D01*
X232727349Y-97190957D01*
X232782119Y-97215225D01*
X232843513Y-97241622D01*
X232939746Y-97281169D01*
X233028464Y-97314208D01*
X233115578Y-97342695D01*
X233207002Y-97368589D01*
X233289594Y-97389322D01*
X233454110Y-97424876D01*
X233611205Y-97450553D01*
X233765433Y-97466893D01*
X233921351Y-97474436D01*
X234011906Y-97475013D01*
X234063125Y-97474498D01*
X234111246Y-97473793D01*
X234153126Y-97472960D01*
X234185622Y-97472063D01*
X234205590Y-97471165D01*
X234206375Y-97471109D01*
X234422549Y-97447157D01*
X234635306Y-97408170D01*
X234843787Y-97354467D01*
X235047132Y-97286363D01*
X235244484Y-97204176D01*
X235434982Y-97108225D01*
X235617768Y-96998826D01*
X235768724Y-96893796D01*
X235941651Y-96755449D01*
X236102335Y-96607088D01*
X236250549Y-96449039D01*
X236386071Y-96281632D01*
X236508676Y-96105194D01*
X236618139Y-95920052D01*
X236714237Y-95726535D01*
X236796744Y-95524971D01*
X236865437Y-95315688D01*
X236877582Y-95272630D01*
X236903948Y-95170835D01*
X236925333Y-95074511D01*
X236942141Y-94980367D01*
X236954775Y-94885117D01*
X236963640Y-94785470D01*
X236969138Y-94678140D01*
X236971674Y-94559836D01*
X236971955Y-94503969D01*
X236971280Y-94448608D01*
X236439206Y-94448608D01*
X236439103Y-94528746D01*
X236437437Y-94608410D01*
X236434241Y-94683537D01*
X236429544Y-94750060D01*
X236425824Y-94785750D01*
X236393950Y-94983048D01*
X236347299Y-95174663D01*
X236286049Y-95360222D01*
X236210381Y-95539349D01*
X236120473Y-95711669D01*
X236016506Y-95876809D01*
X235898659Y-96034393D01*
X235767112Y-96184047D01*
X235744776Y-96207260D01*
X235610542Y-96334334D01*
X235464840Y-96452270D01*
X235310369Y-96559090D01*
X235149831Y-96652816D01*
X235104042Y-96676504D01*
X235029634Y-96713153D01*
X234964393Y-96743372D01*
X234903896Y-96768940D01*
X234843722Y-96791634D01*
X234779449Y-96813233D01*
X234714375Y-96833227D01*
X234525162Y-96882640D01*
X234339411Y-96917091D01*
X234155673Y-96936714D01*
X233972497Y-96941642D01*
X233788436Y-96932011D01*
X233721894Y-96925031D01*
X233534562Y-96896087D01*
X233354981Y-96854278D01*
X233180643Y-96798854D01*
X233009041Y-96729064D01*
X232912084Y-96682866D01*
X232741452Y-96589447D01*
X232582036Y-96485712D01*
X232433078Y-96370974D01*
X232293821Y-96244550D01*
X232163506Y-96105754D01*
X232041376Y-95953903D01*
X231933108Y-95798259D01*
X231907982Y-95757068D01*
X231878659Y-95704940D01*
X231846959Y-95645496D01*
X231814701Y-95582356D01*
X231783707Y-95519140D01*
X231755794Y-95459467D01*
X231732785Y-95406957D01*
X231719347Y-95373125D01*
X231656480Y-95181584D01*
X231609084Y-94988845D01*
X231577200Y-94795450D01*
X231560870Y-94601940D01*
X231560132Y-94408857D01*
X231575028Y-94216742D01*
X231605598Y-94026136D01*
X231615401Y-93980094D01*
X231649050Y-93843801D01*
X231687358Y-93717618D01*
X231732296Y-93596007D01*
X231785837Y-93473432D01*
X231823496Y-93395958D01*
X231917201Y-93227110D01*
X232024026Y-93066673D01*
X232143202Y-92915368D01*
X232273963Y-92773914D01*
X232415540Y-92643031D01*
X232567166Y-92523440D01*
X232728073Y-92415860D01*
X232897493Y-92321011D01*
X233041675Y-92253480D01*
X233213303Y-92187085D01*
X233385857Y-92135087D01*
X233561344Y-92097078D01*
X233741774Y-92072651D01*
X233929155Y-92061397D01*
X233992062Y-92060507D01*
X234190157Y-92066877D01*
X234381785Y-92087522D01*
X234567719Y-92122673D01*
X234748735Y-92172567D01*
X234925606Y-92237435D01*
X235099106Y-92317513D01*
X235270009Y-92413035D01*
X235370706Y-92477244D01*
X235510139Y-92578772D01*
X235644337Y-92693278D01*
X235771659Y-92818839D01*
X235890465Y-92953531D01*
X235999114Y-93095431D01*
X236095965Y-93242615D01*
X236179378Y-93393161D01*
X236214174Y-93466080D01*
X236275577Y-93610939D01*
X236325808Y-93750178D01*
X236366065Y-93888126D01*
X236397544Y-94029114D01*
X236421444Y-94177471D01*
X236429845Y-94246000D01*
X236434608Y-94303170D01*
X236437718Y-94372061D01*
X236439206Y-94448608D01*
X236971280Y-94448608D01*
X236970210Y-94360973D01*
X236964336Y-94230106D01*
X236953762Y-94108025D01*
X236937915Y-93991385D01*
X236916223Y-93876844D01*
X236888113Y-93761059D01*
X236853014Y-93640687D01*
X236810353Y-93512384D01*
X236794659Y-93468125D01*
X236716274Y-93273406D01*
X236623434Y-93085072D01*
X236516328Y-92903385D01*
X236395148Y-92728608D01*
X236260083Y-92561003D01*
X236111326Y-92400833D01*
X235949067Y-92248360D01*
X235842229Y-92158179D01*
X235756400Y-92092686D01*
X235658861Y-92025360D01*
X235553252Y-91958412D01*
X235443214Y-91894055D01*
X235332387Y-91834500D01*
X235224411Y-91781958D01*
X235218406Y-91779215D01*
X235148446Y-91749342D01*
X235067265Y-91717956D01*
X234979233Y-91686536D01*
X234888721Y-91656562D01*
X234800099Y-91629511D01*
X234717736Y-91606864D01*
X234685850Y-91598971D01*
X234592625Y-91578203D01*
X234503651Y-91561543D01*
X234415647Y-91548652D01*
X234325331Y-91539195D01*
X234229422Y-91532832D01*
X234124640Y-91529228D01*
X234007705Y-91528044D01*
X233996031Y-91528045D01*
X233996031Y-91528045D01*
G37*
X233996031Y-91528045D02*
X233871913Y-91529415D01*
X233760201Y-91533572D01*
X233657608Y-91540919D01*
X233560844Y-91551860D01*
X233466622Y-91566798D01*
X233371653Y-91586137D01*
X233272649Y-91610281D01*
X233227370Y-91622418D01*
X233018823Y-91687656D01*
X232816735Y-91766992D01*
X232621872Y-91860028D01*
X232435001Y-91966368D01*
X232256886Y-92085616D01*
X232104740Y-92203617D01*
X231947072Y-92344342D01*
X231799735Y-92495787D01*
X231663414Y-92656885D01*
X231538792Y-92826567D01*
X231426553Y-93003766D01*
X231327380Y-93187416D01*
X231241958Y-93376447D01*
X231170970Y-93569793D01*
X231122216Y-93737803D01*
X231089145Y-93877789D01*
X231063785Y-94009725D01*
X231045393Y-94138997D01*
X231033225Y-94270993D01*
X231026539Y-94411100D01*
X231025886Y-94436500D01*
X231028605Y-94654797D01*
X231046800Y-94869580D01*
X231080465Y-95080821D01*
X231129594Y-95288489D01*
X231194181Y-95492555D01*
X231258378Y-95656487D01*
X231286461Y-95721752D01*
X231310523Y-95775910D01*
X231332392Y-95822613D01*
X231353893Y-95865513D01*
X231376854Y-95908263D01*
X231403100Y-95954515D01*
X231432225Y-96004156D01*
X231551444Y-96190427D01*
X231681548Y-96365153D01*
X231822671Y-96528465D01*
X231974945Y-96680496D01*
X232138503Y-96821380D01*
X232313476Y-96951248D01*
X232495844Y-97067775D01*
X232548673Y-97098744D01*
X232594586Y-97124721D01*
X232637235Y-97147531D01*
X232680272Y-97169001D01*
X232727349Y-97190957D01*
X232782119Y-97215225D01*
X232843513Y-97241622D01*
X232939746Y-97281169D01*
X233028464Y-97314208D01*
X233115578Y-97342695D01*
X233207002Y-97368589D01*
X233289594Y-97389322D01*
X233454110Y-97424876D01*
X233611205Y-97450553D01*
X233765433Y-97466893D01*
X233921351Y-97474436D01*
X234011906Y-97475013D01*
X234063125Y-97474498D01*
X234111246Y-97473793D01*
X234153126Y-97472960D01*
X234185622Y-97472063D01*
X234205590Y-97471165D01*
X234206375Y-97471109D01*
X234422549Y-97447157D01*
X234635306Y-97408170D01*
X234843787Y-97354467D01*
X235047132Y-97286363D01*
X235244484Y-97204176D01*
X235434982Y-97108225D01*
X235617768Y-96998826D01*
X235768724Y-96893796D01*
X235941651Y-96755449D01*
X236102335Y-96607088D01*
X236250549Y-96449039D01*
X236386071Y-96281632D01*
X236508676Y-96105194D01*
X236618139Y-95920052D01*
X236714237Y-95726535D01*
X236796744Y-95524971D01*
X236865437Y-95315688D01*
X236877582Y-95272630D01*
X236903948Y-95170835D01*
X236925333Y-95074511D01*
X236942141Y-94980367D01*
X236954775Y-94885117D01*
X236963640Y-94785470D01*
X236969138Y-94678140D01*
X236971674Y-94559836D01*
X236971955Y-94503969D01*
X236971280Y-94448608D01*
X236439206Y-94448608D01*
X236439103Y-94528746D01*
X236437437Y-94608410D01*
X236434241Y-94683537D01*
X236429544Y-94750060D01*
X236425824Y-94785750D01*
X236393950Y-94983048D01*
X236347299Y-95174663D01*
X236286049Y-95360222D01*
X236210381Y-95539349D01*
X236120473Y-95711669D01*
X236016506Y-95876809D01*
X235898659Y-96034393D01*
X235767112Y-96184047D01*
X235744776Y-96207260D01*
X235610542Y-96334334D01*
X235464840Y-96452270D01*
X235310369Y-96559090D01*
X235149831Y-96652816D01*
X235104042Y-96676504D01*
X235029634Y-96713153D01*
X234964393Y-96743372D01*
X234903896Y-96768940D01*
X234843722Y-96791634D01*
X234779449Y-96813233D01*
X234714375Y-96833227D01*
X234525162Y-96882640D01*
X234339411Y-96917091D01*
X234155673Y-96936714D01*
X233972497Y-96941642D01*
X233788436Y-96932011D01*
X233721894Y-96925031D01*
X233534562Y-96896087D01*
X233354981Y-96854278D01*
X233180643Y-96798854D01*
X233009041Y-96729064D01*
X232912084Y-96682866D01*
X232741452Y-96589447D01*
X232582036Y-96485712D01*
X232433078Y-96370974D01*
X232293821Y-96244550D01*
X232163506Y-96105754D01*
X232041376Y-95953903D01*
X231933108Y-95798259D01*
X231907982Y-95757068D01*
X231878659Y-95704940D01*
X231846959Y-95645496D01*
X231814701Y-95582356D01*
X231783707Y-95519140D01*
X231755794Y-95459467D01*
X231732785Y-95406957D01*
X231719347Y-95373125D01*
X231656480Y-95181584D01*
X231609084Y-94988845D01*
X231577200Y-94795450D01*
X231560870Y-94601940D01*
X231560132Y-94408857D01*
X231575028Y-94216742D01*
X231605598Y-94026136D01*
X231615401Y-93980094D01*
X231649050Y-93843801D01*
X231687358Y-93717618D01*
X231732296Y-93596007D01*
X231785837Y-93473432D01*
X231823496Y-93395958D01*
X231917201Y-93227110D01*
X232024026Y-93066673D01*
X232143202Y-92915368D01*
X232273963Y-92773914D01*
X232415540Y-92643031D01*
X232567166Y-92523440D01*
X232728073Y-92415860D01*
X232897493Y-92321011D01*
X233041675Y-92253480D01*
X233213303Y-92187085D01*
X233385857Y-92135087D01*
X233561344Y-92097078D01*
X233741774Y-92072651D01*
X233929155Y-92061397D01*
X233992062Y-92060507D01*
X234190157Y-92066877D01*
X234381785Y-92087522D01*
X234567719Y-92122673D01*
X234748735Y-92172567D01*
X234925606Y-92237435D01*
X235099106Y-92317513D01*
X235270009Y-92413035D01*
X235370706Y-92477244D01*
X235510139Y-92578772D01*
X235644337Y-92693278D01*
X235771659Y-92818839D01*
X235890465Y-92953531D01*
X235999114Y-93095431D01*
X236095965Y-93242615D01*
X236179378Y-93393161D01*
X236214174Y-93466080D01*
X236275577Y-93610939D01*
X236325808Y-93750178D01*
X236366065Y-93888126D01*
X236397544Y-94029114D01*
X236421444Y-94177471D01*
X236429845Y-94246000D01*
X236434608Y-94303170D01*
X236437718Y-94372061D01*
X236439206Y-94448608D01*
X236971280Y-94448608D01*
X236970210Y-94360973D01*
X236964336Y-94230106D01*
X236953762Y-94108025D01*
X236937915Y-93991385D01*
X236916223Y-93876844D01*
X236888113Y-93761059D01*
X236853014Y-93640687D01*
X236810353Y-93512384D01*
X236794659Y-93468125D01*
X236716274Y-93273406D01*
X236623434Y-93085072D01*
X236516328Y-92903385D01*
X236395148Y-92728608D01*
X236260083Y-92561003D01*
X236111326Y-92400833D01*
X235949067Y-92248360D01*
X235842229Y-92158179D01*
X235756400Y-92092686D01*
X235658861Y-92025360D01*
X235553252Y-91958412D01*
X235443214Y-91894055D01*
X235332387Y-91834500D01*
X235224411Y-91781958D01*
X235218406Y-91779215D01*
X235148446Y-91749342D01*
X235067265Y-91717956D01*
X234979233Y-91686536D01*
X234888721Y-91656562D01*
X234800099Y-91629511D01*
X234717736Y-91606864D01*
X234685850Y-91598971D01*
X234592625Y-91578203D01*
X234503651Y-91561543D01*
X234415647Y-91548652D01*
X234325331Y-91539195D01*
X234229422Y-91532832D01*
X234124640Y-91529228D01*
X234007705Y-91528044D01*
X233996031Y-91528045D01*
D11*
G36*
X239919176Y-86889115D02*
X240027223Y-86933870D01*
X240124462Y-86998843D01*
X240207157Y-87081538D01*
X240272130Y-87178777D01*
X240316885Y-87286824D01*
X240339700Y-87401526D01*
X240339700Y-87518474D01*
X240316885Y-87633176D01*
X240272130Y-87741223D01*
X240207157Y-87838462D01*
X240124462Y-87921157D01*
X240027223Y-87986130D01*
X240027218Y-87986132D01*
X240019834Y-87991066D01*
X240000891Y-88006612D01*
X239985346Y-88025554D01*
X239973795Y-88047165D01*
X239966682Y-88070614D01*
X239964280Y-88095000D01*
X239966682Y-88119387D01*
X239973795Y-88142836D01*
X239985346Y-88164446D01*
X240000892Y-88183389D01*
X240019834Y-88198934D01*
X240027218Y-88203868D01*
X240027223Y-88203870D01*
X240124462Y-88268843D01*
X240207157Y-88351538D01*
X240272130Y-88448777D01*
X240316885Y-88556824D01*
X240339700Y-88671526D01*
X240339700Y-88788474D01*
X240316885Y-88903176D01*
X240272130Y-89011223D01*
X240207157Y-89108462D01*
X240124462Y-89191157D01*
X240027223Y-89256130D01*
X240027218Y-89256132D01*
X240019834Y-89261066D01*
X240000891Y-89276612D01*
X239985346Y-89295554D01*
X239973795Y-89317165D01*
X239966682Y-89340614D01*
X239964280Y-89365000D01*
X239966682Y-89389387D01*
X239973795Y-89412836D01*
X239985346Y-89434446D01*
X240000892Y-89453389D01*
X240019834Y-89468934D01*
X240027218Y-89473868D01*
X240027223Y-89473870D01*
X240124462Y-89538843D01*
X240207157Y-89621538D01*
X240272130Y-89718777D01*
X240316885Y-89826824D01*
X240339700Y-89941526D01*
X240339700Y-90058474D01*
X240316885Y-90173176D01*
X240272130Y-90281223D01*
X240207157Y-90378462D01*
X240124462Y-90461157D01*
X240027223Y-90526130D01*
X240027218Y-90526132D01*
X240019834Y-90531066D01*
X240000891Y-90546612D01*
X239985346Y-90565554D01*
X239973795Y-90587165D01*
X239966682Y-90610614D01*
X239964280Y-90635000D01*
X239966682Y-90659387D01*
X239973795Y-90682836D01*
X239985346Y-90704446D01*
X240000892Y-90723389D01*
X240019834Y-90738934D01*
X240027218Y-90743868D01*
X240027223Y-90743870D01*
X240124462Y-90808843D01*
X240207157Y-90891538D01*
X240272130Y-90988777D01*
X240316885Y-91096824D01*
X240339700Y-91211526D01*
X240339700Y-91328474D01*
X240316885Y-91443176D01*
X240272130Y-91551223D01*
X240207157Y-91648462D01*
X240124462Y-91731157D01*
X240027223Y-91796130D01*
X240027218Y-91796132D01*
X240019834Y-91801066D01*
X240000891Y-91816612D01*
X239985346Y-91835554D01*
X239973795Y-91857165D01*
X239966682Y-91880614D01*
X239964280Y-91905000D01*
X239966682Y-91929387D01*
X239973795Y-91952836D01*
X239985346Y-91974446D01*
X240000892Y-91993389D01*
X240019834Y-92008934D01*
X240027218Y-92013868D01*
X240027223Y-92013870D01*
X240124462Y-92078843D01*
X240207157Y-92161538D01*
X240272130Y-92258777D01*
X240316885Y-92366824D01*
X240339700Y-92481526D01*
X240339700Y-92598474D01*
X240316885Y-92713176D01*
X240272130Y-92821223D01*
X240207157Y-92918462D01*
X240124462Y-93001157D01*
X240027223Y-93066130D01*
X239919176Y-93110885D01*
X239804474Y-93133700D01*
X239687526Y-93133700D01*
X239572824Y-93110885D01*
X239464777Y-93066130D01*
X239367538Y-93001157D01*
X239284843Y-92918462D01*
X239219870Y-92821223D01*
X239175115Y-92713176D01*
X239152300Y-92598474D01*
X239152300Y-92481526D01*
X239175115Y-92366824D01*
X239219870Y-92258777D01*
X239284843Y-92161538D01*
X239367538Y-92078843D01*
X239464777Y-92013870D01*
X239464782Y-92013868D01*
X239472166Y-92008934D01*
X239491109Y-91993388D01*
X239506654Y-91974446D01*
X239518205Y-91952835D01*
X239525318Y-91929386D01*
X239527720Y-91905000D01*
X239525318Y-91880613D01*
X239518205Y-91857164D01*
X239506654Y-91835554D01*
X239491108Y-91816611D01*
X239472166Y-91801066D01*
X239464782Y-91796132D01*
X239464777Y-91796130D01*
X239367538Y-91731157D01*
X239284843Y-91648462D01*
X239219870Y-91551223D01*
X239175115Y-91443176D01*
X239152300Y-91328474D01*
X239152300Y-91211526D01*
X239175115Y-91096824D01*
X239219870Y-90988777D01*
X239284843Y-90891538D01*
X239367538Y-90808843D01*
X239464777Y-90743870D01*
X239464782Y-90743868D01*
X239472166Y-90738934D01*
X239491109Y-90723388D01*
X239506654Y-90704446D01*
X239518205Y-90682835D01*
X239525318Y-90659386D01*
X239527720Y-90635000D01*
X239525318Y-90610613D01*
X239518205Y-90587164D01*
X239506654Y-90565554D01*
X239491108Y-90546611D01*
X239472166Y-90531066D01*
X239464782Y-90526132D01*
X239464777Y-90526130D01*
X239367538Y-90461157D01*
X239284843Y-90378462D01*
X239219870Y-90281223D01*
X239175115Y-90173176D01*
X239152300Y-90058474D01*
X239152300Y-89941526D01*
X239175115Y-89826824D01*
X239219870Y-89718777D01*
X239284843Y-89621538D01*
X239367538Y-89538843D01*
X239464777Y-89473870D01*
X239464782Y-89473868D01*
X239472166Y-89468934D01*
X239491109Y-89453388D01*
X239506654Y-89434446D01*
X239518205Y-89412835D01*
X239525318Y-89389386D01*
X239527720Y-89365000D01*
X239525318Y-89340613D01*
X239518205Y-89317164D01*
X239506654Y-89295554D01*
X239491108Y-89276611D01*
X239472166Y-89261066D01*
X239464782Y-89256132D01*
X239464777Y-89256130D01*
X239367538Y-89191157D01*
X239284843Y-89108462D01*
X239219870Y-89011223D01*
X239175115Y-88903176D01*
X239152300Y-88788474D01*
X239152300Y-88671526D01*
X239175115Y-88556824D01*
X239219870Y-88448777D01*
X239284843Y-88351538D01*
X239367538Y-88268843D01*
X239464777Y-88203870D01*
X239464782Y-88203868D01*
X239472166Y-88198934D01*
X239491109Y-88183388D01*
X239506654Y-88164446D01*
X239518205Y-88142835D01*
X239525318Y-88119386D01*
X239527720Y-88095000D01*
X239525318Y-88070613D01*
X239518205Y-88047164D01*
X239506654Y-88025554D01*
X239491108Y-88006611D01*
X239472166Y-87991066D01*
X239464782Y-87986132D01*
X239464777Y-87986130D01*
X239367538Y-87921157D01*
X239284843Y-87838462D01*
X239219870Y-87741223D01*
X239175115Y-87633176D01*
X239152300Y-87518474D01*
X239152300Y-87401526D01*
X239175115Y-87286824D01*
X239219870Y-87178777D01*
X239284843Y-87081538D01*
X239367538Y-86998843D01*
X239464777Y-86933870D01*
X239572824Y-86889115D01*
X239687526Y-86866300D01*
X239804474Y-86866300D01*
X239919176Y-86889115D01*
X239919176Y-86889115D01*
G37*
G36*
X239919176Y-71889115D02*
X240027223Y-71933870D01*
X240124462Y-71998843D01*
X240207157Y-72081538D01*
X240272130Y-72178777D01*
X240316885Y-72286824D01*
X240339700Y-72401526D01*
X240339700Y-72518474D01*
X240316885Y-72633176D01*
X240272130Y-72741223D01*
X240207157Y-72838462D01*
X240124462Y-72921157D01*
X240027223Y-72986130D01*
X240027218Y-72986132D01*
X240019834Y-72991066D01*
X240000891Y-73006612D01*
X239985346Y-73025554D01*
X239973795Y-73047165D01*
X239966682Y-73070614D01*
X239964280Y-73095000D01*
X239966682Y-73119387D01*
X239973795Y-73142836D01*
X239985346Y-73164446D01*
X240000892Y-73183389D01*
X240019834Y-73198934D01*
X240027218Y-73203868D01*
X240027223Y-73203870D01*
X240124462Y-73268843D01*
X240207157Y-73351538D01*
X240272130Y-73448777D01*
X240316885Y-73556824D01*
X240339700Y-73671526D01*
X240339700Y-73788474D01*
X240316885Y-73903176D01*
X240272130Y-74011223D01*
X240207157Y-74108462D01*
X240124462Y-74191157D01*
X240027223Y-74256130D01*
X240027218Y-74256132D01*
X240019834Y-74261066D01*
X240000891Y-74276612D01*
X239985346Y-74295554D01*
X239973795Y-74317165D01*
X239966682Y-74340614D01*
X239964280Y-74365000D01*
X239966682Y-74389387D01*
X239973795Y-74412836D01*
X239985346Y-74434446D01*
X240000892Y-74453389D01*
X240019834Y-74468934D01*
X240027218Y-74473868D01*
X240027223Y-74473870D01*
X240124462Y-74538843D01*
X240207157Y-74621538D01*
X240272130Y-74718777D01*
X240316885Y-74826824D01*
X240339700Y-74941526D01*
X240339700Y-75058474D01*
X240316885Y-75173176D01*
X240272130Y-75281223D01*
X240207157Y-75378462D01*
X240124462Y-75461157D01*
X240027223Y-75526130D01*
X240027218Y-75526132D01*
X240019834Y-75531066D01*
X240000891Y-75546612D01*
X239985346Y-75565554D01*
X239973795Y-75587165D01*
X239966682Y-75610614D01*
X239964280Y-75635000D01*
X239966682Y-75659387D01*
X239973795Y-75682836D01*
X239985346Y-75704446D01*
X240000892Y-75723389D01*
X240019834Y-75738934D01*
X240027218Y-75743868D01*
X240027223Y-75743870D01*
X240124462Y-75808843D01*
X240207157Y-75891538D01*
X240272130Y-75988777D01*
X240316885Y-76096824D01*
X240339700Y-76211526D01*
X240339700Y-76328474D01*
X240316885Y-76443176D01*
X240272130Y-76551223D01*
X240207157Y-76648462D01*
X240124462Y-76731157D01*
X240027223Y-76796130D01*
X240027218Y-76796132D01*
X240019834Y-76801066D01*
X240000891Y-76816612D01*
X239985346Y-76835554D01*
X239973795Y-76857165D01*
X239966682Y-76880614D01*
X239964280Y-76905000D01*
X239966682Y-76929387D01*
X239973795Y-76952836D01*
X239985346Y-76974446D01*
X240000892Y-76993389D01*
X240019834Y-77008934D01*
X240027218Y-77013868D01*
X240027223Y-77013870D01*
X240124462Y-77078843D01*
X240207157Y-77161538D01*
X240272130Y-77258777D01*
X240316885Y-77366824D01*
X240339700Y-77481526D01*
X240339700Y-77598474D01*
X240316885Y-77713176D01*
X240272130Y-77821223D01*
X240207157Y-77918462D01*
X240124462Y-78001157D01*
X240027223Y-78066130D01*
X239919176Y-78110885D01*
X239804474Y-78133700D01*
X239687526Y-78133700D01*
X239572824Y-78110885D01*
X239464777Y-78066130D01*
X239367538Y-78001157D01*
X239284843Y-77918462D01*
X239219870Y-77821223D01*
X239175115Y-77713176D01*
X239152300Y-77598474D01*
X239152300Y-77481526D01*
X239175115Y-77366824D01*
X239219870Y-77258777D01*
X239284843Y-77161538D01*
X239367538Y-77078843D01*
X239464777Y-77013870D01*
X239464782Y-77013868D01*
X239472166Y-77008934D01*
X239491109Y-76993388D01*
X239506654Y-76974446D01*
X239518205Y-76952835D01*
X239525318Y-76929386D01*
X239527720Y-76905000D01*
X239525318Y-76880613D01*
X239518205Y-76857164D01*
X239506654Y-76835554D01*
X239491108Y-76816611D01*
X239472166Y-76801066D01*
X239464782Y-76796132D01*
X239464777Y-76796130D01*
X239367538Y-76731157D01*
X239284843Y-76648462D01*
X239219870Y-76551223D01*
X239175115Y-76443176D01*
X239152300Y-76328474D01*
X239152300Y-76211526D01*
X239175115Y-76096824D01*
X239219870Y-75988777D01*
X239284843Y-75891538D01*
X239367538Y-75808843D01*
X239464777Y-75743870D01*
X239464782Y-75743868D01*
X239472166Y-75738934D01*
X239491109Y-75723388D01*
X239506654Y-75704446D01*
X239518205Y-75682835D01*
X239525318Y-75659386D01*
X239527720Y-75635000D01*
X239525318Y-75610613D01*
X239518205Y-75587164D01*
X239506654Y-75565554D01*
X239491108Y-75546611D01*
X239472166Y-75531066D01*
X239464782Y-75526132D01*
X239464777Y-75526130D01*
X239367538Y-75461157D01*
X239284843Y-75378462D01*
X239219870Y-75281223D01*
X239175115Y-75173176D01*
X239152300Y-75058474D01*
X239152300Y-74941526D01*
X239175115Y-74826824D01*
X239219870Y-74718777D01*
X239284843Y-74621538D01*
X239367538Y-74538843D01*
X239464777Y-74473870D01*
X239464782Y-74473868D01*
X239472166Y-74468934D01*
X239491109Y-74453388D01*
X239506654Y-74434446D01*
X239518205Y-74412835D01*
X239525318Y-74389386D01*
X239527720Y-74365000D01*
X239525318Y-74340613D01*
X239518205Y-74317164D01*
X239506654Y-74295554D01*
X239491108Y-74276611D01*
X239472166Y-74261066D01*
X239464782Y-74256132D01*
X239464777Y-74256130D01*
X239367538Y-74191157D01*
X239284843Y-74108462D01*
X239219870Y-74011223D01*
X239175115Y-73903176D01*
X239152300Y-73788474D01*
X239152300Y-73671526D01*
X239175115Y-73556824D01*
X239219870Y-73448777D01*
X239284843Y-73351538D01*
X239367538Y-73268843D01*
X239464777Y-73203870D01*
X239464782Y-73203868D01*
X239472166Y-73198934D01*
X239491109Y-73183388D01*
X239506654Y-73164446D01*
X239518205Y-73142835D01*
X239525318Y-73119386D01*
X239527720Y-73095000D01*
X239525318Y-73070613D01*
X239518205Y-73047164D01*
X239506654Y-73025554D01*
X239491108Y-73006611D01*
X239472166Y-72991066D01*
X239464782Y-72986132D01*
X239464777Y-72986130D01*
X239367538Y-72921157D01*
X239284843Y-72838462D01*
X239219870Y-72741223D01*
X239175115Y-72633176D01*
X239152300Y-72518474D01*
X239152300Y-72401526D01*
X239175115Y-72286824D01*
X239219870Y-72178777D01*
X239284843Y-72081538D01*
X239367538Y-71998843D01*
X239464777Y-71933870D01*
X239572824Y-71889115D01*
X239687526Y-71866300D01*
X239804474Y-71866300D01*
X239919176Y-71889115D01*
X239919176Y-71889115D01*
G37*
G36*
X96050000Y-76050000D02*
X93950000Y-76050000D01*
X93950000Y-73950000D01*
X96050000Y-73950000D01*
X96050000Y-76050000D01*
X96050000Y-76050000D01*
G37*
G36*
X239919176Y-56889115D02*
X240027223Y-56933870D01*
X240124462Y-56998843D01*
X240207157Y-57081538D01*
X240272130Y-57178777D01*
X240316885Y-57286824D01*
X240339700Y-57401526D01*
X240339700Y-57518474D01*
X240316885Y-57633176D01*
X240272130Y-57741223D01*
X240207157Y-57838462D01*
X240124462Y-57921157D01*
X240027223Y-57986130D01*
X240027218Y-57986132D01*
X240019834Y-57991066D01*
X240000891Y-58006612D01*
X239985346Y-58025554D01*
X239973795Y-58047165D01*
X239966682Y-58070614D01*
X239964280Y-58095000D01*
X239966682Y-58119387D01*
X239973795Y-58142836D01*
X239985346Y-58164446D01*
X240000892Y-58183389D01*
X240019834Y-58198934D01*
X240027218Y-58203868D01*
X240027223Y-58203870D01*
X240124462Y-58268843D01*
X240207157Y-58351538D01*
X240272130Y-58448777D01*
X240316885Y-58556824D01*
X240339700Y-58671526D01*
X240339700Y-58788474D01*
X240316885Y-58903176D01*
X240272130Y-59011223D01*
X240207157Y-59108462D01*
X240124462Y-59191157D01*
X240027223Y-59256130D01*
X240027218Y-59256132D01*
X240019834Y-59261066D01*
X240000891Y-59276612D01*
X239985346Y-59295554D01*
X239973795Y-59317165D01*
X239966682Y-59340614D01*
X239964280Y-59365000D01*
X239966682Y-59389387D01*
X239973795Y-59412836D01*
X239985346Y-59434446D01*
X240000892Y-59453389D01*
X240019834Y-59468934D01*
X240027218Y-59473868D01*
X240027223Y-59473870D01*
X240124462Y-59538843D01*
X240207157Y-59621538D01*
X240272130Y-59718777D01*
X240316885Y-59826824D01*
X240339700Y-59941526D01*
X240339700Y-60058474D01*
X240316885Y-60173176D01*
X240272130Y-60281223D01*
X240207157Y-60378462D01*
X240124462Y-60461157D01*
X240027223Y-60526130D01*
X240027218Y-60526132D01*
X240019834Y-60531066D01*
X240000891Y-60546612D01*
X239985346Y-60565554D01*
X239973795Y-60587165D01*
X239966682Y-60610614D01*
X239964280Y-60635000D01*
X239966682Y-60659387D01*
X239973795Y-60682836D01*
X239985346Y-60704446D01*
X240000892Y-60723389D01*
X240019834Y-60738934D01*
X240027218Y-60743868D01*
X240027223Y-60743870D01*
X240124462Y-60808843D01*
X240207157Y-60891538D01*
X240272130Y-60988777D01*
X240316885Y-61096824D01*
X240339700Y-61211526D01*
X240339700Y-61328474D01*
X240316885Y-61443176D01*
X240272130Y-61551223D01*
X240207157Y-61648462D01*
X240124462Y-61731157D01*
X240027223Y-61796130D01*
X240027218Y-61796132D01*
X240019834Y-61801066D01*
X240000891Y-61816612D01*
X239985346Y-61835554D01*
X239973795Y-61857165D01*
X239966682Y-61880614D01*
X239964280Y-61905000D01*
X239966682Y-61929387D01*
X239973795Y-61952836D01*
X239985346Y-61974446D01*
X240000892Y-61993389D01*
X240019834Y-62008934D01*
X240027218Y-62013868D01*
X240027223Y-62013870D01*
X240124462Y-62078843D01*
X240207157Y-62161538D01*
X240272130Y-62258777D01*
X240316885Y-62366824D01*
X240339700Y-62481526D01*
X240339700Y-62598474D01*
X240316885Y-62713176D01*
X240272130Y-62821223D01*
X240207157Y-62918462D01*
X240124462Y-63001157D01*
X240027223Y-63066130D01*
X239919176Y-63110885D01*
X239804474Y-63133700D01*
X239687526Y-63133700D01*
X239572824Y-63110885D01*
X239464777Y-63066130D01*
X239367538Y-63001157D01*
X239284843Y-62918462D01*
X239219870Y-62821223D01*
X239175115Y-62713176D01*
X239152300Y-62598474D01*
X239152300Y-62481526D01*
X239175115Y-62366824D01*
X239219870Y-62258777D01*
X239284843Y-62161538D01*
X239367538Y-62078843D01*
X239464777Y-62013870D01*
X239464782Y-62013868D01*
X239472166Y-62008934D01*
X239491109Y-61993388D01*
X239506654Y-61974446D01*
X239518205Y-61952835D01*
X239525318Y-61929386D01*
X239527720Y-61905000D01*
X239525318Y-61880613D01*
X239518205Y-61857164D01*
X239506654Y-61835554D01*
X239491108Y-61816611D01*
X239472166Y-61801066D01*
X239464782Y-61796132D01*
X239464777Y-61796130D01*
X239367538Y-61731157D01*
X239284843Y-61648462D01*
X239219870Y-61551223D01*
X239175115Y-61443176D01*
X239152300Y-61328474D01*
X239152300Y-61211526D01*
X239175115Y-61096824D01*
X239219870Y-60988777D01*
X239284843Y-60891538D01*
X239367538Y-60808843D01*
X239464777Y-60743870D01*
X239464782Y-60743868D01*
X239472166Y-60738934D01*
X239491109Y-60723388D01*
X239506654Y-60704446D01*
X239518205Y-60682835D01*
X239525318Y-60659386D01*
X239527720Y-60635000D01*
X239525318Y-60610613D01*
X239518205Y-60587164D01*
X239506654Y-60565554D01*
X239491108Y-60546611D01*
X239472166Y-60531066D01*
X239464782Y-60526132D01*
X239464777Y-60526130D01*
X239367538Y-60461157D01*
X239284843Y-60378462D01*
X239219870Y-60281223D01*
X239175115Y-60173176D01*
X239152300Y-60058474D01*
X239152300Y-59941526D01*
X239175115Y-59826824D01*
X239219870Y-59718777D01*
X239284843Y-59621538D01*
X239367538Y-59538843D01*
X239464777Y-59473870D01*
X239464782Y-59473868D01*
X239472166Y-59468934D01*
X239491109Y-59453388D01*
X239506654Y-59434446D01*
X239518205Y-59412835D01*
X239525318Y-59389386D01*
X239527720Y-59365000D01*
X239525318Y-59340613D01*
X239518205Y-59317164D01*
X239506654Y-59295554D01*
X239491108Y-59276611D01*
X239472166Y-59261066D01*
X239464782Y-59256132D01*
X239464777Y-59256130D01*
X239367538Y-59191157D01*
X239284843Y-59108462D01*
X239219870Y-59011223D01*
X239175115Y-58903176D01*
X239152300Y-58788474D01*
X239152300Y-58671526D01*
X239175115Y-58556824D01*
X239219870Y-58448777D01*
X239284843Y-58351538D01*
X239367538Y-58268843D01*
X239464777Y-58203870D01*
X239464782Y-58203868D01*
X239472166Y-58198934D01*
X239491109Y-58183388D01*
X239506654Y-58164446D01*
X239518205Y-58142835D01*
X239525318Y-58119386D01*
X239527720Y-58095000D01*
X239525318Y-58070613D01*
X239518205Y-58047164D01*
X239506654Y-58025554D01*
X239491108Y-58006611D01*
X239472166Y-57991066D01*
X239464782Y-57986132D01*
X239464777Y-57986130D01*
X239367538Y-57921157D01*
X239284843Y-57838462D01*
X239219870Y-57741223D01*
X239175115Y-57633176D01*
X239152300Y-57518474D01*
X239152300Y-57401526D01*
X239175115Y-57286824D01*
X239219870Y-57178777D01*
X239284843Y-57081538D01*
X239367538Y-56998843D01*
X239464777Y-56933870D01*
X239572824Y-56889115D01*
X239687526Y-56866300D01*
X239804474Y-56866300D01*
X239919176Y-56889115D01*
X239919176Y-56889115D01*
G37*
G36*
X218050000Y-58050000D02*
X215950000Y-58050000D01*
X215950000Y-55950000D01*
X218050000Y-55950000D01*
X218050000Y-58050000D01*
X218050000Y-58050000D01*
G37*
G36*
X214588707Y-55957597D02*
X214665836Y-55965193D01*
X214797787Y-56005220D01*
X214863763Y-56025233D01*
X215046172Y-56122733D01*
X215206054Y-56253946D01*
X215337267Y-56413828D01*
X215434767Y-56596237D01*
X215434767Y-56596238D01*
X215494807Y-56794164D01*
X215515080Y-57000000D01*
X215494807Y-57205836D01*
X215454780Y-57337787D01*
X215434767Y-57403763D01*
X215337267Y-57586172D01*
X215206054Y-57746054D01*
X215046172Y-57877267D01*
X214863763Y-57974767D01*
X214810031Y-57991066D01*
X214665836Y-58034807D01*
X214588707Y-58042404D01*
X214511580Y-58050000D01*
X214408420Y-58050000D01*
X214331293Y-58042404D01*
X214254164Y-58034807D01*
X214109969Y-57991066D01*
X214056237Y-57974767D01*
X213873828Y-57877267D01*
X213713946Y-57746054D01*
X213582733Y-57586172D01*
X213485233Y-57403763D01*
X213465220Y-57337787D01*
X213425193Y-57205836D01*
X213404920Y-57000000D01*
X213425193Y-56794164D01*
X213485233Y-56596238D01*
X213485233Y-56596237D01*
X213582733Y-56413828D01*
X213713946Y-56253946D01*
X213873828Y-56122733D01*
X214056237Y-56025233D01*
X214122213Y-56005220D01*
X214254164Y-55965193D01*
X214331293Y-55957597D01*
X214408420Y-55950000D01*
X214511580Y-55950000D01*
X214588707Y-55957597D01*
X214588707Y-55957597D01*
G37*
G36*
X209508707Y-55957597D02*
X209585836Y-55965193D01*
X209717787Y-56005220D01*
X209783763Y-56025233D01*
X209966172Y-56122733D01*
X210126054Y-56253946D01*
X210257267Y-56413828D01*
X210354767Y-56596237D01*
X210354767Y-56596238D01*
X210414807Y-56794164D01*
X210435080Y-57000000D01*
X210414807Y-57205836D01*
X210374780Y-57337787D01*
X210354767Y-57403763D01*
X210257267Y-57586172D01*
X210126054Y-57746054D01*
X209966172Y-57877267D01*
X209783763Y-57974767D01*
X209730031Y-57991066D01*
X209585836Y-58034807D01*
X209508707Y-58042404D01*
X209431580Y-58050000D01*
X209328420Y-58050000D01*
X209251293Y-58042404D01*
X209174164Y-58034807D01*
X209029969Y-57991066D01*
X208976237Y-57974767D01*
X208793828Y-57877267D01*
X208633946Y-57746054D01*
X208502733Y-57586172D01*
X208405233Y-57403763D01*
X208385220Y-57337787D01*
X208345193Y-57205836D01*
X208324920Y-57000000D01*
X208345193Y-56794164D01*
X208405233Y-56596238D01*
X208405233Y-56596237D01*
X208502733Y-56413828D01*
X208633946Y-56253946D01*
X208793828Y-56122733D01*
X208976237Y-56025233D01*
X209042213Y-56005220D01*
X209174164Y-55965193D01*
X209251293Y-55957597D01*
X209328420Y-55950000D01*
X209431580Y-55950000D01*
X209508707Y-55957597D01*
X209508707Y-55957597D01*
G37*
G36*
X206968707Y-55957597D02*
X207045836Y-55965193D01*
X207177787Y-56005220D01*
X207243763Y-56025233D01*
X207426172Y-56122733D01*
X207586054Y-56253946D01*
X207717267Y-56413828D01*
X207814767Y-56596237D01*
X207814767Y-56596238D01*
X207874807Y-56794164D01*
X207895080Y-57000000D01*
X207874807Y-57205836D01*
X207834780Y-57337787D01*
X207814767Y-57403763D01*
X207717267Y-57586172D01*
X207586054Y-57746054D01*
X207426172Y-57877267D01*
X207243763Y-57974767D01*
X207190031Y-57991066D01*
X207045836Y-58034807D01*
X206968707Y-58042404D01*
X206891580Y-58050000D01*
X206788420Y-58050000D01*
X206711293Y-58042404D01*
X206634164Y-58034807D01*
X206489969Y-57991066D01*
X206436237Y-57974767D01*
X206253828Y-57877267D01*
X206093946Y-57746054D01*
X205962733Y-57586172D01*
X205865233Y-57403763D01*
X205845220Y-57337787D01*
X205805193Y-57205836D01*
X205784920Y-57000000D01*
X205805193Y-56794164D01*
X205865233Y-56596238D01*
X205865233Y-56596237D01*
X205962733Y-56413828D01*
X206093946Y-56253946D01*
X206253828Y-56122733D01*
X206436237Y-56025233D01*
X206502213Y-56005220D01*
X206634164Y-55965193D01*
X206711293Y-55957597D01*
X206788420Y-55950000D01*
X206891580Y-55950000D01*
X206968707Y-55957597D01*
X206968707Y-55957597D01*
G37*
G36*
X204428707Y-55957597D02*
X204505836Y-55965193D01*
X204637787Y-56005220D01*
X204703763Y-56025233D01*
X204886172Y-56122733D01*
X205046054Y-56253946D01*
X205177267Y-56413828D01*
X205274767Y-56596237D01*
X205274767Y-56596238D01*
X205334807Y-56794164D01*
X205355080Y-57000000D01*
X205334807Y-57205836D01*
X205294780Y-57337787D01*
X205274767Y-57403763D01*
X205177267Y-57586172D01*
X205046054Y-57746054D01*
X204886172Y-57877267D01*
X204703763Y-57974767D01*
X204650031Y-57991066D01*
X204505836Y-58034807D01*
X204428707Y-58042404D01*
X204351580Y-58050000D01*
X204248420Y-58050000D01*
X204171293Y-58042404D01*
X204094164Y-58034807D01*
X203949969Y-57991066D01*
X203896237Y-57974767D01*
X203713828Y-57877267D01*
X203553946Y-57746054D01*
X203422733Y-57586172D01*
X203325233Y-57403763D01*
X203305220Y-57337787D01*
X203265193Y-57205836D01*
X203244920Y-57000000D01*
X203265193Y-56794164D01*
X203325233Y-56596238D01*
X203325233Y-56596237D01*
X203422733Y-56413828D01*
X203553946Y-56253946D01*
X203713828Y-56122733D01*
X203896237Y-56025233D01*
X203962213Y-56005220D01*
X204094164Y-55965193D01*
X204171293Y-55957597D01*
X204248420Y-55950000D01*
X204351580Y-55950000D01*
X204428707Y-55957597D01*
X204428707Y-55957597D01*
G37*
G36*
X201888707Y-55957597D02*
X201965836Y-55965193D01*
X202097787Y-56005220D01*
X202163763Y-56025233D01*
X202346172Y-56122733D01*
X202506054Y-56253946D01*
X202637267Y-56413828D01*
X202734767Y-56596237D01*
X202734767Y-56596238D01*
X202794807Y-56794164D01*
X202815080Y-57000000D01*
X202794807Y-57205836D01*
X202754780Y-57337787D01*
X202734767Y-57403763D01*
X202637267Y-57586172D01*
X202506054Y-57746054D01*
X202346172Y-57877267D01*
X202163763Y-57974767D01*
X202110031Y-57991066D01*
X201965836Y-58034807D01*
X201888707Y-58042404D01*
X201811580Y-58050000D01*
X201708420Y-58050000D01*
X201631293Y-58042404D01*
X201554164Y-58034807D01*
X201409969Y-57991066D01*
X201356237Y-57974767D01*
X201173828Y-57877267D01*
X201013946Y-57746054D01*
X200882733Y-57586172D01*
X200785233Y-57403763D01*
X200765220Y-57337787D01*
X200725193Y-57205836D01*
X200704920Y-57000000D01*
X200725193Y-56794164D01*
X200785233Y-56596238D01*
X200785233Y-56596237D01*
X200882733Y-56413828D01*
X201013946Y-56253946D01*
X201173828Y-56122733D01*
X201356237Y-56025233D01*
X201422213Y-56005220D01*
X201554164Y-55965193D01*
X201631293Y-55957597D01*
X201708420Y-55950000D01*
X201811580Y-55950000D01*
X201888707Y-55957597D01*
X201888707Y-55957597D01*
G37*
G36*
X212048707Y-55957597D02*
X212125836Y-55965193D01*
X212257787Y-56005220D01*
X212323763Y-56025233D01*
X212506172Y-56122733D01*
X212666054Y-56253946D01*
X212797267Y-56413828D01*
X212894767Y-56596237D01*
X212894767Y-56596238D01*
X212954807Y-56794164D01*
X212975080Y-57000000D01*
X212954807Y-57205836D01*
X212914780Y-57337787D01*
X212894767Y-57403763D01*
X212797267Y-57586172D01*
X212666054Y-57746054D01*
X212506172Y-57877267D01*
X212323763Y-57974767D01*
X212270031Y-57991066D01*
X212125836Y-58034807D01*
X212048707Y-58042404D01*
X211971580Y-58050000D01*
X211868420Y-58050000D01*
X211791293Y-58042404D01*
X211714164Y-58034807D01*
X211569969Y-57991066D01*
X211516237Y-57974767D01*
X211333828Y-57877267D01*
X211173946Y-57746054D01*
X211042733Y-57586172D01*
X210945233Y-57403763D01*
X210925220Y-57337787D01*
X210885193Y-57205836D01*
X210864920Y-57000000D01*
X210885193Y-56794164D01*
X210945233Y-56596238D01*
X210945233Y-56596237D01*
X211042733Y-56413828D01*
X211173946Y-56253946D01*
X211333828Y-56122733D01*
X211516237Y-56025233D01*
X211582213Y-56005220D01*
X211714164Y-55965193D01*
X211791293Y-55957597D01*
X211868420Y-55950000D01*
X211971580Y-55950000D01*
X212048707Y-55957597D01*
X212048707Y-55957597D01*
G37*
G36*
X199348707Y-55957597D02*
X199425836Y-55965193D01*
X199557787Y-56005220D01*
X199623763Y-56025233D01*
X199806172Y-56122733D01*
X199966054Y-56253946D01*
X200097267Y-56413828D01*
X200194767Y-56596237D01*
X200194767Y-56596238D01*
X200254807Y-56794164D01*
X200275080Y-57000000D01*
X200254807Y-57205836D01*
X200214780Y-57337787D01*
X200194767Y-57403763D01*
X200097267Y-57586172D01*
X199966054Y-57746054D01*
X199806172Y-57877267D01*
X199623763Y-57974767D01*
X199570031Y-57991066D01*
X199425836Y-58034807D01*
X199348707Y-58042404D01*
X199271580Y-58050000D01*
X199168420Y-58050000D01*
X199091293Y-58042404D01*
X199014164Y-58034807D01*
X198869969Y-57991066D01*
X198816237Y-57974767D01*
X198633828Y-57877267D01*
X198473946Y-57746054D01*
X198342733Y-57586172D01*
X198245233Y-57403763D01*
X198225220Y-57337787D01*
X198185193Y-57205836D01*
X198164920Y-57000000D01*
X198185193Y-56794164D01*
X198245233Y-56596238D01*
X198245233Y-56596237D01*
X198342733Y-56413828D01*
X198473946Y-56253946D01*
X198633828Y-56122733D01*
X198816237Y-56025233D01*
X198882213Y-56005220D01*
X199014164Y-55965193D01*
X199091293Y-55957597D01*
X199168420Y-55950000D01*
X199271580Y-55950000D01*
X199348707Y-55957597D01*
X199348707Y-55957597D01*
G37*
G36*
X127568793Y-53124937D02*
X127923670Y-53271932D01*
X128243055Y-53485338D01*
X128514662Y-53756945D01*
X128728068Y-54076330D01*
X128875063Y-54431207D01*
X128950000Y-54807940D01*
X128950000Y-55192060D01*
X128875063Y-55568793D01*
X128728068Y-55923670D01*
X128514662Y-56243055D01*
X128243055Y-56514662D01*
X127923670Y-56728068D01*
X127568793Y-56875063D01*
X127192060Y-56950000D01*
X126807940Y-56950000D01*
X126431207Y-56875063D01*
X126076330Y-56728068D01*
X125756945Y-56514662D01*
X125485338Y-56243055D01*
X125271932Y-55923670D01*
X125124937Y-55568793D01*
X125050000Y-55192060D01*
X125050000Y-54807940D01*
X125124937Y-54431207D01*
X125271932Y-54076330D01*
X125485338Y-53756945D01*
X125756945Y-53485338D01*
X126076330Y-53271932D01*
X126431207Y-53124937D01*
X126807940Y-53050000D01*
X127192060Y-53050000D01*
X127568793Y-53124937D01*
X127568793Y-53124937D01*
G37*
G36*
X103568793Y-53124937D02*
X103923670Y-53271932D01*
X104243055Y-53485338D01*
X104514662Y-53756945D01*
X104728068Y-54076330D01*
X104875063Y-54431207D01*
X104950000Y-54807940D01*
X104950000Y-55192060D01*
X104875063Y-55568793D01*
X104728068Y-55923670D01*
X104514662Y-56243055D01*
X104243055Y-56514662D01*
X103923670Y-56728068D01*
X103568793Y-56875063D01*
X103192060Y-56950000D01*
X102807940Y-56950000D01*
X102431207Y-56875063D01*
X102076330Y-56728068D01*
X101756945Y-56514662D01*
X101485338Y-56243055D01*
X101271932Y-55923670D01*
X101124937Y-55568793D01*
X101050000Y-55192060D01*
X101050000Y-54807940D01*
X101124937Y-54431207D01*
X101271932Y-54076330D01*
X101485338Y-53756945D01*
X101756945Y-53485338D01*
X102076330Y-53271932D01*
X102431207Y-53124937D01*
X102807940Y-53050000D01*
X103192060Y-53050000D01*
X103568793Y-53124937D01*
X103568793Y-53124937D01*
G37*
G36*
X156828707Y-52957597D02*
X156905836Y-52965193D01*
X157024928Y-53001319D01*
X157103763Y-53025233D01*
X157286172Y-53122733D01*
X157446054Y-53253946D01*
X157577267Y-53413828D01*
X157674767Y-53596237D01*
X157674767Y-53596238D01*
X157734807Y-53794164D01*
X157755080Y-54000000D01*
X157734807Y-54205836D01*
X157694780Y-54337787D01*
X157674767Y-54403763D01*
X157577267Y-54586172D01*
X157446054Y-54746054D01*
X157286172Y-54877267D01*
X157103763Y-54974767D01*
X157037787Y-54994780D01*
X156905836Y-55034807D01*
X156828707Y-55042403D01*
X156751580Y-55050000D01*
X156648420Y-55050000D01*
X156571293Y-55042403D01*
X156494164Y-55034807D01*
X156362213Y-54994780D01*
X156296237Y-54974767D01*
X156113828Y-54877267D01*
X155953946Y-54746054D01*
X155822733Y-54586172D01*
X155725233Y-54403763D01*
X155705220Y-54337787D01*
X155665193Y-54205836D01*
X155644920Y-54000000D01*
X155665193Y-53794164D01*
X155725233Y-53596238D01*
X155725233Y-53596237D01*
X155822733Y-53413828D01*
X155953946Y-53253946D01*
X156113828Y-53122733D01*
X156296237Y-53025233D01*
X156375072Y-53001319D01*
X156494164Y-52965193D01*
X156571293Y-52957597D01*
X156648420Y-52950000D01*
X156751580Y-52950000D01*
X156828707Y-52957597D01*
X156828707Y-52957597D01*
G37*
G36*
X182228707Y-52957597D02*
X182305836Y-52965193D01*
X182424928Y-53001319D01*
X182503763Y-53025233D01*
X182686172Y-53122733D01*
X182846054Y-53253946D01*
X182977267Y-53413828D01*
X183074767Y-53596237D01*
X183074767Y-53596238D01*
X183134807Y-53794164D01*
X183155080Y-54000000D01*
X183134807Y-54205836D01*
X183094780Y-54337787D01*
X183074767Y-54403763D01*
X182977267Y-54586172D01*
X182846054Y-54746054D01*
X182686172Y-54877267D01*
X182503763Y-54974767D01*
X182437787Y-54994780D01*
X182305836Y-55034807D01*
X182228707Y-55042403D01*
X182151580Y-55050000D01*
X182048420Y-55050000D01*
X181971293Y-55042403D01*
X181894164Y-55034807D01*
X181762213Y-54994780D01*
X181696237Y-54974767D01*
X181513828Y-54877267D01*
X181353946Y-54746054D01*
X181222733Y-54586172D01*
X181125233Y-54403763D01*
X181105220Y-54337787D01*
X181065193Y-54205836D01*
X181044920Y-54000000D01*
X181065193Y-53794164D01*
X181125233Y-53596238D01*
X181125233Y-53596237D01*
X181222733Y-53413828D01*
X181353946Y-53253946D01*
X181513828Y-53122733D01*
X181696237Y-53025233D01*
X181775072Y-53001319D01*
X181894164Y-52965193D01*
X181971293Y-52957597D01*
X182048420Y-52950000D01*
X182151580Y-52950000D01*
X182228707Y-52957597D01*
X182228707Y-52957597D01*
G37*
G36*
X179688707Y-52957597D02*
X179765836Y-52965193D01*
X179884928Y-53001319D01*
X179963763Y-53025233D01*
X180146172Y-53122733D01*
X180306054Y-53253946D01*
X180437267Y-53413828D01*
X180534767Y-53596237D01*
X180534767Y-53596238D01*
X180594807Y-53794164D01*
X180615080Y-54000000D01*
X180594807Y-54205836D01*
X180554780Y-54337787D01*
X180534767Y-54403763D01*
X180437267Y-54586172D01*
X180306054Y-54746054D01*
X180146172Y-54877267D01*
X179963763Y-54974767D01*
X179897787Y-54994780D01*
X179765836Y-55034807D01*
X179688707Y-55042403D01*
X179611580Y-55050000D01*
X179508420Y-55050000D01*
X179431293Y-55042403D01*
X179354164Y-55034807D01*
X179222213Y-54994780D01*
X179156237Y-54974767D01*
X178973828Y-54877267D01*
X178813946Y-54746054D01*
X178682733Y-54586172D01*
X178585233Y-54403763D01*
X178565220Y-54337787D01*
X178525193Y-54205836D01*
X178504920Y-54000000D01*
X178525193Y-53794164D01*
X178585233Y-53596238D01*
X178585233Y-53596237D01*
X178682733Y-53413828D01*
X178813946Y-53253946D01*
X178973828Y-53122733D01*
X179156237Y-53025233D01*
X179235072Y-53001319D01*
X179354164Y-52965193D01*
X179431293Y-52957597D01*
X179508420Y-52950000D01*
X179611580Y-52950000D01*
X179688707Y-52957597D01*
X179688707Y-52957597D01*
G37*
G36*
X177148707Y-52957597D02*
X177225836Y-52965193D01*
X177344928Y-53001319D01*
X177423763Y-53025233D01*
X177606172Y-53122733D01*
X177766054Y-53253946D01*
X177897267Y-53413828D01*
X177994767Y-53596237D01*
X177994767Y-53596238D01*
X178054807Y-53794164D01*
X178075080Y-54000000D01*
X178054807Y-54205836D01*
X178014780Y-54337787D01*
X177994767Y-54403763D01*
X177897267Y-54586172D01*
X177766054Y-54746054D01*
X177606172Y-54877267D01*
X177423763Y-54974767D01*
X177357787Y-54994780D01*
X177225836Y-55034807D01*
X177148707Y-55042403D01*
X177071580Y-55050000D01*
X176968420Y-55050000D01*
X176891293Y-55042403D01*
X176814164Y-55034807D01*
X176682213Y-54994780D01*
X176616237Y-54974767D01*
X176433828Y-54877267D01*
X176273946Y-54746054D01*
X176142733Y-54586172D01*
X176045233Y-54403763D01*
X176025220Y-54337787D01*
X175985193Y-54205836D01*
X175964920Y-54000000D01*
X175985193Y-53794164D01*
X176045233Y-53596238D01*
X176045233Y-53596237D01*
X176142733Y-53413828D01*
X176273946Y-53253946D01*
X176433828Y-53122733D01*
X176616237Y-53025233D01*
X176695072Y-53001319D01*
X176814164Y-52965193D01*
X176891293Y-52957597D01*
X176968420Y-52950000D01*
X177071580Y-52950000D01*
X177148707Y-52957597D01*
X177148707Y-52957597D01*
G37*
G36*
X174608707Y-52957597D02*
X174685836Y-52965193D01*
X174804928Y-53001319D01*
X174883763Y-53025233D01*
X175066172Y-53122733D01*
X175226054Y-53253946D01*
X175357267Y-53413828D01*
X175454767Y-53596237D01*
X175454767Y-53596238D01*
X175514807Y-53794164D01*
X175535080Y-54000000D01*
X175514807Y-54205836D01*
X175474780Y-54337787D01*
X175454767Y-54403763D01*
X175357267Y-54586172D01*
X175226054Y-54746054D01*
X175066172Y-54877267D01*
X174883763Y-54974767D01*
X174817787Y-54994780D01*
X174685836Y-55034807D01*
X174608707Y-55042403D01*
X174531580Y-55050000D01*
X174428420Y-55050000D01*
X174351293Y-55042403D01*
X174274164Y-55034807D01*
X174142213Y-54994780D01*
X174076237Y-54974767D01*
X173893828Y-54877267D01*
X173733946Y-54746054D01*
X173602733Y-54586172D01*
X173505233Y-54403763D01*
X173485220Y-54337787D01*
X173445193Y-54205836D01*
X173424920Y-54000000D01*
X173445193Y-53794164D01*
X173505233Y-53596238D01*
X173505233Y-53596237D01*
X173602733Y-53413828D01*
X173733946Y-53253946D01*
X173893828Y-53122733D01*
X174076237Y-53025233D01*
X174155072Y-53001319D01*
X174274164Y-52965193D01*
X174351293Y-52957597D01*
X174428420Y-52950000D01*
X174531580Y-52950000D01*
X174608707Y-52957597D01*
X174608707Y-52957597D01*
G37*
G36*
X172068707Y-52957597D02*
X172145836Y-52965193D01*
X172264928Y-53001319D01*
X172343763Y-53025233D01*
X172526172Y-53122733D01*
X172686054Y-53253946D01*
X172817267Y-53413828D01*
X172914767Y-53596237D01*
X172914767Y-53596238D01*
X172974807Y-53794164D01*
X172995080Y-54000000D01*
X172974807Y-54205836D01*
X172934780Y-54337787D01*
X172914767Y-54403763D01*
X172817267Y-54586172D01*
X172686054Y-54746054D01*
X172526172Y-54877267D01*
X172343763Y-54974767D01*
X172277787Y-54994780D01*
X172145836Y-55034807D01*
X172068707Y-55042403D01*
X171991580Y-55050000D01*
X171888420Y-55050000D01*
X171811293Y-55042403D01*
X171734164Y-55034807D01*
X171602213Y-54994780D01*
X171536237Y-54974767D01*
X171353828Y-54877267D01*
X171193946Y-54746054D01*
X171062733Y-54586172D01*
X170965233Y-54403763D01*
X170945220Y-54337787D01*
X170905193Y-54205836D01*
X170884920Y-54000000D01*
X170905193Y-53794164D01*
X170965233Y-53596238D01*
X170965233Y-53596237D01*
X171062733Y-53413828D01*
X171193946Y-53253946D01*
X171353828Y-53122733D01*
X171536237Y-53025233D01*
X171615072Y-53001319D01*
X171734164Y-52965193D01*
X171811293Y-52957597D01*
X171888420Y-52950000D01*
X171991580Y-52950000D01*
X172068707Y-52957597D01*
X172068707Y-52957597D01*
G37*
G36*
X169528707Y-52957597D02*
X169605836Y-52965193D01*
X169724928Y-53001319D01*
X169803763Y-53025233D01*
X169986172Y-53122733D01*
X170146054Y-53253946D01*
X170277267Y-53413828D01*
X170374767Y-53596237D01*
X170374767Y-53596238D01*
X170434807Y-53794164D01*
X170455080Y-54000000D01*
X170434807Y-54205836D01*
X170394780Y-54337787D01*
X170374767Y-54403763D01*
X170277267Y-54586172D01*
X170146054Y-54746054D01*
X169986172Y-54877267D01*
X169803763Y-54974767D01*
X169737787Y-54994780D01*
X169605836Y-55034807D01*
X169528707Y-55042403D01*
X169451580Y-55050000D01*
X169348420Y-55050000D01*
X169271293Y-55042403D01*
X169194164Y-55034807D01*
X169062213Y-54994780D01*
X168996237Y-54974767D01*
X168813828Y-54877267D01*
X168653946Y-54746054D01*
X168522733Y-54586172D01*
X168425233Y-54403763D01*
X168405220Y-54337787D01*
X168365193Y-54205836D01*
X168344920Y-54000000D01*
X168365193Y-53794164D01*
X168425233Y-53596238D01*
X168425233Y-53596237D01*
X168522733Y-53413828D01*
X168653946Y-53253946D01*
X168813828Y-53122733D01*
X168996237Y-53025233D01*
X169075072Y-53001319D01*
X169194164Y-52965193D01*
X169271293Y-52957597D01*
X169348420Y-52950000D01*
X169451580Y-52950000D01*
X169528707Y-52957597D01*
X169528707Y-52957597D01*
G37*
G36*
X166988707Y-52957597D02*
X167065836Y-52965193D01*
X167184928Y-53001319D01*
X167263763Y-53025233D01*
X167446172Y-53122733D01*
X167606054Y-53253946D01*
X167737267Y-53413828D01*
X167834767Y-53596237D01*
X167834767Y-53596238D01*
X167894807Y-53794164D01*
X167915080Y-54000000D01*
X167894807Y-54205836D01*
X167854780Y-54337787D01*
X167834767Y-54403763D01*
X167737267Y-54586172D01*
X167606054Y-54746054D01*
X167446172Y-54877267D01*
X167263763Y-54974767D01*
X167197787Y-54994780D01*
X167065836Y-55034807D01*
X166988707Y-55042403D01*
X166911580Y-55050000D01*
X166808420Y-55050000D01*
X166731293Y-55042403D01*
X166654164Y-55034807D01*
X166522213Y-54994780D01*
X166456237Y-54974767D01*
X166273828Y-54877267D01*
X166113946Y-54746054D01*
X165982733Y-54586172D01*
X165885233Y-54403763D01*
X165865220Y-54337787D01*
X165825193Y-54205836D01*
X165804920Y-54000000D01*
X165825193Y-53794164D01*
X165885233Y-53596238D01*
X165885233Y-53596237D01*
X165982733Y-53413828D01*
X166113946Y-53253946D01*
X166273828Y-53122733D01*
X166456237Y-53025233D01*
X166535072Y-53001319D01*
X166654164Y-52965193D01*
X166731293Y-52957597D01*
X166808420Y-52950000D01*
X166911580Y-52950000D01*
X166988707Y-52957597D01*
X166988707Y-52957597D01*
G37*
G36*
X164448707Y-52957597D02*
X164525836Y-52965193D01*
X164644928Y-53001319D01*
X164723763Y-53025233D01*
X164906172Y-53122733D01*
X165066054Y-53253946D01*
X165197267Y-53413828D01*
X165294767Y-53596237D01*
X165294767Y-53596238D01*
X165354807Y-53794164D01*
X165375080Y-54000000D01*
X165354807Y-54205836D01*
X165314780Y-54337787D01*
X165294767Y-54403763D01*
X165197267Y-54586172D01*
X165066054Y-54746054D01*
X164906172Y-54877267D01*
X164723763Y-54974767D01*
X164657787Y-54994780D01*
X164525836Y-55034807D01*
X164448707Y-55042403D01*
X164371580Y-55050000D01*
X164268420Y-55050000D01*
X164191293Y-55042403D01*
X164114164Y-55034807D01*
X163982213Y-54994780D01*
X163916237Y-54974767D01*
X163733828Y-54877267D01*
X163573946Y-54746054D01*
X163442733Y-54586172D01*
X163345233Y-54403763D01*
X163325220Y-54337787D01*
X163285193Y-54205836D01*
X163264920Y-54000000D01*
X163285193Y-53794164D01*
X163345233Y-53596238D01*
X163345233Y-53596237D01*
X163442733Y-53413828D01*
X163573946Y-53253946D01*
X163733828Y-53122733D01*
X163916237Y-53025233D01*
X163995072Y-53001319D01*
X164114164Y-52965193D01*
X164191293Y-52957597D01*
X164268420Y-52950000D01*
X164371580Y-52950000D01*
X164448707Y-52957597D01*
X164448707Y-52957597D01*
G37*
G36*
X161908707Y-52957597D02*
X161985836Y-52965193D01*
X162104928Y-53001319D01*
X162183763Y-53025233D01*
X162366172Y-53122733D01*
X162526054Y-53253946D01*
X162657267Y-53413828D01*
X162754767Y-53596237D01*
X162754767Y-53596238D01*
X162814807Y-53794164D01*
X162835080Y-54000000D01*
X162814807Y-54205836D01*
X162774780Y-54337787D01*
X162754767Y-54403763D01*
X162657267Y-54586172D01*
X162526054Y-54746054D01*
X162366172Y-54877267D01*
X162183763Y-54974767D01*
X162117787Y-54994780D01*
X161985836Y-55034807D01*
X161908707Y-55042403D01*
X161831580Y-55050000D01*
X161728420Y-55050000D01*
X161651293Y-55042403D01*
X161574164Y-55034807D01*
X161442213Y-54994780D01*
X161376237Y-54974767D01*
X161193828Y-54877267D01*
X161033946Y-54746054D01*
X160902733Y-54586172D01*
X160805233Y-54403763D01*
X160785220Y-54337787D01*
X160745193Y-54205836D01*
X160724920Y-54000000D01*
X160745193Y-53794164D01*
X160805233Y-53596238D01*
X160805233Y-53596237D01*
X160902733Y-53413828D01*
X161033946Y-53253946D01*
X161193828Y-53122733D01*
X161376237Y-53025233D01*
X161455072Y-53001319D01*
X161574164Y-52965193D01*
X161651293Y-52957597D01*
X161728420Y-52950000D01*
X161831580Y-52950000D01*
X161908707Y-52957597D01*
X161908707Y-52957597D01*
G37*
G36*
X159368707Y-52957597D02*
X159445836Y-52965193D01*
X159564928Y-53001319D01*
X159643763Y-53025233D01*
X159826172Y-53122733D01*
X159986054Y-53253946D01*
X160117267Y-53413828D01*
X160214767Y-53596237D01*
X160214767Y-53596238D01*
X160274807Y-53794164D01*
X160295080Y-54000000D01*
X160274807Y-54205836D01*
X160234780Y-54337787D01*
X160214767Y-54403763D01*
X160117267Y-54586172D01*
X159986054Y-54746054D01*
X159826172Y-54877267D01*
X159643763Y-54974767D01*
X159577787Y-54994780D01*
X159445836Y-55034807D01*
X159368707Y-55042403D01*
X159291580Y-55050000D01*
X159188420Y-55050000D01*
X159111293Y-55042403D01*
X159034164Y-55034807D01*
X158902213Y-54994780D01*
X158836237Y-54974767D01*
X158653828Y-54877267D01*
X158493946Y-54746054D01*
X158362733Y-54586172D01*
X158265233Y-54403763D01*
X158245220Y-54337787D01*
X158205193Y-54205836D01*
X158184920Y-54000000D01*
X158205193Y-53794164D01*
X158265233Y-53596238D01*
X158265233Y-53596237D01*
X158362733Y-53413828D01*
X158493946Y-53253946D01*
X158653828Y-53122733D01*
X158836237Y-53025233D01*
X158915072Y-53001319D01*
X159034164Y-52965193D01*
X159111293Y-52957597D01*
X159188420Y-52950000D01*
X159291580Y-52950000D01*
X159368707Y-52957597D01*
X159368707Y-52957597D01*
G37*
G36*
X154288707Y-52957597D02*
X154365836Y-52965193D01*
X154484928Y-53001319D01*
X154563763Y-53025233D01*
X154746172Y-53122733D01*
X154906054Y-53253946D01*
X155037267Y-53413828D01*
X155134767Y-53596237D01*
X155134767Y-53596238D01*
X155194807Y-53794164D01*
X155215080Y-54000000D01*
X155194807Y-54205836D01*
X155154780Y-54337787D01*
X155134767Y-54403763D01*
X155037267Y-54586172D01*
X154906054Y-54746054D01*
X154746172Y-54877267D01*
X154563763Y-54974767D01*
X154497787Y-54994780D01*
X154365836Y-55034807D01*
X154288707Y-55042403D01*
X154211580Y-55050000D01*
X154108420Y-55050000D01*
X154031293Y-55042403D01*
X153954164Y-55034807D01*
X153822213Y-54994780D01*
X153756237Y-54974767D01*
X153573828Y-54877267D01*
X153413946Y-54746054D01*
X153282733Y-54586172D01*
X153185233Y-54403763D01*
X153165220Y-54337787D01*
X153125193Y-54205836D01*
X153104920Y-54000000D01*
X153125193Y-53794164D01*
X153185233Y-53596238D01*
X153185233Y-53596237D01*
X153282733Y-53413828D01*
X153413946Y-53253946D01*
X153573828Y-53122733D01*
X153756237Y-53025233D01*
X153835072Y-53001319D01*
X153954164Y-52965193D01*
X154031293Y-52957597D01*
X154108420Y-52950000D01*
X154211580Y-52950000D01*
X154288707Y-52957597D01*
X154288707Y-52957597D01*
G37*
G36*
X151748707Y-52957597D02*
X151825836Y-52965193D01*
X151944928Y-53001319D01*
X152023763Y-53025233D01*
X152206172Y-53122733D01*
X152366054Y-53253946D01*
X152497267Y-53413828D01*
X152594767Y-53596237D01*
X152594767Y-53596238D01*
X152654807Y-53794164D01*
X152675080Y-54000000D01*
X152654807Y-54205836D01*
X152614780Y-54337787D01*
X152594767Y-54403763D01*
X152497267Y-54586172D01*
X152366054Y-54746054D01*
X152206172Y-54877267D01*
X152023763Y-54974767D01*
X151957787Y-54994780D01*
X151825836Y-55034807D01*
X151748707Y-55042403D01*
X151671580Y-55050000D01*
X151568420Y-55050000D01*
X151491293Y-55042403D01*
X151414164Y-55034807D01*
X151282213Y-54994780D01*
X151216237Y-54974767D01*
X151033828Y-54877267D01*
X150873946Y-54746054D01*
X150742733Y-54586172D01*
X150645233Y-54403763D01*
X150625220Y-54337787D01*
X150585193Y-54205836D01*
X150564920Y-54000000D01*
X150585193Y-53794164D01*
X150645233Y-53596238D01*
X150645233Y-53596237D01*
X150742733Y-53413828D01*
X150873946Y-53253946D01*
X151033828Y-53122733D01*
X151216237Y-53025233D01*
X151295072Y-53001319D01*
X151414164Y-52965193D01*
X151491293Y-52957597D01*
X151568420Y-52950000D01*
X151671580Y-52950000D01*
X151748707Y-52957597D01*
X151748707Y-52957597D01*
G37*
G36*
X146668707Y-52957597D02*
X146745836Y-52965193D01*
X146864928Y-53001319D01*
X146943763Y-53025233D01*
X147126172Y-53122733D01*
X147286054Y-53253946D01*
X147417267Y-53413828D01*
X147514767Y-53596237D01*
X147514767Y-53596238D01*
X147574807Y-53794164D01*
X147595080Y-54000000D01*
X147574807Y-54205836D01*
X147534780Y-54337787D01*
X147514767Y-54403763D01*
X147417267Y-54586172D01*
X147286054Y-54746054D01*
X147126172Y-54877267D01*
X146943763Y-54974767D01*
X146877787Y-54994780D01*
X146745836Y-55034807D01*
X146668707Y-55042403D01*
X146591580Y-55050000D01*
X146488420Y-55050000D01*
X146411293Y-55042403D01*
X146334164Y-55034807D01*
X146202213Y-54994780D01*
X146136237Y-54974767D01*
X145953828Y-54877267D01*
X145793946Y-54746054D01*
X145662733Y-54586172D01*
X145565233Y-54403763D01*
X145545220Y-54337787D01*
X145505193Y-54205836D01*
X145484920Y-54000000D01*
X145505193Y-53794164D01*
X145565233Y-53596238D01*
X145565233Y-53596237D01*
X145662733Y-53413828D01*
X145793946Y-53253946D01*
X145953828Y-53122733D01*
X146136237Y-53025233D01*
X146215072Y-53001319D01*
X146334164Y-52965193D01*
X146411293Y-52957597D01*
X146488420Y-52950000D01*
X146591580Y-52950000D01*
X146668707Y-52957597D01*
X146668707Y-52957597D01*
G37*
G36*
X149208707Y-52957597D02*
X149285836Y-52965193D01*
X149404928Y-53001319D01*
X149483763Y-53025233D01*
X149666172Y-53122733D01*
X149826054Y-53253946D01*
X149957267Y-53413828D01*
X150054767Y-53596237D01*
X150054767Y-53596238D01*
X150114807Y-53794164D01*
X150135080Y-54000000D01*
X150114807Y-54205836D01*
X150074780Y-54337787D01*
X150054767Y-54403763D01*
X149957267Y-54586172D01*
X149826054Y-54746054D01*
X149666172Y-54877267D01*
X149483763Y-54974767D01*
X149417787Y-54994780D01*
X149285836Y-55034807D01*
X149208707Y-55042403D01*
X149131580Y-55050000D01*
X149028420Y-55050000D01*
X148951293Y-55042403D01*
X148874164Y-55034807D01*
X148742213Y-54994780D01*
X148676237Y-54974767D01*
X148493828Y-54877267D01*
X148333946Y-54746054D01*
X148202733Y-54586172D01*
X148105233Y-54403763D01*
X148085220Y-54337787D01*
X148045193Y-54205836D01*
X148024920Y-54000000D01*
X148045193Y-53794164D01*
X148105233Y-53596238D01*
X148105233Y-53596237D01*
X148202733Y-53413828D01*
X148333946Y-53253946D01*
X148493828Y-53122733D01*
X148676237Y-53025233D01*
X148755072Y-53001319D01*
X148874164Y-52965193D01*
X148951293Y-52957597D01*
X149028420Y-52950000D01*
X149131580Y-52950000D01*
X149208707Y-52957597D01*
X149208707Y-52957597D01*
G37*
G36*
X145050000Y-55050000D02*
X142950000Y-55050000D01*
X142950000Y-52950000D01*
X145050000Y-52950000D01*
X145050000Y-55050000D01*
X145050000Y-55050000D01*
G37*
G36*
X119457224Y-52540128D02*
X119589175Y-52580155D01*
X119710781Y-52645155D01*
X119817370Y-52732630D01*
X119904845Y-52839219D01*
X119969845Y-52960825D01*
X120009872Y-53092776D01*
X120020000Y-53195610D01*
X120020000Y-54364390D01*
X120009872Y-54467224D01*
X119969845Y-54599175D01*
X119904845Y-54720781D01*
X119817369Y-54827370D01*
X119710780Y-54914845D01*
X119589174Y-54979845D01*
X119457223Y-55019872D01*
X119320000Y-55033387D01*
X119182776Y-55019872D01*
X119050825Y-54979845D01*
X118929219Y-54914845D01*
X118822630Y-54827369D01*
X118735155Y-54720780D01*
X118670155Y-54599174D01*
X118630128Y-54467223D01*
X118620000Y-54364389D01*
X118620001Y-53487927D01*
X118617599Y-53463544D01*
X118610486Y-53440095D01*
X118598935Y-53418484D01*
X118583389Y-53399542D01*
X118564447Y-53383996D01*
X118542837Y-53372445D01*
X118519387Y-53365332D01*
X118495001Y-53362930D01*
X118470615Y-53365332D01*
X118447166Y-53372445D01*
X118425555Y-53383996D01*
X118406613Y-53399542D01*
X118391067Y-53418484D01*
X118379517Y-53440093D01*
X118355249Y-53498681D01*
X118298052Y-53584282D01*
X118297792Y-53584671D01*
X118224671Y-53657792D01*
X118224668Y-53657794D01*
X118138681Y-53715249D01*
X118043137Y-53754824D01*
X118043136Y-53754824D01*
X118043134Y-53754825D01*
X117941709Y-53775000D01*
X117838291Y-53775000D01*
X117736866Y-53754825D01*
X117736864Y-53754824D01*
X117736863Y-53754824D01*
X117641319Y-53715249D01*
X117555332Y-53657794D01*
X117555329Y-53657792D01*
X117482208Y-53584671D01*
X117481948Y-53584282D01*
X117424751Y-53498681D01*
X117385176Y-53403137D01*
X117384461Y-53399542D01*
X117365000Y-53301709D01*
X117365000Y-53198291D01*
X117385175Y-53096866D01*
X117388536Y-53088751D01*
X117424751Y-53001319D01*
X117482206Y-52915332D01*
X117482208Y-52915329D01*
X117555329Y-52842208D01*
X117559802Y-52839219D01*
X117641319Y-52784751D01*
X117736863Y-52745176D01*
X117736864Y-52745176D01*
X117736866Y-52745175D01*
X117838291Y-52725000D01*
X117941709Y-52725000D01*
X118043134Y-52745175D01*
X118043136Y-52745176D01*
X118043137Y-52745176D01*
X118138681Y-52784751D01*
X118220198Y-52839219D01*
X118224671Y-52842208D01*
X118297792Y-52915329D01*
X118297794Y-52915332D01*
X118355249Y-53001319D01*
X118365154Y-53025233D01*
X118396249Y-53100302D01*
X118407801Y-53121913D01*
X118423346Y-53140855D01*
X118442289Y-53156400D01*
X118463900Y-53167951D01*
X118487349Y-53175064D01*
X118511735Y-53177466D01*
X118536121Y-53175064D01*
X118559570Y-53167951D01*
X118581181Y-53156399D01*
X118600123Y-53140854D01*
X118615668Y-53121911D01*
X118631346Y-53088763D01*
X118670156Y-52960825D01*
X118735156Y-52839219D01*
X118822631Y-52732630D01*
X118929220Y-52645155D01*
X119050826Y-52580155D01*
X119182777Y-52540128D01*
X119320000Y-52526613D01*
X119457224Y-52540128D01*
X119457224Y-52540128D01*
G37*
G36*
X110817224Y-52540128D02*
X110949175Y-52580155D01*
X111070781Y-52645155D01*
X111177370Y-52732630D01*
X111264845Y-52839219D01*
X111329845Y-52960825D01*
X111368655Y-53088766D01*
X111378027Y-53111389D01*
X111391641Y-53131763D01*
X111408968Y-53149090D01*
X111429342Y-53162704D01*
X111451981Y-53172082D01*
X111476015Y-53176862D01*
X111500519Y-53176862D01*
X111524553Y-53172082D01*
X111547192Y-53162704D01*
X111567566Y-53149090D01*
X111584893Y-53131763D01*
X111603752Y-53100300D01*
X111634846Y-53025233D01*
X111644751Y-53001319D01*
X111702206Y-52915332D01*
X111702208Y-52915329D01*
X111775329Y-52842208D01*
X111779802Y-52839219D01*
X111861319Y-52784751D01*
X111956863Y-52745176D01*
X111956864Y-52745176D01*
X111956866Y-52745175D01*
X112058291Y-52725000D01*
X112161709Y-52725000D01*
X112263134Y-52745175D01*
X112263136Y-52745176D01*
X112263137Y-52745176D01*
X112358681Y-52784751D01*
X112440198Y-52839219D01*
X112444671Y-52842208D01*
X112517792Y-52915329D01*
X112517794Y-52915332D01*
X112575249Y-53001319D01*
X112611464Y-53088751D01*
X112614825Y-53096866D01*
X112635000Y-53198291D01*
X112635000Y-53301709D01*
X112615540Y-53399542D01*
X112614824Y-53403137D01*
X112575249Y-53498681D01*
X112518052Y-53584282D01*
X112517792Y-53584671D01*
X112444671Y-53657792D01*
X112444668Y-53657794D01*
X112358681Y-53715249D01*
X112263137Y-53754824D01*
X112263136Y-53754824D01*
X112263134Y-53754825D01*
X112161709Y-53775000D01*
X112058291Y-53775000D01*
X111956866Y-53754825D01*
X111956864Y-53754824D01*
X111956863Y-53754824D01*
X111861319Y-53715249D01*
X111775332Y-53657794D01*
X111775329Y-53657792D01*
X111702208Y-53584671D01*
X111701948Y-53584282D01*
X111644751Y-53498681D01*
X111620484Y-53440093D01*
X111608933Y-53418485D01*
X111593388Y-53399543D01*
X111574446Y-53383998D01*
X111552835Y-53372447D01*
X111529386Y-53365334D01*
X111504999Y-53362932D01*
X111480613Y-53365334D01*
X111457164Y-53372447D01*
X111435553Y-53383999D01*
X111416611Y-53399544D01*
X111401066Y-53418486D01*
X111389515Y-53440097D01*
X111382402Y-53463546D01*
X111380000Y-53487930D01*
X111380000Y-54364390D01*
X111369872Y-54467224D01*
X111329845Y-54599175D01*
X111264845Y-54720781D01*
X111177369Y-54827370D01*
X111070780Y-54914845D01*
X110949174Y-54979845D01*
X110817223Y-55019872D01*
X110680000Y-55033387D01*
X110542776Y-55019872D01*
X110410825Y-54979845D01*
X110289219Y-54914845D01*
X110182630Y-54827369D01*
X110095155Y-54720780D01*
X110030155Y-54599174D01*
X109990128Y-54467223D01*
X109980000Y-54364389D01*
X109980001Y-53195610D01*
X109990129Y-53092776D01*
X110030156Y-52960825D01*
X110095156Y-52839219D01*
X110182631Y-52732630D01*
X110289220Y-52645155D01*
X110410826Y-52580155D01*
X110542777Y-52540128D01*
X110680000Y-52526613D01*
X110817224Y-52540128D01*
X110817224Y-52540128D01*
G37*
G36*
X119457224Y-48610128D02*
X119589175Y-48650155D01*
X119710781Y-48715155D01*
X119817370Y-48802630D01*
X119904845Y-48909219D01*
X119969845Y-49030825D01*
X120009872Y-49162776D01*
X120020000Y-49265610D01*
X120020000Y-49934390D01*
X120009872Y-50037224D01*
X119969845Y-50169175D01*
X119904845Y-50290781D01*
X119817369Y-50397370D01*
X119710780Y-50484845D01*
X119589174Y-50549845D01*
X119457223Y-50589872D01*
X119320000Y-50603387D01*
X119182776Y-50589872D01*
X119050825Y-50549845D01*
X118929219Y-50484845D01*
X118822630Y-50397369D01*
X118735155Y-50290780D01*
X118670155Y-50169174D01*
X118630128Y-50037223D01*
X118620000Y-49934389D01*
X118620000Y-49265610D01*
X118630128Y-49162776D01*
X118670155Y-49030825D01*
X118735156Y-48909219D01*
X118822631Y-48802630D01*
X118929220Y-48715155D01*
X119050826Y-48650155D01*
X119182777Y-48610128D01*
X119320000Y-48596613D01*
X119457224Y-48610128D01*
X119457224Y-48610128D01*
G37*
G36*
X110817224Y-48610128D02*
X110949175Y-48650155D01*
X111070781Y-48715155D01*
X111177370Y-48802630D01*
X111264845Y-48909219D01*
X111329845Y-49030825D01*
X111369872Y-49162776D01*
X111380000Y-49265610D01*
X111380000Y-49934390D01*
X111369872Y-50037224D01*
X111329845Y-50169175D01*
X111264845Y-50290781D01*
X111177369Y-50397370D01*
X111070780Y-50484845D01*
X110949174Y-50549845D01*
X110817223Y-50589872D01*
X110680000Y-50603387D01*
X110542776Y-50589872D01*
X110410825Y-50549845D01*
X110289219Y-50484845D01*
X110182630Y-50397369D01*
X110095155Y-50290780D01*
X110030155Y-50169174D01*
X109990128Y-50037223D01*
X109980000Y-49934389D01*
X109980000Y-49265610D01*
X109990128Y-49162776D01*
X110030155Y-49030825D01*
X110095156Y-48909219D01*
X110182631Y-48802630D01*
X110289220Y-48715155D01*
X110410826Y-48650155D01*
X110542777Y-48610128D01*
X110680000Y-48596613D01*
X110817224Y-48610128D01*
X110817224Y-48610128D01*
G37*
M02*
