G04 #@! TF.GenerationSoftware,KiCad,Pcbnew,(5.0.2)-1*
G04 #@! TF.CreationDate,2019-03-13T03:57:08-07:00*
G04 #@! TF.ProjectId,ssk-controller,73736b2d-636f-46e7-9472-6f6c6c65722e,rev?*
G04 #@! TF.SameCoordinates,Original*
G04 #@! TF.FileFunction,Copper,L2,Bot*
G04 #@! TF.FilePolarity,Positive*
%FSLAX46Y46*%
G04 Gerber Fmt 4.6, Leading zero omitted, Abs format (unit mm)*
G04 Created by KiCad (PCBNEW (5.0.2)-1) date 3/13/2019 3:57:08 AM*
%MOMM*%
%LPD*%
G01*
G04 APERTURE LIST*
G04 #@! TA.AperFunction,EtchedComponent*
%ADD10C,0.010000*%
G04 #@! TD*
G04 #@! TA.AperFunction,ComponentPad*
%ADD11O,1.700000X1.700000*%
G04 #@! TD*
G04 #@! TA.AperFunction,ComponentPad*
%ADD12R,1.700000X1.700000*%
G04 #@! TD*
G04 #@! TA.AperFunction,ComponentPad*
%ADD13O,1.000000X1.600000*%
G04 #@! TD*
G04 #@! TA.AperFunction,ComponentPad*
%ADD14O,1.000000X2.100000*%
G04 #@! TD*
G04 #@! TA.AperFunction,ViaPad*
%ADD15C,0.600000*%
G04 #@! TD*
G04 #@! TA.AperFunction,Conductor*
%ADD16C,0.254000*%
G04 #@! TD*
G04 #@! TA.AperFunction,Conductor*
%ADD17C,0.381000*%
G04 #@! TD*
G04 #@! TA.AperFunction,Conductor*
%ADD18C,0.635000*%
G04 #@! TD*
G04 APERTURE END LIST*
D10*
G04 #@! TO.C,G\002A\002A\002A*
G36*
X233809500Y-93420500D02*
X234214312Y-93420500D01*
X234214312Y-93015688D01*
X233809500Y-93015688D01*
X233809500Y-93420500D01*
X233809500Y-93420500D01*
G37*
X233809500Y-93420500D02*
X234214312Y-93420500D01*
X234214312Y-93015688D01*
X233809500Y-93015688D01*
X233809500Y-93420500D01*
G36*
X233404687Y-94206313D02*
X233809500Y-94206313D01*
X233809500Y-93825313D01*
X233404687Y-93825313D01*
X233404687Y-94206313D01*
X233404687Y-94206313D01*
G37*
X233404687Y-94206313D02*
X233809500Y-94206313D01*
X233809500Y-93825313D01*
X233404687Y-93825313D01*
X233404687Y-94206313D01*
G36*
X234214312Y-94206313D02*
X234595312Y-94206313D01*
X234595312Y-93825313D01*
X234214312Y-93825313D01*
X234214312Y-94206313D01*
X234214312Y-94206313D01*
G37*
X234214312Y-94206313D02*
X234595312Y-94206313D01*
X234595312Y-93825313D01*
X234214312Y-93825313D01*
X234214312Y-94206313D01*
G36*
X233023687Y-95015938D02*
X233404687Y-95015938D01*
X233404687Y-94611125D01*
X233023687Y-94611125D01*
X233023687Y-95015938D01*
X233023687Y-95015938D01*
G37*
X233023687Y-95015938D02*
X233404687Y-95015938D01*
X233404687Y-94611125D01*
X233023687Y-94611125D01*
X233023687Y-95015938D01*
G36*
X233809500Y-95015938D02*
X234214312Y-95015938D01*
X234214312Y-94611125D01*
X233809500Y-94611125D01*
X233809500Y-95015938D01*
X233809500Y-95015938D01*
G37*
X233809500Y-95015938D02*
X234214312Y-95015938D01*
X234214312Y-94611125D01*
X233809500Y-94611125D01*
X233809500Y-95015938D01*
G36*
X234595312Y-95015938D02*
X235000125Y-95015938D01*
X235000125Y-94611125D01*
X234595312Y-94611125D01*
X234595312Y-95015938D01*
X234595312Y-95015938D01*
G37*
X234595312Y-95015938D02*
X235000125Y-95015938D01*
X235000125Y-94611125D01*
X234595312Y-94611125D01*
X234595312Y-95015938D01*
G36*
X232618875Y-95801750D02*
X233023687Y-95801750D01*
X233023687Y-95396938D01*
X232618875Y-95396938D01*
X232618875Y-95801750D01*
X232618875Y-95801750D01*
G37*
X232618875Y-95801750D02*
X233023687Y-95801750D01*
X233023687Y-95396938D01*
X232618875Y-95396938D01*
X232618875Y-95801750D01*
G36*
X235000125Y-95801750D02*
X235404937Y-95801750D01*
X235404937Y-95396938D01*
X235000125Y-95396938D01*
X235000125Y-95801750D01*
X235000125Y-95801750D01*
G37*
X235000125Y-95801750D02*
X235404937Y-95801750D01*
X235404937Y-95396938D01*
X235000125Y-95396938D01*
X235000125Y-95801750D01*
G36*
X233996031Y-91528045D02*
X233871913Y-91529415D01*
X233760201Y-91533572D01*
X233657608Y-91540919D01*
X233560844Y-91551860D01*
X233466622Y-91566798D01*
X233371653Y-91586137D01*
X233272649Y-91610281D01*
X233227370Y-91622418D01*
X233018823Y-91687656D01*
X232816735Y-91766992D01*
X232621872Y-91860028D01*
X232435001Y-91966368D01*
X232256886Y-92085616D01*
X232104740Y-92203617D01*
X231947072Y-92344342D01*
X231799735Y-92495787D01*
X231663414Y-92656885D01*
X231538792Y-92826567D01*
X231426553Y-93003766D01*
X231327380Y-93187416D01*
X231241958Y-93376447D01*
X231170970Y-93569793D01*
X231122216Y-93737803D01*
X231089145Y-93877789D01*
X231063785Y-94009725D01*
X231045393Y-94138997D01*
X231033225Y-94270993D01*
X231026539Y-94411100D01*
X231025886Y-94436500D01*
X231028605Y-94654797D01*
X231046800Y-94869580D01*
X231080465Y-95080821D01*
X231129594Y-95288489D01*
X231194181Y-95492555D01*
X231258378Y-95656487D01*
X231286461Y-95721752D01*
X231310523Y-95775910D01*
X231332392Y-95822613D01*
X231353893Y-95865513D01*
X231376854Y-95908263D01*
X231403100Y-95954515D01*
X231432225Y-96004156D01*
X231551444Y-96190427D01*
X231681548Y-96365153D01*
X231822671Y-96528465D01*
X231974945Y-96680496D01*
X232138503Y-96821380D01*
X232313476Y-96951248D01*
X232495844Y-97067775D01*
X232548673Y-97098744D01*
X232594586Y-97124721D01*
X232637235Y-97147531D01*
X232680272Y-97169001D01*
X232727349Y-97190957D01*
X232782119Y-97215225D01*
X232843513Y-97241622D01*
X232939746Y-97281169D01*
X233028464Y-97314208D01*
X233115578Y-97342695D01*
X233207002Y-97368589D01*
X233289594Y-97389322D01*
X233454110Y-97424876D01*
X233611205Y-97450553D01*
X233765433Y-97466893D01*
X233921351Y-97474436D01*
X234011906Y-97475013D01*
X234063125Y-97474498D01*
X234111246Y-97473793D01*
X234153126Y-97472960D01*
X234185622Y-97472063D01*
X234205590Y-97471165D01*
X234206375Y-97471109D01*
X234422549Y-97447157D01*
X234635306Y-97408170D01*
X234843787Y-97354467D01*
X235047132Y-97286363D01*
X235244484Y-97204176D01*
X235434982Y-97108225D01*
X235617768Y-96998826D01*
X235768724Y-96893796D01*
X235941651Y-96755449D01*
X236102335Y-96607088D01*
X236250549Y-96449039D01*
X236386071Y-96281632D01*
X236508676Y-96105194D01*
X236618139Y-95920052D01*
X236714237Y-95726535D01*
X236796744Y-95524971D01*
X236865437Y-95315688D01*
X236877582Y-95272630D01*
X236903948Y-95170835D01*
X236925333Y-95074511D01*
X236942141Y-94980367D01*
X236954775Y-94885117D01*
X236963640Y-94785470D01*
X236969138Y-94678140D01*
X236971674Y-94559836D01*
X236971955Y-94503969D01*
X236971280Y-94448608D01*
X236439206Y-94448608D01*
X236439103Y-94528746D01*
X236437437Y-94608410D01*
X236434241Y-94683537D01*
X236429544Y-94750060D01*
X236425824Y-94785750D01*
X236393950Y-94983048D01*
X236347299Y-95174663D01*
X236286049Y-95360222D01*
X236210381Y-95539349D01*
X236120473Y-95711669D01*
X236016506Y-95876809D01*
X235898659Y-96034393D01*
X235767112Y-96184047D01*
X235744776Y-96207260D01*
X235610542Y-96334334D01*
X235464840Y-96452270D01*
X235310369Y-96559090D01*
X235149831Y-96652816D01*
X235104042Y-96676504D01*
X235029634Y-96713153D01*
X234964393Y-96743372D01*
X234903896Y-96768940D01*
X234843722Y-96791634D01*
X234779449Y-96813233D01*
X234714375Y-96833227D01*
X234525162Y-96882640D01*
X234339411Y-96917091D01*
X234155673Y-96936714D01*
X233972497Y-96941642D01*
X233788436Y-96932011D01*
X233721894Y-96925031D01*
X233534562Y-96896087D01*
X233354981Y-96854278D01*
X233180643Y-96798854D01*
X233009041Y-96729064D01*
X232912084Y-96682866D01*
X232741452Y-96589447D01*
X232582036Y-96485712D01*
X232433078Y-96370974D01*
X232293821Y-96244550D01*
X232163506Y-96105754D01*
X232041376Y-95953903D01*
X231933108Y-95798259D01*
X231907982Y-95757068D01*
X231878659Y-95704940D01*
X231846959Y-95645496D01*
X231814701Y-95582356D01*
X231783707Y-95519140D01*
X231755794Y-95459467D01*
X231732785Y-95406957D01*
X231719347Y-95373125D01*
X231656480Y-95181584D01*
X231609084Y-94988845D01*
X231577200Y-94795450D01*
X231560870Y-94601940D01*
X231560132Y-94408857D01*
X231575028Y-94216742D01*
X231605598Y-94026136D01*
X231615401Y-93980094D01*
X231649050Y-93843801D01*
X231687358Y-93717618D01*
X231732296Y-93596007D01*
X231785837Y-93473432D01*
X231823496Y-93395958D01*
X231917201Y-93227110D01*
X232024026Y-93066673D01*
X232143202Y-92915368D01*
X232273963Y-92773914D01*
X232415540Y-92643031D01*
X232567166Y-92523440D01*
X232728073Y-92415860D01*
X232897493Y-92321011D01*
X233041675Y-92253480D01*
X233213303Y-92187085D01*
X233385857Y-92135087D01*
X233561344Y-92097078D01*
X233741774Y-92072651D01*
X233929155Y-92061397D01*
X233992062Y-92060507D01*
X234190157Y-92066877D01*
X234381785Y-92087522D01*
X234567719Y-92122673D01*
X234748735Y-92172567D01*
X234925606Y-92237435D01*
X235099106Y-92317513D01*
X235270009Y-92413035D01*
X235370706Y-92477244D01*
X235510139Y-92578772D01*
X235644337Y-92693278D01*
X235771659Y-92818839D01*
X235890465Y-92953531D01*
X235999114Y-93095431D01*
X236095965Y-93242615D01*
X236179378Y-93393161D01*
X236214174Y-93466080D01*
X236275577Y-93610939D01*
X236325808Y-93750178D01*
X236366065Y-93888126D01*
X236397544Y-94029114D01*
X236421444Y-94177471D01*
X236429845Y-94246000D01*
X236434608Y-94303170D01*
X236437718Y-94372061D01*
X236439206Y-94448608D01*
X236971280Y-94448608D01*
X236970210Y-94360973D01*
X236964336Y-94230106D01*
X236953762Y-94108025D01*
X236937915Y-93991385D01*
X236916223Y-93876844D01*
X236888113Y-93761059D01*
X236853014Y-93640687D01*
X236810353Y-93512384D01*
X236794659Y-93468125D01*
X236716274Y-93273406D01*
X236623434Y-93085072D01*
X236516328Y-92903385D01*
X236395148Y-92728608D01*
X236260083Y-92561003D01*
X236111326Y-92400833D01*
X235949067Y-92248360D01*
X235842229Y-92158179D01*
X235756400Y-92092686D01*
X235658861Y-92025360D01*
X235553252Y-91958412D01*
X235443214Y-91894055D01*
X235332387Y-91834500D01*
X235224411Y-91781958D01*
X235218406Y-91779215D01*
X235148446Y-91749342D01*
X235067265Y-91717956D01*
X234979233Y-91686536D01*
X234888721Y-91656562D01*
X234800099Y-91629511D01*
X234717736Y-91606864D01*
X234685850Y-91598971D01*
X234592625Y-91578203D01*
X234503651Y-91561543D01*
X234415647Y-91548652D01*
X234325331Y-91539195D01*
X234229422Y-91532832D01*
X234124640Y-91529228D01*
X234007705Y-91528044D01*
X233996031Y-91528045D01*
X233996031Y-91528045D01*
G37*
X233996031Y-91528045D02*
X233871913Y-91529415D01*
X233760201Y-91533572D01*
X233657608Y-91540919D01*
X233560844Y-91551860D01*
X233466622Y-91566798D01*
X233371653Y-91586137D01*
X233272649Y-91610281D01*
X233227370Y-91622418D01*
X233018823Y-91687656D01*
X232816735Y-91766992D01*
X232621872Y-91860028D01*
X232435001Y-91966368D01*
X232256886Y-92085616D01*
X232104740Y-92203617D01*
X231947072Y-92344342D01*
X231799735Y-92495787D01*
X231663414Y-92656885D01*
X231538792Y-92826567D01*
X231426553Y-93003766D01*
X231327380Y-93187416D01*
X231241958Y-93376447D01*
X231170970Y-93569793D01*
X231122216Y-93737803D01*
X231089145Y-93877789D01*
X231063785Y-94009725D01*
X231045393Y-94138997D01*
X231033225Y-94270993D01*
X231026539Y-94411100D01*
X231025886Y-94436500D01*
X231028605Y-94654797D01*
X231046800Y-94869580D01*
X231080465Y-95080821D01*
X231129594Y-95288489D01*
X231194181Y-95492555D01*
X231258378Y-95656487D01*
X231286461Y-95721752D01*
X231310523Y-95775910D01*
X231332392Y-95822613D01*
X231353893Y-95865513D01*
X231376854Y-95908263D01*
X231403100Y-95954515D01*
X231432225Y-96004156D01*
X231551444Y-96190427D01*
X231681548Y-96365153D01*
X231822671Y-96528465D01*
X231974945Y-96680496D01*
X232138503Y-96821380D01*
X232313476Y-96951248D01*
X232495844Y-97067775D01*
X232548673Y-97098744D01*
X232594586Y-97124721D01*
X232637235Y-97147531D01*
X232680272Y-97169001D01*
X232727349Y-97190957D01*
X232782119Y-97215225D01*
X232843513Y-97241622D01*
X232939746Y-97281169D01*
X233028464Y-97314208D01*
X233115578Y-97342695D01*
X233207002Y-97368589D01*
X233289594Y-97389322D01*
X233454110Y-97424876D01*
X233611205Y-97450553D01*
X233765433Y-97466893D01*
X233921351Y-97474436D01*
X234011906Y-97475013D01*
X234063125Y-97474498D01*
X234111246Y-97473793D01*
X234153126Y-97472960D01*
X234185622Y-97472063D01*
X234205590Y-97471165D01*
X234206375Y-97471109D01*
X234422549Y-97447157D01*
X234635306Y-97408170D01*
X234843787Y-97354467D01*
X235047132Y-97286363D01*
X235244484Y-97204176D01*
X235434982Y-97108225D01*
X235617768Y-96998826D01*
X235768724Y-96893796D01*
X235941651Y-96755449D01*
X236102335Y-96607088D01*
X236250549Y-96449039D01*
X236386071Y-96281632D01*
X236508676Y-96105194D01*
X236618139Y-95920052D01*
X236714237Y-95726535D01*
X236796744Y-95524971D01*
X236865437Y-95315688D01*
X236877582Y-95272630D01*
X236903948Y-95170835D01*
X236925333Y-95074511D01*
X236942141Y-94980367D01*
X236954775Y-94885117D01*
X236963640Y-94785470D01*
X236969138Y-94678140D01*
X236971674Y-94559836D01*
X236971955Y-94503969D01*
X236971280Y-94448608D01*
X236439206Y-94448608D01*
X236439103Y-94528746D01*
X236437437Y-94608410D01*
X236434241Y-94683537D01*
X236429544Y-94750060D01*
X236425824Y-94785750D01*
X236393950Y-94983048D01*
X236347299Y-95174663D01*
X236286049Y-95360222D01*
X236210381Y-95539349D01*
X236120473Y-95711669D01*
X236016506Y-95876809D01*
X235898659Y-96034393D01*
X235767112Y-96184047D01*
X235744776Y-96207260D01*
X235610542Y-96334334D01*
X235464840Y-96452270D01*
X235310369Y-96559090D01*
X235149831Y-96652816D01*
X235104042Y-96676504D01*
X235029634Y-96713153D01*
X234964393Y-96743372D01*
X234903896Y-96768940D01*
X234843722Y-96791634D01*
X234779449Y-96813233D01*
X234714375Y-96833227D01*
X234525162Y-96882640D01*
X234339411Y-96917091D01*
X234155673Y-96936714D01*
X233972497Y-96941642D01*
X233788436Y-96932011D01*
X233721894Y-96925031D01*
X233534562Y-96896087D01*
X233354981Y-96854278D01*
X233180643Y-96798854D01*
X233009041Y-96729064D01*
X232912084Y-96682866D01*
X232741452Y-96589447D01*
X232582036Y-96485712D01*
X232433078Y-96370974D01*
X232293821Y-96244550D01*
X232163506Y-96105754D01*
X232041376Y-95953903D01*
X231933108Y-95798259D01*
X231907982Y-95757068D01*
X231878659Y-95704940D01*
X231846959Y-95645496D01*
X231814701Y-95582356D01*
X231783707Y-95519140D01*
X231755794Y-95459467D01*
X231732785Y-95406957D01*
X231719347Y-95373125D01*
X231656480Y-95181584D01*
X231609084Y-94988845D01*
X231577200Y-94795450D01*
X231560870Y-94601940D01*
X231560132Y-94408857D01*
X231575028Y-94216742D01*
X231605598Y-94026136D01*
X231615401Y-93980094D01*
X231649050Y-93843801D01*
X231687358Y-93717618D01*
X231732296Y-93596007D01*
X231785837Y-93473432D01*
X231823496Y-93395958D01*
X231917201Y-93227110D01*
X232024026Y-93066673D01*
X232143202Y-92915368D01*
X232273963Y-92773914D01*
X232415540Y-92643031D01*
X232567166Y-92523440D01*
X232728073Y-92415860D01*
X232897493Y-92321011D01*
X233041675Y-92253480D01*
X233213303Y-92187085D01*
X233385857Y-92135087D01*
X233561344Y-92097078D01*
X233741774Y-92072651D01*
X233929155Y-92061397D01*
X233992062Y-92060507D01*
X234190157Y-92066877D01*
X234381785Y-92087522D01*
X234567719Y-92122673D01*
X234748735Y-92172567D01*
X234925606Y-92237435D01*
X235099106Y-92317513D01*
X235270009Y-92413035D01*
X235370706Y-92477244D01*
X235510139Y-92578772D01*
X235644337Y-92693278D01*
X235771659Y-92818839D01*
X235890465Y-92953531D01*
X235999114Y-93095431D01*
X236095965Y-93242615D01*
X236179378Y-93393161D01*
X236214174Y-93466080D01*
X236275577Y-93610939D01*
X236325808Y-93750178D01*
X236366065Y-93888126D01*
X236397544Y-94029114D01*
X236421444Y-94177471D01*
X236429845Y-94246000D01*
X236434608Y-94303170D01*
X236437718Y-94372061D01*
X236439206Y-94448608D01*
X236971280Y-94448608D01*
X236970210Y-94360973D01*
X236964336Y-94230106D01*
X236953762Y-94108025D01*
X236937915Y-93991385D01*
X236916223Y-93876844D01*
X236888113Y-93761059D01*
X236853014Y-93640687D01*
X236810353Y-93512384D01*
X236794659Y-93468125D01*
X236716274Y-93273406D01*
X236623434Y-93085072D01*
X236516328Y-92903385D01*
X236395148Y-92728608D01*
X236260083Y-92561003D01*
X236111326Y-92400833D01*
X235949067Y-92248360D01*
X235842229Y-92158179D01*
X235756400Y-92092686D01*
X235658861Y-92025360D01*
X235553252Y-91958412D01*
X235443214Y-91894055D01*
X235332387Y-91834500D01*
X235224411Y-91781958D01*
X235218406Y-91779215D01*
X235148446Y-91749342D01*
X235067265Y-91717956D01*
X234979233Y-91686536D01*
X234888721Y-91656562D01*
X234800099Y-91629511D01*
X234717736Y-91606864D01*
X234685850Y-91598971D01*
X234592625Y-91578203D01*
X234503651Y-91561543D01*
X234415647Y-91548652D01*
X234325331Y-91539195D01*
X234229422Y-91532832D01*
X234124640Y-91529228D01*
X234007705Y-91528044D01*
X233996031Y-91528045D01*
G04 #@! TD*
D11*
G04 #@! TO.P,J1,16*
G04 #@! TO.N,COL15*
X182100000Y-54000000D03*
G04 #@! TO.P,J1,15*
G04 #@! TO.N,COL14*
X179560000Y-54000000D03*
G04 #@! TO.P,J1,14*
G04 #@! TO.N,COL13*
X177020000Y-54000000D03*
G04 #@! TO.P,J1,13*
G04 #@! TO.N,COL12*
X174480000Y-54000000D03*
G04 #@! TO.P,J1,12*
G04 #@! TO.N,COL11*
X171940000Y-54000000D03*
G04 #@! TO.P,J1,11*
G04 #@! TO.N,COL10*
X169400000Y-54000000D03*
G04 #@! TO.P,J1,10*
G04 #@! TO.N,COL9*
X166860000Y-54000000D03*
G04 #@! TO.P,J1,9*
G04 #@! TO.N,COL8*
X164320000Y-54000000D03*
G04 #@! TO.P,J1,8*
G04 #@! TO.N,COL7*
X161780000Y-54000000D03*
G04 #@! TO.P,J1,7*
G04 #@! TO.N,COL6*
X159240000Y-54000000D03*
G04 #@! TO.P,J1,6*
G04 #@! TO.N,COL5*
X156700000Y-54000000D03*
G04 #@! TO.P,J1,5*
G04 #@! TO.N,COL4*
X154160000Y-54000000D03*
G04 #@! TO.P,J1,4*
G04 #@! TO.N,COL3*
X151620000Y-54000000D03*
G04 #@! TO.P,J1,3*
G04 #@! TO.N,COL2*
X149080000Y-54000000D03*
G04 #@! TO.P,J1,2*
G04 #@! TO.N,COL1*
X146540000Y-54000000D03*
D12*
G04 #@! TO.P,J1,1*
G04 #@! TO.N,COL0*
X144000000Y-54000000D03*
G04 #@! TD*
D11*
G04 #@! TO.P,J2,8*
G04 #@! TO.N,ROW7*
X199220000Y-57000000D03*
G04 #@! TO.P,J2,7*
G04 #@! TO.N,ROW6*
X201760000Y-57000000D03*
G04 #@! TO.P,J2,6*
G04 #@! TO.N,ROW5*
X204300000Y-57000000D03*
G04 #@! TO.P,J2,5*
G04 #@! TO.N,ROW4*
X206840000Y-57000000D03*
G04 #@! TO.P,J2,4*
G04 #@! TO.N,ROW3*
X209380000Y-57000000D03*
G04 #@! TO.P,J2,3*
G04 #@! TO.N,ROW2*
X211920000Y-57000000D03*
G04 #@! TO.P,J2,2*
G04 #@! TO.N,ROW1*
X214460000Y-57000000D03*
D12*
G04 #@! TO.P,J2,1*
G04 #@! TO.N,ROW0*
X217000000Y-57000000D03*
G04 #@! TD*
D13*
G04 #@! TO.P,USB1,13*
G04 #@! TO.N,GND*
X110680000Y-49600000D03*
X119320000Y-49600000D03*
D14*
X110680000Y-53780000D03*
X119320000Y-53780000D03*
G04 #@! TD*
D12*
G04 #@! TO.P,J3,1*
G04 #@! TO.N,GND*
X95000000Y-75000000D03*
G04 #@! TD*
D15*
G04 #@! TO.N,COL1*
X130175000Y-75438000D03*
G04 #@! TO.N,+5V*
X134620000Y-73279000D03*
X134493000Y-67945000D03*
X149352000Y-63754000D03*
X152527000Y-76454000D03*
X134493000Y-82423000D03*
G04 #@! TO.N,COL2*
X130175000Y-76327000D03*
G04 #@! TO.N,COL3*
X130175000Y-77216000D03*
G04 #@! TO.N,COL4*
X130175000Y-78105000D03*
G04 #@! TO.N,COL0*
X130175000Y-74549000D03*
G04 #@! TO.N,VCC*
X113411000Y-57277000D03*
X116205000Y-57277000D03*
G04 #@! TO.N,Net-(R73-Pad2)*
X116459000Y-56388000D03*
X118999000Y-57277000D03*
G04 #@! TO.N,Net-(R74-Pad2)*
X113411000Y-56388000D03*
X110998000Y-57277000D03*
G04 #@! TD*
D16*
G04 #@! TO.N,COL1*
X130302000Y-75438000D02*
X130175000Y-75438000D01*
X130937000Y-74803000D02*
X130302000Y-75438000D01*
X130937000Y-61722000D02*
X130937000Y-74803000D01*
X137287000Y-55372000D02*
X130937000Y-61722000D01*
X146540000Y-54000000D02*
X145168000Y-55372000D01*
X145168000Y-55372000D02*
X137287000Y-55372000D01*
D17*
G04 #@! TO.N,+5V*
X134620000Y-73279000D02*
X134493000Y-73152000D01*
X134493000Y-73152000D02*
X134493000Y-67945000D01*
X138684000Y-63754000D02*
X134493000Y-67945000D01*
X149352000Y-63754000D02*
X138684000Y-63754000D01*
X152527000Y-66929000D02*
X149352000Y-63754000D01*
X152527000Y-76454000D02*
X152527000Y-66929000D01*
X134493000Y-73406000D02*
X134620000Y-73279000D01*
X134493000Y-82423000D02*
X134493000Y-73406000D01*
D16*
G04 #@! TO.N,COL2*
X147200000Y-55880000D02*
X149080000Y-54000000D01*
X137541000Y-55880000D02*
X147200000Y-55880000D01*
X131445000Y-61976000D02*
X137541000Y-55880000D01*
X131445000Y-75184000D02*
X131445000Y-61976000D01*
X130175000Y-76327000D02*
X130302000Y-76327000D01*
X130302000Y-76327000D02*
X131445000Y-75184000D01*
G04 #@! TO.N,COL3*
X149232000Y-56388000D02*
X151620000Y-54000000D01*
X137795000Y-56388000D02*
X149232000Y-56388000D01*
X131953000Y-62230000D02*
X137795000Y-56388000D01*
X131953000Y-75565000D02*
X131953000Y-62230000D01*
X130302000Y-77216000D02*
X131953000Y-75565000D01*
X130175000Y-77216000D02*
X130302000Y-77216000D01*
G04 #@! TO.N,COL4*
X138049000Y-56896000D02*
X151264000Y-56896000D01*
X151264000Y-56896000D02*
X154160000Y-54000000D01*
X132461000Y-62484000D02*
X138049000Y-56896000D01*
X132461000Y-75946000D02*
X132461000Y-62484000D01*
X130175000Y-78105000D02*
X130302000Y-78105000D01*
X130302000Y-78105000D02*
X132461000Y-75946000D01*
G04 #@! TO.N,COL0*
X143136000Y-54864000D02*
X144000000Y-54000000D01*
X137033000Y-54864000D02*
X143136000Y-54864000D01*
X130429000Y-61468000D02*
X137033000Y-54864000D01*
X130175000Y-74549000D02*
X130429000Y-74295000D01*
X130429000Y-74295000D02*
X130429000Y-61468000D01*
D18*
G04 #@! TO.N,GND*
X95000000Y-75000000D02*
X95000000Y-64893000D01*
D17*
X110680000Y-53780000D02*
X110680000Y-54293000D01*
D18*
X105156000Y-59817000D02*
X102870000Y-59817000D01*
X110680000Y-54293000D02*
X105156000Y-59817000D01*
X100076000Y-59817000D02*
X102870000Y-59817000D01*
X95000000Y-64893000D02*
X95000000Y-64385000D01*
X99568000Y-59817000D02*
X100076000Y-59817000D01*
X95000000Y-64385000D02*
X99568000Y-59817000D01*
D17*
G04 #@! TO.N,VCC*
X113411000Y-57277000D02*
X116205000Y-57277000D01*
D16*
G04 #@! TO.N,Net-(R73-Pad2)*
X116459000Y-56388000D02*
X118110000Y-56388000D01*
X118110000Y-56388000D02*
X118999000Y-57277000D01*
G04 #@! TO.N,Net-(R74-Pad2)*
X113411000Y-56388000D02*
X111887000Y-56388000D01*
X111887000Y-56388000D02*
X110998000Y-57277000D01*
G04 #@! TD*
M02*
