G04 #@! TF.GenerationSoftware,KiCad,Pcbnew,(5.0.2)-1*
G04 #@! TF.CreationDate,2019-03-13T04:20:17-07:00*
G04 #@! TF.ProjectId,ssk-controller,73736b2d-636f-46e7-9472-6f6c6c65722e,rev?*
G04 #@! TF.SameCoordinates,Original*
G04 #@! TF.FileFunction,Paste,Top*
G04 #@! TF.FilePolarity,Positive*
%FSLAX46Y46*%
G04 Gerber Fmt 4.6, Leading zero omitted, Abs format (unit mm)*
G04 Created by KiCad (PCBNEW (5.0.2)-1) date 3/13/2019 4:20:17 AM*
%MOMM*%
%LPD*%
G01*
G04 APERTURE LIST*
%ADD10R,2.030000X1.140000*%
%ADD11R,1.300000X0.700000*%
%ADD12R,0.700000X1.300000*%
%ADD13R,1.800000X1.100000*%
%ADD14R,0.700000X0.600000*%
%ADD15R,0.700000X1.000000*%
%ADD16R,0.300000X1.450000*%
%ADD17R,0.600000X1.450000*%
%ADD18R,1.400000X1.200000*%
%ADD19R,0.550000X1.500000*%
%ADD20R,1.500000X0.550000*%
%ADD21R,1.250000X1.000000*%
%ADD22R,1.000000X1.250000*%
G04 APERTURE END LIST*
D10*
G04 #@! TO.C,F1*
X120000000Y-63300000D03*
X120000000Y-65700000D03*
G04 #@! TD*
D11*
G04 #@! TO.C,R67*
X116500000Y-64950000D03*
X116500000Y-63050000D03*
G04 #@! TD*
G04 #@! TO.C,R68*
X113500000Y-63050000D03*
X113500000Y-64950000D03*
G04 #@! TD*
D12*
G04 #@! TO.C,R70*
X115950000Y-80000000D03*
X114050000Y-80000000D03*
G04 #@! TD*
D11*
G04 #@! TO.C,R71*
X151000000Y-66050000D03*
X151000000Y-67950000D03*
G04 #@! TD*
G04 #@! TO.C,R73*
X119000000Y-60450000D03*
X119000000Y-58550000D03*
G04 #@! TD*
G04 #@! TO.C,R74*
X111000000Y-58550000D03*
X111000000Y-60450000D03*
G04 #@! TD*
D13*
G04 #@! TO.C,SW1*
X111900000Y-73150000D03*
X118100000Y-76850000D03*
X111900000Y-76850000D03*
X118100000Y-73150000D03*
G04 #@! TD*
D14*
G04 #@! TO.C,U2*
X116000000Y-60450000D03*
X114000000Y-60450000D03*
X116000000Y-58550000D03*
D15*
X114000000Y-58750000D03*
G04 #@! TD*
D16*
G04 #@! TO.C,USB1*
X115250000Y-54695000D03*
X114750000Y-54695000D03*
X114250000Y-54695000D03*
X115750000Y-54695000D03*
X113750000Y-54695000D03*
X116250000Y-54695000D03*
X113250000Y-54695000D03*
X116750000Y-54695000D03*
D17*
X117450000Y-54695000D03*
X112550000Y-54695000D03*
X118225000Y-54695000D03*
X111775000Y-54695000D03*
G04 #@! TD*
D18*
G04 #@! TO.C,Y1*
X143100000Y-86350000D03*
X140900000Y-86350000D03*
X140900000Y-84650000D03*
X143100000Y-84650000D03*
G04 #@! TD*
D19*
G04 #@! TO.C,U1*
X138000000Y-66800000D03*
X138800000Y-66800000D03*
X139600000Y-66800000D03*
X140400000Y-66800000D03*
X141200000Y-66800000D03*
X142000000Y-66800000D03*
X142800000Y-66800000D03*
X143600000Y-66800000D03*
X144400000Y-66800000D03*
X145200000Y-66800000D03*
X146000000Y-66800000D03*
D20*
X147700000Y-68500000D03*
X147700000Y-69300000D03*
X147700000Y-70100000D03*
X147700000Y-70900000D03*
X147700000Y-71700000D03*
X147700000Y-72500000D03*
X147700000Y-73300000D03*
X147700000Y-74100000D03*
X147700000Y-74900000D03*
X147700000Y-75700000D03*
X147700000Y-76500000D03*
D19*
X146000000Y-78200000D03*
X145200000Y-78200000D03*
X144400000Y-78200000D03*
X143600000Y-78200000D03*
X142800000Y-78200000D03*
X142000000Y-78200000D03*
X141200000Y-78200000D03*
X140400000Y-78200000D03*
X139600000Y-78200000D03*
X138800000Y-78200000D03*
X138000000Y-78200000D03*
D20*
X136300000Y-76500000D03*
X136300000Y-75700000D03*
X136300000Y-74900000D03*
X136300000Y-74100000D03*
X136300000Y-73300000D03*
X136300000Y-72500000D03*
X136300000Y-71700000D03*
X136300000Y-70900000D03*
X136300000Y-70100000D03*
X136300000Y-69300000D03*
X136300000Y-68500000D03*
G04 #@! TD*
D21*
G04 #@! TO.C,C2*
X133000000Y-68000000D03*
X133000000Y-66000000D03*
G04 #@! TD*
D22*
G04 #@! TO.C,C3*
X146000000Y-63500000D03*
X148000000Y-63500000D03*
G04 #@! TD*
D21*
G04 #@! TO.C,C4*
X136000000Y-82500000D03*
X136000000Y-84500000D03*
G04 #@! TD*
G04 #@! TO.C,C5*
X151000000Y-78500000D03*
X151000000Y-76500000D03*
G04 #@! TD*
D22*
G04 #@! TO.C,C6*
X131000000Y-72500000D03*
X133000000Y-72500000D03*
G04 #@! TD*
D21*
G04 #@! TO.C,C7*
X146500000Y-84500000D03*
X146500000Y-86500000D03*
G04 #@! TD*
D22*
G04 #@! TO.C,C8*
X143000000Y-89500000D03*
X141000000Y-89500000D03*
G04 #@! TD*
M02*
