G04 #@! TF.GenerationSoftware,KiCad,Pcbnew,(5.0.2)-1*
G04 #@! TF.CreationDate,2019-03-13T03:57:08-07:00*
G04 #@! TF.ProjectId,ssk-controller,73736b2d-636f-46e7-9472-6f6c6c65722e,rev?*
G04 #@! TF.SameCoordinates,Original*
G04 #@! TF.FileFunction,Soldermask,Top*
G04 #@! TF.FilePolarity,Negative*
%FSLAX46Y46*%
G04 Gerber Fmt 4.6, Leading zero omitted, Abs format (unit mm)*
G04 Created by KiCad (PCBNEW (5.0.2)-1) date 3/13/2019 3:57:08 AM*
%MOMM*%
%LPD*%
G01*
G04 APERTURE LIST*
%ADD10C,0.010000*%
%ADD11C,0.100000*%
G04 APERTURE END LIST*
D10*
G04 #@! TO.C,G\002A\002A\002A*
G36*
X114825576Y-92124450D02*
X115280219Y-92194973D01*
X115651774Y-92323875D01*
X115940418Y-92511314D01*
X116146324Y-92757445D01*
X116269669Y-93062425D01*
X116310626Y-93426410D01*
X116310462Y-93450600D01*
X116259690Y-93790793D01*
X116122813Y-94087763D01*
X115908919Y-94329051D01*
X115627094Y-94502200D01*
X115512047Y-94545047D01*
X115380139Y-94587604D01*
X115297532Y-94615787D01*
X115285639Y-94620630D01*
X115309222Y-94658458D01*
X115384184Y-94746014D01*
X115443412Y-94810241D01*
X115518073Y-94914483D01*
X115620359Y-95091612D01*
X115741250Y-95322223D01*
X115871724Y-95586910D01*
X116002760Y-95866270D01*
X116125338Y-96140897D01*
X116230436Y-96391386D01*
X116309033Y-96598332D01*
X116352109Y-96742331D01*
X116357255Y-96776009D01*
X116327355Y-96883182D01*
X116241052Y-96927267D01*
X116130926Y-96894208D01*
X116113612Y-96881104D01*
X116071715Y-96817101D01*
X115998960Y-96675688D01*
X115903216Y-96473390D01*
X115792347Y-96226726D01*
X115696953Y-96005973D01*
X115521603Y-95610061D01*
X115368317Y-95299406D01*
X115239473Y-95078607D01*
X115167838Y-94983041D01*
X114985877Y-94777555D01*
X114367738Y-94755516D01*
X113749600Y-94733477D01*
X113749600Y-95733678D01*
X113746912Y-96082968D01*
X113739273Y-96381311D01*
X113727323Y-96615381D01*
X113711698Y-96771850D01*
X113697012Y-96832139D01*
X113612292Y-96910092D01*
X113501535Y-96930069D01*
X113427866Y-96896533D01*
X113420792Y-96840206D01*
X113414218Y-96692757D01*
X113408302Y-96464660D01*
X113403201Y-96166393D01*
X113399071Y-95808431D01*
X113396070Y-95401250D01*
X113394353Y-94955327D01*
X113394000Y-94633624D01*
X113394000Y-92473809D01*
X113749600Y-92473809D01*
X113749600Y-94452968D01*
X114422700Y-94427418D01*
X114693000Y-94413233D01*
X114943638Y-94393004D01*
X115148134Y-94369330D01*
X115280008Y-94344809D01*
X115287688Y-94342563D01*
X115500188Y-94240377D01*
X115703310Y-94081304D01*
X115861656Y-93896132D01*
X115916166Y-93795925D01*
X115980231Y-93524625D01*
X115962483Y-93243167D01*
X115870410Y-92978603D01*
X115711501Y-92757985D01*
X115604286Y-92669168D01*
X115352094Y-92545980D01*
X115027482Y-92460502D01*
X114653612Y-92415991D01*
X114253642Y-92415704D01*
X113985290Y-92441504D01*
X113749600Y-92473809D01*
X113394000Y-92473809D01*
X113394000Y-92404581D01*
X113513669Y-92284912D01*
X113650102Y-92205828D01*
X113869823Y-92148584D01*
X114156477Y-92115182D01*
X114493706Y-92107621D01*
X114825576Y-92124450D01*
X114825576Y-92124450D01*
G37*
X114825576Y-92124450D02*
X115280219Y-92194973D01*
X115651774Y-92323875D01*
X115940418Y-92511314D01*
X116146324Y-92757445D01*
X116269669Y-93062425D01*
X116310626Y-93426410D01*
X116310462Y-93450600D01*
X116259690Y-93790793D01*
X116122813Y-94087763D01*
X115908919Y-94329051D01*
X115627094Y-94502200D01*
X115512047Y-94545047D01*
X115380139Y-94587604D01*
X115297532Y-94615787D01*
X115285639Y-94620630D01*
X115309222Y-94658458D01*
X115384184Y-94746014D01*
X115443412Y-94810241D01*
X115518073Y-94914483D01*
X115620359Y-95091612D01*
X115741250Y-95322223D01*
X115871724Y-95586910D01*
X116002760Y-95866270D01*
X116125338Y-96140897D01*
X116230436Y-96391386D01*
X116309033Y-96598332D01*
X116352109Y-96742331D01*
X116357255Y-96776009D01*
X116327355Y-96883182D01*
X116241052Y-96927267D01*
X116130926Y-96894208D01*
X116113612Y-96881104D01*
X116071715Y-96817101D01*
X115998960Y-96675688D01*
X115903216Y-96473390D01*
X115792347Y-96226726D01*
X115696953Y-96005973D01*
X115521603Y-95610061D01*
X115368317Y-95299406D01*
X115239473Y-95078607D01*
X115167838Y-94983041D01*
X114985877Y-94777555D01*
X114367738Y-94755516D01*
X113749600Y-94733477D01*
X113749600Y-95733678D01*
X113746912Y-96082968D01*
X113739273Y-96381311D01*
X113727323Y-96615381D01*
X113711698Y-96771850D01*
X113697012Y-96832139D01*
X113612292Y-96910092D01*
X113501535Y-96930069D01*
X113427866Y-96896533D01*
X113420792Y-96840206D01*
X113414218Y-96692757D01*
X113408302Y-96464660D01*
X113403201Y-96166393D01*
X113399071Y-95808431D01*
X113396070Y-95401250D01*
X113394353Y-94955327D01*
X113394000Y-94633624D01*
X113394000Y-92473809D01*
X113749600Y-92473809D01*
X113749600Y-94452968D01*
X114422700Y-94427418D01*
X114693000Y-94413233D01*
X114943638Y-94393004D01*
X115148134Y-94369330D01*
X115280008Y-94344809D01*
X115287688Y-94342563D01*
X115500188Y-94240377D01*
X115703310Y-94081304D01*
X115861656Y-93896132D01*
X115916166Y-93795925D01*
X115980231Y-93524625D01*
X115962483Y-93243167D01*
X115870410Y-92978603D01*
X115711501Y-92757985D01*
X115604286Y-92669168D01*
X115352094Y-92545980D01*
X115027482Y-92460502D01*
X114653612Y-92415991D01*
X114253642Y-92415704D01*
X113985290Y-92441504D01*
X113749600Y-92473809D01*
X113394000Y-92473809D01*
X113394000Y-92404581D01*
X113513669Y-92284912D01*
X113650102Y-92205828D01*
X113869823Y-92148584D01*
X114156477Y-92115182D01*
X114493706Y-92107621D01*
X114825576Y-92124450D01*
G36*
X110706539Y-92172194D02*
X110760511Y-92202768D01*
X110818265Y-92267429D01*
X110883577Y-92373414D01*
X110960222Y-92527962D01*
X111051972Y-92738311D01*
X111162604Y-93011699D01*
X111295891Y-93355365D01*
X111455607Y-93776546D01*
X111645527Y-94282482D01*
X111738793Y-94531564D01*
X111909173Y-94989700D01*
X112066826Y-95419511D01*
X112208434Y-95811527D01*
X112330679Y-96156277D01*
X112430243Y-96444292D01*
X112503809Y-96666101D01*
X112548057Y-96812235D01*
X112559671Y-96873223D01*
X112559422Y-96873738D01*
X112476518Y-96925684D01*
X112363345Y-96912785D01*
X112270211Y-96846743D01*
X112227733Y-96769140D01*
X112160841Y-96616269D01*
X112078115Y-96408953D01*
X111988138Y-96168016D01*
X111971891Y-96122843D01*
X111743000Y-95482600D01*
X109560801Y-95482600D01*
X109318387Y-96137810D01*
X109225421Y-96383094D01*
X109140173Y-96597093D01*
X109070828Y-96760015D01*
X109025574Y-96852068D01*
X109018966Y-96861710D01*
X108923661Y-96919990D01*
X108813225Y-96922681D01*
X108743727Y-96876246D01*
X108754260Y-96819172D01*
X108797416Y-96676551D01*
X108869877Y-96457865D01*
X108968324Y-96172595D01*
X109089439Y-95830225D01*
X109229904Y-95440237D01*
X109358332Y-95088900D01*
X109699021Y-95088900D01*
X109712029Y-95112108D01*
X109778302Y-95129288D01*
X109908342Y-95141161D01*
X110112650Y-95148454D01*
X110401727Y-95151889D01*
X110619964Y-95152400D01*
X110970048Y-95150754D01*
X111228921Y-95145356D01*
X111406926Y-95135510D01*
X111514406Y-95120522D01*
X111561703Y-95099699D01*
X111566113Y-95088900D01*
X111549882Y-95022743D01*
X111504241Y-94879575D01*
X111434739Y-94674646D01*
X111346925Y-94423205D01*
X111246351Y-94140502D01*
X111138566Y-93841786D01*
X111029119Y-93542308D01*
X110923560Y-93257316D01*
X110827439Y-93002060D01*
X110746307Y-92791790D01*
X110685712Y-92641755D01*
X110651205Y-92567206D01*
X110646406Y-92561764D01*
X110621794Y-92607454D01*
X110567888Y-92736205D01*
X110489570Y-92935397D01*
X110391719Y-93192411D01*
X110279219Y-93494626D01*
X110169962Y-93793500D01*
X110048105Y-94129462D01*
X109937024Y-94435461D01*
X109841619Y-94698028D01*
X109766785Y-94903691D01*
X109717419Y-95038980D01*
X109699021Y-95088900D01*
X109358332Y-95088900D01*
X109386401Y-95012113D01*
X109555612Y-94555337D01*
X109559514Y-94544873D01*
X109760084Y-94008495D01*
X109929195Y-93559941D01*
X110070043Y-93191526D01*
X110185822Y-92895569D01*
X110279728Y-92664385D01*
X110354958Y-92490291D01*
X110414708Y-92365604D01*
X110462172Y-92282641D01*
X110500547Y-92233717D01*
X110529583Y-92212607D01*
X110594850Y-92184352D01*
X110652577Y-92168468D01*
X110706539Y-92172194D01*
X110706539Y-92172194D01*
G37*
X110706539Y-92172194D02*
X110760511Y-92202768D01*
X110818265Y-92267429D01*
X110883577Y-92373414D01*
X110960222Y-92527962D01*
X111051972Y-92738311D01*
X111162604Y-93011699D01*
X111295891Y-93355365D01*
X111455607Y-93776546D01*
X111645527Y-94282482D01*
X111738793Y-94531564D01*
X111909173Y-94989700D01*
X112066826Y-95419511D01*
X112208434Y-95811527D01*
X112330679Y-96156277D01*
X112430243Y-96444292D01*
X112503809Y-96666101D01*
X112548057Y-96812235D01*
X112559671Y-96873223D01*
X112559422Y-96873738D01*
X112476518Y-96925684D01*
X112363345Y-96912785D01*
X112270211Y-96846743D01*
X112227733Y-96769140D01*
X112160841Y-96616269D01*
X112078115Y-96408953D01*
X111988138Y-96168016D01*
X111971891Y-96122843D01*
X111743000Y-95482600D01*
X109560801Y-95482600D01*
X109318387Y-96137810D01*
X109225421Y-96383094D01*
X109140173Y-96597093D01*
X109070828Y-96760015D01*
X109025574Y-96852068D01*
X109018966Y-96861710D01*
X108923661Y-96919990D01*
X108813225Y-96922681D01*
X108743727Y-96876246D01*
X108754260Y-96819172D01*
X108797416Y-96676551D01*
X108869877Y-96457865D01*
X108968324Y-96172595D01*
X109089439Y-95830225D01*
X109229904Y-95440237D01*
X109358332Y-95088900D01*
X109699021Y-95088900D01*
X109712029Y-95112108D01*
X109778302Y-95129288D01*
X109908342Y-95141161D01*
X110112650Y-95148454D01*
X110401727Y-95151889D01*
X110619964Y-95152400D01*
X110970048Y-95150754D01*
X111228921Y-95145356D01*
X111406926Y-95135510D01*
X111514406Y-95120522D01*
X111561703Y-95099699D01*
X111566113Y-95088900D01*
X111549882Y-95022743D01*
X111504241Y-94879575D01*
X111434739Y-94674646D01*
X111346925Y-94423205D01*
X111246351Y-94140502D01*
X111138566Y-93841786D01*
X111029119Y-93542308D01*
X110923560Y-93257316D01*
X110827439Y-93002060D01*
X110746307Y-92791790D01*
X110685712Y-92641755D01*
X110651205Y-92567206D01*
X110646406Y-92561764D01*
X110621794Y-92607454D01*
X110567888Y-92736205D01*
X110489570Y-92935397D01*
X110391719Y-93192411D01*
X110279219Y-93494626D01*
X110169962Y-93793500D01*
X110048105Y-94129462D01*
X109937024Y-94435461D01*
X109841619Y-94698028D01*
X109766785Y-94903691D01*
X109717419Y-95038980D01*
X109699021Y-95088900D01*
X109358332Y-95088900D01*
X109386401Y-95012113D01*
X109555612Y-94555337D01*
X109559514Y-94544873D01*
X109760084Y-94008495D01*
X109929195Y-93559941D01*
X110070043Y-93191526D01*
X110185822Y-92895569D01*
X110279728Y-92664385D01*
X110354958Y-92490291D01*
X110414708Y-92365604D01*
X110462172Y-92282641D01*
X110500547Y-92233717D01*
X110529583Y-92212607D01*
X110594850Y-92184352D01*
X110652577Y-92168468D01*
X110706539Y-92172194D01*
G36*
X103124802Y-92165680D02*
X103185571Y-92181352D01*
X103185797Y-92181424D01*
X103216285Y-92191946D01*
X103244581Y-92207932D01*
X103273948Y-92237118D01*
X103307645Y-92287241D01*
X103348934Y-92366039D01*
X103401077Y-92481248D01*
X103467335Y-92640605D01*
X103550970Y-92851847D01*
X103655242Y-93122711D01*
X103783414Y-93460934D01*
X103938746Y-93874253D01*
X104124500Y-94370404D01*
X104250223Y-94706556D01*
X104412118Y-95142966D01*
X104561171Y-95551567D01*
X104693875Y-95922242D01*
X104806722Y-96244873D01*
X104896206Y-96509343D01*
X104958820Y-96705534D01*
X104991057Y-96823327D01*
X104994144Y-96852856D01*
X104925185Y-96920110D01*
X104821576Y-96919459D01*
X104720006Y-96855338D01*
X104690094Y-96816100D01*
X104646785Y-96725794D01*
X104579341Y-96561897D01*
X104496644Y-96346902D01*
X104407579Y-96103303D01*
X104398772Y-96078539D01*
X104177697Y-95455278D01*
X103090297Y-95468939D01*
X102002898Y-95482600D01*
X101741884Y-96193800D01*
X101639334Y-96469747D01*
X101562376Y-96664327D01*
X101503089Y-96792084D01*
X101453557Y-96867566D01*
X101405859Y-96905319D01*
X101352078Y-96919889D01*
X101346233Y-96920611D01*
X101235532Y-96915482D01*
X101180668Y-96886182D01*
X101191689Y-96829927D01*
X101235280Y-96688111D01*
X101308106Y-96470217D01*
X101406835Y-96185731D01*
X101528133Y-95844136D01*
X101668666Y-95454916D01*
X101803432Y-95086755D01*
X102167200Y-95086755D01*
X102188755Y-95110827D01*
X102260818Y-95128603D01*
X102394485Y-95140855D01*
X102600852Y-95148355D01*
X102891015Y-95151876D01*
X103110423Y-95152400D01*
X103441597Y-95151786D01*
X103684196Y-95149104D01*
X103851239Y-95143086D01*
X103955747Y-95132468D01*
X104010742Y-95115985D01*
X104029243Y-95092372D01*
X104025303Y-95063500D01*
X103957408Y-94859713D01*
X103869297Y-94608898D01*
X103766398Y-94325145D01*
X103654140Y-94022547D01*
X103537953Y-93715196D01*
X103423265Y-93417186D01*
X103315506Y-93142607D01*
X103220103Y-92905553D01*
X103142488Y-92720115D01*
X103088087Y-92600387D01*
X103062331Y-92560460D01*
X103061459Y-92561600D01*
X102931097Y-92915341D01*
X102797809Y-93280819D01*
X102666186Y-93645073D01*
X102540817Y-93995144D01*
X102426292Y-94318072D01*
X102327200Y-94600898D01*
X102248130Y-94830662D01*
X102193673Y-94994405D01*
X102168417Y-95079167D01*
X102167200Y-95086755D01*
X101803432Y-95086755D01*
X101825103Y-95027555D01*
X101994108Y-94571538D01*
X101995124Y-94568813D01*
X102199942Y-94020534D01*
X102373343Y-93560258D01*
X102518992Y-93180639D01*
X102640552Y-92874330D01*
X102741688Y-92633984D01*
X102826065Y-92452253D01*
X102897346Y-92321790D01*
X102959196Y-92235249D01*
X103015279Y-92185282D01*
X103069260Y-92164541D01*
X103124802Y-92165680D01*
X103124802Y-92165680D01*
G37*
X103124802Y-92165680D02*
X103185571Y-92181352D01*
X103185797Y-92181424D01*
X103216285Y-92191946D01*
X103244581Y-92207932D01*
X103273948Y-92237118D01*
X103307645Y-92287241D01*
X103348934Y-92366039D01*
X103401077Y-92481248D01*
X103467335Y-92640605D01*
X103550970Y-92851847D01*
X103655242Y-93122711D01*
X103783414Y-93460934D01*
X103938746Y-93874253D01*
X104124500Y-94370404D01*
X104250223Y-94706556D01*
X104412118Y-95142966D01*
X104561171Y-95551567D01*
X104693875Y-95922242D01*
X104806722Y-96244873D01*
X104896206Y-96509343D01*
X104958820Y-96705534D01*
X104991057Y-96823327D01*
X104994144Y-96852856D01*
X104925185Y-96920110D01*
X104821576Y-96919459D01*
X104720006Y-96855338D01*
X104690094Y-96816100D01*
X104646785Y-96725794D01*
X104579341Y-96561897D01*
X104496644Y-96346902D01*
X104407579Y-96103303D01*
X104398772Y-96078539D01*
X104177697Y-95455278D01*
X103090297Y-95468939D01*
X102002898Y-95482600D01*
X101741884Y-96193800D01*
X101639334Y-96469747D01*
X101562376Y-96664327D01*
X101503089Y-96792084D01*
X101453557Y-96867566D01*
X101405859Y-96905319D01*
X101352078Y-96919889D01*
X101346233Y-96920611D01*
X101235532Y-96915482D01*
X101180668Y-96886182D01*
X101191689Y-96829927D01*
X101235280Y-96688111D01*
X101308106Y-96470217D01*
X101406835Y-96185731D01*
X101528133Y-95844136D01*
X101668666Y-95454916D01*
X101803432Y-95086755D01*
X102167200Y-95086755D01*
X102188755Y-95110827D01*
X102260818Y-95128603D01*
X102394485Y-95140855D01*
X102600852Y-95148355D01*
X102891015Y-95151876D01*
X103110423Y-95152400D01*
X103441597Y-95151786D01*
X103684196Y-95149104D01*
X103851239Y-95143086D01*
X103955747Y-95132468D01*
X104010742Y-95115985D01*
X104029243Y-95092372D01*
X104025303Y-95063500D01*
X103957408Y-94859713D01*
X103869297Y-94608898D01*
X103766398Y-94325145D01*
X103654140Y-94022547D01*
X103537953Y-93715196D01*
X103423265Y-93417186D01*
X103315506Y-93142607D01*
X103220103Y-92905553D01*
X103142488Y-92720115D01*
X103088087Y-92600387D01*
X103062331Y-92560460D01*
X103061459Y-92561600D01*
X102931097Y-92915341D01*
X102797809Y-93280819D01*
X102666186Y-93645073D01*
X102540817Y-93995144D01*
X102426292Y-94318072D01*
X102327200Y-94600898D01*
X102248130Y-94830662D01*
X102193673Y-94994405D01*
X102168417Y-95079167D01*
X102167200Y-95086755D01*
X101803432Y-95086755D01*
X101825103Y-95027555D01*
X101994108Y-94571538D01*
X101995124Y-94568813D01*
X102199942Y-94020534D01*
X102373343Y-93560258D01*
X102518992Y-93180639D01*
X102640552Y-92874330D01*
X102741688Y-92633984D01*
X102826065Y-92452253D01*
X102897346Y-92321790D01*
X102959196Y-92235249D01*
X103015279Y-92185282D01*
X103069260Y-92164541D01*
X103124802Y-92165680D01*
G36*
X107207358Y-92147663D02*
X107496547Y-92186691D01*
X107746922Y-92244927D01*
X107946241Y-92317774D01*
X108082261Y-92400630D01*
X108142740Y-92488895D01*
X108115433Y-92577970D01*
X108105604Y-92588567D01*
X108052884Y-92625813D01*
X107981369Y-92631124D01*
X107863720Y-92602162D01*
X107727999Y-92556272D01*
X107448354Y-92481050D01*
X107134568Y-92433905D01*
X106823381Y-92417671D01*
X106551534Y-92435181D01*
X106443018Y-92457157D01*
X106265008Y-92531566D01*
X106087355Y-92644931D01*
X106040392Y-92684295D01*
X105933902Y-92793104D01*
X105875609Y-92896799D01*
X105847612Y-93036703D01*
X105838174Y-93151137D01*
X105857372Y-93438112D01*
X105958237Y-93684656D01*
X106145128Y-93895571D01*
X106422402Y-94075657D01*
X106794419Y-94229716D01*
X106827183Y-94240659D01*
X107282127Y-94413281D01*
X107642339Y-94603468D01*
X107914082Y-94817698D01*
X108103616Y-95062452D01*
X108217205Y-95344210D01*
X108261109Y-95669451D01*
X108262084Y-95725531D01*
X108226988Y-96091022D01*
X108116108Y-96392056D01*
X107924943Y-96636570D01*
X107648994Y-96832502D01*
X107628200Y-96843648D01*
X107412408Y-96919225D01*
X107129506Y-96964023D01*
X106809321Y-96977681D01*
X106481681Y-96959839D01*
X106176416Y-96910134D01*
X106011597Y-96863203D01*
X105745395Y-96752878D01*
X105568749Y-96640010D01*
X105485948Y-96528015D01*
X105488173Y-96446229D01*
X105522379Y-96397854D01*
X105586421Y-96383140D01*
X105696425Y-96404895D01*
X105868513Y-96465929D01*
X106066610Y-96546981D01*
X106283557Y-96625799D01*
X106490439Y-96667412D01*
X106738370Y-96681412D01*
X106784711Y-96681729D01*
X107163720Y-96654123D01*
X107461474Y-96567450D01*
X107681451Y-96418706D01*
X107827128Y-96204885D01*
X107901983Y-95922984D01*
X107914330Y-95705719D01*
X107898335Y-95479313D01*
X107846066Y-95287111D01*
X107747564Y-95120025D01*
X107592870Y-94968969D01*
X107372024Y-94824854D01*
X107075067Y-94678593D01*
X106692039Y-94521100D01*
X106561400Y-94471260D01*
X106178357Y-94296066D01*
X105885497Y-94090627D01*
X105674155Y-93848194D01*
X105602932Y-93724418D01*
X105493612Y-93404623D01*
X105480957Y-93089853D01*
X105562603Y-92793169D01*
X105736184Y-92527636D01*
X105837868Y-92426841D01*
X106019043Y-92292755D01*
X106217020Y-92203682D01*
X106456330Y-92152769D01*
X106761507Y-92133162D01*
X106891600Y-92132444D01*
X107207358Y-92147663D01*
X107207358Y-92147663D01*
G37*
X107207358Y-92147663D02*
X107496547Y-92186691D01*
X107746922Y-92244927D01*
X107946241Y-92317774D01*
X108082261Y-92400630D01*
X108142740Y-92488895D01*
X108115433Y-92577970D01*
X108105604Y-92588567D01*
X108052884Y-92625813D01*
X107981369Y-92631124D01*
X107863720Y-92602162D01*
X107727999Y-92556272D01*
X107448354Y-92481050D01*
X107134568Y-92433905D01*
X106823381Y-92417671D01*
X106551534Y-92435181D01*
X106443018Y-92457157D01*
X106265008Y-92531566D01*
X106087355Y-92644931D01*
X106040392Y-92684295D01*
X105933902Y-92793104D01*
X105875609Y-92896799D01*
X105847612Y-93036703D01*
X105838174Y-93151137D01*
X105857372Y-93438112D01*
X105958237Y-93684656D01*
X106145128Y-93895571D01*
X106422402Y-94075657D01*
X106794419Y-94229716D01*
X106827183Y-94240659D01*
X107282127Y-94413281D01*
X107642339Y-94603468D01*
X107914082Y-94817698D01*
X108103616Y-95062452D01*
X108217205Y-95344210D01*
X108261109Y-95669451D01*
X108262084Y-95725531D01*
X108226988Y-96091022D01*
X108116108Y-96392056D01*
X107924943Y-96636570D01*
X107648994Y-96832502D01*
X107628200Y-96843648D01*
X107412408Y-96919225D01*
X107129506Y-96964023D01*
X106809321Y-96977681D01*
X106481681Y-96959839D01*
X106176416Y-96910134D01*
X106011597Y-96863203D01*
X105745395Y-96752878D01*
X105568749Y-96640010D01*
X105485948Y-96528015D01*
X105488173Y-96446229D01*
X105522379Y-96397854D01*
X105586421Y-96383140D01*
X105696425Y-96404895D01*
X105868513Y-96465929D01*
X106066610Y-96546981D01*
X106283557Y-96625799D01*
X106490439Y-96667412D01*
X106738370Y-96681412D01*
X106784711Y-96681729D01*
X107163720Y-96654123D01*
X107461474Y-96567450D01*
X107681451Y-96418706D01*
X107827128Y-96204885D01*
X107901983Y-95922984D01*
X107914330Y-95705719D01*
X107898335Y-95479313D01*
X107846066Y-95287111D01*
X107747564Y-95120025D01*
X107592870Y-94968969D01*
X107372024Y-94824854D01*
X107075067Y-94678593D01*
X106692039Y-94521100D01*
X106561400Y-94471260D01*
X106178357Y-94296066D01*
X105885497Y-94090627D01*
X105674155Y-93848194D01*
X105602932Y-93724418D01*
X105493612Y-93404623D01*
X105480957Y-93089853D01*
X105562603Y-92793169D01*
X105736184Y-92527636D01*
X105837868Y-92426841D01*
X106019043Y-92292755D01*
X106217020Y-92203682D01*
X106456330Y-92152769D01*
X106761507Y-92133162D01*
X106891600Y-92132444D01*
X107207358Y-92147663D01*
G36*
X100593459Y-92180586D02*
X100640109Y-92227676D01*
X100657488Y-92278323D01*
X100670738Y-92388108D01*
X100680032Y-92564283D01*
X100685541Y-92814103D01*
X100687439Y-93144821D01*
X100685896Y-93563691D01*
X100682025Y-93992976D01*
X100676228Y-94469564D01*
X100669738Y-94856142D01*
X100661927Y-95164302D01*
X100652167Y-95405636D01*
X100639831Y-95591733D01*
X100624289Y-95734184D01*
X100604916Y-95844582D01*
X100581081Y-95934515D01*
X100575993Y-95950258D01*
X100407596Y-96303239D01*
X100160134Y-96596252D01*
X99881562Y-96797377D01*
X99741410Y-96871034D01*
X99617404Y-96918278D01*
X99478492Y-96945794D01*
X99293624Y-96960266D01*
X99094162Y-96966884D01*
X98744791Y-96964101D01*
X98477167Y-96934937D01*
X98337653Y-96900677D01*
X98058504Y-96762893D01*
X97804426Y-96545321D01*
X97595570Y-96269652D01*
X97452087Y-95957579D01*
X97447233Y-95942195D01*
X97418169Y-95842104D01*
X97394936Y-95742027D01*
X97376888Y-95629540D01*
X97363377Y-95492220D01*
X97353755Y-95317646D01*
X97347374Y-95093392D01*
X97343588Y-94807037D01*
X97341749Y-94446157D01*
X97341209Y-93998329D01*
X97341200Y-93907884D01*
X97341714Y-93441809D01*
X97343549Y-93067451D01*
X97347141Y-92774931D01*
X97352929Y-92554369D01*
X97361351Y-92395888D01*
X97372843Y-92289607D01*
X97387844Y-92225647D01*
X97406790Y-92194129D01*
X97417399Y-92187629D01*
X97474968Y-92168048D01*
X97521552Y-92164302D01*
X97558474Y-92185785D01*
X97587058Y-92241889D01*
X97608627Y-92342007D01*
X97624502Y-92495531D01*
X97636008Y-92711856D01*
X97644467Y-93000373D01*
X97651202Y-93370476D01*
X97657536Y-93831558D01*
X97658400Y-93898766D01*
X97665864Y-94413757D01*
X97675054Y-94838251D01*
X97687863Y-95183349D01*
X97706185Y-95460153D01*
X97731914Y-95679766D01*
X97766943Y-95853289D01*
X97813166Y-95991826D01*
X97872477Y-96106477D01*
X97946770Y-96208346D01*
X98037938Y-96308533D01*
X98076018Y-96347092D01*
X98256019Y-96500462D01*
X98447603Y-96600186D01*
X98677923Y-96655471D01*
X98974134Y-96675521D01*
X99046590Y-96676116D01*
X99416825Y-96638561D01*
X99722733Y-96523840D01*
X99968485Y-96329830D01*
X100115703Y-96131220D01*
X100209143Y-95950811D01*
X100280457Y-95770582D01*
X100305644Y-95674020D01*
X100313544Y-95576240D01*
X100320760Y-95391083D01*
X100327033Y-95132769D01*
X100332106Y-94815519D01*
X100335721Y-94453554D01*
X100337619Y-94061096D01*
X100337840Y-93898728D01*
X100338558Y-93448151D01*
X100340701Y-93088487D01*
X100344786Y-92809051D01*
X100351330Y-92599161D01*
X100360849Y-92448134D01*
X100373858Y-92345285D01*
X100390874Y-92279931D01*
X100412414Y-92241390D01*
X100418228Y-92235028D01*
X100514981Y-92163626D01*
X100593459Y-92180586D01*
X100593459Y-92180586D01*
G37*
X100593459Y-92180586D02*
X100640109Y-92227676D01*
X100657488Y-92278323D01*
X100670738Y-92388108D01*
X100680032Y-92564283D01*
X100685541Y-92814103D01*
X100687439Y-93144821D01*
X100685896Y-93563691D01*
X100682025Y-93992976D01*
X100676228Y-94469564D01*
X100669738Y-94856142D01*
X100661927Y-95164302D01*
X100652167Y-95405636D01*
X100639831Y-95591733D01*
X100624289Y-95734184D01*
X100604916Y-95844582D01*
X100581081Y-95934515D01*
X100575993Y-95950258D01*
X100407596Y-96303239D01*
X100160134Y-96596252D01*
X99881562Y-96797377D01*
X99741410Y-96871034D01*
X99617404Y-96918278D01*
X99478492Y-96945794D01*
X99293624Y-96960266D01*
X99094162Y-96966884D01*
X98744791Y-96964101D01*
X98477167Y-96934937D01*
X98337653Y-96900677D01*
X98058504Y-96762893D01*
X97804426Y-96545321D01*
X97595570Y-96269652D01*
X97452087Y-95957579D01*
X97447233Y-95942195D01*
X97418169Y-95842104D01*
X97394936Y-95742027D01*
X97376888Y-95629540D01*
X97363377Y-95492220D01*
X97353755Y-95317646D01*
X97347374Y-95093392D01*
X97343588Y-94807037D01*
X97341749Y-94446157D01*
X97341209Y-93998329D01*
X97341200Y-93907884D01*
X97341714Y-93441809D01*
X97343549Y-93067451D01*
X97347141Y-92774931D01*
X97352929Y-92554369D01*
X97361351Y-92395888D01*
X97372843Y-92289607D01*
X97387844Y-92225647D01*
X97406790Y-92194129D01*
X97417399Y-92187629D01*
X97474968Y-92168048D01*
X97521552Y-92164302D01*
X97558474Y-92185785D01*
X97587058Y-92241889D01*
X97608627Y-92342007D01*
X97624502Y-92495531D01*
X97636008Y-92711856D01*
X97644467Y-93000373D01*
X97651202Y-93370476D01*
X97657536Y-93831558D01*
X97658400Y-93898766D01*
X97665864Y-94413757D01*
X97675054Y-94838251D01*
X97687863Y-95183349D01*
X97706185Y-95460153D01*
X97731914Y-95679766D01*
X97766943Y-95853289D01*
X97813166Y-95991826D01*
X97872477Y-96106477D01*
X97946770Y-96208346D01*
X98037938Y-96308533D01*
X98076018Y-96347092D01*
X98256019Y-96500462D01*
X98447603Y-96600186D01*
X98677923Y-96655471D01*
X98974134Y-96675521D01*
X99046590Y-96676116D01*
X99416825Y-96638561D01*
X99722733Y-96523840D01*
X99968485Y-96329830D01*
X100115703Y-96131220D01*
X100209143Y-95950811D01*
X100280457Y-95770582D01*
X100305644Y-95674020D01*
X100313544Y-95576240D01*
X100320760Y-95391083D01*
X100327033Y-95132769D01*
X100332106Y-94815519D01*
X100335721Y-94453554D01*
X100337619Y-94061096D01*
X100337840Y-93898728D01*
X100338558Y-93448151D01*
X100340701Y-93088487D01*
X100344786Y-92809051D01*
X100351330Y-92599161D01*
X100360849Y-92448134D01*
X100373858Y-92345285D01*
X100390874Y-92279931D01*
X100412414Y-92241390D01*
X100418228Y-92235028D01*
X100514981Y-92163626D01*
X100593459Y-92180586D01*
G36*
X94855106Y-92143399D02*
X95304791Y-92247832D01*
X95693889Y-92425244D01*
X96040473Y-92684309D01*
X96100646Y-92741167D01*
X96394263Y-93096132D01*
X96605186Y-93507649D01*
X96734020Y-93977340D01*
X96781370Y-94506822D01*
X96781649Y-94562433D01*
X96739472Y-95068517D01*
X96618210Y-95530739D01*
X96422492Y-95940058D01*
X96156947Y-96287430D01*
X95826203Y-96563814D01*
X95725440Y-96625600D01*
X95571664Y-96716553D01*
X95459873Y-96788796D01*
X95412685Y-96827646D01*
X95412381Y-96828800D01*
X95456087Y-96855295D01*
X95571092Y-96898446D01*
X95703036Y-96940025D01*
X95906953Y-97017390D01*
X96126866Y-97129493D01*
X96346918Y-97264380D01*
X96551250Y-97410101D01*
X96724003Y-97554702D01*
X96849320Y-97686230D01*
X96911342Y-97792734D01*
X96907520Y-97847841D01*
X96821877Y-97900498D01*
X96687604Y-97876508D01*
X96517222Y-97780362D01*
X96360259Y-97651669D01*
X96153528Y-97472049D01*
X95957286Y-97332756D01*
X95752201Y-97226916D01*
X95518941Y-97147653D01*
X95238174Y-97088092D01*
X94890569Y-97041357D01*
X94552260Y-97008661D01*
X94231032Y-96978136D01*
X93988734Y-96947480D01*
X93802781Y-96912384D01*
X93650588Y-96868542D01*
X93509571Y-96811646D01*
X93502535Y-96808440D01*
X93093824Y-96567672D01*
X92751988Y-96253884D01*
X92484868Y-95876171D01*
X92300303Y-95443629D01*
X92286797Y-95398084D01*
X92229979Y-95113506D01*
X92198454Y-94771469D01*
X92193119Y-94418583D01*
X92534806Y-94418583D01*
X92548520Y-94862441D01*
X92634839Y-95297469D01*
X92760317Y-95631954D01*
X92985818Y-96005557D01*
X93272869Y-96300509D01*
X93615866Y-96514397D01*
X94009201Y-96644810D01*
X94447268Y-96689337D01*
X94924461Y-96645565D01*
X95055200Y-96619211D01*
X95408604Y-96489665D01*
X95726129Y-96273015D01*
X95997673Y-95980432D01*
X96213132Y-95623089D01*
X96362406Y-95212157D01*
X96375547Y-95159111D01*
X96408146Y-94930239D01*
X96418575Y-94642683D01*
X96408540Y-94331670D01*
X96379749Y-94032429D01*
X96333908Y-93780188D01*
X96303865Y-93679200D01*
X96226498Y-93506235D01*
X96116854Y-93307135D01*
X96040741Y-93187563D01*
X95776523Y-92886671D01*
X95455026Y-92658122D01*
X95091739Y-92503350D01*
X94702149Y-92423791D01*
X94301744Y-92420880D01*
X93906011Y-92496053D01*
X93530438Y-92650745D01*
X93190512Y-92886392D01*
X93153122Y-92919929D01*
X92902855Y-93216570D01*
X92714617Y-93577395D01*
X92591053Y-93984150D01*
X92534806Y-94418583D01*
X92193119Y-94418583D01*
X92193019Y-94412022D01*
X92214469Y-94075214D01*
X92255661Y-93831600D01*
X92415103Y-93380267D01*
X92651927Y-92988092D01*
X92956955Y-92661036D01*
X93321012Y-92405057D01*
X93734919Y-92226117D01*
X94189498Y-92130175D01*
X94675573Y-92123192D01*
X94855106Y-92143399D01*
X94855106Y-92143399D01*
G37*
X94855106Y-92143399D02*
X95304791Y-92247832D01*
X95693889Y-92425244D01*
X96040473Y-92684309D01*
X96100646Y-92741167D01*
X96394263Y-93096132D01*
X96605186Y-93507649D01*
X96734020Y-93977340D01*
X96781370Y-94506822D01*
X96781649Y-94562433D01*
X96739472Y-95068517D01*
X96618210Y-95530739D01*
X96422492Y-95940058D01*
X96156947Y-96287430D01*
X95826203Y-96563814D01*
X95725440Y-96625600D01*
X95571664Y-96716553D01*
X95459873Y-96788796D01*
X95412685Y-96827646D01*
X95412381Y-96828800D01*
X95456087Y-96855295D01*
X95571092Y-96898446D01*
X95703036Y-96940025D01*
X95906953Y-97017390D01*
X96126866Y-97129493D01*
X96346918Y-97264380D01*
X96551250Y-97410101D01*
X96724003Y-97554702D01*
X96849320Y-97686230D01*
X96911342Y-97792734D01*
X96907520Y-97847841D01*
X96821877Y-97900498D01*
X96687604Y-97876508D01*
X96517222Y-97780362D01*
X96360259Y-97651669D01*
X96153528Y-97472049D01*
X95957286Y-97332756D01*
X95752201Y-97226916D01*
X95518941Y-97147653D01*
X95238174Y-97088092D01*
X94890569Y-97041357D01*
X94552260Y-97008661D01*
X94231032Y-96978136D01*
X93988734Y-96947480D01*
X93802781Y-96912384D01*
X93650588Y-96868542D01*
X93509571Y-96811646D01*
X93502535Y-96808440D01*
X93093824Y-96567672D01*
X92751988Y-96253884D01*
X92484868Y-95876171D01*
X92300303Y-95443629D01*
X92286797Y-95398084D01*
X92229979Y-95113506D01*
X92198454Y-94771469D01*
X92193119Y-94418583D01*
X92534806Y-94418583D01*
X92548520Y-94862441D01*
X92634839Y-95297469D01*
X92760317Y-95631954D01*
X92985818Y-96005557D01*
X93272869Y-96300509D01*
X93615866Y-96514397D01*
X94009201Y-96644810D01*
X94447268Y-96689337D01*
X94924461Y-96645565D01*
X95055200Y-96619211D01*
X95408604Y-96489665D01*
X95726129Y-96273015D01*
X95997673Y-95980432D01*
X96213132Y-95623089D01*
X96362406Y-95212157D01*
X96375547Y-95159111D01*
X96408146Y-94930239D01*
X96418575Y-94642683D01*
X96408540Y-94331670D01*
X96379749Y-94032429D01*
X96333908Y-93780188D01*
X96303865Y-93679200D01*
X96226498Y-93506235D01*
X96116854Y-93307135D01*
X96040741Y-93187563D01*
X95776523Y-92886671D01*
X95455026Y-92658122D01*
X95091739Y-92503350D01*
X94702149Y-92423791D01*
X94301744Y-92420880D01*
X93906011Y-92496053D01*
X93530438Y-92650745D01*
X93190512Y-92886392D01*
X93153122Y-92919929D01*
X92902855Y-93216570D01*
X92714617Y-93577395D01*
X92591053Y-93984150D01*
X92534806Y-94418583D01*
X92193119Y-94418583D01*
X92193019Y-94412022D01*
X92214469Y-94075214D01*
X92255661Y-93831600D01*
X92415103Y-93380267D01*
X92651927Y-92988092D01*
X92956955Y-92661036D01*
X93321012Y-92405057D01*
X93734919Y-92226117D01*
X94189498Y-92130175D01*
X94675573Y-92123192D01*
X94855106Y-92143399D01*
G36*
X234190500Y-93420500D02*
X233785688Y-93420500D01*
X233785688Y-93015688D01*
X234190500Y-93015688D01*
X234190500Y-93420500D01*
X234190500Y-93420500D01*
G37*
X234190500Y-93420500D02*
X233785688Y-93420500D01*
X233785688Y-93015688D01*
X234190500Y-93015688D01*
X234190500Y-93420500D01*
G36*
X234595313Y-94206313D02*
X234190500Y-94206313D01*
X234190500Y-93825313D01*
X234595313Y-93825313D01*
X234595313Y-94206313D01*
X234595313Y-94206313D01*
G37*
X234595313Y-94206313D02*
X234190500Y-94206313D01*
X234190500Y-93825313D01*
X234595313Y-93825313D01*
X234595313Y-94206313D01*
G36*
X233785688Y-94206313D02*
X233404688Y-94206313D01*
X233404688Y-93825313D01*
X233785688Y-93825313D01*
X233785688Y-94206313D01*
X233785688Y-94206313D01*
G37*
X233785688Y-94206313D02*
X233404688Y-94206313D01*
X233404688Y-93825313D01*
X233785688Y-93825313D01*
X233785688Y-94206313D01*
G36*
X234976313Y-95015938D02*
X234595313Y-95015938D01*
X234595313Y-94611125D01*
X234976313Y-94611125D01*
X234976313Y-95015938D01*
X234976313Y-95015938D01*
G37*
X234976313Y-95015938D02*
X234595313Y-95015938D01*
X234595313Y-94611125D01*
X234976313Y-94611125D01*
X234976313Y-95015938D01*
G36*
X234190500Y-95015938D02*
X233785688Y-95015938D01*
X233785688Y-94611125D01*
X234190500Y-94611125D01*
X234190500Y-95015938D01*
X234190500Y-95015938D01*
G37*
X234190500Y-95015938D02*
X233785688Y-95015938D01*
X233785688Y-94611125D01*
X234190500Y-94611125D01*
X234190500Y-95015938D01*
G36*
X233404688Y-95015938D02*
X232999875Y-95015938D01*
X232999875Y-94611125D01*
X233404688Y-94611125D01*
X233404688Y-95015938D01*
X233404688Y-95015938D01*
G37*
X233404688Y-95015938D02*
X232999875Y-95015938D01*
X232999875Y-94611125D01*
X233404688Y-94611125D01*
X233404688Y-95015938D01*
G36*
X235381125Y-95801750D02*
X234976313Y-95801750D01*
X234976313Y-95396938D01*
X235381125Y-95396938D01*
X235381125Y-95801750D01*
X235381125Y-95801750D01*
G37*
X235381125Y-95801750D02*
X234976313Y-95801750D01*
X234976313Y-95396938D01*
X235381125Y-95396938D01*
X235381125Y-95801750D01*
G36*
X232999875Y-95801750D02*
X232595063Y-95801750D01*
X232595063Y-95396938D01*
X232999875Y-95396938D01*
X232999875Y-95801750D01*
X232999875Y-95801750D01*
G37*
X232999875Y-95801750D02*
X232595063Y-95801750D01*
X232595063Y-95396938D01*
X232999875Y-95396938D01*
X232999875Y-95801750D01*
G36*
X234003969Y-91528045D02*
X234128087Y-91529415D01*
X234239799Y-91533572D01*
X234342392Y-91540919D01*
X234439156Y-91551860D01*
X234533378Y-91566798D01*
X234628347Y-91586137D01*
X234727351Y-91610281D01*
X234772630Y-91622418D01*
X234981177Y-91687656D01*
X235183265Y-91766992D01*
X235378128Y-91860028D01*
X235564999Y-91966368D01*
X235743114Y-92085616D01*
X235895260Y-92203617D01*
X236052928Y-92344342D01*
X236200265Y-92495787D01*
X236336586Y-92656885D01*
X236461208Y-92826567D01*
X236573447Y-93003766D01*
X236672620Y-93187416D01*
X236758042Y-93376447D01*
X236829030Y-93569793D01*
X236877784Y-93737803D01*
X236910855Y-93877789D01*
X236936215Y-94009725D01*
X236954607Y-94138997D01*
X236966775Y-94270993D01*
X236973461Y-94411100D01*
X236974114Y-94436500D01*
X236971395Y-94654797D01*
X236953200Y-94869580D01*
X236919535Y-95080821D01*
X236870406Y-95288489D01*
X236805819Y-95492555D01*
X236741622Y-95656487D01*
X236713539Y-95721752D01*
X236689477Y-95775910D01*
X236667608Y-95822613D01*
X236646107Y-95865513D01*
X236623146Y-95908263D01*
X236596900Y-95954515D01*
X236567775Y-96004156D01*
X236448556Y-96190427D01*
X236318452Y-96365153D01*
X236177329Y-96528465D01*
X236025055Y-96680496D01*
X235861497Y-96821380D01*
X235686524Y-96951248D01*
X235504156Y-97067775D01*
X235451327Y-97098744D01*
X235405414Y-97124721D01*
X235362765Y-97147531D01*
X235319728Y-97169001D01*
X235272651Y-97190957D01*
X235217881Y-97215225D01*
X235156487Y-97241622D01*
X235060254Y-97281169D01*
X234971536Y-97314208D01*
X234884422Y-97342695D01*
X234792998Y-97368589D01*
X234710406Y-97389322D01*
X234545890Y-97424876D01*
X234388795Y-97450553D01*
X234234567Y-97466893D01*
X234078649Y-97474436D01*
X233988094Y-97475013D01*
X233936875Y-97474498D01*
X233888754Y-97473793D01*
X233846874Y-97472960D01*
X233814378Y-97472063D01*
X233794410Y-97471165D01*
X233793625Y-97471109D01*
X233577451Y-97447157D01*
X233364694Y-97408170D01*
X233156213Y-97354467D01*
X232952868Y-97286363D01*
X232755516Y-97204176D01*
X232565018Y-97108225D01*
X232382232Y-96998826D01*
X232231276Y-96893796D01*
X232058349Y-96755449D01*
X231897665Y-96607088D01*
X231749451Y-96449039D01*
X231613929Y-96281632D01*
X231491324Y-96105194D01*
X231381861Y-95920052D01*
X231285763Y-95726535D01*
X231203256Y-95524971D01*
X231134563Y-95315688D01*
X231122418Y-95272630D01*
X231096052Y-95170835D01*
X231074667Y-95074511D01*
X231057859Y-94980367D01*
X231045225Y-94885117D01*
X231036360Y-94785470D01*
X231030862Y-94678140D01*
X231028326Y-94559836D01*
X231028045Y-94503969D01*
X231028720Y-94448608D01*
X231560794Y-94448608D01*
X231560897Y-94528746D01*
X231562563Y-94608410D01*
X231565759Y-94683537D01*
X231570456Y-94750060D01*
X231574176Y-94785750D01*
X231606050Y-94983048D01*
X231652701Y-95174663D01*
X231713951Y-95360222D01*
X231789619Y-95539349D01*
X231879527Y-95711669D01*
X231983494Y-95876809D01*
X232101341Y-96034393D01*
X232232888Y-96184047D01*
X232255224Y-96207260D01*
X232389458Y-96334334D01*
X232535160Y-96452270D01*
X232689631Y-96559090D01*
X232850169Y-96652816D01*
X232895958Y-96676504D01*
X232970366Y-96713153D01*
X233035607Y-96743372D01*
X233096104Y-96768940D01*
X233156278Y-96791634D01*
X233220551Y-96813233D01*
X233285625Y-96833227D01*
X233474838Y-96882640D01*
X233660589Y-96917091D01*
X233844327Y-96936714D01*
X234027503Y-96941642D01*
X234211564Y-96932011D01*
X234278106Y-96925031D01*
X234465438Y-96896087D01*
X234645019Y-96854278D01*
X234819357Y-96798854D01*
X234990959Y-96729064D01*
X235087916Y-96682866D01*
X235258548Y-96589447D01*
X235417964Y-96485712D01*
X235566922Y-96370974D01*
X235706179Y-96244550D01*
X235836494Y-96105754D01*
X235958624Y-95953903D01*
X236066892Y-95798259D01*
X236092018Y-95757068D01*
X236121341Y-95704940D01*
X236153041Y-95645496D01*
X236185299Y-95582356D01*
X236216293Y-95519140D01*
X236244206Y-95459467D01*
X236267215Y-95406957D01*
X236280653Y-95373125D01*
X236343520Y-95181584D01*
X236390916Y-94988845D01*
X236422800Y-94795450D01*
X236439130Y-94601940D01*
X236439868Y-94408857D01*
X236424972Y-94216742D01*
X236394402Y-94026136D01*
X236384599Y-93980094D01*
X236350950Y-93843801D01*
X236312642Y-93717618D01*
X236267704Y-93596007D01*
X236214163Y-93473432D01*
X236176504Y-93395958D01*
X236082799Y-93227110D01*
X235975974Y-93066673D01*
X235856798Y-92915368D01*
X235726037Y-92773914D01*
X235584460Y-92643031D01*
X235432834Y-92523440D01*
X235271927Y-92415860D01*
X235102507Y-92321011D01*
X234958325Y-92253480D01*
X234786697Y-92187085D01*
X234614143Y-92135087D01*
X234438656Y-92097078D01*
X234258226Y-92072651D01*
X234070845Y-92061397D01*
X234007938Y-92060507D01*
X233809843Y-92066877D01*
X233618215Y-92087522D01*
X233432281Y-92122673D01*
X233251265Y-92172567D01*
X233074394Y-92237435D01*
X232900894Y-92317513D01*
X232729991Y-92413035D01*
X232629294Y-92477244D01*
X232489861Y-92578772D01*
X232355663Y-92693278D01*
X232228341Y-92818839D01*
X232109535Y-92953531D01*
X232000886Y-93095431D01*
X231904035Y-93242615D01*
X231820622Y-93393161D01*
X231785826Y-93466080D01*
X231724423Y-93610939D01*
X231674192Y-93750178D01*
X231633935Y-93888126D01*
X231602456Y-94029114D01*
X231578556Y-94177471D01*
X231570155Y-94246000D01*
X231565392Y-94303170D01*
X231562282Y-94372061D01*
X231560794Y-94448608D01*
X231028720Y-94448608D01*
X231029790Y-94360973D01*
X231035664Y-94230106D01*
X231046238Y-94108025D01*
X231062085Y-93991385D01*
X231083777Y-93876844D01*
X231111887Y-93761059D01*
X231146986Y-93640687D01*
X231189647Y-93512384D01*
X231205341Y-93468125D01*
X231283726Y-93273406D01*
X231376566Y-93085072D01*
X231483672Y-92903385D01*
X231604852Y-92728608D01*
X231739917Y-92561003D01*
X231888674Y-92400833D01*
X232050933Y-92248360D01*
X232157771Y-92158179D01*
X232243600Y-92092686D01*
X232341139Y-92025360D01*
X232446748Y-91958412D01*
X232556786Y-91894055D01*
X232667613Y-91834500D01*
X232775589Y-91781958D01*
X232781594Y-91779215D01*
X232851554Y-91749342D01*
X232932735Y-91717956D01*
X233020767Y-91686536D01*
X233111279Y-91656562D01*
X233199901Y-91629511D01*
X233282264Y-91606864D01*
X233314150Y-91598971D01*
X233407375Y-91578203D01*
X233496349Y-91561543D01*
X233584353Y-91548652D01*
X233674669Y-91539195D01*
X233770578Y-91532832D01*
X233875360Y-91529228D01*
X233992295Y-91528044D01*
X234003969Y-91528045D01*
X234003969Y-91528045D01*
G37*
X234003969Y-91528045D02*
X234128087Y-91529415D01*
X234239799Y-91533572D01*
X234342392Y-91540919D01*
X234439156Y-91551860D01*
X234533378Y-91566798D01*
X234628347Y-91586137D01*
X234727351Y-91610281D01*
X234772630Y-91622418D01*
X234981177Y-91687656D01*
X235183265Y-91766992D01*
X235378128Y-91860028D01*
X235564999Y-91966368D01*
X235743114Y-92085616D01*
X235895260Y-92203617D01*
X236052928Y-92344342D01*
X236200265Y-92495787D01*
X236336586Y-92656885D01*
X236461208Y-92826567D01*
X236573447Y-93003766D01*
X236672620Y-93187416D01*
X236758042Y-93376447D01*
X236829030Y-93569793D01*
X236877784Y-93737803D01*
X236910855Y-93877789D01*
X236936215Y-94009725D01*
X236954607Y-94138997D01*
X236966775Y-94270993D01*
X236973461Y-94411100D01*
X236974114Y-94436500D01*
X236971395Y-94654797D01*
X236953200Y-94869580D01*
X236919535Y-95080821D01*
X236870406Y-95288489D01*
X236805819Y-95492555D01*
X236741622Y-95656487D01*
X236713539Y-95721752D01*
X236689477Y-95775910D01*
X236667608Y-95822613D01*
X236646107Y-95865513D01*
X236623146Y-95908263D01*
X236596900Y-95954515D01*
X236567775Y-96004156D01*
X236448556Y-96190427D01*
X236318452Y-96365153D01*
X236177329Y-96528465D01*
X236025055Y-96680496D01*
X235861497Y-96821380D01*
X235686524Y-96951248D01*
X235504156Y-97067775D01*
X235451327Y-97098744D01*
X235405414Y-97124721D01*
X235362765Y-97147531D01*
X235319728Y-97169001D01*
X235272651Y-97190957D01*
X235217881Y-97215225D01*
X235156487Y-97241622D01*
X235060254Y-97281169D01*
X234971536Y-97314208D01*
X234884422Y-97342695D01*
X234792998Y-97368589D01*
X234710406Y-97389322D01*
X234545890Y-97424876D01*
X234388795Y-97450553D01*
X234234567Y-97466893D01*
X234078649Y-97474436D01*
X233988094Y-97475013D01*
X233936875Y-97474498D01*
X233888754Y-97473793D01*
X233846874Y-97472960D01*
X233814378Y-97472063D01*
X233794410Y-97471165D01*
X233793625Y-97471109D01*
X233577451Y-97447157D01*
X233364694Y-97408170D01*
X233156213Y-97354467D01*
X232952868Y-97286363D01*
X232755516Y-97204176D01*
X232565018Y-97108225D01*
X232382232Y-96998826D01*
X232231276Y-96893796D01*
X232058349Y-96755449D01*
X231897665Y-96607088D01*
X231749451Y-96449039D01*
X231613929Y-96281632D01*
X231491324Y-96105194D01*
X231381861Y-95920052D01*
X231285763Y-95726535D01*
X231203256Y-95524971D01*
X231134563Y-95315688D01*
X231122418Y-95272630D01*
X231096052Y-95170835D01*
X231074667Y-95074511D01*
X231057859Y-94980367D01*
X231045225Y-94885117D01*
X231036360Y-94785470D01*
X231030862Y-94678140D01*
X231028326Y-94559836D01*
X231028045Y-94503969D01*
X231028720Y-94448608D01*
X231560794Y-94448608D01*
X231560897Y-94528746D01*
X231562563Y-94608410D01*
X231565759Y-94683537D01*
X231570456Y-94750060D01*
X231574176Y-94785750D01*
X231606050Y-94983048D01*
X231652701Y-95174663D01*
X231713951Y-95360222D01*
X231789619Y-95539349D01*
X231879527Y-95711669D01*
X231983494Y-95876809D01*
X232101341Y-96034393D01*
X232232888Y-96184047D01*
X232255224Y-96207260D01*
X232389458Y-96334334D01*
X232535160Y-96452270D01*
X232689631Y-96559090D01*
X232850169Y-96652816D01*
X232895958Y-96676504D01*
X232970366Y-96713153D01*
X233035607Y-96743372D01*
X233096104Y-96768940D01*
X233156278Y-96791634D01*
X233220551Y-96813233D01*
X233285625Y-96833227D01*
X233474838Y-96882640D01*
X233660589Y-96917091D01*
X233844327Y-96936714D01*
X234027503Y-96941642D01*
X234211564Y-96932011D01*
X234278106Y-96925031D01*
X234465438Y-96896087D01*
X234645019Y-96854278D01*
X234819357Y-96798854D01*
X234990959Y-96729064D01*
X235087916Y-96682866D01*
X235258548Y-96589447D01*
X235417964Y-96485712D01*
X235566922Y-96370974D01*
X235706179Y-96244550D01*
X235836494Y-96105754D01*
X235958624Y-95953903D01*
X236066892Y-95798259D01*
X236092018Y-95757068D01*
X236121341Y-95704940D01*
X236153041Y-95645496D01*
X236185299Y-95582356D01*
X236216293Y-95519140D01*
X236244206Y-95459467D01*
X236267215Y-95406957D01*
X236280653Y-95373125D01*
X236343520Y-95181584D01*
X236390916Y-94988845D01*
X236422800Y-94795450D01*
X236439130Y-94601940D01*
X236439868Y-94408857D01*
X236424972Y-94216742D01*
X236394402Y-94026136D01*
X236384599Y-93980094D01*
X236350950Y-93843801D01*
X236312642Y-93717618D01*
X236267704Y-93596007D01*
X236214163Y-93473432D01*
X236176504Y-93395958D01*
X236082799Y-93227110D01*
X235975974Y-93066673D01*
X235856798Y-92915368D01*
X235726037Y-92773914D01*
X235584460Y-92643031D01*
X235432834Y-92523440D01*
X235271927Y-92415860D01*
X235102507Y-92321011D01*
X234958325Y-92253480D01*
X234786697Y-92187085D01*
X234614143Y-92135087D01*
X234438656Y-92097078D01*
X234258226Y-92072651D01*
X234070845Y-92061397D01*
X234007938Y-92060507D01*
X233809843Y-92066877D01*
X233618215Y-92087522D01*
X233432281Y-92122673D01*
X233251265Y-92172567D01*
X233074394Y-92237435D01*
X232900894Y-92317513D01*
X232729991Y-92413035D01*
X232629294Y-92477244D01*
X232489861Y-92578772D01*
X232355663Y-92693278D01*
X232228341Y-92818839D01*
X232109535Y-92953531D01*
X232000886Y-93095431D01*
X231904035Y-93242615D01*
X231820622Y-93393161D01*
X231785826Y-93466080D01*
X231724423Y-93610939D01*
X231674192Y-93750178D01*
X231633935Y-93888126D01*
X231602456Y-94029114D01*
X231578556Y-94177471D01*
X231570155Y-94246000D01*
X231565392Y-94303170D01*
X231562282Y-94372061D01*
X231560794Y-94448608D01*
X231028720Y-94448608D01*
X231029790Y-94360973D01*
X231035664Y-94230106D01*
X231046238Y-94108025D01*
X231062085Y-93991385D01*
X231083777Y-93876844D01*
X231111887Y-93761059D01*
X231146986Y-93640687D01*
X231189647Y-93512384D01*
X231205341Y-93468125D01*
X231283726Y-93273406D01*
X231376566Y-93085072D01*
X231483672Y-92903385D01*
X231604852Y-92728608D01*
X231739917Y-92561003D01*
X231888674Y-92400833D01*
X232050933Y-92248360D01*
X232157771Y-92158179D01*
X232243600Y-92092686D01*
X232341139Y-92025360D01*
X232446748Y-91958412D01*
X232556786Y-91894055D01*
X232667613Y-91834500D01*
X232775589Y-91781958D01*
X232781594Y-91779215D01*
X232851554Y-91749342D01*
X232932735Y-91717956D01*
X233020767Y-91686536D01*
X233111279Y-91656562D01*
X233199901Y-91629511D01*
X233282264Y-91606864D01*
X233314150Y-91598971D01*
X233407375Y-91578203D01*
X233496349Y-91561543D01*
X233584353Y-91548652D01*
X233674669Y-91539195D01*
X233770578Y-91532832D01*
X233875360Y-91529228D01*
X233992295Y-91528044D01*
X234003969Y-91528045D01*
D11*
G36*
X239919176Y-86889115D02*
X240027223Y-86933870D01*
X240124462Y-86998843D01*
X240207157Y-87081538D01*
X240272130Y-87178777D01*
X240316885Y-87286824D01*
X240339700Y-87401526D01*
X240339700Y-87518474D01*
X240316885Y-87633176D01*
X240272130Y-87741223D01*
X240207157Y-87838462D01*
X240124462Y-87921157D01*
X240027223Y-87986130D01*
X240027218Y-87986132D01*
X240019834Y-87991066D01*
X240000891Y-88006612D01*
X239985346Y-88025554D01*
X239973795Y-88047165D01*
X239966682Y-88070614D01*
X239964280Y-88095000D01*
X239966682Y-88119387D01*
X239973795Y-88142836D01*
X239985346Y-88164446D01*
X240000892Y-88183389D01*
X240019834Y-88198934D01*
X240027218Y-88203868D01*
X240027223Y-88203870D01*
X240124462Y-88268843D01*
X240207157Y-88351538D01*
X240272130Y-88448777D01*
X240316885Y-88556824D01*
X240339700Y-88671526D01*
X240339700Y-88788474D01*
X240316885Y-88903176D01*
X240272130Y-89011223D01*
X240207157Y-89108462D01*
X240124462Y-89191157D01*
X240027223Y-89256130D01*
X240027218Y-89256132D01*
X240019834Y-89261066D01*
X240000891Y-89276612D01*
X239985346Y-89295554D01*
X239973795Y-89317165D01*
X239966682Y-89340614D01*
X239964280Y-89365000D01*
X239966682Y-89389387D01*
X239973795Y-89412836D01*
X239985346Y-89434446D01*
X240000892Y-89453389D01*
X240019834Y-89468934D01*
X240027218Y-89473868D01*
X240027223Y-89473870D01*
X240124462Y-89538843D01*
X240207157Y-89621538D01*
X240272130Y-89718777D01*
X240316885Y-89826824D01*
X240339700Y-89941526D01*
X240339700Y-90058474D01*
X240316885Y-90173176D01*
X240272130Y-90281223D01*
X240207157Y-90378462D01*
X240124462Y-90461157D01*
X240027223Y-90526130D01*
X240027218Y-90526132D01*
X240019834Y-90531066D01*
X240000891Y-90546612D01*
X239985346Y-90565554D01*
X239973795Y-90587165D01*
X239966682Y-90610614D01*
X239964280Y-90635000D01*
X239966682Y-90659387D01*
X239973795Y-90682836D01*
X239985346Y-90704446D01*
X240000892Y-90723389D01*
X240019834Y-90738934D01*
X240027218Y-90743868D01*
X240027223Y-90743870D01*
X240124462Y-90808843D01*
X240207157Y-90891538D01*
X240272130Y-90988777D01*
X240316885Y-91096824D01*
X240339700Y-91211526D01*
X240339700Y-91328474D01*
X240316885Y-91443176D01*
X240272130Y-91551223D01*
X240207157Y-91648462D01*
X240124462Y-91731157D01*
X240027223Y-91796130D01*
X240027218Y-91796132D01*
X240019834Y-91801066D01*
X240000891Y-91816612D01*
X239985346Y-91835554D01*
X239973795Y-91857165D01*
X239966682Y-91880614D01*
X239964280Y-91905000D01*
X239966682Y-91929387D01*
X239973795Y-91952836D01*
X239985346Y-91974446D01*
X240000892Y-91993389D01*
X240019834Y-92008934D01*
X240027218Y-92013868D01*
X240027223Y-92013870D01*
X240124462Y-92078843D01*
X240207157Y-92161538D01*
X240272130Y-92258777D01*
X240316885Y-92366824D01*
X240339700Y-92481526D01*
X240339700Y-92598474D01*
X240316885Y-92713176D01*
X240272130Y-92821223D01*
X240207157Y-92918462D01*
X240124462Y-93001157D01*
X240027223Y-93066130D01*
X239919176Y-93110885D01*
X239804474Y-93133700D01*
X239687526Y-93133700D01*
X239572824Y-93110885D01*
X239464777Y-93066130D01*
X239367538Y-93001157D01*
X239284843Y-92918462D01*
X239219870Y-92821223D01*
X239175115Y-92713176D01*
X239152300Y-92598474D01*
X239152300Y-92481526D01*
X239175115Y-92366824D01*
X239219870Y-92258777D01*
X239284843Y-92161538D01*
X239367538Y-92078843D01*
X239464777Y-92013870D01*
X239464782Y-92013868D01*
X239472166Y-92008934D01*
X239491109Y-91993388D01*
X239506654Y-91974446D01*
X239518205Y-91952835D01*
X239525318Y-91929386D01*
X239527720Y-91905000D01*
X239525318Y-91880613D01*
X239518205Y-91857164D01*
X239506654Y-91835554D01*
X239491108Y-91816611D01*
X239472166Y-91801066D01*
X239464782Y-91796132D01*
X239464777Y-91796130D01*
X239367538Y-91731157D01*
X239284843Y-91648462D01*
X239219870Y-91551223D01*
X239175115Y-91443176D01*
X239152300Y-91328474D01*
X239152300Y-91211526D01*
X239175115Y-91096824D01*
X239219870Y-90988777D01*
X239284843Y-90891538D01*
X239367538Y-90808843D01*
X239464777Y-90743870D01*
X239464782Y-90743868D01*
X239472166Y-90738934D01*
X239491109Y-90723388D01*
X239506654Y-90704446D01*
X239518205Y-90682835D01*
X239525318Y-90659386D01*
X239527720Y-90635000D01*
X239525318Y-90610613D01*
X239518205Y-90587164D01*
X239506654Y-90565554D01*
X239491108Y-90546611D01*
X239472166Y-90531066D01*
X239464782Y-90526132D01*
X239464777Y-90526130D01*
X239367538Y-90461157D01*
X239284843Y-90378462D01*
X239219870Y-90281223D01*
X239175115Y-90173176D01*
X239152300Y-90058474D01*
X239152300Y-89941526D01*
X239175115Y-89826824D01*
X239219870Y-89718777D01*
X239284843Y-89621538D01*
X239367538Y-89538843D01*
X239464777Y-89473870D01*
X239464782Y-89473868D01*
X239472166Y-89468934D01*
X239491109Y-89453388D01*
X239506654Y-89434446D01*
X239518205Y-89412835D01*
X239525318Y-89389386D01*
X239527720Y-89365000D01*
X239525318Y-89340613D01*
X239518205Y-89317164D01*
X239506654Y-89295554D01*
X239491108Y-89276611D01*
X239472166Y-89261066D01*
X239464782Y-89256132D01*
X239464777Y-89256130D01*
X239367538Y-89191157D01*
X239284843Y-89108462D01*
X239219870Y-89011223D01*
X239175115Y-88903176D01*
X239152300Y-88788474D01*
X239152300Y-88671526D01*
X239175115Y-88556824D01*
X239219870Y-88448777D01*
X239284843Y-88351538D01*
X239367538Y-88268843D01*
X239464777Y-88203870D01*
X239464782Y-88203868D01*
X239472166Y-88198934D01*
X239491109Y-88183388D01*
X239506654Y-88164446D01*
X239518205Y-88142835D01*
X239525318Y-88119386D01*
X239527720Y-88095000D01*
X239525318Y-88070613D01*
X239518205Y-88047164D01*
X239506654Y-88025554D01*
X239491108Y-88006611D01*
X239472166Y-87991066D01*
X239464782Y-87986132D01*
X239464777Y-87986130D01*
X239367538Y-87921157D01*
X239284843Y-87838462D01*
X239219870Y-87741223D01*
X239175115Y-87633176D01*
X239152300Y-87518474D01*
X239152300Y-87401526D01*
X239175115Y-87286824D01*
X239219870Y-87178777D01*
X239284843Y-87081538D01*
X239367538Y-86998843D01*
X239464777Y-86933870D01*
X239572824Y-86889115D01*
X239687526Y-86866300D01*
X239804474Y-86866300D01*
X239919176Y-86889115D01*
X239919176Y-86889115D01*
G37*
G36*
X143700000Y-90325000D02*
X142300000Y-90325000D01*
X142300000Y-88675000D01*
X143700000Y-88675000D01*
X143700000Y-90325000D01*
X143700000Y-90325000D01*
G37*
G36*
X141700000Y-90325000D02*
X140300000Y-90325000D01*
X140300000Y-88675000D01*
X141700000Y-88675000D01*
X141700000Y-90325000D01*
X141700000Y-90325000D01*
G37*
G36*
X147325000Y-87200000D02*
X145675000Y-87200000D01*
X145675000Y-85800000D01*
X147325000Y-85800000D01*
X147325000Y-87200000D01*
X147325000Y-87200000D01*
G37*
G36*
X141800000Y-87150000D02*
X140000000Y-87150000D01*
X140000000Y-83850000D01*
X141800000Y-83850000D01*
X141800000Y-87150000D01*
X141800000Y-87150000D01*
G37*
G36*
X144000000Y-87150000D02*
X142200000Y-87150000D01*
X142200000Y-83850000D01*
X144000000Y-83850000D01*
X144000000Y-87150000D01*
X144000000Y-87150000D01*
G37*
G36*
X147325000Y-85200000D02*
X145675000Y-85200000D01*
X145675000Y-83800000D01*
X147325000Y-83800000D01*
X147325000Y-85200000D01*
X147325000Y-85200000D01*
G37*
G36*
X136825000Y-85200000D02*
X135175000Y-85200000D01*
X135175000Y-83800000D01*
X136825000Y-83800000D01*
X136825000Y-85200000D01*
X136825000Y-85200000D01*
G37*
G36*
X136825000Y-83200000D02*
X135175000Y-83200000D01*
X135175000Y-81800000D01*
X136825000Y-81800000D01*
X136825000Y-83200000D01*
X136825000Y-83200000D01*
G37*
G36*
X116500000Y-80850000D02*
X115400000Y-80850000D01*
X115400000Y-79150000D01*
X116500000Y-79150000D01*
X116500000Y-80850000D01*
X116500000Y-80850000D01*
G37*
G36*
X114600000Y-80850000D02*
X113500000Y-80850000D01*
X113500000Y-79150000D01*
X114600000Y-79150000D01*
X114600000Y-80850000D01*
X114600000Y-80850000D01*
G37*
G36*
X151825000Y-79200000D02*
X150175000Y-79200000D01*
X150175000Y-77800000D01*
X151825000Y-77800000D01*
X151825000Y-79200000D01*
X151825000Y-79200000D01*
G37*
G36*
X146475000Y-79150000D02*
X137525000Y-79150000D01*
X137525000Y-77250000D01*
X146475000Y-77250000D01*
X146475000Y-79150000D01*
X146475000Y-79150000D01*
G37*
G36*
X239919176Y-71889115D02*
X240027223Y-71933870D01*
X240124462Y-71998843D01*
X240207157Y-72081538D01*
X240272130Y-72178777D01*
X240316885Y-72286824D01*
X240339700Y-72401526D01*
X240339700Y-72518474D01*
X240316885Y-72633176D01*
X240272130Y-72741223D01*
X240207157Y-72838462D01*
X240124462Y-72921157D01*
X240027223Y-72986130D01*
X240027218Y-72986132D01*
X240019834Y-72991066D01*
X240000891Y-73006612D01*
X239985346Y-73025554D01*
X239973795Y-73047165D01*
X239966682Y-73070614D01*
X239964280Y-73095000D01*
X239966682Y-73119387D01*
X239973795Y-73142836D01*
X239985346Y-73164446D01*
X240000892Y-73183389D01*
X240019834Y-73198934D01*
X240027218Y-73203868D01*
X240027223Y-73203870D01*
X240124462Y-73268843D01*
X240207157Y-73351538D01*
X240272130Y-73448777D01*
X240316885Y-73556824D01*
X240339700Y-73671526D01*
X240339700Y-73788474D01*
X240316885Y-73903176D01*
X240272130Y-74011223D01*
X240207157Y-74108462D01*
X240124462Y-74191157D01*
X240027223Y-74256130D01*
X240027218Y-74256132D01*
X240019834Y-74261066D01*
X240000891Y-74276612D01*
X239985346Y-74295554D01*
X239973795Y-74317165D01*
X239966682Y-74340614D01*
X239964280Y-74365000D01*
X239966682Y-74389387D01*
X239973795Y-74412836D01*
X239985346Y-74434446D01*
X240000892Y-74453389D01*
X240019834Y-74468934D01*
X240027218Y-74473868D01*
X240027223Y-74473870D01*
X240124462Y-74538843D01*
X240207157Y-74621538D01*
X240272130Y-74718777D01*
X240316885Y-74826824D01*
X240339700Y-74941526D01*
X240339700Y-75058474D01*
X240316885Y-75173176D01*
X240272130Y-75281223D01*
X240207157Y-75378462D01*
X240124462Y-75461157D01*
X240027223Y-75526130D01*
X240027218Y-75526132D01*
X240019834Y-75531066D01*
X240000891Y-75546612D01*
X239985346Y-75565554D01*
X239973795Y-75587165D01*
X239966682Y-75610614D01*
X239964280Y-75635000D01*
X239966682Y-75659387D01*
X239973795Y-75682836D01*
X239985346Y-75704446D01*
X240000892Y-75723389D01*
X240019834Y-75738934D01*
X240027218Y-75743868D01*
X240027223Y-75743870D01*
X240124462Y-75808843D01*
X240207157Y-75891538D01*
X240272130Y-75988777D01*
X240316885Y-76096824D01*
X240339700Y-76211526D01*
X240339700Y-76328474D01*
X240316885Y-76443176D01*
X240272130Y-76551223D01*
X240207157Y-76648462D01*
X240124462Y-76731157D01*
X240027223Y-76796130D01*
X240027218Y-76796132D01*
X240019834Y-76801066D01*
X240000891Y-76816612D01*
X239985346Y-76835554D01*
X239973795Y-76857165D01*
X239966682Y-76880614D01*
X239964280Y-76905000D01*
X239966682Y-76929387D01*
X239973795Y-76952836D01*
X239985346Y-76974446D01*
X240000892Y-76993389D01*
X240019834Y-77008934D01*
X240027218Y-77013868D01*
X240027223Y-77013870D01*
X240124462Y-77078843D01*
X240207157Y-77161538D01*
X240272130Y-77258777D01*
X240316885Y-77366824D01*
X240339700Y-77481526D01*
X240339700Y-77598474D01*
X240316885Y-77713176D01*
X240272130Y-77821223D01*
X240207157Y-77918462D01*
X240124462Y-78001157D01*
X240027223Y-78066130D01*
X239919176Y-78110885D01*
X239804474Y-78133700D01*
X239687526Y-78133700D01*
X239572824Y-78110885D01*
X239464777Y-78066130D01*
X239367538Y-78001157D01*
X239284843Y-77918462D01*
X239219870Y-77821223D01*
X239175115Y-77713176D01*
X239152300Y-77598474D01*
X239152300Y-77481526D01*
X239175115Y-77366824D01*
X239219870Y-77258777D01*
X239284843Y-77161538D01*
X239367538Y-77078843D01*
X239464777Y-77013870D01*
X239464782Y-77013868D01*
X239472166Y-77008934D01*
X239491109Y-76993388D01*
X239506654Y-76974446D01*
X239518205Y-76952835D01*
X239525318Y-76929386D01*
X239527720Y-76905000D01*
X239525318Y-76880613D01*
X239518205Y-76857164D01*
X239506654Y-76835554D01*
X239491108Y-76816611D01*
X239472166Y-76801066D01*
X239464782Y-76796132D01*
X239464777Y-76796130D01*
X239367538Y-76731157D01*
X239284843Y-76648462D01*
X239219870Y-76551223D01*
X239175115Y-76443176D01*
X239152300Y-76328474D01*
X239152300Y-76211526D01*
X239175115Y-76096824D01*
X239219870Y-75988777D01*
X239284843Y-75891538D01*
X239367538Y-75808843D01*
X239464777Y-75743870D01*
X239464782Y-75743868D01*
X239472166Y-75738934D01*
X239491109Y-75723388D01*
X239506654Y-75704446D01*
X239518205Y-75682835D01*
X239525318Y-75659386D01*
X239527720Y-75635000D01*
X239525318Y-75610613D01*
X239518205Y-75587164D01*
X239506654Y-75565554D01*
X239491108Y-75546611D01*
X239472166Y-75531066D01*
X239464782Y-75526132D01*
X239464777Y-75526130D01*
X239367538Y-75461157D01*
X239284843Y-75378462D01*
X239219870Y-75281223D01*
X239175115Y-75173176D01*
X239152300Y-75058474D01*
X239152300Y-74941526D01*
X239175115Y-74826824D01*
X239219870Y-74718777D01*
X239284843Y-74621538D01*
X239367538Y-74538843D01*
X239464777Y-74473870D01*
X239464782Y-74473868D01*
X239472166Y-74468934D01*
X239491109Y-74453388D01*
X239506654Y-74434446D01*
X239518205Y-74412835D01*
X239525318Y-74389386D01*
X239527720Y-74365000D01*
X239525318Y-74340613D01*
X239518205Y-74317164D01*
X239506654Y-74295554D01*
X239491108Y-74276611D01*
X239472166Y-74261066D01*
X239464782Y-74256132D01*
X239464777Y-74256130D01*
X239367538Y-74191157D01*
X239284843Y-74108462D01*
X239219870Y-74011223D01*
X239175115Y-73903176D01*
X239152300Y-73788474D01*
X239152300Y-73671526D01*
X239175115Y-73556824D01*
X239219870Y-73448777D01*
X239284843Y-73351538D01*
X239367538Y-73268843D01*
X239464777Y-73203870D01*
X239464782Y-73203868D01*
X239472166Y-73198934D01*
X239491109Y-73183388D01*
X239506654Y-73164446D01*
X239518205Y-73142835D01*
X239525318Y-73119386D01*
X239527720Y-73095000D01*
X239525318Y-73070613D01*
X239518205Y-73047164D01*
X239506654Y-73025554D01*
X239491108Y-73006611D01*
X239472166Y-72991066D01*
X239464782Y-72986132D01*
X239464777Y-72986130D01*
X239367538Y-72921157D01*
X239284843Y-72838462D01*
X239219870Y-72741223D01*
X239175115Y-72633176D01*
X239152300Y-72518474D01*
X239152300Y-72401526D01*
X239175115Y-72286824D01*
X239219870Y-72178777D01*
X239284843Y-72081538D01*
X239367538Y-71998843D01*
X239464777Y-71933870D01*
X239572824Y-71889115D01*
X239687526Y-71866300D01*
X239804474Y-71866300D01*
X239919176Y-71889115D01*
X239919176Y-71889115D01*
G37*
G36*
X113000000Y-77600000D02*
X110800000Y-77600000D01*
X110800000Y-76100000D01*
X113000000Y-76100000D01*
X113000000Y-77600000D01*
X113000000Y-77600000D01*
G37*
G36*
X119200000Y-77600000D02*
X117000000Y-77600000D01*
X117000000Y-76100000D01*
X119200000Y-76100000D01*
X119200000Y-77600000D01*
X119200000Y-77600000D01*
G37*
G36*
X151825000Y-77200000D02*
X150175000Y-77200000D01*
X150175000Y-75800000D01*
X151825000Y-75800000D01*
X151825000Y-77200000D01*
X151825000Y-77200000D01*
G37*
G36*
X148650000Y-76975000D02*
X146750000Y-76975000D01*
X146750000Y-68025000D01*
X148650000Y-68025000D01*
X148650000Y-76975000D01*
X148650000Y-76975000D01*
G37*
G36*
X137250000Y-76975000D02*
X135350000Y-76975000D01*
X135350000Y-68025000D01*
X137250000Y-68025000D01*
X137250000Y-76975000D01*
X137250000Y-76975000D01*
G37*
G36*
X96050000Y-76050000D02*
X93950000Y-76050000D01*
X93950000Y-73950000D01*
X96050000Y-73950000D01*
X96050000Y-76050000D01*
X96050000Y-76050000D01*
G37*
G36*
X113000000Y-73900000D02*
X110800000Y-73900000D01*
X110800000Y-72400000D01*
X113000000Y-72400000D01*
X113000000Y-73900000D01*
X113000000Y-73900000D01*
G37*
G36*
X119200000Y-73900000D02*
X117000000Y-73900000D01*
X117000000Y-72400000D01*
X119200000Y-72400000D01*
X119200000Y-73900000D01*
X119200000Y-73900000D01*
G37*
G36*
X133700000Y-73325000D02*
X132300000Y-73325000D01*
X132300000Y-71675000D01*
X133700000Y-71675000D01*
X133700000Y-73325000D01*
X133700000Y-73325000D01*
G37*
G36*
X131700000Y-73325000D02*
X130300000Y-73325000D01*
X130300000Y-71675000D01*
X131700000Y-71675000D01*
X131700000Y-73325000D01*
X131700000Y-73325000D01*
G37*
G36*
X133825000Y-68700000D02*
X132175000Y-68700000D01*
X132175000Y-67300000D01*
X133825000Y-67300000D01*
X133825000Y-68700000D01*
X133825000Y-68700000D01*
G37*
G36*
X151850000Y-68500000D02*
X150150000Y-68500000D01*
X150150000Y-67400000D01*
X151850000Y-67400000D01*
X151850000Y-68500000D01*
X151850000Y-68500000D01*
G37*
G36*
X146475000Y-67750000D02*
X137525000Y-67750000D01*
X137525000Y-65850000D01*
X146475000Y-65850000D01*
X146475000Y-67750000D01*
X146475000Y-67750000D01*
G37*
G36*
X133825000Y-66700000D02*
X132175000Y-66700000D01*
X132175000Y-65300000D01*
X133825000Y-65300000D01*
X133825000Y-66700000D01*
X133825000Y-66700000D01*
G37*
G36*
X151850000Y-66600000D02*
X150150000Y-66600000D01*
X150150000Y-65500000D01*
X151850000Y-65500000D01*
X151850000Y-66600000D01*
X151850000Y-66600000D01*
G37*
G36*
X121215000Y-66470000D02*
X118785000Y-66470000D01*
X118785000Y-64930000D01*
X121215000Y-64930000D01*
X121215000Y-66470000D01*
X121215000Y-66470000D01*
G37*
G36*
X117350000Y-65500000D02*
X115650000Y-65500000D01*
X115650000Y-64400000D01*
X117350000Y-64400000D01*
X117350000Y-65500000D01*
X117350000Y-65500000D01*
G37*
G36*
X114350000Y-65500000D02*
X112650000Y-65500000D01*
X112650000Y-64400000D01*
X114350000Y-64400000D01*
X114350000Y-65500000D01*
X114350000Y-65500000D01*
G37*
G36*
X146700000Y-64325000D02*
X145300000Y-64325000D01*
X145300000Y-62675000D01*
X146700000Y-62675000D01*
X146700000Y-64325000D01*
X146700000Y-64325000D01*
G37*
G36*
X148700000Y-64325000D02*
X147300000Y-64325000D01*
X147300000Y-62675000D01*
X148700000Y-62675000D01*
X148700000Y-64325000D01*
X148700000Y-64325000D01*
G37*
G36*
X121215000Y-64070000D02*
X118785000Y-64070000D01*
X118785000Y-62530000D01*
X121215000Y-62530000D01*
X121215000Y-64070000D01*
X121215000Y-64070000D01*
G37*
G36*
X114350000Y-63600000D02*
X112650000Y-63600000D01*
X112650000Y-62500000D01*
X114350000Y-62500000D01*
X114350000Y-63600000D01*
X114350000Y-63600000D01*
G37*
G36*
X117350000Y-63600000D02*
X115650000Y-63600000D01*
X115650000Y-62500000D01*
X117350000Y-62500000D01*
X117350000Y-63600000D01*
X117350000Y-63600000D01*
G37*
G36*
X239919176Y-56889115D02*
X240027223Y-56933870D01*
X240124462Y-56998843D01*
X240207157Y-57081538D01*
X240272130Y-57178777D01*
X240316885Y-57286824D01*
X240339700Y-57401526D01*
X240339700Y-57518474D01*
X240316885Y-57633176D01*
X240272130Y-57741223D01*
X240207157Y-57838462D01*
X240124462Y-57921157D01*
X240027223Y-57986130D01*
X240027218Y-57986132D01*
X240019834Y-57991066D01*
X240000891Y-58006612D01*
X239985346Y-58025554D01*
X239973795Y-58047165D01*
X239966682Y-58070614D01*
X239964280Y-58095000D01*
X239966682Y-58119387D01*
X239973795Y-58142836D01*
X239985346Y-58164446D01*
X240000892Y-58183389D01*
X240019834Y-58198934D01*
X240027218Y-58203868D01*
X240027223Y-58203870D01*
X240124462Y-58268843D01*
X240207157Y-58351538D01*
X240272130Y-58448777D01*
X240316885Y-58556824D01*
X240339700Y-58671526D01*
X240339700Y-58788474D01*
X240316885Y-58903176D01*
X240272130Y-59011223D01*
X240207157Y-59108462D01*
X240124462Y-59191157D01*
X240027223Y-59256130D01*
X240027218Y-59256132D01*
X240019834Y-59261066D01*
X240000891Y-59276612D01*
X239985346Y-59295554D01*
X239973795Y-59317165D01*
X239966682Y-59340614D01*
X239964280Y-59365000D01*
X239966682Y-59389387D01*
X239973795Y-59412836D01*
X239985346Y-59434446D01*
X240000892Y-59453389D01*
X240019834Y-59468934D01*
X240027218Y-59473868D01*
X240027223Y-59473870D01*
X240124462Y-59538843D01*
X240207157Y-59621538D01*
X240272130Y-59718777D01*
X240316885Y-59826824D01*
X240339700Y-59941526D01*
X240339700Y-60058474D01*
X240316885Y-60173176D01*
X240272130Y-60281223D01*
X240207157Y-60378462D01*
X240124462Y-60461157D01*
X240027223Y-60526130D01*
X240027218Y-60526132D01*
X240019834Y-60531066D01*
X240000891Y-60546612D01*
X239985346Y-60565554D01*
X239973795Y-60587165D01*
X239966682Y-60610614D01*
X239964280Y-60635000D01*
X239966682Y-60659387D01*
X239973795Y-60682836D01*
X239985346Y-60704446D01*
X240000892Y-60723389D01*
X240019834Y-60738934D01*
X240027218Y-60743868D01*
X240027223Y-60743870D01*
X240124462Y-60808843D01*
X240207157Y-60891538D01*
X240272130Y-60988777D01*
X240316885Y-61096824D01*
X240339700Y-61211526D01*
X240339700Y-61328474D01*
X240316885Y-61443176D01*
X240272130Y-61551223D01*
X240207157Y-61648462D01*
X240124462Y-61731157D01*
X240027223Y-61796130D01*
X240027218Y-61796132D01*
X240019834Y-61801066D01*
X240000891Y-61816612D01*
X239985346Y-61835554D01*
X239973795Y-61857165D01*
X239966682Y-61880614D01*
X239964280Y-61905000D01*
X239966682Y-61929387D01*
X239973795Y-61952836D01*
X239985346Y-61974446D01*
X240000892Y-61993389D01*
X240019834Y-62008934D01*
X240027218Y-62013868D01*
X240027223Y-62013870D01*
X240124462Y-62078843D01*
X240207157Y-62161538D01*
X240272130Y-62258777D01*
X240316885Y-62366824D01*
X240339700Y-62481526D01*
X240339700Y-62598474D01*
X240316885Y-62713176D01*
X240272130Y-62821223D01*
X240207157Y-62918462D01*
X240124462Y-63001157D01*
X240027223Y-63066130D01*
X239919176Y-63110885D01*
X239804474Y-63133700D01*
X239687526Y-63133700D01*
X239572824Y-63110885D01*
X239464777Y-63066130D01*
X239367538Y-63001157D01*
X239284843Y-62918462D01*
X239219870Y-62821223D01*
X239175115Y-62713176D01*
X239152300Y-62598474D01*
X239152300Y-62481526D01*
X239175115Y-62366824D01*
X239219870Y-62258777D01*
X239284843Y-62161538D01*
X239367538Y-62078843D01*
X239464777Y-62013870D01*
X239464782Y-62013868D01*
X239472166Y-62008934D01*
X239491109Y-61993388D01*
X239506654Y-61974446D01*
X239518205Y-61952835D01*
X239525318Y-61929386D01*
X239527720Y-61905000D01*
X239525318Y-61880613D01*
X239518205Y-61857164D01*
X239506654Y-61835554D01*
X239491108Y-61816611D01*
X239472166Y-61801066D01*
X239464782Y-61796132D01*
X239464777Y-61796130D01*
X239367538Y-61731157D01*
X239284843Y-61648462D01*
X239219870Y-61551223D01*
X239175115Y-61443176D01*
X239152300Y-61328474D01*
X239152300Y-61211526D01*
X239175115Y-61096824D01*
X239219870Y-60988777D01*
X239284843Y-60891538D01*
X239367538Y-60808843D01*
X239464777Y-60743870D01*
X239464782Y-60743868D01*
X239472166Y-60738934D01*
X239491109Y-60723388D01*
X239506654Y-60704446D01*
X239518205Y-60682835D01*
X239525318Y-60659386D01*
X239527720Y-60635000D01*
X239525318Y-60610613D01*
X239518205Y-60587164D01*
X239506654Y-60565554D01*
X239491108Y-60546611D01*
X239472166Y-60531066D01*
X239464782Y-60526132D01*
X239464777Y-60526130D01*
X239367538Y-60461157D01*
X239284843Y-60378462D01*
X239219870Y-60281223D01*
X239175115Y-60173176D01*
X239152300Y-60058474D01*
X239152300Y-59941526D01*
X239175115Y-59826824D01*
X239219870Y-59718777D01*
X239284843Y-59621538D01*
X239367538Y-59538843D01*
X239464777Y-59473870D01*
X239464782Y-59473868D01*
X239472166Y-59468934D01*
X239491109Y-59453388D01*
X239506654Y-59434446D01*
X239518205Y-59412835D01*
X239525318Y-59389386D01*
X239527720Y-59365000D01*
X239525318Y-59340613D01*
X239518205Y-59317164D01*
X239506654Y-59295554D01*
X239491108Y-59276611D01*
X239472166Y-59261066D01*
X239464782Y-59256132D01*
X239464777Y-59256130D01*
X239367538Y-59191157D01*
X239284843Y-59108462D01*
X239219870Y-59011223D01*
X239175115Y-58903176D01*
X239152300Y-58788474D01*
X239152300Y-58671526D01*
X239175115Y-58556824D01*
X239219870Y-58448777D01*
X239284843Y-58351538D01*
X239367538Y-58268843D01*
X239464777Y-58203870D01*
X239464782Y-58203868D01*
X239472166Y-58198934D01*
X239491109Y-58183388D01*
X239506654Y-58164446D01*
X239518205Y-58142835D01*
X239525318Y-58119386D01*
X239527720Y-58095000D01*
X239525318Y-58070613D01*
X239518205Y-58047164D01*
X239506654Y-58025554D01*
X239491108Y-58006611D01*
X239472166Y-57991066D01*
X239464782Y-57986132D01*
X239464777Y-57986130D01*
X239367538Y-57921157D01*
X239284843Y-57838462D01*
X239219870Y-57741223D01*
X239175115Y-57633176D01*
X239152300Y-57518474D01*
X239152300Y-57401526D01*
X239175115Y-57286824D01*
X239219870Y-57178777D01*
X239284843Y-57081538D01*
X239367538Y-56998843D01*
X239464777Y-56933870D01*
X239572824Y-56889115D01*
X239687526Y-56866300D01*
X239804474Y-56866300D01*
X239919176Y-56889115D01*
X239919176Y-56889115D01*
G37*
G36*
X119850000Y-61000000D02*
X118150000Y-61000000D01*
X118150000Y-59900000D01*
X119850000Y-59900000D01*
X119850000Y-61000000D01*
X119850000Y-61000000D01*
G37*
G36*
X111850000Y-61000000D02*
X110150000Y-61000000D01*
X110150000Y-59900000D01*
X111850000Y-59900000D01*
X111850000Y-61000000D01*
X111850000Y-61000000D01*
G37*
G36*
X116550000Y-60950000D02*
X115450000Y-60950000D01*
X115450000Y-59950000D01*
X116550000Y-59950000D01*
X116550000Y-60950000D01*
X116550000Y-60950000D01*
G37*
G36*
X114550000Y-60950000D02*
X113450000Y-60950000D01*
X113450000Y-59950000D01*
X114550000Y-59950000D01*
X114550000Y-60950000D01*
X114550000Y-60950000D01*
G37*
G36*
X114550000Y-59450000D02*
X113450000Y-59450000D01*
X113450000Y-58050000D01*
X114550000Y-58050000D01*
X114550000Y-59450000D01*
X114550000Y-59450000D01*
G37*
G36*
X119850000Y-59100000D02*
X118150000Y-59100000D01*
X118150000Y-58000000D01*
X119850000Y-58000000D01*
X119850000Y-59100000D01*
X119850000Y-59100000D01*
G37*
G36*
X111850000Y-59100000D02*
X110150000Y-59100000D01*
X110150000Y-58000000D01*
X111850000Y-58000000D01*
X111850000Y-59100000D01*
X111850000Y-59100000D01*
G37*
G36*
X116550000Y-59050000D02*
X115450000Y-59050000D01*
X115450000Y-58050000D01*
X116550000Y-58050000D01*
X116550000Y-59050000D01*
X116550000Y-59050000D01*
G37*
G36*
X212048707Y-55957597D02*
X212125836Y-55965193D01*
X212257787Y-56005220D01*
X212323763Y-56025233D01*
X212506172Y-56122733D01*
X212666054Y-56253946D01*
X212797267Y-56413828D01*
X212894767Y-56596237D01*
X212894767Y-56596238D01*
X212954807Y-56794164D01*
X212975080Y-57000000D01*
X212954807Y-57205836D01*
X212914780Y-57337787D01*
X212894767Y-57403763D01*
X212797267Y-57586172D01*
X212666054Y-57746054D01*
X212506172Y-57877267D01*
X212323763Y-57974767D01*
X212270031Y-57991066D01*
X212125836Y-58034807D01*
X212048707Y-58042404D01*
X211971580Y-58050000D01*
X211868420Y-58050000D01*
X211791293Y-58042404D01*
X211714164Y-58034807D01*
X211569969Y-57991066D01*
X211516237Y-57974767D01*
X211333828Y-57877267D01*
X211173946Y-57746054D01*
X211042733Y-57586172D01*
X210945233Y-57403763D01*
X210925220Y-57337787D01*
X210885193Y-57205836D01*
X210864920Y-57000000D01*
X210885193Y-56794164D01*
X210945233Y-56596238D01*
X210945233Y-56596237D01*
X211042733Y-56413828D01*
X211173946Y-56253946D01*
X211333828Y-56122733D01*
X211516237Y-56025233D01*
X211582213Y-56005220D01*
X211714164Y-55965193D01*
X211791293Y-55957597D01*
X211868420Y-55950000D01*
X211971580Y-55950000D01*
X212048707Y-55957597D01*
X212048707Y-55957597D01*
G37*
G36*
X199348707Y-55957597D02*
X199425836Y-55965193D01*
X199557787Y-56005220D01*
X199623763Y-56025233D01*
X199806172Y-56122733D01*
X199966054Y-56253946D01*
X200097267Y-56413828D01*
X200194767Y-56596237D01*
X200194767Y-56596238D01*
X200254807Y-56794164D01*
X200275080Y-57000000D01*
X200254807Y-57205836D01*
X200214780Y-57337787D01*
X200194767Y-57403763D01*
X200097267Y-57586172D01*
X199966054Y-57746054D01*
X199806172Y-57877267D01*
X199623763Y-57974767D01*
X199570031Y-57991066D01*
X199425836Y-58034807D01*
X199348707Y-58042404D01*
X199271580Y-58050000D01*
X199168420Y-58050000D01*
X199091293Y-58042404D01*
X199014164Y-58034807D01*
X198869969Y-57991066D01*
X198816237Y-57974767D01*
X198633828Y-57877267D01*
X198473946Y-57746054D01*
X198342733Y-57586172D01*
X198245233Y-57403763D01*
X198225220Y-57337787D01*
X198185193Y-57205836D01*
X198164920Y-57000000D01*
X198185193Y-56794164D01*
X198245233Y-56596238D01*
X198245233Y-56596237D01*
X198342733Y-56413828D01*
X198473946Y-56253946D01*
X198633828Y-56122733D01*
X198816237Y-56025233D01*
X198882213Y-56005220D01*
X199014164Y-55965193D01*
X199091293Y-55957597D01*
X199168420Y-55950000D01*
X199271580Y-55950000D01*
X199348707Y-55957597D01*
X199348707Y-55957597D01*
G37*
G36*
X201888707Y-55957597D02*
X201965836Y-55965193D01*
X202097787Y-56005220D01*
X202163763Y-56025233D01*
X202346172Y-56122733D01*
X202506054Y-56253946D01*
X202637267Y-56413828D01*
X202734767Y-56596237D01*
X202734767Y-56596238D01*
X202794807Y-56794164D01*
X202815080Y-57000000D01*
X202794807Y-57205836D01*
X202754780Y-57337787D01*
X202734767Y-57403763D01*
X202637267Y-57586172D01*
X202506054Y-57746054D01*
X202346172Y-57877267D01*
X202163763Y-57974767D01*
X202110031Y-57991066D01*
X201965836Y-58034807D01*
X201888707Y-58042404D01*
X201811580Y-58050000D01*
X201708420Y-58050000D01*
X201631293Y-58042404D01*
X201554164Y-58034807D01*
X201409969Y-57991066D01*
X201356237Y-57974767D01*
X201173828Y-57877267D01*
X201013946Y-57746054D01*
X200882733Y-57586172D01*
X200785233Y-57403763D01*
X200765220Y-57337787D01*
X200725193Y-57205836D01*
X200704920Y-57000000D01*
X200725193Y-56794164D01*
X200785233Y-56596238D01*
X200785233Y-56596237D01*
X200882733Y-56413828D01*
X201013946Y-56253946D01*
X201173828Y-56122733D01*
X201356237Y-56025233D01*
X201422213Y-56005220D01*
X201554164Y-55965193D01*
X201631293Y-55957597D01*
X201708420Y-55950000D01*
X201811580Y-55950000D01*
X201888707Y-55957597D01*
X201888707Y-55957597D01*
G37*
G36*
X218050000Y-58050000D02*
X215950000Y-58050000D01*
X215950000Y-55950000D01*
X218050000Y-55950000D01*
X218050000Y-58050000D01*
X218050000Y-58050000D01*
G37*
G36*
X204428707Y-55957597D02*
X204505836Y-55965193D01*
X204637787Y-56005220D01*
X204703763Y-56025233D01*
X204886172Y-56122733D01*
X205046054Y-56253946D01*
X205177267Y-56413828D01*
X205274767Y-56596237D01*
X205274767Y-56596238D01*
X205334807Y-56794164D01*
X205355080Y-57000000D01*
X205334807Y-57205836D01*
X205294780Y-57337787D01*
X205274767Y-57403763D01*
X205177267Y-57586172D01*
X205046054Y-57746054D01*
X204886172Y-57877267D01*
X204703763Y-57974767D01*
X204650031Y-57991066D01*
X204505836Y-58034807D01*
X204428707Y-58042404D01*
X204351580Y-58050000D01*
X204248420Y-58050000D01*
X204171293Y-58042404D01*
X204094164Y-58034807D01*
X203949969Y-57991066D01*
X203896237Y-57974767D01*
X203713828Y-57877267D01*
X203553946Y-57746054D01*
X203422733Y-57586172D01*
X203325233Y-57403763D01*
X203305220Y-57337787D01*
X203265193Y-57205836D01*
X203244920Y-57000000D01*
X203265193Y-56794164D01*
X203325233Y-56596238D01*
X203325233Y-56596237D01*
X203422733Y-56413828D01*
X203553946Y-56253946D01*
X203713828Y-56122733D01*
X203896237Y-56025233D01*
X203962213Y-56005220D01*
X204094164Y-55965193D01*
X204171293Y-55957597D01*
X204248420Y-55950000D01*
X204351580Y-55950000D01*
X204428707Y-55957597D01*
X204428707Y-55957597D01*
G37*
G36*
X206968707Y-55957597D02*
X207045836Y-55965193D01*
X207177787Y-56005220D01*
X207243763Y-56025233D01*
X207426172Y-56122733D01*
X207586054Y-56253946D01*
X207717267Y-56413828D01*
X207814767Y-56596237D01*
X207814767Y-56596238D01*
X207874807Y-56794164D01*
X207895080Y-57000000D01*
X207874807Y-57205836D01*
X207834780Y-57337787D01*
X207814767Y-57403763D01*
X207717267Y-57586172D01*
X207586054Y-57746054D01*
X207426172Y-57877267D01*
X207243763Y-57974767D01*
X207190031Y-57991066D01*
X207045836Y-58034807D01*
X206968707Y-58042404D01*
X206891580Y-58050000D01*
X206788420Y-58050000D01*
X206711293Y-58042404D01*
X206634164Y-58034807D01*
X206489969Y-57991066D01*
X206436237Y-57974767D01*
X206253828Y-57877267D01*
X206093946Y-57746054D01*
X205962733Y-57586172D01*
X205865233Y-57403763D01*
X205845220Y-57337787D01*
X205805193Y-57205836D01*
X205784920Y-57000000D01*
X205805193Y-56794164D01*
X205865233Y-56596238D01*
X205865233Y-56596237D01*
X205962733Y-56413828D01*
X206093946Y-56253946D01*
X206253828Y-56122733D01*
X206436237Y-56025233D01*
X206502213Y-56005220D01*
X206634164Y-55965193D01*
X206711293Y-55957597D01*
X206788420Y-55950000D01*
X206891580Y-55950000D01*
X206968707Y-55957597D01*
X206968707Y-55957597D01*
G37*
G36*
X214588707Y-55957597D02*
X214665836Y-55965193D01*
X214797787Y-56005220D01*
X214863763Y-56025233D01*
X215046172Y-56122733D01*
X215206054Y-56253946D01*
X215337267Y-56413828D01*
X215434767Y-56596237D01*
X215434767Y-56596238D01*
X215494807Y-56794164D01*
X215515080Y-57000000D01*
X215494807Y-57205836D01*
X215454780Y-57337787D01*
X215434767Y-57403763D01*
X215337267Y-57586172D01*
X215206054Y-57746054D01*
X215046172Y-57877267D01*
X214863763Y-57974767D01*
X214810031Y-57991066D01*
X214665836Y-58034807D01*
X214588707Y-58042404D01*
X214511580Y-58050000D01*
X214408420Y-58050000D01*
X214331293Y-58042404D01*
X214254164Y-58034807D01*
X214109969Y-57991066D01*
X214056237Y-57974767D01*
X213873828Y-57877267D01*
X213713946Y-57746054D01*
X213582733Y-57586172D01*
X213485233Y-57403763D01*
X213465220Y-57337787D01*
X213425193Y-57205836D01*
X213404920Y-57000000D01*
X213425193Y-56794164D01*
X213485233Y-56596238D01*
X213485233Y-56596237D01*
X213582733Y-56413828D01*
X213713946Y-56253946D01*
X213873828Y-56122733D01*
X214056237Y-56025233D01*
X214122213Y-56005220D01*
X214254164Y-55965193D01*
X214331293Y-55957597D01*
X214408420Y-55950000D01*
X214511580Y-55950000D01*
X214588707Y-55957597D01*
X214588707Y-55957597D01*
G37*
G36*
X209508707Y-55957597D02*
X209585836Y-55965193D01*
X209717787Y-56005220D01*
X209783763Y-56025233D01*
X209966172Y-56122733D01*
X210126054Y-56253946D01*
X210257267Y-56413828D01*
X210354767Y-56596237D01*
X210354767Y-56596238D01*
X210414807Y-56794164D01*
X210435080Y-57000000D01*
X210414807Y-57205836D01*
X210374780Y-57337787D01*
X210354767Y-57403763D01*
X210257267Y-57586172D01*
X210126054Y-57746054D01*
X209966172Y-57877267D01*
X209783763Y-57974767D01*
X209730031Y-57991066D01*
X209585836Y-58034807D01*
X209508707Y-58042404D01*
X209431580Y-58050000D01*
X209328420Y-58050000D01*
X209251293Y-58042404D01*
X209174164Y-58034807D01*
X209029969Y-57991066D01*
X208976237Y-57974767D01*
X208793828Y-57877267D01*
X208633946Y-57746054D01*
X208502733Y-57586172D01*
X208405233Y-57403763D01*
X208385220Y-57337787D01*
X208345193Y-57205836D01*
X208324920Y-57000000D01*
X208345193Y-56794164D01*
X208405233Y-56596238D01*
X208405233Y-56596237D01*
X208502733Y-56413828D01*
X208633946Y-56253946D01*
X208793828Y-56122733D01*
X208976237Y-56025233D01*
X209042213Y-56005220D01*
X209174164Y-55965193D01*
X209251293Y-55957597D01*
X209328420Y-55950000D01*
X209431580Y-55950000D01*
X209508707Y-55957597D01*
X209508707Y-55957597D01*
G37*
G36*
X103568793Y-53124937D02*
X103923670Y-53271932D01*
X104243055Y-53485338D01*
X104514662Y-53756945D01*
X104728068Y-54076330D01*
X104875063Y-54431207D01*
X104950000Y-54807940D01*
X104950000Y-55192060D01*
X104875063Y-55568793D01*
X104728068Y-55923670D01*
X104514662Y-56243055D01*
X104243055Y-56514662D01*
X103923670Y-56728068D01*
X103568793Y-56875063D01*
X103192060Y-56950000D01*
X102807940Y-56950000D01*
X102431207Y-56875063D01*
X102076330Y-56728068D01*
X101756945Y-56514662D01*
X101485338Y-56243055D01*
X101271932Y-55923670D01*
X101124937Y-55568793D01*
X101050000Y-55192060D01*
X101050000Y-54807940D01*
X101124937Y-54431207D01*
X101271932Y-54076330D01*
X101485338Y-53756945D01*
X101756945Y-53485338D01*
X102076330Y-53271932D01*
X102431207Y-53124937D01*
X102807940Y-53050000D01*
X103192060Y-53050000D01*
X103568793Y-53124937D01*
X103568793Y-53124937D01*
G37*
G36*
X127568793Y-53124937D02*
X127923670Y-53271932D01*
X128243055Y-53485338D01*
X128514662Y-53756945D01*
X128728068Y-54076330D01*
X128875063Y-54431207D01*
X128950000Y-54807940D01*
X128950000Y-55192060D01*
X128875063Y-55568793D01*
X128728068Y-55923670D01*
X128514662Y-56243055D01*
X128243055Y-56514662D01*
X127923670Y-56728068D01*
X127568793Y-56875063D01*
X127192060Y-56950000D01*
X126807940Y-56950000D01*
X126431207Y-56875063D01*
X126076330Y-56728068D01*
X125756945Y-56514662D01*
X125485338Y-56243055D01*
X125271932Y-55923670D01*
X125124937Y-55568793D01*
X125050000Y-55192060D01*
X125050000Y-54807940D01*
X125124937Y-54431207D01*
X125271932Y-54076330D01*
X125485338Y-53756945D01*
X125756945Y-53485338D01*
X126076330Y-53271932D01*
X126431207Y-53124937D01*
X126807940Y-53050000D01*
X127192060Y-53050000D01*
X127568793Y-53124937D01*
X127568793Y-53124937D01*
G37*
G36*
X119457224Y-52540128D02*
X119589175Y-52580155D01*
X119710781Y-52645155D01*
X119817370Y-52732630D01*
X119904845Y-52839219D01*
X119969845Y-52960825D01*
X120009872Y-53092776D01*
X120020000Y-53195610D01*
X120020000Y-54364390D01*
X120009872Y-54467224D01*
X119969845Y-54599175D01*
X119904845Y-54720781D01*
X119817369Y-54827370D01*
X119710780Y-54914845D01*
X119589174Y-54979845D01*
X119457223Y-55019872D01*
X119320000Y-55033387D01*
X119182776Y-55019872D01*
X119050825Y-54979845D01*
X118929219Y-54914845D01*
X118929133Y-54914799D01*
X118908926Y-54901297D01*
X118886288Y-54891919D01*
X118862254Y-54887138D01*
X118837750Y-54887138D01*
X118813716Y-54891918D01*
X118791077Y-54901295D01*
X118770702Y-54914908D01*
X118753375Y-54932235D01*
X118739761Y-54952610D01*
X118730383Y-54975248D01*
X118725602Y-54999282D01*
X118725000Y-55011536D01*
X118725000Y-55620000D01*
X111275000Y-55620000D01*
X111275000Y-55011535D01*
X111272598Y-54987149D01*
X111265485Y-54963700D01*
X111253934Y-54942089D01*
X111238388Y-54923147D01*
X111219446Y-54907601D01*
X111197835Y-54896050D01*
X111174386Y-54888937D01*
X111150000Y-54886535D01*
X111125614Y-54888937D01*
X111102165Y-54896050D01*
X111080554Y-54907601D01*
X111070806Y-54914831D01*
X111070780Y-54914845D01*
X110949174Y-54979845D01*
X110817223Y-55019872D01*
X110680000Y-55033387D01*
X110542776Y-55019872D01*
X110410825Y-54979845D01*
X110289219Y-54914845D01*
X110182630Y-54827369D01*
X110095155Y-54720780D01*
X110030155Y-54599174D01*
X109990128Y-54467223D01*
X109980000Y-54364389D01*
X109980000Y-53487932D01*
X111380000Y-53487932D01*
X111380000Y-53645000D01*
X111382402Y-53669386D01*
X111389515Y-53692835D01*
X111401066Y-53714446D01*
X111416612Y-53733388D01*
X111435554Y-53748934D01*
X111457165Y-53760485D01*
X111480614Y-53767598D01*
X111505000Y-53770000D01*
X111592182Y-53770000D01*
X111616568Y-53767598D01*
X111640017Y-53760485D01*
X111661628Y-53748934D01*
X111680570Y-53733388D01*
X111696116Y-53714446D01*
X111707667Y-53692835D01*
X111714780Y-53669386D01*
X111717182Y-53645000D01*
X111714780Y-53620614D01*
X111707667Y-53597165D01*
X111696116Y-53575555D01*
X111644753Y-53498684D01*
X111644751Y-53498681D01*
X111620484Y-53440093D01*
X111608933Y-53418485D01*
X111593388Y-53399543D01*
X111574446Y-53383998D01*
X111552835Y-53372447D01*
X111529386Y-53365334D01*
X111504999Y-53362932D01*
X111480613Y-53365334D01*
X111457164Y-53372447D01*
X111435553Y-53383999D01*
X111416611Y-53399544D01*
X111401066Y-53418486D01*
X111389515Y-53440097D01*
X111382402Y-53463546D01*
X111380000Y-53487932D01*
X109980000Y-53487932D01*
X109980001Y-53195610D01*
X109990129Y-53092776D01*
X110030156Y-52960825D01*
X110095156Y-52839219D01*
X110182631Y-52732630D01*
X110289220Y-52645155D01*
X110410826Y-52580155D01*
X110542777Y-52540128D01*
X110680000Y-52526613D01*
X110817224Y-52540128D01*
X110949175Y-52580155D01*
X111070781Y-52645155D01*
X111177370Y-52732630D01*
X111264845Y-52839219D01*
X111329845Y-52960825D01*
X111368655Y-53088766D01*
X111378027Y-53111389D01*
X111391641Y-53131763D01*
X111408968Y-53149090D01*
X111429342Y-53162704D01*
X111451981Y-53172082D01*
X111476015Y-53176862D01*
X111500519Y-53176862D01*
X111524553Y-53172082D01*
X111547192Y-53162704D01*
X111567566Y-53149090D01*
X111584893Y-53131763D01*
X111603752Y-53100300D01*
X111634846Y-53025233D01*
X111644751Y-53001319D01*
X111702206Y-52915332D01*
X111702208Y-52915329D01*
X111775329Y-52842208D01*
X111779802Y-52839219D01*
X111861319Y-52784751D01*
X111956863Y-52745176D01*
X111956864Y-52745176D01*
X111956866Y-52745175D01*
X112058291Y-52725000D01*
X112161709Y-52725000D01*
X112263134Y-52745175D01*
X112263136Y-52745176D01*
X112263137Y-52745176D01*
X112358681Y-52784751D01*
X112440198Y-52839219D01*
X112444671Y-52842208D01*
X112517792Y-52915329D01*
X112517794Y-52915332D01*
X112575249Y-53001319D01*
X112611464Y-53088751D01*
X112614825Y-53096866D01*
X112635000Y-53198291D01*
X112635000Y-53301709D01*
X112615540Y-53399542D01*
X112614824Y-53403137D01*
X112575249Y-53498681D01*
X112575247Y-53498684D01*
X112523884Y-53575555D01*
X112512333Y-53597166D01*
X112505220Y-53620615D01*
X112502818Y-53645001D01*
X112505220Y-53669387D01*
X112512333Y-53692836D01*
X112523885Y-53714447D01*
X112539430Y-53733389D01*
X112558373Y-53748934D01*
X112579984Y-53760485D01*
X112603433Y-53767598D01*
X112627818Y-53770000D01*
X117372182Y-53770000D01*
X117396568Y-53767598D01*
X117420017Y-53760485D01*
X117441628Y-53748934D01*
X117460570Y-53733388D01*
X117476116Y-53714446D01*
X117487667Y-53692835D01*
X117494780Y-53669386D01*
X117497181Y-53645001D01*
X118282818Y-53645001D01*
X118285220Y-53669387D01*
X118292333Y-53692836D01*
X118303885Y-53714447D01*
X118319430Y-53733389D01*
X118338373Y-53748934D01*
X118359984Y-53760485D01*
X118383433Y-53767598D01*
X118407818Y-53770000D01*
X118495001Y-53770000D01*
X118519387Y-53767598D01*
X118542836Y-53760485D01*
X118564447Y-53748934D01*
X118583389Y-53733388D01*
X118598935Y-53714446D01*
X118610486Y-53692835D01*
X118617599Y-53669386D01*
X118620001Y-53645000D01*
X118620001Y-53487930D01*
X118617599Y-53463544D01*
X118610486Y-53440095D01*
X118598935Y-53418484D01*
X118583389Y-53399542D01*
X118564447Y-53383996D01*
X118542836Y-53372445D01*
X118519387Y-53365332D01*
X118495001Y-53362930D01*
X118470615Y-53365332D01*
X118447166Y-53372445D01*
X118425555Y-53383996D01*
X118406613Y-53399542D01*
X118391067Y-53418484D01*
X118379517Y-53440093D01*
X118355249Y-53498681D01*
X118355247Y-53498684D01*
X118303884Y-53575555D01*
X118292333Y-53597166D01*
X118285220Y-53620615D01*
X118282818Y-53645001D01*
X117497181Y-53645001D01*
X117497182Y-53645000D01*
X117494780Y-53620614D01*
X117487667Y-53597165D01*
X117476116Y-53575555D01*
X117424753Y-53498684D01*
X117424751Y-53498681D01*
X117385176Y-53403137D01*
X117384461Y-53399542D01*
X117365000Y-53301709D01*
X117365000Y-53198291D01*
X117385175Y-53096866D01*
X117388536Y-53088751D01*
X117424751Y-53001319D01*
X117482206Y-52915332D01*
X117482208Y-52915329D01*
X117555329Y-52842208D01*
X117559802Y-52839219D01*
X117641319Y-52784751D01*
X117736863Y-52745176D01*
X117736864Y-52745176D01*
X117736866Y-52745175D01*
X117838291Y-52725000D01*
X117941709Y-52725000D01*
X118043134Y-52745175D01*
X118043136Y-52745176D01*
X118043137Y-52745176D01*
X118138681Y-52784751D01*
X118220198Y-52839219D01*
X118224671Y-52842208D01*
X118297792Y-52915329D01*
X118297794Y-52915332D01*
X118355249Y-53001319D01*
X118365154Y-53025233D01*
X118396249Y-53100302D01*
X118407801Y-53121913D01*
X118423346Y-53140855D01*
X118442289Y-53156400D01*
X118463900Y-53167951D01*
X118487349Y-53175064D01*
X118511735Y-53177466D01*
X118536121Y-53175064D01*
X118559570Y-53167951D01*
X118581181Y-53156399D01*
X118600123Y-53140854D01*
X118615668Y-53121911D01*
X118631346Y-53088763D01*
X118670156Y-52960825D01*
X118735156Y-52839219D01*
X118822631Y-52732630D01*
X118929220Y-52645155D01*
X119050826Y-52580155D01*
X119182777Y-52540128D01*
X119320000Y-52526613D01*
X119457224Y-52540128D01*
X119457224Y-52540128D01*
G37*
G36*
X156828707Y-52957597D02*
X156905836Y-52965193D01*
X157024928Y-53001319D01*
X157103763Y-53025233D01*
X157286172Y-53122733D01*
X157446054Y-53253946D01*
X157577267Y-53413828D01*
X157674767Y-53596237D01*
X157682162Y-53620615D01*
X157734807Y-53794164D01*
X157755080Y-54000000D01*
X157734807Y-54205836D01*
X157694780Y-54337787D01*
X157674767Y-54403763D01*
X157577267Y-54586172D01*
X157446054Y-54746054D01*
X157286172Y-54877267D01*
X157103763Y-54974767D01*
X157062944Y-54987149D01*
X156905836Y-55034807D01*
X156828707Y-55042403D01*
X156751580Y-55050000D01*
X156648420Y-55050000D01*
X156571293Y-55042403D01*
X156494164Y-55034807D01*
X156337056Y-54987149D01*
X156296237Y-54974767D01*
X156113828Y-54877267D01*
X155953946Y-54746054D01*
X155822733Y-54586172D01*
X155725233Y-54403763D01*
X155705220Y-54337787D01*
X155665193Y-54205836D01*
X155644920Y-54000000D01*
X155665193Y-53794164D01*
X155717838Y-53620615D01*
X155725233Y-53596237D01*
X155822733Y-53413828D01*
X155953946Y-53253946D01*
X156113828Y-53122733D01*
X156296237Y-53025233D01*
X156375072Y-53001319D01*
X156494164Y-52965193D01*
X156571293Y-52957597D01*
X156648420Y-52950000D01*
X156751580Y-52950000D01*
X156828707Y-52957597D01*
X156828707Y-52957597D01*
G37*
G36*
X179688707Y-52957597D02*
X179765836Y-52965193D01*
X179884928Y-53001319D01*
X179963763Y-53025233D01*
X180146172Y-53122733D01*
X180306054Y-53253946D01*
X180437267Y-53413828D01*
X180534767Y-53596237D01*
X180542162Y-53620615D01*
X180594807Y-53794164D01*
X180615080Y-54000000D01*
X180594807Y-54205836D01*
X180554780Y-54337787D01*
X180534767Y-54403763D01*
X180437267Y-54586172D01*
X180306054Y-54746054D01*
X180146172Y-54877267D01*
X179963763Y-54974767D01*
X179922944Y-54987149D01*
X179765836Y-55034807D01*
X179688707Y-55042403D01*
X179611580Y-55050000D01*
X179508420Y-55050000D01*
X179431293Y-55042403D01*
X179354164Y-55034807D01*
X179197056Y-54987149D01*
X179156237Y-54974767D01*
X178973828Y-54877267D01*
X178813946Y-54746054D01*
X178682733Y-54586172D01*
X178585233Y-54403763D01*
X178565220Y-54337787D01*
X178525193Y-54205836D01*
X178504920Y-54000000D01*
X178525193Y-53794164D01*
X178577838Y-53620615D01*
X178585233Y-53596237D01*
X178682733Y-53413828D01*
X178813946Y-53253946D01*
X178973828Y-53122733D01*
X179156237Y-53025233D01*
X179235072Y-53001319D01*
X179354164Y-52965193D01*
X179431293Y-52957597D01*
X179508420Y-52950000D01*
X179611580Y-52950000D01*
X179688707Y-52957597D01*
X179688707Y-52957597D01*
G37*
G36*
X182228707Y-52957597D02*
X182305836Y-52965193D01*
X182424928Y-53001319D01*
X182503763Y-53025233D01*
X182686172Y-53122733D01*
X182846054Y-53253946D01*
X182977267Y-53413828D01*
X183074767Y-53596237D01*
X183082162Y-53620615D01*
X183134807Y-53794164D01*
X183155080Y-54000000D01*
X183134807Y-54205836D01*
X183094780Y-54337787D01*
X183074767Y-54403763D01*
X182977267Y-54586172D01*
X182846054Y-54746054D01*
X182686172Y-54877267D01*
X182503763Y-54974767D01*
X182462944Y-54987149D01*
X182305836Y-55034807D01*
X182228707Y-55042403D01*
X182151580Y-55050000D01*
X182048420Y-55050000D01*
X181971293Y-55042403D01*
X181894164Y-55034807D01*
X181737056Y-54987149D01*
X181696237Y-54974767D01*
X181513828Y-54877267D01*
X181353946Y-54746054D01*
X181222733Y-54586172D01*
X181125233Y-54403763D01*
X181105220Y-54337787D01*
X181065193Y-54205836D01*
X181044920Y-54000000D01*
X181065193Y-53794164D01*
X181117838Y-53620615D01*
X181125233Y-53596237D01*
X181222733Y-53413828D01*
X181353946Y-53253946D01*
X181513828Y-53122733D01*
X181696237Y-53025233D01*
X181775072Y-53001319D01*
X181894164Y-52965193D01*
X181971293Y-52957597D01*
X182048420Y-52950000D01*
X182151580Y-52950000D01*
X182228707Y-52957597D01*
X182228707Y-52957597D01*
G37*
G36*
X177148707Y-52957597D02*
X177225836Y-52965193D01*
X177344928Y-53001319D01*
X177423763Y-53025233D01*
X177606172Y-53122733D01*
X177766054Y-53253946D01*
X177897267Y-53413828D01*
X177994767Y-53596237D01*
X178002162Y-53620615D01*
X178054807Y-53794164D01*
X178075080Y-54000000D01*
X178054807Y-54205836D01*
X178014780Y-54337787D01*
X177994767Y-54403763D01*
X177897267Y-54586172D01*
X177766054Y-54746054D01*
X177606172Y-54877267D01*
X177423763Y-54974767D01*
X177382944Y-54987149D01*
X177225836Y-55034807D01*
X177148707Y-55042403D01*
X177071580Y-55050000D01*
X176968420Y-55050000D01*
X176891293Y-55042403D01*
X176814164Y-55034807D01*
X176657056Y-54987149D01*
X176616237Y-54974767D01*
X176433828Y-54877267D01*
X176273946Y-54746054D01*
X176142733Y-54586172D01*
X176045233Y-54403763D01*
X176025220Y-54337787D01*
X175985193Y-54205836D01*
X175964920Y-54000000D01*
X175985193Y-53794164D01*
X176037838Y-53620615D01*
X176045233Y-53596237D01*
X176142733Y-53413828D01*
X176273946Y-53253946D01*
X176433828Y-53122733D01*
X176616237Y-53025233D01*
X176695072Y-53001319D01*
X176814164Y-52965193D01*
X176891293Y-52957597D01*
X176968420Y-52950000D01*
X177071580Y-52950000D01*
X177148707Y-52957597D01*
X177148707Y-52957597D01*
G37*
G36*
X151748707Y-52957597D02*
X151825836Y-52965193D01*
X151944928Y-53001319D01*
X152023763Y-53025233D01*
X152206172Y-53122733D01*
X152366054Y-53253946D01*
X152497267Y-53413828D01*
X152594767Y-53596237D01*
X152602162Y-53620615D01*
X152654807Y-53794164D01*
X152675080Y-54000000D01*
X152654807Y-54205836D01*
X152614780Y-54337787D01*
X152594767Y-54403763D01*
X152497267Y-54586172D01*
X152366054Y-54746054D01*
X152206172Y-54877267D01*
X152023763Y-54974767D01*
X151982944Y-54987149D01*
X151825836Y-55034807D01*
X151748707Y-55042403D01*
X151671580Y-55050000D01*
X151568420Y-55050000D01*
X151491293Y-55042403D01*
X151414164Y-55034807D01*
X151257056Y-54987149D01*
X151216237Y-54974767D01*
X151033828Y-54877267D01*
X150873946Y-54746054D01*
X150742733Y-54586172D01*
X150645233Y-54403763D01*
X150625220Y-54337787D01*
X150585193Y-54205836D01*
X150564920Y-54000000D01*
X150585193Y-53794164D01*
X150637838Y-53620615D01*
X150645233Y-53596237D01*
X150742733Y-53413828D01*
X150873946Y-53253946D01*
X151033828Y-53122733D01*
X151216237Y-53025233D01*
X151295072Y-53001319D01*
X151414164Y-52965193D01*
X151491293Y-52957597D01*
X151568420Y-52950000D01*
X151671580Y-52950000D01*
X151748707Y-52957597D01*
X151748707Y-52957597D01*
G37*
G36*
X161908707Y-52957597D02*
X161985836Y-52965193D01*
X162104928Y-53001319D01*
X162183763Y-53025233D01*
X162366172Y-53122733D01*
X162526054Y-53253946D01*
X162657267Y-53413828D01*
X162754767Y-53596237D01*
X162762162Y-53620615D01*
X162814807Y-53794164D01*
X162835080Y-54000000D01*
X162814807Y-54205836D01*
X162774780Y-54337787D01*
X162754767Y-54403763D01*
X162657267Y-54586172D01*
X162526054Y-54746054D01*
X162366172Y-54877267D01*
X162183763Y-54974767D01*
X162142944Y-54987149D01*
X161985836Y-55034807D01*
X161908707Y-55042403D01*
X161831580Y-55050000D01*
X161728420Y-55050000D01*
X161651293Y-55042403D01*
X161574164Y-55034807D01*
X161417056Y-54987149D01*
X161376237Y-54974767D01*
X161193828Y-54877267D01*
X161033946Y-54746054D01*
X160902733Y-54586172D01*
X160805233Y-54403763D01*
X160785220Y-54337787D01*
X160745193Y-54205836D01*
X160724920Y-54000000D01*
X160745193Y-53794164D01*
X160797838Y-53620615D01*
X160805233Y-53596237D01*
X160902733Y-53413828D01*
X161033946Y-53253946D01*
X161193828Y-53122733D01*
X161376237Y-53025233D01*
X161455072Y-53001319D01*
X161574164Y-52965193D01*
X161651293Y-52957597D01*
X161728420Y-52950000D01*
X161831580Y-52950000D01*
X161908707Y-52957597D01*
X161908707Y-52957597D01*
G37*
G36*
X174608707Y-52957597D02*
X174685836Y-52965193D01*
X174804928Y-53001319D01*
X174883763Y-53025233D01*
X175066172Y-53122733D01*
X175226054Y-53253946D01*
X175357267Y-53413828D01*
X175454767Y-53596237D01*
X175462162Y-53620615D01*
X175514807Y-53794164D01*
X175535080Y-54000000D01*
X175514807Y-54205836D01*
X175474780Y-54337787D01*
X175454767Y-54403763D01*
X175357267Y-54586172D01*
X175226054Y-54746054D01*
X175066172Y-54877267D01*
X174883763Y-54974767D01*
X174842944Y-54987149D01*
X174685836Y-55034807D01*
X174608707Y-55042403D01*
X174531580Y-55050000D01*
X174428420Y-55050000D01*
X174351293Y-55042403D01*
X174274164Y-55034807D01*
X174117056Y-54987149D01*
X174076237Y-54974767D01*
X173893828Y-54877267D01*
X173733946Y-54746054D01*
X173602733Y-54586172D01*
X173505233Y-54403763D01*
X173485220Y-54337787D01*
X173445193Y-54205836D01*
X173424920Y-54000000D01*
X173445193Y-53794164D01*
X173497838Y-53620615D01*
X173505233Y-53596237D01*
X173602733Y-53413828D01*
X173733946Y-53253946D01*
X173893828Y-53122733D01*
X174076237Y-53025233D01*
X174155072Y-53001319D01*
X174274164Y-52965193D01*
X174351293Y-52957597D01*
X174428420Y-52950000D01*
X174531580Y-52950000D01*
X174608707Y-52957597D01*
X174608707Y-52957597D01*
G37*
G36*
X145050000Y-55050000D02*
X142950000Y-55050000D01*
X142950000Y-52950000D01*
X145050000Y-52950000D01*
X145050000Y-55050000D01*
X145050000Y-55050000D01*
G37*
G36*
X146668707Y-52957597D02*
X146745836Y-52965193D01*
X146864928Y-53001319D01*
X146943763Y-53025233D01*
X147126172Y-53122733D01*
X147286054Y-53253946D01*
X147417267Y-53413828D01*
X147514767Y-53596237D01*
X147522162Y-53620615D01*
X147574807Y-53794164D01*
X147595080Y-54000000D01*
X147574807Y-54205836D01*
X147534780Y-54337787D01*
X147514767Y-54403763D01*
X147417267Y-54586172D01*
X147286054Y-54746054D01*
X147126172Y-54877267D01*
X146943763Y-54974767D01*
X146902944Y-54987149D01*
X146745836Y-55034807D01*
X146668707Y-55042403D01*
X146591580Y-55050000D01*
X146488420Y-55050000D01*
X146411293Y-55042403D01*
X146334164Y-55034807D01*
X146177056Y-54987149D01*
X146136237Y-54974767D01*
X145953828Y-54877267D01*
X145793946Y-54746054D01*
X145662733Y-54586172D01*
X145565233Y-54403763D01*
X145545220Y-54337787D01*
X145505193Y-54205836D01*
X145484920Y-54000000D01*
X145505193Y-53794164D01*
X145557838Y-53620615D01*
X145565233Y-53596237D01*
X145662733Y-53413828D01*
X145793946Y-53253946D01*
X145953828Y-53122733D01*
X146136237Y-53025233D01*
X146215072Y-53001319D01*
X146334164Y-52965193D01*
X146411293Y-52957597D01*
X146488420Y-52950000D01*
X146591580Y-52950000D01*
X146668707Y-52957597D01*
X146668707Y-52957597D01*
G37*
G36*
X149208707Y-52957597D02*
X149285836Y-52965193D01*
X149404928Y-53001319D01*
X149483763Y-53025233D01*
X149666172Y-53122733D01*
X149826054Y-53253946D01*
X149957267Y-53413828D01*
X150054767Y-53596237D01*
X150062162Y-53620615D01*
X150114807Y-53794164D01*
X150135080Y-54000000D01*
X150114807Y-54205836D01*
X150074780Y-54337787D01*
X150054767Y-54403763D01*
X149957267Y-54586172D01*
X149826054Y-54746054D01*
X149666172Y-54877267D01*
X149483763Y-54974767D01*
X149442944Y-54987149D01*
X149285836Y-55034807D01*
X149208707Y-55042403D01*
X149131580Y-55050000D01*
X149028420Y-55050000D01*
X148951293Y-55042403D01*
X148874164Y-55034807D01*
X148717056Y-54987149D01*
X148676237Y-54974767D01*
X148493828Y-54877267D01*
X148333946Y-54746054D01*
X148202733Y-54586172D01*
X148105233Y-54403763D01*
X148085220Y-54337787D01*
X148045193Y-54205836D01*
X148024920Y-54000000D01*
X148045193Y-53794164D01*
X148097838Y-53620615D01*
X148105233Y-53596237D01*
X148202733Y-53413828D01*
X148333946Y-53253946D01*
X148493828Y-53122733D01*
X148676237Y-53025233D01*
X148755072Y-53001319D01*
X148874164Y-52965193D01*
X148951293Y-52957597D01*
X149028420Y-52950000D01*
X149131580Y-52950000D01*
X149208707Y-52957597D01*
X149208707Y-52957597D01*
G37*
G36*
X154288707Y-52957597D02*
X154365836Y-52965193D01*
X154484928Y-53001319D01*
X154563763Y-53025233D01*
X154746172Y-53122733D01*
X154906054Y-53253946D01*
X155037267Y-53413828D01*
X155134767Y-53596237D01*
X155142162Y-53620615D01*
X155194807Y-53794164D01*
X155215080Y-54000000D01*
X155194807Y-54205836D01*
X155154780Y-54337787D01*
X155134767Y-54403763D01*
X155037267Y-54586172D01*
X154906054Y-54746054D01*
X154746172Y-54877267D01*
X154563763Y-54974767D01*
X154522944Y-54987149D01*
X154365836Y-55034807D01*
X154288707Y-55042403D01*
X154211580Y-55050000D01*
X154108420Y-55050000D01*
X154031293Y-55042403D01*
X153954164Y-55034807D01*
X153797056Y-54987149D01*
X153756237Y-54974767D01*
X153573828Y-54877267D01*
X153413946Y-54746054D01*
X153282733Y-54586172D01*
X153185233Y-54403763D01*
X153165220Y-54337787D01*
X153125193Y-54205836D01*
X153104920Y-54000000D01*
X153125193Y-53794164D01*
X153177838Y-53620615D01*
X153185233Y-53596237D01*
X153282733Y-53413828D01*
X153413946Y-53253946D01*
X153573828Y-53122733D01*
X153756237Y-53025233D01*
X153835072Y-53001319D01*
X153954164Y-52965193D01*
X154031293Y-52957597D01*
X154108420Y-52950000D01*
X154211580Y-52950000D01*
X154288707Y-52957597D01*
X154288707Y-52957597D01*
G37*
G36*
X159368707Y-52957597D02*
X159445836Y-52965193D01*
X159564928Y-53001319D01*
X159643763Y-53025233D01*
X159826172Y-53122733D01*
X159986054Y-53253946D01*
X160117267Y-53413828D01*
X160214767Y-53596237D01*
X160222162Y-53620615D01*
X160274807Y-53794164D01*
X160295080Y-54000000D01*
X160274807Y-54205836D01*
X160234780Y-54337787D01*
X160214767Y-54403763D01*
X160117267Y-54586172D01*
X159986054Y-54746054D01*
X159826172Y-54877267D01*
X159643763Y-54974767D01*
X159602944Y-54987149D01*
X159445836Y-55034807D01*
X159368707Y-55042403D01*
X159291580Y-55050000D01*
X159188420Y-55050000D01*
X159111293Y-55042403D01*
X159034164Y-55034807D01*
X158877056Y-54987149D01*
X158836237Y-54974767D01*
X158653828Y-54877267D01*
X158493946Y-54746054D01*
X158362733Y-54586172D01*
X158265233Y-54403763D01*
X158245220Y-54337787D01*
X158205193Y-54205836D01*
X158184920Y-54000000D01*
X158205193Y-53794164D01*
X158257838Y-53620615D01*
X158265233Y-53596237D01*
X158362733Y-53413828D01*
X158493946Y-53253946D01*
X158653828Y-53122733D01*
X158836237Y-53025233D01*
X158915072Y-53001319D01*
X159034164Y-52965193D01*
X159111293Y-52957597D01*
X159188420Y-52950000D01*
X159291580Y-52950000D01*
X159368707Y-52957597D01*
X159368707Y-52957597D01*
G37*
G36*
X164448707Y-52957597D02*
X164525836Y-52965193D01*
X164644928Y-53001319D01*
X164723763Y-53025233D01*
X164906172Y-53122733D01*
X165066054Y-53253946D01*
X165197267Y-53413828D01*
X165294767Y-53596237D01*
X165302162Y-53620615D01*
X165354807Y-53794164D01*
X165375080Y-54000000D01*
X165354807Y-54205836D01*
X165314780Y-54337787D01*
X165294767Y-54403763D01*
X165197267Y-54586172D01*
X165066054Y-54746054D01*
X164906172Y-54877267D01*
X164723763Y-54974767D01*
X164682944Y-54987149D01*
X164525836Y-55034807D01*
X164448707Y-55042403D01*
X164371580Y-55050000D01*
X164268420Y-55050000D01*
X164191293Y-55042403D01*
X164114164Y-55034807D01*
X163957056Y-54987149D01*
X163916237Y-54974767D01*
X163733828Y-54877267D01*
X163573946Y-54746054D01*
X163442733Y-54586172D01*
X163345233Y-54403763D01*
X163325220Y-54337787D01*
X163285193Y-54205836D01*
X163264920Y-54000000D01*
X163285193Y-53794164D01*
X163337838Y-53620615D01*
X163345233Y-53596237D01*
X163442733Y-53413828D01*
X163573946Y-53253946D01*
X163733828Y-53122733D01*
X163916237Y-53025233D01*
X163995072Y-53001319D01*
X164114164Y-52965193D01*
X164191293Y-52957597D01*
X164268420Y-52950000D01*
X164371580Y-52950000D01*
X164448707Y-52957597D01*
X164448707Y-52957597D01*
G37*
G36*
X166988707Y-52957597D02*
X167065836Y-52965193D01*
X167184928Y-53001319D01*
X167263763Y-53025233D01*
X167446172Y-53122733D01*
X167606054Y-53253946D01*
X167737267Y-53413828D01*
X167834767Y-53596237D01*
X167842162Y-53620615D01*
X167894807Y-53794164D01*
X167915080Y-54000000D01*
X167894807Y-54205836D01*
X167854780Y-54337787D01*
X167834767Y-54403763D01*
X167737267Y-54586172D01*
X167606054Y-54746054D01*
X167446172Y-54877267D01*
X167263763Y-54974767D01*
X167222944Y-54987149D01*
X167065836Y-55034807D01*
X166988707Y-55042403D01*
X166911580Y-55050000D01*
X166808420Y-55050000D01*
X166731293Y-55042403D01*
X166654164Y-55034807D01*
X166497056Y-54987149D01*
X166456237Y-54974767D01*
X166273828Y-54877267D01*
X166113946Y-54746054D01*
X165982733Y-54586172D01*
X165885233Y-54403763D01*
X165865220Y-54337787D01*
X165825193Y-54205836D01*
X165804920Y-54000000D01*
X165825193Y-53794164D01*
X165877838Y-53620615D01*
X165885233Y-53596237D01*
X165982733Y-53413828D01*
X166113946Y-53253946D01*
X166273828Y-53122733D01*
X166456237Y-53025233D01*
X166535072Y-53001319D01*
X166654164Y-52965193D01*
X166731293Y-52957597D01*
X166808420Y-52950000D01*
X166911580Y-52950000D01*
X166988707Y-52957597D01*
X166988707Y-52957597D01*
G37*
G36*
X169528707Y-52957597D02*
X169605836Y-52965193D01*
X169724928Y-53001319D01*
X169803763Y-53025233D01*
X169986172Y-53122733D01*
X170146054Y-53253946D01*
X170277267Y-53413828D01*
X170374767Y-53596237D01*
X170382162Y-53620615D01*
X170434807Y-53794164D01*
X170455080Y-54000000D01*
X170434807Y-54205836D01*
X170394780Y-54337787D01*
X170374767Y-54403763D01*
X170277267Y-54586172D01*
X170146054Y-54746054D01*
X169986172Y-54877267D01*
X169803763Y-54974767D01*
X169762944Y-54987149D01*
X169605836Y-55034807D01*
X169528707Y-55042403D01*
X169451580Y-55050000D01*
X169348420Y-55050000D01*
X169271293Y-55042403D01*
X169194164Y-55034807D01*
X169037056Y-54987149D01*
X168996237Y-54974767D01*
X168813828Y-54877267D01*
X168653946Y-54746054D01*
X168522733Y-54586172D01*
X168425233Y-54403763D01*
X168405220Y-54337787D01*
X168365193Y-54205836D01*
X168344920Y-54000000D01*
X168365193Y-53794164D01*
X168417838Y-53620615D01*
X168425233Y-53596237D01*
X168522733Y-53413828D01*
X168653946Y-53253946D01*
X168813828Y-53122733D01*
X168996237Y-53025233D01*
X169075072Y-53001319D01*
X169194164Y-52965193D01*
X169271293Y-52957597D01*
X169348420Y-52950000D01*
X169451580Y-52950000D01*
X169528707Y-52957597D01*
X169528707Y-52957597D01*
G37*
G36*
X172068707Y-52957597D02*
X172145836Y-52965193D01*
X172264928Y-53001319D01*
X172343763Y-53025233D01*
X172526172Y-53122733D01*
X172686054Y-53253946D01*
X172817267Y-53413828D01*
X172914767Y-53596237D01*
X172922162Y-53620615D01*
X172974807Y-53794164D01*
X172995080Y-54000000D01*
X172974807Y-54205836D01*
X172934780Y-54337787D01*
X172914767Y-54403763D01*
X172817267Y-54586172D01*
X172686054Y-54746054D01*
X172526172Y-54877267D01*
X172343763Y-54974767D01*
X172302944Y-54987149D01*
X172145836Y-55034807D01*
X172068707Y-55042403D01*
X171991580Y-55050000D01*
X171888420Y-55050000D01*
X171811293Y-55042403D01*
X171734164Y-55034807D01*
X171577056Y-54987149D01*
X171536237Y-54974767D01*
X171353828Y-54877267D01*
X171193946Y-54746054D01*
X171062733Y-54586172D01*
X170965233Y-54403763D01*
X170945220Y-54337787D01*
X170905193Y-54205836D01*
X170884920Y-54000000D01*
X170905193Y-53794164D01*
X170957838Y-53620615D01*
X170965233Y-53596237D01*
X171062733Y-53413828D01*
X171193946Y-53253946D01*
X171353828Y-53122733D01*
X171536237Y-53025233D01*
X171615072Y-53001319D01*
X171734164Y-52965193D01*
X171811293Y-52957597D01*
X171888420Y-52950000D01*
X171991580Y-52950000D01*
X172068707Y-52957597D01*
X172068707Y-52957597D01*
G37*
G36*
X110817224Y-48610128D02*
X110949175Y-48650155D01*
X111070781Y-48715155D01*
X111177370Y-48802630D01*
X111264845Y-48909219D01*
X111329845Y-49030825D01*
X111369872Y-49162776D01*
X111380000Y-49265610D01*
X111380000Y-49934390D01*
X111369872Y-50037224D01*
X111329845Y-50169175D01*
X111264845Y-50290781D01*
X111177369Y-50397370D01*
X111070780Y-50484845D01*
X110949174Y-50549845D01*
X110817223Y-50589872D01*
X110680000Y-50603387D01*
X110542776Y-50589872D01*
X110410825Y-50549845D01*
X110289219Y-50484845D01*
X110182630Y-50397369D01*
X110095155Y-50290780D01*
X110030155Y-50169174D01*
X109990128Y-50037223D01*
X109980000Y-49934389D01*
X109980000Y-49265610D01*
X109990128Y-49162776D01*
X110030155Y-49030825D01*
X110095156Y-48909219D01*
X110182631Y-48802630D01*
X110289220Y-48715155D01*
X110410826Y-48650155D01*
X110542777Y-48610128D01*
X110680000Y-48596613D01*
X110817224Y-48610128D01*
X110817224Y-48610128D01*
G37*
G36*
X119457224Y-48610128D02*
X119589175Y-48650155D01*
X119710781Y-48715155D01*
X119817370Y-48802630D01*
X119904845Y-48909219D01*
X119969845Y-49030825D01*
X120009872Y-49162776D01*
X120020000Y-49265610D01*
X120020000Y-49934390D01*
X120009872Y-50037224D01*
X119969845Y-50169175D01*
X119904845Y-50290781D01*
X119817369Y-50397370D01*
X119710780Y-50484845D01*
X119589174Y-50549845D01*
X119457223Y-50589872D01*
X119320000Y-50603387D01*
X119182776Y-50589872D01*
X119050825Y-50549845D01*
X118929219Y-50484845D01*
X118822630Y-50397369D01*
X118735155Y-50290780D01*
X118670155Y-50169174D01*
X118630128Y-50037223D01*
X118620000Y-49934389D01*
X118620000Y-49265610D01*
X118630128Y-49162776D01*
X118670155Y-49030825D01*
X118735156Y-48909219D01*
X118822631Y-48802630D01*
X118929220Y-48715155D01*
X119050826Y-48650155D01*
X119182777Y-48610128D01*
X119320000Y-48596613D01*
X119457224Y-48610128D01*
X119457224Y-48610128D01*
G37*
M02*
