G04 #@! TF.GenerationSoftware,KiCad,Pcbnew,(5.1.2)-1*
G04 #@! TF.CreationDate,2019-05-27T01:30:26-07:00*
G04 #@! TF.ProjectId,ssk-controller,73736b2d-636f-46e7-9472-6f6c6c65722e,rev?*
G04 #@! TF.SameCoordinates,Original*
G04 #@! TF.FileFunction,Copper,L1,Top*
G04 #@! TF.FilePolarity,Positive*
%FSLAX46Y46*%
G04 Gerber Fmt 4.6, Leading zero omitted, Abs format (unit mm)*
G04 Created by KiCad (PCBNEW (5.1.2)-1) date 2019-05-27 01:30:26*
%MOMM*%
%LPD*%
G04 APERTURE LIST*
%ADD10C,0.010000*%
%ADD11C,3.500000*%
%ADD12C,1.600000*%
%ADD13R,1.140000X2.030000*%
%ADD14O,1.700000X1.700000*%
%ADD15R,1.700000X1.700000*%
%ADD16R,0.700000X1.300000*%
%ADD17R,1.300000X0.700000*%
%ADD18R,1.800000X1.100000*%
%ADD19R,0.700000X0.600000*%
%ADD20R,0.700000X1.000000*%
%ADD21R,1.400000X1.200000*%
%ADD22R,0.550000X1.500000*%
%ADD23R,1.500000X0.550000*%
%ADD24R,1.250000X1.000000*%
%ADD25R,1.000000X1.250000*%
%ADD26C,0.600000*%
%ADD27C,0.254000*%
%ADD28C,0.381000*%
%ADD29C,0.203200*%
G04 APERTURE END LIST*
D10*
G36*
X254190500Y-93420500D02*
G01*
X253785688Y-93420500D01*
X253785688Y-93015688D01*
X254190500Y-93015688D01*
X254190500Y-93420500D01*
X254190500Y-93420500D01*
G37*
X254190500Y-93420500D02*
X253785688Y-93420500D01*
X253785688Y-93015688D01*
X254190500Y-93015688D01*
X254190500Y-93420500D01*
G36*
X254595313Y-94206313D02*
G01*
X254190500Y-94206313D01*
X254190500Y-93825313D01*
X254595313Y-93825313D01*
X254595313Y-94206313D01*
X254595313Y-94206313D01*
G37*
X254595313Y-94206313D02*
X254190500Y-94206313D01*
X254190500Y-93825313D01*
X254595313Y-93825313D01*
X254595313Y-94206313D01*
G36*
X253785688Y-94206313D02*
G01*
X253404688Y-94206313D01*
X253404688Y-93825313D01*
X253785688Y-93825313D01*
X253785688Y-94206313D01*
X253785688Y-94206313D01*
G37*
X253785688Y-94206313D02*
X253404688Y-94206313D01*
X253404688Y-93825313D01*
X253785688Y-93825313D01*
X253785688Y-94206313D01*
G36*
X254976313Y-95015938D02*
G01*
X254595313Y-95015938D01*
X254595313Y-94611125D01*
X254976313Y-94611125D01*
X254976313Y-95015938D01*
X254976313Y-95015938D01*
G37*
X254976313Y-95015938D02*
X254595313Y-95015938D01*
X254595313Y-94611125D01*
X254976313Y-94611125D01*
X254976313Y-95015938D01*
G36*
X254190500Y-95015938D02*
G01*
X253785688Y-95015938D01*
X253785688Y-94611125D01*
X254190500Y-94611125D01*
X254190500Y-95015938D01*
X254190500Y-95015938D01*
G37*
X254190500Y-95015938D02*
X253785688Y-95015938D01*
X253785688Y-94611125D01*
X254190500Y-94611125D01*
X254190500Y-95015938D01*
G36*
X253404688Y-95015938D02*
G01*
X252999875Y-95015938D01*
X252999875Y-94611125D01*
X253404688Y-94611125D01*
X253404688Y-95015938D01*
X253404688Y-95015938D01*
G37*
X253404688Y-95015938D02*
X252999875Y-95015938D01*
X252999875Y-94611125D01*
X253404688Y-94611125D01*
X253404688Y-95015938D01*
G36*
X255381125Y-95801750D02*
G01*
X254976313Y-95801750D01*
X254976313Y-95396938D01*
X255381125Y-95396938D01*
X255381125Y-95801750D01*
X255381125Y-95801750D01*
G37*
X255381125Y-95801750D02*
X254976313Y-95801750D01*
X254976313Y-95396938D01*
X255381125Y-95396938D01*
X255381125Y-95801750D01*
G36*
X252999875Y-95801750D02*
G01*
X252595063Y-95801750D01*
X252595063Y-95396938D01*
X252999875Y-95396938D01*
X252999875Y-95801750D01*
X252999875Y-95801750D01*
G37*
X252999875Y-95801750D02*
X252595063Y-95801750D01*
X252595063Y-95396938D01*
X252999875Y-95396938D01*
X252999875Y-95801750D01*
G36*
X254003969Y-91528045D02*
G01*
X254128087Y-91529415D01*
X254239799Y-91533572D01*
X254342392Y-91540919D01*
X254439156Y-91551860D01*
X254533378Y-91566798D01*
X254628347Y-91586137D01*
X254727351Y-91610281D01*
X254772630Y-91622418D01*
X254981177Y-91687656D01*
X255183265Y-91766992D01*
X255378128Y-91860028D01*
X255564999Y-91966368D01*
X255743114Y-92085616D01*
X255895260Y-92203617D01*
X256052928Y-92344342D01*
X256200265Y-92495787D01*
X256336586Y-92656885D01*
X256461208Y-92826567D01*
X256573447Y-93003766D01*
X256672620Y-93187416D01*
X256758042Y-93376447D01*
X256829030Y-93569793D01*
X256877784Y-93737803D01*
X256910855Y-93877789D01*
X256936215Y-94009725D01*
X256954607Y-94138997D01*
X256966775Y-94270993D01*
X256973461Y-94411100D01*
X256974114Y-94436500D01*
X256971395Y-94654797D01*
X256953200Y-94869580D01*
X256919535Y-95080821D01*
X256870406Y-95288489D01*
X256805819Y-95492555D01*
X256741622Y-95656487D01*
X256713539Y-95721752D01*
X256689477Y-95775910D01*
X256667608Y-95822613D01*
X256646107Y-95865513D01*
X256623146Y-95908263D01*
X256596900Y-95954515D01*
X256567775Y-96004156D01*
X256448556Y-96190427D01*
X256318452Y-96365153D01*
X256177329Y-96528465D01*
X256025055Y-96680496D01*
X255861497Y-96821380D01*
X255686524Y-96951248D01*
X255504156Y-97067775D01*
X255451327Y-97098744D01*
X255405414Y-97124721D01*
X255362765Y-97147531D01*
X255319728Y-97169001D01*
X255272651Y-97190957D01*
X255217881Y-97215225D01*
X255156487Y-97241622D01*
X255060254Y-97281169D01*
X254971536Y-97314208D01*
X254884422Y-97342695D01*
X254792998Y-97368589D01*
X254710406Y-97389322D01*
X254545890Y-97424876D01*
X254388795Y-97450553D01*
X254234567Y-97466893D01*
X254078649Y-97474436D01*
X253988094Y-97475013D01*
X253936875Y-97474498D01*
X253888754Y-97473793D01*
X253846874Y-97472960D01*
X253814378Y-97472063D01*
X253794410Y-97471165D01*
X253793625Y-97471109D01*
X253577451Y-97447157D01*
X253364694Y-97408170D01*
X253156213Y-97354467D01*
X252952868Y-97286363D01*
X252755516Y-97204176D01*
X252565018Y-97108225D01*
X252382232Y-96998826D01*
X252231276Y-96893796D01*
X252058349Y-96755449D01*
X251897665Y-96607088D01*
X251749451Y-96449039D01*
X251613929Y-96281632D01*
X251491324Y-96105194D01*
X251381861Y-95920052D01*
X251285763Y-95726535D01*
X251203256Y-95524971D01*
X251134563Y-95315688D01*
X251122418Y-95272630D01*
X251096052Y-95170835D01*
X251074667Y-95074511D01*
X251057859Y-94980367D01*
X251045225Y-94885117D01*
X251036360Y-94785470D01*
X251030862Y-94678140D01*
X251028326Y-94559836D01*
X251028045Y-94503969D01*
X251028720Y-94448608D01*
X251560794Y-94448608D01*
X251560897Y-94528746D01*
X251562563Y-94608410D01*
X251565759Y-94683537D01*
X251570456Y-94750060D01*
X251574176Y-94785750D01*
X251606050Y-94983048D01*
X251652701Y-95174663D01*
X251713951Y-95360222D01*
X251789619Y-95539349D01*
X251879527Y-95711669D01*
X251983494Y-95876809D01*
X252101341Y-96034393D01*
X252232888Y-96184047D01*
X252255224Y-96207260D01*
X252389458Y-96334334D01*
X252535160Y-96452270D01*
X252689631Y-96559090D01*
X252850169Y-96652816D01*
X252895958Y-96676504D01*
X252970366Y-96713153D01*
X253035607Y-96743372D01*
X253096104Y-96768940D01*
X253156278Y-96791634D01*
X253220551Y-96813233D01*
X253285625Y-96833227D01*
X253474838Y-96882640D01*
X253660589Y-96917091D01*
X253844327Y-96936714D01*
X254027503Y-96941642D01*
X254211564Y-96932011D01*
X254278106Y-96925031D01*
X254465438Y-96896087D01*
X254645019Y-96854278D01*
X254819357Y-96798854D01*
X254990959Y-96729064D01*
X255087916Y-96682866D01*
X255258548Y-96589447D01*
X255417964Y-96485712D01*
X255566922Y-96370974D01*
X255706179Y-96244550D01*
X255836494Y-96105754D01*
X255958624Y-95953903D01*
X256066892Y-95798259D01*
X256092018Y-95757068D01*
X256121341Y-95704940D01*
X256153041Y-95645496D01*
X256185299Y-95582356D01*
X256216293Y-95519140D01*
X256244206Y-95459467D01*
X256267215Y-95406957D01*
X256280653Y-95373125D01*
X256343520Y-95181584D01*
X256390916Y-94988845D01*
X256422800Y-94795450D01*
X256439130Y-94601940D01*
X256439868Y-94408857D01*
X256424972Y-94216742D01*
X256394402Y-94026136D01*
X256384599Y-93980094D01*
X256350950Y-93843801D01*
X256312642Y-93717618D01*
X256267704Y-93596007D01*
X256214163Y-93473432D01*
X256176504Y-93395958D01*
X256082799Y-93227110D01*
X255975974Y-93066673D01*
X255856798Y-92915368D01*
X255726037Y-92773914D01*
X255584460Y-92643031D01*
X255432834Y-92523440D01*
X255271927Y-92415860D01*
X255102507Y-92321011D01*
X254958325Y-92253480D01*
X254786697Y-92187085D01*
X254614143Y-92135087D01*
X254438656Y-92097078D01*
X254258226Y-92072651D01*
X254070845Y-92061397D01*
X254007938Y-92060507D01*
X253809843Y-92066877D01*
X253618215Y-92087522D01*
X253432281Y-92122673D01*
X253251265Y-92172567D01*
X253074394Y-92237435D01*
X252900894Y-92317513D01*
X252729991Y-92413035D01*
X252629294Y-92477244D01*
X252489861Y-92578772D01*
X252355663Y-92693278D01*
X252228341Y-92818839D01*
X252109535Y-92953531D01*
X252000886Y-93095431D01*
X251904035Y-93242615D01*
X251820622Y-93393161D01*
X251785826Y-93466080D01*
X251724423Y-93610939D01*
X251674192Y-93750178D01*
X251633935Y-93888126D01*
X251602456Y-94029114D01*
X251578556Y-94177471D01*
X251570155Y-94246000D01*
X251565392Y-94303170D01*
X251562282Y-94372061D01*
X251560794Y-94448608D01*
X251028720Y-94448608D01*
X251029790Y-94360973D01*
X251035664Y-94230106D01*
X251046238Y-94108025D01*
X251062085Y-93991385D01*
X251083777Y-93876844D01*
X251111887Y-93761059D01*
X251146986Y-93640687D01*
X251189647Y-93512384D01*
X251205341Y-93468125D01*
X251283726Y-93273406D01*
X251376566Y-93085072D01*
X251483672Y-92903385D01*
X251604852Y-92728608D01*
X251739917Y-92561003D01*
X251888674Y-92400833D01*
X252050933Y-92248360D01*
X252157771Y-92158179D01*
X252243600Y-92092686D01*
X252341139Y-92025360D01*
X252446748Y-91958412D01*
X252556786Y-91894055D01*
X252667613Y-91834500D01*
X252775589Y-91781958D01*
X252781594Y-91779215D01*
X252851554Y-91749342D01*
X252932735Y-91717956D01*
X253020767Y-91686536D01*
X253111279Y-91656562D01*
X253199901Y-91629511D01*
X253282264Y-91606864D01*
X253314150Y-91598971D01*
X253407375Y-91578203D01*
X253496349Y-91561543D01*
X253584353Y-91548652D01*
X253674669Y-91539195D01*
X253770578Y-91532832D01*
X253875360Y-91529228D01*
X253992295Y-91528044D01*
X254003969Y-91528045D01*
X254003969Y-91528045D01*
G37*
X254003969Y-91528045D02*
X254128087Y-91529415D01*
X254239799Y-91533572D01*
X254342392Y-91540919D01*
X254439156Y-91551860D01*
X254533378Y-91566798D01*
X254628347Y-91586137D01*
X254727351Y-91610281D01*
X254772630Y-91622418D01*
X254981177Y-91687656D01*
X255183265Y-91766992D01*
X255378128Y-91860028D01*
X255564999Y-91966368D01*
X255743114Y-92085616D01*
X255895260Y-92203617D01*
X256052928Y-92344342D01*
X256200265Y-92495787D01*
X256336586Y-92656885D01*
X256461208Y-92826567D01*
X256573447Y-93003766D01*
X256672620Y-93187416D01*
X256758042Y-93376447D01*
X256829030Y-93569793D01*
X256877784Y-93737803D01*
X256910855Y-93877789D01*
X256936215Y-94009725D01*
X256954607Y-94138997D01*
X256966775Y-94270993D01*
X256973461Y-94411100D01*
X256974114Y-94436500D01*
X256971395Y-94654797D01*
X256953200Y-94869580D01*
X256919535Y-95080821D01*
X256870406Y-95288489D01*
X256805819Y-95492555D01*
X256741622Y-95656487D01*
X256713539Y-95721752D01*
X256689477Y-95775910D01*
X256667608Y-95822613D01*
X256646107Y-95865513D01*
X256623146Y-95908263D01*
X256596900Y-95954515D01*
X256567775Y-96004156D01*
X256448556Y-96190427D01*
X256318452Y-96365153D01*
X256177329Y-96528465D01*
X256025055Y-96680496D01*
X255861497Y-96821380D01*
X255686524Y-96951248D01*
X255504156Y-97067775D01*
X255451327Y-97098744D01*
X255405414Y-97124721D01*
X255362765Y-97147531D01*
X255319728Y-97169001D01*
X255272651Y-97190957D01*
X255217881Y-97215225D01*
X255156487Y-97241622D01*
X255060254Y-97281169D01*
X254971536Y-97314208D01*
X254884422Y-97342695D01*
X254792998Y-97368589D01*
X254710406Y-97389322D01*
X254545890Y-97424876D01*
X254388795Y-97450553D01*
X254234567Y-97466893D01*
X254078649Y-97474436D01*
X253988094Y-97475013D01*
X253936875Y-97474498D01*
X253888754Y-97473793D01*
X253846874Y-97472960D01*
X253814378Y-97472063D01*
X253794410Y-97471165D01*
X253793625Y-97471109D01*
X253577451Y-97447157D01*
X253364694Y-97408170D01*
X253156213Y-97354467D01*
X252952868Y-97286363D01*
X252755516Y-97204176D01*
X252565018Y-97108225D01*
X252382232Y-96998826D01*
X252231276Y-96893796D01*
X252058349Y-96755449D01*
X251897665Y-96607088D01*
X251749451Y-96449039D01*
X251613929Y-96281632D01*
X251491324Y-96105194D01*
X251381861Y-95920052D01*
X251285763Y-95726535D01*
X251203256Y-95524971D01*
X251134563Y-95315688D01*
X251122418Y-95272630D01*
X251096052Y-95170835D01*
X251074667Y-95074511D01*
X251057859Y-94980367D01*
X251045225Y-94885117D01*
X251036360Y-94785470D01*
X251030862Y-94678140D01*
X251028326Y-94559836D01*
X251028045Y-94503969D01*
X251028720Y-94448608D01*
X251560794Y-94448608D01*
X251560897Y-94528746D01*
X251562563Y-94608410D01*
X251565759Y-94683537D01*
X251570456Y-94750060D01*
X251574176Y-94785750D01*
X251606050Y-94983048D01*
X251652701Y-95174663D01*
X251713951Y-95360222D01*
X251789619Y-95539349D01*
X251879527Y-95711669D01*
X251983494Y-95876809D01*
X252101341Y-96034393D01*
X252232888Y-96184047D01*
X252255224Y-96207260D01*
X252389458Y-96334334D01*
X252535160Y-96452270D01*
X252689631Y-96559090D01*
X252850169Y-96652816D01*
X252895958Y-96676504D01*
X252970366Y-96713153D01*
X253035607Y-96743372D01*
X253096104Y-96768940D01*
X253156278Y-96791634D01*
X253220551Y-96813233D01*
X253285625Y-96833227D01*
X253474838Y-96882640D01*
X253660589Y-96917091D01*
X253844327Y-96936714D01*
X254027503Y-96941642D01*
X254211564Y-96932011D01*
X254278106Y-96925031D01*
X254465438Y-96896087D01*
X254645019Y-96854278D01*
X254819357Y-96798854D01*
X254990959Y-96729064D01*
X255087916Y-96682866D01*
X255258548Y-96589447D01*
X255417964Y-96485712D01*
X255566922Y-96370974D01*
X255706179Y-96244550D01*
X255836494Y-96105754D01*
X255958624Y-95953903D01*
X256066892Y-95798259D01*
X256092018Y-95757068D01*
X256121341Y-95704940D01*
X256153041Y-95645496D01*
X256185299Y-95582356D01*
X256216293Y-95519140D01*
X256244206Y-95459467D01*
X256267215Y-95406957D01*
X256280653Y-95373125D01*
X256343520Y-95181584D01*
X256390916Y-94988845D01*
X256422800Y-94795450D01*
X256439130Y-94601940D01*
X256439868Y-94408857D01*
X256424972Y-94216742D01*
X256394402Y-94026136D01*
X256384599Y-93980094D01*
X256350950Y-93843801D01*
X256312642Y-93717618D01*
X256267704Y-93596007D01*
X256214163Y-93473432D01*
X256176504Y-93395958D01*
X256082799Y-93227110D01*
X255975974Y-93066673D01*
X255856798Y-92915368D01*
X255726037Y-92773914D01*
X255584460Y-92643031D01*
X255432834Y-92523440D01*
X255271927Y-92415860D01*
X255102507Y-92321011D01*
X254958325Y-92253480D01*
X254786697Y-92187085D01*
X254614143Y-92135087D01*
X254438656Y-92097078D01*
X254258226Y-92072651D01*
X254070845Y-92061397D01*
X254007938Y-92060507D01*
X253809843Y-92066877D01*
X253618215Y-92087522D01*
X253432281Y-92122673D01*
X253251265Y-92172567D01*
X253074394Y-92237435D01*
X252900894Y-92317513D01*
X252729991Y-92413035D01*
X252629294Y-92477244D01*
X252489861Y-92578772D01*
X252355663Y-92693278D01*
X252228341Y-92818839D01*
X252109535Y-92953531D01*
X252000886Y-93095431D01*
X251904035Y-93242615D01*
X251820622Y-93393161D01*
X251785826Y-93466080D01*
X251724423Y-93610939D01*
X251674192Y-93750178D01*
X251633935Y-93888126D01*
X251602456Y-94029114D01*
X251578556Y-94177471D01*
X251570155Y-94246000D01*
X251565392Y-94303170D01*
X251562282Y-94372061D01*
X251560794Y-94448608D01*
X251028720Y-94448608D01*
X251029790Y-94360973D01*
X251035664Y-94230106D01*
X251046238Y-94108025D01*
X251062085Y-93991385D01*
X251083777Y-93876844D01*
X251111887Y-93761059D01*
X251146986Y-93640687D01*
X251189647Y-93512384D01*
X251205341Y-93468125D01*
X251283726Y-93273406D01*
X251376566Y-93085072D01*
X251483672Y-92903385D01*
X251604852Y-92728608D01*
X251739917Y-92561003D01*
X251888674Y-92400833D01*
X252050933Y-92248360D01*
X252157771Y-92158179D01*
X252243600Y-92092686D01*
X252341139Y-92025360D01*
X252446748Y-91958412D01*
X252556786Y-91894055D01*
X252667613Y-91834500D01*
X252775589Y-91781958D01*
X252781594Y-91779215D01*
X252851554Y-91749342D01*
X252932735Y-91717956D01*
X253020767Y-91686536D01*
X253111279Y-91656562D01*
X253199901Y-91629511D01*
X253282264Y-91606864D01*
X253314150Y-91598971D01*
X253407375Y-91578203D01*
X253496349Y-91561543D01*
X253584353Y-91548652D01*
X253674669Y-91539195D01*
X253770578Y-91532832D01*
X253875360Y-91529228D01*
X253992295Y-91528044D01*
X254003969Y-91528045D01*
G36*
X114825576Y-92124450D02*
G01*
X115280219Y-92194973D01*
X115651774Y-92323875D01*
X115940418Y-92511314D01*
X116146324Y-92757445D01*
X116269669Y-93062425D01*
X116310626Y-93426410D01*
X116310462Y-93450600D01*
X116259690Y-93790793D01*
X116122813Y-94087763D01*
X115908919Y-94329051D01*
X115627094Y-94502200D01*
X115512047Y-94545047D01*
X115380139Y-94587604D01*
X115297532Y-94615787D01*
X115285639Y-94620630D01*
X115309222Y-94658458D01*
X115384184Y-94746014D01*
X115443412Y-94810241D01*
X115518073Y-94914483D01*
X115620359Y-95091612D01*
X115741250Y-95322223D01*
X115871724Y-95586910D01*
X116002760Y-95866270D01*
X116125338Y-96140897D01*
X116230436Y-96391386D01*
X116309033Y-96598332D01*
X116352109Y-96742331D01*
X116357255Y-96776009D01*
X116327355Y-96883182D01*
X116241052Y-96927267D01*
X116130926Y-96894208D01*
X116113612Y-96881104D01*
X116071715Y-96817101D01*
X115998960Y-96675688D01*
X115903216Y-96473390D01*
X115792347Y-96226726D01*
X115696953Y-96005973D01*
X115521603Y-95610061D01*
X115368317Y-95299406D01*
X115239473Y-95078607D01*
X115167838Y-94983041D01*
X114985877Y-94777555D01*
X114367738Y-94755516D01*
X113749600Y-94733477D01*
X113749600Y-95733678D01*
X113746912Y-96082968D01*
X113739273Y-96381311D01*
X113727323Y-96615381D01*
X113711698Y-96771850D01*
X113697012Y-96832139D01*
X113612292Y-96910092D01*
X113501535Y-96930069D01*
X113427866Y-96896533D01*
X113420792Y-96840206D01*
X113414218Y-96692757D01*
X113408302Y-96464660D01*
X113403201Y-96166393D01*
X113399071Y-95808431D01*
X113396070Y-95401250D01*
X113394353Y-94955327D01*
X113394000Y-94633624D01*
X113394000Y-92473809D01*
X113749600Y-92473809D01*
X113749600Y-94452968D01*
X114422700Y-94427418D01*
X114693000Y-94413233D01*
X114943638Y-94393004D01*
X115148134Y-94369330D01*
X115280008Y-94344809D01*
X115287688Y-94342563D01*
X115500188Y-94240377D01*
X115703310Y-94081304D01*
X115861656Y-93896132D01*
X115916166Y-93795925D01*
X115980231Y-93524625D01*
X115962483Y-93243167D01*
X115870410Y-92978603D01*
X115711501Y-92757985D01*
X115604286Y-92669168D01*
X115352094Y-92545980D01*
X115027482Y-92460502D01*
X114653612Y-92415991D01*
X114253642Y-92415704D01*
X113985290Y-92441504D01*
X113749600Y-92473809D01*
X113394000Y-92473809D01*
X113394000Y-92404581D01*
X113513669Y-92284912D01*
X113650102Y-92205828D01*
X113869823Y-92148584D01*
X114156477Y-92115182D01*
X114493706Y-92107621D01*
X114825576Y-92124450D01*
X114825576Y-92124450D01*
G37*
X114825576Y-92124450D02*
X115280219Y-92194973D01*
X115651774Y-92323875D01*
X115940418Y-92511314D01*
X116146324Y-92757445D01*
X116269669Y-93062425D01*
X116310626Y-93426410D01*
X116310462Y-93450600D01*
X116259690Y-93790793D01*
X116122813Y-94087763D01*
X115908919Y-94329051D01*
X115627094Y-94502200D01*
X115512047Y-94545047D01*
X115380139Y-94587604D01*
X115297532Y-94615787D01*
X115285639Y-94620630D01*
X115309222Y-94658458D01*
X115384184Y-94746014D01*
X115443412Y-94810241D01*
X115518073Y-94914483D01*
X115620359Y-95091612D01*
X115741250Y-95322223D01*
X115871724Y-95586910D01*
X116002760Y-95866270D01*
X116125338Y-96140897D01*
X116230436Y-96391386D01*
X116309033Y-96598332D01*
X116352109Y-96742331D01*
X116357255Y-96776009D01*
X116327355Y-96883182D01*
X116241052Y-96927267D01*
X116130926Y-96894208D01*
X116113612Y-96881104D01*
X116071715Y-96817101D01*
X115998960Y-96675688D01*
X115903216Y-96473390D01*
X115792347Y-96226726D01*
X115696953Y-96005973D01*
X115521603Y-95610061D01*
X115368317Y-95299406D01*
X115239473Y-95078607D01*
X115167838Y-94983041D01*
X114985877Y-94777555D01*
X114367738Y-94755516D01*
X113749600Y-94733477D01*
X113749600Y-95733678D01*
X113746912Y-96082968D01*
X113739273Y-96381311D01*
X113727323Y-96615381D01*
X113711698Y-96771850D01*
X113697012Y-96832139D01*
X113612292Y-96910092D01*
X113501535Y-96930069D01*
X113427866Y-96896533D01*
X113420792Y-96840206D01*
X113414218Y-96692757D01*
X113408302Y-96464660D01*
X113403201Y-96166393D01*
X113399071Y-95808431D01*
X113396070Y-95401250D01*
X113394353Y-94955327D01*
X113394000Y-94633624D01*
X113394000Y-92473809D01*
X113749600Y-92473809D01*
X113749600Y-94452968D01*
X114422700Y-94427418D01*
X114693000Y-94413233D01*
X114943638Y-94393004D01*
X115148134Y-94369330D01*
X115280008Y-94344809D01*
X115287688Y-94342563D01*
X115500188Y-94240377D01*
X115703310Y-94081304D01*
X115861656Y-93896132D01*
X115916166Y-93795925D01*
X115980231Y-93524625D01*
X115962483Y-93243167D01*
X115870410Y-92978603D01*
X115711501Y-92757985D01*
X115604286Y-92669168D01*
X115352094Y-92545980D01*
X115027482Y-92460502D01*
X114653612Y-92415991D01*
X114253642Y-92415704D01*
X113985290Y-92441504D01*
X113749600Y-92473809D01*
X113394000Y-92473809D01*
X113394000Y-92404581D01*
X113513669Y-92284912D01*
X113650102Y-92205828D01*
X113869823Y-92148584D01*
X114156477Y-92115182D01*
X114493706Y-92107621D01*
X114825576Y-92124450D01*
G36*
X110706539Y-92172194D02*
G01*
X110760511Y-92202768D01*
X110818265Y-92267429D01*
X110883577Y-92373414D01*
X110960222Y-92527962D01*
X111051972Y-92738311D01*
X111162604Y-93011699D01*
X111295891Y-93355365D01*
X111455607Y-93776546D01*
X111645527Y-94282482D01*
X111738793Y-94531564D01*
X111909173Y-94989700D01*
X112066826Y-95419511D01*
X112208434Y-95811527D01*
X112330679Y-96156277D01*
X112430243Y-96444292D01*
X112503809Y-96666101D01*
X112548057Y-96812235D01*
X112559671Y-96873223D01*
X112559422Y-96873738D01*
X112476518Y-96925684D01*
X112363345Y-96912785D01*
X112270211Y-96846743D01*
X112227733Y-96769140D01*
X112160841Y-96616269D01*
X112078115Y-96408953D01*
X111988138Y-96168016D01*
X111971891Y-96122843D01*
X111743000Y-95482600D01*
X109560801Y-95482600D01*
X109318387Y-96137810D01*
X109225421Y-96383094D01*
X109140173Y-96597093D01*
X109070828Y-96760015D01*
X109025574Y-96852068D01*
X109018966Y-96861710D01*
X108923661Y-96919990D01*
X108813225Y-96922681D01*
X108743727Y-96876246D01*
X108754260Y-96819172D01*
X108797416Y-96676551D01*
X108869877Y-96457865D01*
X108968324Y-96172595D01*
X109089439Y-95830225D01*
X109229904Y-95440237D01*
X109358332Y-95088900D01*
X109699021Y-95088900D01*
X109712029Y-95112108D01*
X109778302Y-95129288D01*
X109908342Y-95141161D01*
X110112650Y-95148454D01*
X110401727Y-95151889D01*
X110619964Y-95152400D01*
X110970048Y-95150754D01*
X111228921Y-95145356D01*
X111406926Y-95135510D01*
X111514406Y-95120522D01*
X111561703Y-95099699D01*
X111566113Y-95088900D01*
X111549882Y-95022743D01*
X111504241Y-94879575D01*
X111434739Y-94674646D01*
X111346925Y-94423205D01*
X111246351Y-94140502D01*
X111138566Y-93841786D01*
X111029119Y-93542308D01*
X110923560Y-93257316D01*
X110827439Y-93002060D01*
X110746307Y-92791790D01*
X110685712Y-92641755D01*
X110651205Y-92567206D01*
X110646406Y-92561764D01*
X110621794Y-92607454D01*
X110567888Y-92736205D01*
X110489570Y-92935397D01*
X110391719Y-93192411D01*
X110279219Y-93494626D01*
X110169962Y-93793500D01*
X110048105Y-94129462D01*
X109937024Y-94435461D01*
X109841619Y-94698028D01*
X109766785Y-94903691D01*
X109717419Y-95038980D01*
X109699021Y-95088900D01*
X109358332Y-95088900D01*
X109386401Y-95012113D01*
X109555612Y-94555337D01*
X109559514Y-94544873D01*
X109760084Y-94008495D01*
X109929195Y-93559941D01*
X110070043Y-93191526D01*
X110185822Y-92895569D01*
X110279728Y-92664385D01*
X110354958Y-92490291D01*
X110414708Y-92365604D01*
X110462172Y-92282641D01*
X110500547Y-92233717D01*
X110529583Y-92212607D01*
X110594850Y-92184352D01*
X110652577Y-92168468D01*
X110706539Y-92172194D01*
X110706539Y-92172194D01*
G37*
X110706539Y-92172194D02*
X110760511Y-92202768D01*
X110818265Y-92267429D01*
X110883577Y-92373414D01*
X110960222Y-92527962D01*
X111051972Y-92738311D01*
X111162604Y-93011699D01*
X111295891Y-93355365D01*
X111455607Y-93776546D01*
X111645527Y-94282482D01*
X111738793Y-94531564D01*
X111909173Y-94989700D01*
X112066826Y-95419511D01*
X112208434Y-95811527D01*
X112330679Y-96156277D01*
X112430243Y-96444292D01*
X112503809Y-96666101D01*
X112548057Y-96812235D01*
X112559671Y-96873223D01*
X112559422Y-96873738D01*
X112476518Y-96925684D01*
X112363345Y-96912785D01*
X112270211Y-96846743D01*
X112227733Y-96769140D01*
X112160841Y-96616269D01*
X112078115Y-96408953D01*
X111988138Y-96168016D01*
X111971891Y-96122843D01*
X111743000Y-95482600D01*
X109560801Y-95482600D01*
X109318387Y-96137810D01*
X109225421Y-96383094D01*
X109140173Y-96597093D01*
X109070828Y-96760015D01*
X109025574Y-96852068D01*
X109018966Y-96861710D01*
X108923661Y-96919990D01*
X108813225Y-96922681D01*
X108743727Y-96876246D01*
X108754260Y-96819172D01*
X108797416Y-96676551D01*
X108869877Y-96457865D01*
X108968324Y-96172595D01*
X109089439Y-95830225D01*
X109229904Y-95440237D01*
X109358332Y-95088900D01*
X109699021Y-95088900D01*
X109712029Y-95112108D01*
X109778302Y-95129288D01*
X109908342Y-95141161D01*
X110112650Y-95148454D01*
X110401727Y-95151889D01*
X110619964Y-95152400D01*
X110970048Y-95150754D01*
X111228921Y-95145356D01*
X111406926Y-95135510D01*
X111514406Y-95120522D01*
X111561703Y-95099699D01*
X111566113Y-95088900D01*
X111549882Y-95022743D01*
X111504241Y-94879575D01*
X111434739Y-94674646D01*
X111346925Y-94423205D01*
X111246351Y-94140502D01*
X111138566Y-93841786D01*
X111029119Y-93542308D01*
X110923560Y-93257316D01*
X110827439Y-93002060D01*
X110746307Y-92791790D01*
X110685712Y-92641755D01*
X110651205Y-92567206D01*
X110646406Y-92561764D01*
X110621794Y-92607454D01*
X110567888Y-92736205D01*
X110489570Y-92935397D01*
X110391719Y-93192411D01*
X110279219Y-93494626D01*
X110169962Y-93793500D01*
X110048105Y-94129462D01*
X109937024Y-94435461D01*
X109841619Y-94698028D01*
X109766785Y-94903691D01*
X109717419Y-95038980D01*
X109699021Y-95088900D01*
X109358332Y-95088900D01*
X109386401Y-95012113D01*
X109555612Y-94555337D01*
X109559514Y-94544873D01*
X109760084Y-94008495D01*
X109929195Y-93559941D01*
X110070043Y-93191526D01*
X110185822Y-92895569D01*
X110279728Y-92664385D01*
X110354958Y-92490291D01*
X110414708Y-92365604D01*
X110462172Y-92282641D01*
X110500547Y-92233717D01*
X110529583Y-92212607D01*
X110594850Y-92184352D01*
X110652577Y-92168468D01*
X110706539Y-92172194D01*
G36*
X103124802Y-92165680D02*
G01*
X103185571Y-92181352D01*
X103185797Y-92181424D01*
X103216285Y-92191946D01*
X103244581Y-92207932D01*
X103273948Y-92237118D01*
X103307645Y-92287241D01*
X103348934Y-92366039D01*
X103401077Y-92481248D01*
X103467335Y-92640605D01*
X103550970Y-92851847D01*
X103655242Y-93122711D01*
X103783414Y-93460934D01*
X103938746Y-93874253D01*
X104124500Y-94370404D01*
X104250223Y-94706556D01*
X104412118Y-95142966D01*
X104561171Y-95551567D01*
X104693875Y-95922242D01*
X104806722Y-96244873D01*
X104896206Y-96509343D01*
X104958820Y-96705534D01*
X104991057Y-96823327D01*
X104994144Y-96852856D01*
X104925185Y-96920110D01*
X104821576Y-96919459D01*
X104720006Y-96855338D01*
X104690094Y-96816100D01*
X104646785Y-96725794D01*
X104579341Y-96561897D01*
X104496644Y-96346902D01*
X104407579Y-96103303D01*
X104398772Y-96078539D01*
X104177697Y-95455278D01*
X103090297Y-95468939D01*
X102002898Y-95482600D01*
X101741884Y-96193800D01*
X101639334Y-96469747D01*
X101562376Y-96664327D01*
X101503089Y-96792084D01*
X101453557Y-96867566D01*
X101405859Y-96905319D01*
X101352078Y-96919889D01*
X101346233Y-96920611D01*
X101235532Y-96915482D01*
X101180668Y-96886182D01*
X101191689Y-96829927D01*
X101235280Y-96688111D01*
X101308106Y-96470217D01*
X101406835Y-96185731D01*
X101528133Y-95844136D01*
X101668666Y-95454916D01*
X101803432Y-95086755D01*
X102167200Y-95086755D01*
X102188755Y-95110827D01*
X102260818Y-95128603D01*
X102394485Y-95140855D01*
X102600852Y-95148355D01*
X102891015Y-95151876D01*
X103110423Y-95152400D01*
X103441597Y-95151786D01*
X103684196Y-95149104D01*
X103851239Y-95143086D01*
X103955747Y-95132468D01*
X104010742Y-95115985D01*
X104029243Y-95092372D01*
X104025303Y-95063500D01*
X103957408Y-94859713D01*
X103869297Y-94608898D01*
X103766398Y-94325145D01*
X103654140Y-94022547D01*
X103537953Y-93715196D01*
X103423265Y-93417186D01*
X103315506Y-93142607D01*
X103220103Y-92905553D01*
X103142488Y-92720115D01*
X103088087Y-92600387D01*
X103062331Y-92560460D01*
X103061459Y-92561600D01*
X102931097Y-92915341D01*
X102797809Y-93280819D01*
X102666186Y-93645073D01*
X102540817Y-93995144D01*
X102426292Y-94318072D01*
X102327200Y-94600898D01*
X102248130Y-94830662D01*
X102193673Y-94994405D01*
X102168417Y-95079167D01*
X102167200Y-95086755D01*
X101803432Y-95086755D01*
X101825103Y-95027555D01*
X101994108Y-94571538D01*
X101995124Y-94568813D01*
X102199942Y-94020534D01*
X102373343Y-93560258D01*
X102518992Y-93180639D01*
X102640552Y-92874330D01*
X102741688Y-92633984D01*
X102826065Y-92452253D01*
X102897346Y-92321790D01*
X102959196Y-92235249D01*
X103015279Y-92185282D01*
X103069260Y-92164541D01*
X103124802Y-92165680D01*
X103124802Y-92165680D01*
G37*
X103124802Y-92165680D02*
X103185571Y-92181352D01*
X103185797Y-92181424D01*
X103216285Y-92191946D01*
X103244581Y-92207932D01*
X103273948Y-92237118D01*
X103307645Y-92287241D01*
X103348934Y-92366039D01*
X103401077Y-92481248D01*
X103467335Y-92640605D01*
X103550970Y-92851847D01*
X103655242Y-93122711D01*
X103783414Y-93460934D01*
X103938746Y-93874253D01*
X104124500Y-94370404D01*
X104250223Y-94706556D01*
X104412118Y-95142966D01*
X104561171Y-95551567D01*
X104693875Y-95922242D01*
X104806722Y-96244873D01*
X104896206Y-96509343D01*
X104958820Y-96705534D01*
X104991057Y-96823327D01*
X104994144Y-96852856D01*
X104925185Y-96920110D01*
X104821576Y-96919459D01*
X104720006Y-96855338D01*
X104690094Y-96816100D01*
X104646785Y-96725794D01*
X104579341Y-96561897D01*
X104496644Y-96346902D01*
X104407579Y-96103303D01*
X104398772Y-96078539D01*
X104177697Y-95455278D01*
X103090297Y-95468939D01*
X102002898Y-95482600D01*
X101741884Y-96193800D01*
X101639334Y-96469747D01*
X101562376Y-96664327D01*
X101503089Y-96792084D01*
X101453557Y-96867566D01*
X101405859Y-96905319D01*
X101352078Y-96919889D01*
X101346233Y-96920611D01*
X101235532Y-96915482D01*
X101180668Y-96886182D01*
X101191689Y-96829927D01*
X101235280Y-96688111D01*
X101308106Y-96470217D01*
X101406835Y-96185731D01*
X101528133Y-95844136D01*
X101668666Y-95454916D01*
X101803432Y-95086755D01*
X102167200Y-95086755D01*
X102188755Y-95110827D01*
X102260818Y-95128603D01*
X102394485Y-95140855D01*
X102600852Y-95148355D01*
X102891015Y-95151876D01*
X103110423Y-95152400D01*
X103441597Y-95151786D01*
X103684196Y-95149104D01*
X103851239Y-95143086D01*
X103955747Y-95132468D01*
X104010742Y-95115985D01*
X104029243Y-95092372D01*
X104025303Y-95063500D01*
X103957408Y-94859713D01*
X103869297Y-94608898D01*
X103766398Y-94325145D01*
X103654140Y-94022547D01*
X103537953Y-93715196D01*
X103423265Y-93417186D01*
X103315506Y-93142607D01*
X103220103Y-92905553D01*
X103142488Y-92720115D01*
X103088087Y-92600387D01*
X103062331Y-92560460D01*
X103061459Y-92561600D01*
X102931097Y-92915341D01*
X102797809Y-93280819D01*
X102666186Y-93645073D01*
X102540817Y-93995144D01*
X102426292Y-94318072D01*
X102327200Y-94600898D01*
X102248130Y-94830662D01*
X102193673Y-94994405D01*
X102168417Y-95079167D01*
X102167200Y-95086755D01*
X101803432Y-95086755D01*
X101825103Y-95027555D01*
X101994108Y-94571538D01*
X101995124Y-94568813D01*
X102199942Y-94020534D01*
X102373343Y-93560258D01*
X102518992Y-93180639D01*
X102640552Y-92874330D01*
X102741688Y-92633984D01*
X102826065Y-92452253D01*
X102897346Y-92321790D01*
X102959196Y-92235249D01*
X103015279Y-92185282D01*
X103069260Y-92164541D01*
X103124802Y-92165680D01*
G36*
X107207358Y-92147663D02*
G01*
X107496547Y-92186691D01*
X107746922Y-92244927D01*
X107946241Y-92317774D01*
X108082261Y-92400630D01*
X108142740Y-92488895D01*
X108115433Y-92577970D01*
X108105604Y-92588567D01*
X108052884Y-92625813D01*
X107981369Y-92631124D01*
X107863720Y-92602162D01*
X107727999Y-92556272D01*
X107448354Y-92481050D01*
X107134568Y-92433905D01*
X106823381Y-92417671D01*
X106551534Y-92435181D01*
X106443018Y-92457157D01*
X106265008Y-92531566D01*
X106087355Y-92644931D01*
X106040392Y-92684295D01*
X105933902Y-92793104D01*
X105875609Y-92896799D01*
X105847612Y-93036703D01*
X105838174Y-93151137D01*
X105857372Y-93438112D01*
X105958237Y-93684656D01*
X106145128Y-93895571D01*
X106422402Y-94075657D01*
X106794419Y-94229716D01*
X106827183Y-94240659D01*
X107282127Y-94413281D01*
X107642339Y-94603468D01*
X107914082Y-94817698D01*
X108103616Y-95062452D01*
X108217205Y-95344210D01*
X108261109Y-95669451D01*
X108262084Y-95725531D01*
X108226988Y-96091022D01*
X108116108Y-96392056D01*
X107924943Y-96636570D01*
X107648994Y-96832502D01*
X107628200Y-96843648D01*
X107412408Y-96919225D01*
X107129506Y-96964023D01*
X106809321Y-96977681D01*
X106481681Y-96959839D01*
X106176416Y-96910134D01*
X106011597Y-96863203D01*
X105745395Y-96752878D01*
X105568749Y-96640010D01*
X105485948Y-96528015D01*
X105488173Y-96446229D01*
X105522379Y-96397854D01*
X105586421Y-96383140D01*
X105696425Y-96404895D01*
X105868513Y-96465929D01*
X106066610Y-96546981D01*
X106283557Y-96625799D01*
X106490439Y-96667412D01*
X106738370Y-96681412D01*
X106784711Y-96681729D01*
X107163720Y-96654123D01*
X107461474Y-96567450D01*
X107681451Y-96418706D01*
X107827128Y-96204885D01*
X107901983Y-95922984D01*
X107914330Y-95705719D01*
X107898335Y-95479313D01*
X107846066Y-95287111D01*
X107747564Y-95120025D01*
X107592870Y-94968969D01*
X107372024Y-94824854D01*
X107075067Y-94678593D01*
X106692039Y-94521100D01*
X106561400Y-94471260D01*
X106178357Y-94296066D01*
X105885497Y-94090627D01*
X105674155Y-93848194D01*
X105602932Y-93724418D01*
X105493612Y-93404623D01*
X105480957Y-93089853D01*
X105562603Y-92793169D01*
X105736184Y-92527636D01*
X105837868Y-92426841D01*
X106019043Y-92292755D01*
X106217020Y-92203682D01*
X106456330Y-92152769D01*
X106761507Y-92133162D01*
X106891600Y-92132444D01*
X107207358Y-92147663D01*
X107207358Y-92147663D01*
G37*
X107207358Y-92147663D02*
X107496547Y-92186691D01*
X107746922Y-92244927D01*
X107946241Y-92317774D01*
X108082261Y-92400630D01*
X108142740Y-92488895D01*
X108115433Y-92577970D01*
X108105604Y-92588567D01*
X108052884Y-92625813D01*
X107981369Y-92631124D01*
X107863720Y-92602162D01*
X107727999Y-92556272D01*
X107448354Y-92481050D01*
X107134568Y-92433905D01*
X106823381Y-92417671D01*
X106551534Y-92435181D01*
X106443018Y-92457157D01*
X106265008Y-92531566D01*
X106087355Y-92644931D01*
X106040392Y-92684295D01*
X105933902Y-92793104D01*
X105875609Y-92896799D01*
X105847612Y-93036703D01*
X105838174Y-93151137D01*
X105857372Y-93438112D01*
X105958237Y-93684656D01*
X106145128Y-93895571D01*
X106422402Y-94075657D01*
X106794419Y-94229716D01*
X106827183Y-94240659D01*
X107282127Y-94413281D01*
X107642339Y-94603468D01*
X107914082Y-94817698D01*
X108103616Y-95062452D01*
X108217205Y-95344210D01*
X108261109Y-95669451D01*
X108262084Y-95725531D01*
X108226988Y-96091022D01*
X108116108Y-96392056D01*
X107924943Y-96636570D01*
X107648994Y-96832502D01*
X107628200Y-96843648D01*
X107412408Y-96919225D01*
X107129506Y-96964023D01*
X106809321Y-96977681D01*
X106481681Y-96959839D01*
X106176416Y-96910134D01*
X106011597Y-96863203D01*
X105745395Y-96752878D01*
X105568749Y-96640010D01*
X105485948Y-96528015D01*
X105488173Y-96446229D01*
X105522379Y-96397854D01*
X105586421Y-96383140D01*
X105696425Y-96404895D01*
X105868513Y-96465929D01*
X106066610Y-96546981D01*
X106283557Y-96625799D01*
X106490439Y-96667412D01*
X106738370Y-96681412D01*
X106784711Y-96681729D01*
X107163720Y-96654123D01*
X107461474Y-96567450D01*
X107681451Y-96418706D01*
X107827128Y-96204885D01*
X107901983Y-95922984D01*
X107914330Y-95705719D01*
X107898335Y-95479313D01*
X107846066Y-95287111D01*
X107747564Y-95120025D01*
X107592870Y-94968969D01*
X107372024Y-94824854D01*
X107075067Y-94678593D01*
X106692039Y-94521100D01*
X106561400Y-94471260D01*
X106178357Y-94296066D01*
X105885497Y-94090627D01*
X105674155Y-93848194D01*
X105602932Y-93724418D01*
X105493612Y-93404623D01*
X105480957Y-93089853D01*
X105562603Y-92793169D01*
X105736184Y-92527636D01*
X105837868Y-92426841D01*
X106019043Y-92292755D01*
X106217020Y-92203682D01*
X106456330Y-92152769D01*
X106761507Y-92133162D01*
X106891600Y-92132444D01*
X107207358Y-92147663D01*
G36*
X100593459Y-92180586D02*
G01*
X100640109Y-92227676D01*
X100657488Y-92278323D01*
X100670738Y-92388108D01*
X100680032Y-92564283D01*
X100685541Y-92814103D01*
X100687439Y-93144821D01*
X100685896Y-93563691D01*
X100682025Y-93992976D01*
X100676228Y-94469564D01*
X100669738Y-94856142D01*
X100661927Y-95164302D01*
X100652167Y-95405636D01*
X100639831Y-95591733D01*
X100624289Y-95734184D01*
X100604916Y-95844582D01*
X100581081Y-95934515D01*
X100575993Y-95950258D01*
X100407596Y-96303239D01*
X100160134Y-96596252D01*
X99881562Y-96797377D01*
X99741410Y-96871034D01*
X99617404Y-96918278D01*
X99478492Y-96945794D01*
X99293624Y-96960266D01*
X99094162Y-96966884D01*
X98744791Y-96964101D01*
X98477167Y-96934937D01*
X98337653Y-96900677D01*
X98058504Y-96762893D01*
X97804426Y-96545321D01*
X97595570Y-96269652D01*
X97452087Y-95957579D01*
X97447233Y-95942195D01*
X97418169Y-95842104D01*
X97394936Y-95742027D01*
X97376888Y-95629540D01*
X97363377Y-95492220D01*
X97353755Y-95317646D01*
X97347374Y-95093392D01*
X97343588Y-94807037D01*
X97341749Y-94446157D01*
X97341209Y-93998329D01*
X97341200Y-93907884D01*
X97341714Y-93441809D01*
X97343549Y-93067451D01*
X97347141Y-92774931D01*
X97352929Y-92554369D01*
X97361351Y-92395888D01*
X97372843Y-92289607D01*
X97387844Y-92225647D01*
X97406790Y-92194129D01*
X97417399Y-92187629D01*
X97474968Y-92168048D01*
X97521552Y-92164302D01*
X97558474Y-92185785D01*
X97587058Y-92241889D01*
X97608627Y-92342007D01*
X97624502Y-92495531D01*
X97636008Y-92711856D01*
X97644467Y-93000373D01*
X97651202Y-93370476D01*
X97657536Y-93831558D01*
X97658400Y-93898766D01*
X97665864Y-94413757D01*
X97675054Y-94838251D01*
X97687863Y-95183349D01*
X97706185Y-95460153D01*
X97731914Y-95679766D01*
X97766943Y-95853289D01*
X97813166Y-95991826D01*
X97872477Y-96106477D01*
X97946770Y-96208346D01*
X98037938Y-96308533D01*
X98076018Y-96347092D01*
X98256019Y-96500462D01*
X98447603Y-96600186D01*
X98677923Y-96655471D01*
X98974134Y-96675521D01*
X99046590Y-96676116D01*
X99416825Y-96638561D01*
X99722733Y-96523840D01*
X99968485Y-96329830D01*
X100115703Y-96131220D01*
X100209143Y-95950811D01*
X100280457Y-95770582D01*
X100305644Y-95674020D01*
X100313544Y-95576240D01*
X100320760Y-95391083D01*
X100327033Y-95132769D01*
X100332106Y-94815519D01*
X100335721Y-94453554D01*
X100337619Y-94061096D01*
X100337840Y-93898728D01*
X100338558Y-93448151D01*
X100340701Y-93088487D01*
X100344786Y-92809051D01*
X100351330Y-92599161D01*
X100360849Y-92448134D01*
X100373858Y-92345285D01*
X100390874Y-92279931D01*
X100412414Y-92241390D01*
X100418228Y-92235028D01*
X100514981Y-92163626D01*
X100593459Y-92180586D01*
X100593459Y-92180586D01*
G37*
X100593459Y-92180586D02*
X100640109Y-92227676D01*
X100657488Y-92278323D01*
X100670738Y-92388108D01*
X100680032Y-92564283D01*
X100685541Y-92814103D01*
X100687439Y-93144821D01*
X100685896Y-93563691D01*
X100682025Y-93992976D01*
X100676228Y-94469564D01*
X100669738Y-94856142D01*
X100661927Y-95164302D01*
X100652167Y-95405636D01*
X100639831Y-95591733D01*
X100624289Y-95734184D01*
X100604916Y-95844582D01*
X100581081Y-95934515D01*
X100575993Y-95950258D01*
X100407596Y-96303239D01*
X100160134Y-96596252D01*
X99881562Y-96797377D01*
X99741410Y-96871034D01*
X99617404Y-96918278D01*
X99478492Y-96945794D01*
X99293624Y-96960266D01*
X99094162Y-96966884D01*
X98744791Y-96964101D01*
X98477167Y-96934937D01*
X98337653Y-96900677D01*
X98058504Y-96762893D01*
X97804426Y-96545321D01*
X97595570Y-96269652D01*
X97452087Y-95957579D01*
X97447233Y-95942195D01*
X97418169Y-95842104D01*
X97394936Y-95742027D01*
X97376888Y-95629540D01*
X97363377Y-95492220D01*
X97353755Y-95317646D01*
X97347374Y-95093392D01*
X97343588Y-94807037D01*
X97341749Y-94446157D01*
X97341209Y-93998329D01*
X97341200Y-93907884D01*
X97341714Y-93441809D01*
X97343549Y-93067451D01*
X97347141Y-92774931D01*
X97352929Y-92554369D01*
X97361351Y-92395888D01*
X97372843Y-92289607D01*
X97387844Y-92225647D01*
X97406790Y-92194129D01*
X97417399Y-92187629D01*
X97474968Y-92168048D01*
X97521552Y-92164302D01*
X97558474Y-92185785D01*
X97587058Y-92241889D01*
X97608627Y-92342007D01*
X97624502Y-92495531D01*
X97636008Y-92711856D01*
X97644467Y-93000373D01*
X97651202Y-93370476D01*
X97657536Y-93831558D01*
X97658400Y-93898766D01*
X97665864Y-94413757D01*
X97675054Y-94838251D01*
X97687863Y-95183349D01*
X97706185Y-95460153D01*
X97731914Y-95679766D01*
X97766943Y-95853289D01*
X97813166Y-95991826D01*
X97872477Y-96106477D01*
X97946770Y-96208346D01*
X98037938Y-96308533D01*
X98076018Y-96347092D01*
X98256019Y-96500462D01*
X98447603Y-96600186D01*
X98677923Y-96655471D01*
X98974134Y-96675521D01*
X99046590Y-96676116D01*
X99416825Y-96638561D01*
X99722733Y-96523840D01*
X99968485Y-96329830D01*
X100115703Y-96131220D01*
X100209143Y-95950811D01*
X100280457Y-95770582D01*
X100305644Y-95674020D01*
X100313544Y-95576240D01*
X100320760Y-95391083D01*
X100327033Y-95132769D01*
X100332106Y-94815519D01*
X100335721Y-94453554D01*
X100337619Y-94061096D01*
X100337840Y-93898728D01*
X100338558Y-93448151D01*
X100340701Y-93088487D01*
X100344786Y-92809051D01*
X100351330Y-92599161D01*
X100360849Y-92448134D01*
X100373858Y-92345285D01*
X100390874Y-92279931D01*
X100412414Y-92241390D01*
X100418228Y-92235028D01*
X100514981Y-92163626D01*
X100593459Y-92180586D01*
G36*
X94855106Y-92143399D02*
G01*
X95304791Y-92247832D01*
X95693889Y-92425244D01*
X96040473Y-92684309D01*
X96100646Y-92741167D01*
X96394263Y-93096132D01*
X96605186Y-93507649D01*
X96734020Y-93977340D01*
X96781370Y-94506822D01*
X96781649Y-94562433D01*
X96739472Y-95068517D01*
X96618210Y-95530739D01*
X96422492Y-95940058D01*
X96156947Y-96287430D01*
X95826203Y-96563814D01*
X95725440Y-96625600D01*
X95571664Y-96716553D01*
X95459873Y-96788796D01*
X95412685Y-96827646D01*
X95412381Y-96828800D01*
X95456087Y-96855295D01*
X95571092Y-96898446D01*
X95703036Y-96940025D01*
X95906953Y-97017390D01*
X96126866Y-97129493D01*
X96346918Y-97264380D01*
X96551250Y-97410101D01*
X96724003Y-97554702D01*
X96849320Y-97686230D01*
X96911342Y-97792734D01*
X96907520Y-97847841D01*
X96821877Y-97900498D01*
X96687604Y-97876508D01*
X96517222Y-97780362D01*
X96360259Y-97651669D01*
X96153528Y-97472049D01*
X95957286Y-97332756D01*
X95752201Y-97226916D01*
X95518941Y-97147653D01*
X95238174Y-97088092D01*
X94890569Y-97041357D01*
X94552260Y-97008661D01*
X94231032Y-96978136D01*
X93988734Y-96947480D01*
X93802781Y-96912384D01*
X93650588Y-96868542D01*
X93509571Y-96811646D01*
X93502535Y-96808440D01*
X93093824Y-96567672D01*
X92751988Y-96253884D01*
X92484868Y-95876171D01*
X92300303Y-95443629D01*
X92286797Y-95398084D01*
X92229979Y-95113506D01*
X92198454Y-94771469D01*
X92193119Y-94418583D01*
X92534806Y-94418583D01*
X92548520Y-94862441D01*
X92634839Y-95297469D01*
X92760317Y-95631954D01*
X92985818Y-96005557D01*
X93272869Y-96300509D01*
X93615866Y-96514397D01*
X94009201Y-96644810D01*
X94447268Y-96689337D01*
X94924461Y-96645565D01*
X95055200Y-96619211D01*
X95408604Y-96489665D01*
X95726129Y-96273015D01*
X95997673Y-95980432D01*
X96213132Y-95623089D01*
X96362406Y-95212157D01*
X96375547Y-95159111D01*
X96408146Y-94930239D01*
X96418575Y-94642683D01*
X96408540Y-94331670D01*
X96379749Y-94032429D01*
X96333908Y-93780188D01*
X96303865Y-93679200D01*
X96226498Y-93506235D01*
X96116854Y-93307135D01*
X96040741Y-93187563D01*
X95776523Y-92886671D01*
X95455026Y-92658122D01*
X95091739Y-92503350D01*
X94702149Y-92423791D01*
X94301744Y-92420880D01*
X93906011Y-92496053D01*
X93530438Y-92650745D01*
X93190512Y-92886392D01*
X93153122Y-92919929D01*
X92902855Y-93216570D01*
X92714617Y-93577395D01*
X92591053Y-93984150D01*
X92534806Y-94418583D01*
X92193119Y-94418583D01*
X92193019Y-94412022D01*
X92214469Y-94075214D01*
X92255661Y-93831600D01*
X92415103Y-93380267D01*
X92651927Y-92988092D01*
X92956955Y-92661036D01*
X93321012Y-92405057D01*
X93734919Y-92226117D01*
X94189498Y-92130175D01*
X94675573Y-92123192D01*
X94855106Y-92143399D01*
X94855106Y-92143399D01*
G37*
X94855106Y-92143399D02*
X95304791Y-92247832D01*
X95693889Y-92425244D01*
X96040473Y-92684309D01*
X96100646Y-92741167D01*
X96394263Y-93096132D01*
X96605186Y-93507649D01*
X96734020Y-93977340D01*
X96781370Y-94506822D01*
X96781649Y-94562433D01*
X96739472Y-95068517D01*
X96618210Y-95530739D01*
X96422492Y-95940058D01*
X96156947Y-96287430D01*
X95826203Y-96563814D01*
X95725440Y-96625600D01*
X95571664Y-96716553D01*
X95459873Y-96788796D01*
X95412685Y-96827646D01*
X95412381Y-96828800D01*
X95456087Y-96855295D01*
X95571092Y-96898446D01*
X95703036Y-96940025D01*
X95906953Y-97017390D01*
X96126866Y-97129493D01*
X96346918Y-97264380D01*
X96551250Y-97410101D01*
X96724003Y-97554702D01*
X96849320Y-97686230D01*
X96911342Y-97792734D01*
X96907520Y-97847841D01*
X96821877Y-97900498D01*
X96687604Y-97876508D01*
X96517222Y-97780362D01*
X96360259Y-97651669D01*
X96153528Y-97472049D01*
X95957286Y-97332756D01*
X95752201Y-97226916D01*
X95518941Y-97147653D01*
X95238174Y-97088092D01*
X94890569Y-97041357D01*
X94552260Y-97008661D01*
X94231032Y-96978136D01*
X93988734Y-96947480D01*
X93802781Y-96912384D01*
X93650588Y-96868542D01*
X93509571Y-96811646D01*
X93502535Y-96808440D01*
X93093824Y-96567672D01*
X92751988Y-96253884D01*
X92484868Y-95876171D01*
X92300303Y-95443629D01*
X92286797Y-95398084D01*
X92229979Y-95113506D01*
X92198454Y-94771469D01*
X92193119Y-94418583D01*
X92534806Y-94418583D01*
X92548520Y-94862441D01*
X92634839Y-95297469D01*
X92760317Y-95631954D01*
X92985818Y-96005557D01*
X93272869Y-96300509D01*
X93615866Y-96514397D01*
X94009201Y-96644810D01*
X94447268Y-96689337D01*
X94924461Y-96645565D01*
X95055200Y-96619211D01*
X95408604Y-96489665D01*
X95726129Y-96273015D01*
X95997673Y-95980432D01*
X96213132Y-95623089D01*
X96362406Y-95212157D01*
X96375547Y-95159111D01*
X96408146Y-94930239D01*
X96418575Y-94642683D01*
X96408540Y-94331670D01*
X96379749Y-94032429D01*
X96333908Y-93780188D01*
X96303865Y-93679200D01*
X96226498Y-93506235D01*
X96116854Y-93307135D01*
X96040741Y-93187563D01*
X95776523Y-92886671D01*
X95455026Y-92658122D01*
X95091739Y-92503350D01*
X94702149Y-92423791D01*
X94301744Y-92420880D01*
X93906011Y-92496053D01*
X93530438Y-92650745D01*
X93190512Y-92886392D01*
X93153122Y-92919929D01*
X92902855Y-93216570D01*
X92714617Y-93577395D01*
X92591053Y-93984150D01*
X92534806Y-94418583D01*
X92193119Y-94418583D01*
X92193019Y-94412022D01*
X92214469Y-94075214D01*
X92255661Y-93831600D01*
X92415103Y-93380267D01*
X92651927Y-92988092D01*
X92956955Y-92661036D01*
X93321012Y-92405057D01*
X93734919Y-92226117D01*
X94189498Y-92130175D01*
X94675573Y-92123192D01*
X94855106Y-92143399D01*
D11*
X108980000Y-55290000D03*
X121020000Y-55290000D03*
D12*
X113750000Y-58000000D03*
X116250000Y-58000000D03*
X113750000Y-60000000D03*
X116250000Y-60000000D03*
D13*
X119800000Y-68000000D03*
X122200000Y-68000000D03*
D14*
X182100000Y-54000000D03*
X179560000Y-54000000D03*
X177020000Y-54000000D03*
X174480000Y-54000000D03*
X171940000Y-54000000D03*
X169400000Y-54000000D03*
X166860000Y-54000000D03*
X164320000Y-54000000D03*
X161780000Y-54000000D03*
X159240000Y-54000000D03*
X156700000Y-54000000D03*
X154160000Y-54000000D03*
X151620000Y-54000000D03*
X149080000Y-54000000D03*
X146540000Y-54000000D03*
D15*
X144000000Y-54000000D03*
D14*
X199220000Y-57000000D03*
X201760000Y-57000000D03*
X204300000Y-57000000D03*
X206840000Y-57000000D03*
X209380000Y-57000000D03*
X211920000Y-57000000D03*
X214460000Y-57000000D03*
D15*
X217000000Y-57000000D03*
D16*
X127950000Y-68500000D03*
X126050000Y-68500000D03*
X126050000Y-71500000D03*
X127950000Y-71500000D03*
X115950000Y-80000000D03*
X114050000Y-80000000D03*
D17*
X151000000Y-66050000D03*
X151000000Y-67950000D03*
D18*
X111900000Y-73150000D03*
X118100000Y-76850000D03*
X111900000Y-76850000D03*
X118100000Y-73150000D03*
D19*
X116000000Y-64950000D03*
X114000000Y-64950000D03*
X116000000Y-63050000D03*
D20*
X114000000Y-63250000D03*
D21*
X143100000Y-86350000D03*
X140900000Y-86350000D03*
X140900000Y-84650000D03*
X143100000Y-84650000D03*
D22*
X138000000Y-66800000D03*
X138800000Y-66800000D03*
X139600000Y-66800000D03*
X140400000Y-66800000D03*
X141200000Y-66800000D03*
X142000000Y-66800000D03*
X142800000Y-66800000D03*
X143600000Y-66800000D03*
X144400000Y-66800000D03*
X145200000Y-66800000D03*
X146000000Y-66800000D03*
D23*
X147700000Y-68500000D03*
X147700000Y-69300000D03*
X147700000Y-70100000D03*
X147700000Y-70900000D03*
X147700000Y-71700000D03*
X147700000Y-72500000D03*
X147700000Y-73300000D03*
X147700000Y-74100000D03*
X147700000Y-74900000D03*
X147700000Y-75700000D03*
X147700000Y-76500000D03*
D22*
X146000000Y-78200000D03*
X145200000Y-78200000D03*
X144400000Y-78200000D03*
X143600000Y-78200000D03*
X142800000Y-78200000D03*
X142000000Y-78200000D03*
X141200000Y-78200000D03*
X140400000Y-78200000D03*
X139600000Y-78200000D03*
X138800000Y-78200000D03*
X138000000Y-78200000D03*
D23*
X136300000Y-76500000D03*
X136300000Y-75700000D03*
X136300000Y-74900000D03*
X136300000Y-74100000D03*
X136300000Y-73300000D03*
X136300000Y-72500000D03*
X136300000Y-71700000D03*
X136300000Y-70900000D03*
X136300000Y-70100000D03*
X136300000Y-69300000D03*
X136300000Y-68500000D03*
D24*
X133000000Y-68000000D03*
X133000000Y-66000000D03*
D25*
X146000000Y-63500000D03*
X148000000Y-63500000D03*
D24*
X136000000Y-82500000D03*
X136000000Y-84500000D03*
X151000000Y-78500000D03*
X151000000Y-76500000D03*
D25*
X131000000Y-72500000D03*
X133000000Y-72500000D03*
D24*
X146500000Y-84500000D03*
X146500000Y-86500000D03*
D25*
X143000000Y-89500000D03*
X141000000Y-89500000D03*
D15*
X95000000Y-75000000D03*
D26*
X130175000Y-75438000D03*
X134620000Y-73279000D03*
X134493000Y-67945000D03*
X149352000Y-63754000D03*
X152527000Y-76454000D03*
X134493000Y-82423000D03*
X130175000Y-76327000D03*
X130175000Y-77216000D03*
X130175000Y-78105000D03*
X130175000Y-74549000D03*
X115951000Y-61976000D03*
D27*
X215072000Y-58928000D02*
X217000000Y-57000000D01*
X211582000Y-58928000D02*
X215072000Y-58928000D01*
X142800000Y-79173000D02*
X145288000Y-81661000D01*
X142800000Y-78200000D02*
X142800000Y-79173000D01*
X145288000Y-81661000D02*
X201168000Y-81661000D01*
X201168000Y-81661000D02*
X209931000Y-72898000D01*
X209931000Y-72898000D02*
X209931000Y-60579000D01*
X209931000Y-60579000D02*
X211582000Y-58928000D01*
X143600000Y-79211000D02*
X143600000Y-78200000D01*
X200914000Y-81153000D02*
X145542000Y-81153000D01*
X214460000Y-57066000D02*
X213106000Y-58420000D01*
X145542000Y-81153000D02*
X143600000Y-79211000D01*
X214460000Y-57000000D02*
X214460000Y-57066000D01*
X213106000Y-58420000D02*
X211328000Y-58420000D01*
X211328000Y-58420000D02*
X209423000Y-60325000D01*
X209423000Y-60325000D02*
X209423000Y-72644000D01*
X209423000Y-72644000D02*
X200914000Y-81153000D01*
X144400000Y-79249000D02*
X145796000Y-80645000D01*
X144400000Y-78200000D02*
X144400000Y-79249000D01*
X145796000Y-80645000D02*
X200660000Y-80645000D01*
X200660000Y-80645000D02*
X208915000Y-72390000D01*
X211920000Y-57066000D02*
X211920000Y-57000000D01*
X208915000Y-72390000D02*
X208915000Y-60071000D01*
X208915000Y-60071000D02*
X211920000Y-57066000D01*
X209380000Y-57066000D02*
X208407000Y-58039000D01*
X209380000Y-57000000D02*
X209380000Y-57066000D01*
X145200000Y-79287000D02*
X145200000Y-78200000D01*
X208407000Y-58039000D02*
X208407000Y-72136000D01*
X208407000Y-72136000D02*
X200406000Y-80137000D01*
X200406000Y-80137000D02*
X146050000Y-80137000D01*
X146050000Y-80137000D02*
X145200000Y-79287000D01*
X207899000Y-58059000D02*
X206840000Y-57000000D01*
X207899000Y-71882000D02*
X207899000Y-58059000D01*
X200152000Y-79629000D02*
X207899000Y-71882000D01*
X146304000Y-79629000D02*
X200152000Y-79629000D01*
X146000000Y-78200000D02*
X146000000Y-79325000D01*
X146000000Y-79325000D02*
X146304000Y-79629000D01*
X136300000Y-74900000D02*
X135285000Y-74900000D01*
X135285000Y-74900000D02*
X134366000Y-75819000D01*
X134366000Y-75819000D02*
X130683000Y-75819000D01*
X130683000Y-75819000D02*
X130302000Y-75438000D01*
X130302000Y-75438000D02*
X130175000Y-75438000D01*
D28*
X146000000Y-66800000D02*
X146000000Y-65963000D01*
X148000000Y-63963000D02*
X148000000Y-63500000D01*
X146000000Y-65963000D02*
X148000000Y-63963000D01*
X147700000Y-75700000D02*
X148725000Y-75700000D01*
X149525000Y-76500000D02*
X151000000Y-76500000D01*
X148725000Y-75700000D02*
X149525000Y-76500000D01*
X136300000Y-69300000D02*
X135300000Y-69300000D01*
X134000000Y-68000000D02*
X133000000Y-68000000D01*
X135300000Y-69300000D02*
X134000000Y-68000000D01*
X135200000Y-66800000D02*
X134000000Y-68000000D01*
X138000000Y-66800000D02*
X135200000Y-66800000D01*
X136300000Y-73300000D02*
X134641000Y-73300000D01*
X134641000Y-73300000D02*
X134620000Y-73279000D01*
X134055000Y-67945000D02*
X134000000Y-68000000D01*
X134493000Y-67945000D02*
X134055000Y-67945000D01*
X148000000Y-63500000D02*
X149098000Y-63500000D01*
X149098000Y-63500000D02*
X149352000Y-63754000D01*
X151000000Y-76500000D02*
X152481000Y-76500000D01*
X152481000Y-76500000D02*
X152527000Y-76454000D01*
X136000000Y-82500000D02*
X134570000Y-82500000D01*
X134570000Y-82500000D02*
X134493000Y-82423000D01*
X134493000Y-82423000D02*
X120650000Y-82423000D01*
X120650000Y-82423000D02*
X115570000Y-82423000D01*
X114050000Y-80903000D02*
X114050000Y-80000000D01*
X115570000Y-82423000D02*
X114050000Y-80903000D01*
X136000000Y-82500000D02*
X136448000Y-82500000D01*
X139600000Y-79348000D02*
X139600000Y-78994000D01*
X136448000Y-82500000D02*
X139600000Y-79348000D01*
X139600000Y-78200000D02*
X139600000Y-78994000D01*
X129612000Y-68000000D02*
X133000000Y-68000000D01*
X124405000Y-68000000D02*
X125222000Y-67183000D01*
X125222000Y-67183000D02*
X128795000Y-67183000D01*
X128795000Y-67183000D02*
X129612000Y-68000000D01*
X124000000Y-68000000D02*
X122200000Y-68000000D01*
X124000000Y-68000000D02*
X124405000Y-68000000D01*
X122737000Y-68000000D02*
X124000000Y-68000000D01*
D27*
X136300000Y-75700000D02*
X135374000Y-75700000D01*
X135374000Y-75700000D02*
X134747000Y-76327000D01*
X134747000Y-76327000D02*
X130175000Y-76327000D01*
X136300000Y-76500000D02*
X135336000Y-76500000D01*
X135336000Y-76500000D02*
X135001000Y-76835000D01*
X135001000Y-76835000D02*
X130937000Y-76835000D01*
X130937000Y-76835000D02*
X130683000Y-76835000D01*
X130683000Y-76835000D02*
X130302000Y-77216000D01*
X130302000Y-77216000D02*
X130175000Y-77216000D01*
X138000000Y-78200000D02*
X137382000Y-78200000D01*
X137382000Y-78200000D02*
X136525000Y-77343000D01*
X136525000Y-77343000D02*
X131064000Y-77343000D01*
X131064000Y-77343000D02*
X130302000Y-78105000D01*
X130302000Y-78105000D02*
X130175000Y-78105000D01*
X155328000Y-55372000D02*
X156700000Y-54000000D01*
X147193000Y-55372000D02*
X155328000Y-55372000D01*
X141859000Y-60706000D02*
X147193000Y-55372000D01*
X141859000Y-64327000D02*
X141859000Y-60706000D01*
X140400000Y-66800000D02*
X140400000Y-65786000D01*
X140400000Y-65786000D02*
X141859000Y-64327000D01*
X141200000Y-65786000D02*
X141200000Y-66800000D01*
X142367000Y-64619000D02*
X141200000Y-65786000D01*
X142367000Y-60960000D02*
X142367000Y-64619000D01*
X147447000Y-55880000D02*
X142367000Y-60960000D01*
X159240000Y-54000000D02*
X157360000Y-55880000D01*
X157360000Y-55880000D02*
X147447000Y-55880000D01*
X159392000Y-56388000D02*
X161780000Y-54000000D01*
X147701000Y-56388000D02*
X159392000Y-56388000D01*
X142875000Y-61214000D02*
X147701000Y-56388000D01*
X142875000Y-64911000D02*
X142875000Y-61214000D01*
X142000000Y-66800000D02*
X142000000Y-65786000D01*
X142000000Y-65786000D02*
X142875000Y-64911000D01*
X142800000Y-65786000D02*
X142800000Y-66800000D01*
X143383000Y-65203000D02*
X142800000Y-65786000D01*
X143383000Y-61468000D02*
X143383000Y-65203000D01*
X147955000Y-56896000D02*
X143383000Y-61468000D01*
X164320000Y-54000000D02*
X161424000Y-56896000D01*
X161424000Y-56896000D02*
X147955000Y-56896000D01*
X163456000Y-57404000D02*
X166860000Y-54000000D01*
X148209000Y-57404000D02*
X163456000Y-57404000D01*
X143891000Y-61722000D02*
X148209000Y-57404000D01*
X143891000Y-65495000D02*
X143891000Y-61722000D01*
X143600000Y-66800000D02*
X143600000Y-65786000D01*
X143600000Y-65786000D02*
X143891000Y-65495000D01*
X144400000Y-62991000D02*
X144400000Y-66800000D01*
X144400000Y-61975000D02*
X144400000Y-62991000D01*
X148463000Y-57912000D02*
X144400000Y-61975000D01*
X169400000Y-54000000D02*
X165488000Y-57912000D01*
X165488000Y-57912000D02*
X148463000Y-57912000D01*
X173312000Y-55372000D02*
X175133000Y-55372000D01*
X175133000Y-55372000D02*
X176022000Y-56261000D01*
X171940000Y-54000000D02*
X173312000Y-55372000D01*
X147700000Y-69300000D02*
X148759000Y-69300000D01*
X148759000Y-69300000D02*
X149098000Y-68961000D01*
X171450000Y-68961000D02*
X176022000Y-64389000D01*
X149098000Y-68961000D02*
X171450000Y-68961000D01*
X176022000Y-56261000D02*
X176022000Y-64389000D01*
X148717000Y-70100000D02*
X147700000Y-70100000D01*
X149348000Y-69469000D02*
X148717000Y-70100000D01*
X171704000Y-69469000D02*
X149348000Y-69469000D01*
X176530000Y-64643000D02*
X171704000Y-69469000D01*
X174480000Y-54000000D02*
X176530000Y-56050000D01*
X176530000Y-56050000D02*
X176530000Y-64643000D01*
X177038000Y-54018000D02*
X177020000Y-54000000D01*
X177038000Y-64897000D02*
X177038000Y-54018000D01*
X171958000Y-69977000D02*
X177038000Y-64897000D01*
X149606000Y-69977000D02*
X171958000Y-69977000D01*
X148683000Y-70900000D02*
X149606000Y-69977000D01*
X147700000Y-70900000D02*
X148683000Y-70900000D01*
X136300000Y-74100000D02*
X135323000Y-74100000D01*
X135323000Y-74100000D02*
X134112000Y-75311000D01*
X134112000Y-75311000D02*
X131064000Y-75311000D01*
X131064000Y-75311000D02*
X130302000Y-74549000D01*
X130302000Y-74549000D02*
X130175000Y-74549000D01*
D28*
X145200000Y-66800000D02*
X145200000Y-65747000D01*
X146000000Y-64947000D02*
X146000000Y-63500000D01*
X145200000Y-65747000D02*
X146000000Y-64947000D01*
X151000000Y-64897000D02*
X151000000Y-66050000D01*
X151000000Y-64259000D02*
X151000000Y-64897000D01*
X148971000Y-62230000D02*
X151000000Y-64259000D01*
X147066000Y-62230000D02*
X148971000Y-62230000D01*
X146000000Y-63296000D02*
X147066000Y-62230000D01*
X146000000Y-63500000D02*
X146000000Y-63296000D01*
X147700000Y-76500000D02*
X148509000Y-76500000D01*
X150509000Y-78500000D02*
X151000000Y-78500000D01*
X148509000Y-76500000D02*
X150509000Y-78500000D01*
X143250000Y-86500000D02*
X143100000Y-86350000D01*
X146500000Y-86500000D02*
X143250000Y-86500000D01*
X143000000Y-86450000D02*
X143100000Y-86350000D01*
X143000000Y-89500000D02*
X143000000Y-86450000D01*
X140900000Y-84650000D02*
X141152300Y-84650000D01*
X142852300Y-86350000D02*
X143100000Y-86350000D01*
D29*
X141152300Y-84650000D02*
X142852300Y-86350000D01*
D28*
X140400000Y-81850000D02*
X140400000Y-78200000D01*
X143000000Y-89500000D02*
X143000000Y-90426000D01*
X143000000Y-90426000D02*
X142621000Y-90805000D01*
X142621000Y-90805000D02*
X139827000Y-90805000D01*
X139827000Y-90805000D02*
X138938000Y-89916000D01*
X138938000Y-89916000D02*
X138938000Y-83312000D01*
X138938000Y-83312000D02*
X140400000Y-81850000D01*
X137750000Y-84500000D02*
X138938000Y-83312000D01*
X136000000Y-84500000D02*
X137750000Y-84500000D01*
X133000000Y-66000000D02*
X134000000Y-66000000D01*
X134000000Y-66000000D02*
X134595000Y-65405000D01*
X134595000Y-65405000D02*
X138430000Y-65405000D01*
X138800000Y-65775000D02*
X138800000Y-66800000D01*
X138430000Y-65405000D02*
X138800000Y-65775000D01*
X131000000Y-72327000D02*
X131000000Y-72500000D01*
X132080000Y-71247000D02*
X131000000Y-72327000D01*
X134747000Y-71247000D02*
X132080000Y-71247000D01*
X136300000Y-71700000D02*
X135200000Y-71700000D01*
X135200000Y-71700000D02*
X134747000Y-71247000D01*
X136300000Y-71700000D02*
X139010000Y-71700000D01*
X140400000Y-73090000D02*
X140400000Y-78200000D01*
X139010000Y-71700000D02*
X140400000Y-73090000D01*
X147700000Y-76500000D02*
X144953000Y-76500000D01*
X141543000Y-73090000D02*
X140400000Y-73090000D01*
X144953000Y-76500000D02*
X141543000Y-73090000D01*
X138800000Y-71490000D02*
X139010000Y-71700000D01*
X138800000Y-66800000D02*
X138800000Y-71490000D01*
X145200000Y-69433000D02*
X141543000Y-73090000D01*
X145200000Y-66800000D02*
X145200000Y-69433000D01*
X115235000Y-56515000D02*
X113750000Y-58000000D01*
X116967000Y-56515000D02*
X115235000Y-56515000D01*
X133000000Y-66000000D02*
X123912000Y-66000000D01*
X112291000Y-62126000D02*
X112291000Y-59459000D01*
X112291000Y-59459000D02*
X113750000Y-58000000D01*
X117729000Y-57277000D02*
X117729000Y-62865000D01*
X117729000Y-57277000D02*
X116967000Y-56515000D01*
X120864000Y-66000000D02*
X123912000Y-66000000D01*
X117729000Y-62865000D02*
X120864000Y-66000000D01*
X112291000Y-62126000D02*
X112291000Y-62761000D01*
X112780000Y-63250000D02*
X114000000Y-63250000D01*
X112291000Y-62761000D02*
X112780000Y-63250000D01*
X112780000Y-63250000D02*
X112772000Y-63250000D01*
X112772000Y-63250000D02*
X112268000Y-63754000D01*
X112268000Y-72782000D02*
X111900000Y-73150000D01*
X112268000Y-63754000D02*
X112268000Y-72782000D01*
X115951000Y-63001000D02*
X116000000Y-63050000D01*
X115951000Y-61976000D02*
X115951000Y-63001000D01*
X119800000Y-66850000D02*
X116000000Y-63050000D01*
X119800000Y-68000000D02*
X119800000Y-66850000D01*
D27*
X136300000Y-72500000D02*
X133000000Y-72500000D01*
X142000000Y-78200000D02*
X142000000Y-82056000D01*
X143100000Y-83156000D02*
X143100000Y-84650000D01*
X142000000Y-82056000D02*
X143100000Y-83156000D01*
X143250000Y-84500000D02*
X143100000Y-84650000D01*
X146500000Y-84500000D02*
X143250000Y-84500000D01*
X141200000Y-78200000D02*
X141200000Y-82066000D01*
X141200000Y-82066000D02*
X139573000Y-83693000D01*
X139573000Y-83693000D02*
X139573000Y-85598000D01*
X140325000Y-86350000D02*
X140900000Y-86350000D01*
X139573000Y-85598000D02*
X140325000Y-86350000D01*
X141000000Y-86450000D02*
X140900000Y-86350000D01*
X141000000Y-89500000D02*
X141000000Y-86450000D01*
X135251000Y-70100000D02*
X136300000Y-70100000D01*
X134874000Y-69723000D02*
X135251000Y-70100000D01*
X128571000Y-68500000D02*
X129794000Y-69723000D01*
X127950000Y-68500000D02*
X128571000Y-68500000D01*
X129794000Y-69723000D02*
X134874000Y-69723000D01*
X135289000Y-70900000D02*
X136300000Y-70900000D01*
X134620000Y-70231000D02*
X135289000Y-70900000D01*
X128525000Y-71500000D02*
X129794000Y-70231000D01*
X127950000Y-71500000D02*
X128525000Y-71500000D01*
X129794000Y-70231000D02*
X134620000Y-70231000D01*
X115950000Y-79747000D02*
X118100000Y-77597000D01*
X115950000Y-80000000D02*
X115950000Y-79747000D01*
X118100000Y-76850000D02*
X118100000Y-77597000D01*
X115950000Y-80263000D02*
X115950000Y-80000000D01*
X116967000Y-81280000D02*
X115950000Y-80263000D01*
X136779000Y-81280000D02*
X116967000Y-81280000D01*
X138800000Y-78200000D02*
X138800000Y-79259000D01*
X138800000Y-79259000D02*
X136779000Y-81280000D01*
X148717000Y-68500000D02*
X147700000Y-68500000D01*
X149267000Y-67950000D02*
X148717000Y-68500000D01*
X151000000Y-67950000D02*
X149267000Y-67950000D01*
X148734000Y-72500000D02*
X147700000Y-72500000D01*
X150241000Y-70993000D02*
X148734000Y-72500000D01*
X172466000Y-70993000D02*
X150241000Y-70993000D01*
X182100000Y-54000000D02*
X181585000Y-54000000D01*
X181585000Y-54000000D02*
X180213000Y-55372000D01*
X180213000Y-55372000D02*
X178943000Y-55372000D01*
X178943000Y-55372000D02*
X178054000Y-56261000D01*
X178054000Y-56261000D02*
X178054000Y-65405000D01*
X178054000Y-65405000D02*
X172466000Y-70993000D01*
X148772000Y-71700000D02*
X147700000Y-71700000D01*
X149987000Y-70485000D02*
X148772000Y-71700000D01*
X172212000Y-70485000D02*
X149987000Y-70485000D01*
X177546000Y-65151000D02*
X172212000Y-70485000D01*
X179560000Y-54000000D02*
X177546000Y-56014000D01*
X177546000Y-56014000D02*
X177546000Y-65151000D01*
X149733000Y-74295000D02*
X148738000Y-73300000D01*
X148738000Y-73300000D02*
X147700000Y-73300000D01*
X152908000Y-74295000D02*
X149733000Y-74295000D01*
X156718000Y-78105000D02*
X152908000Y-74295000D01*
X199220000Y-57000000D02*
X201148000Y-58928000D01*
X201148000Y-58928000D02*
X204724000Y-58928000D01*
X204724000Y-58928000D02*
X206375000Y-60579000D01*
X206375000Y-60579000D02*
X206375000Y-71120000D01*
X206375000Y-71120000D02*
X199390000Y-78105000D01*
X199390000Y-78105000D02*
X156718000Y-78105000D01*
X204978000Y-58420000D02*
X203180000Y-58420000D01*
X206883000Y-60325000D02*
X204978000Y-58420000D01*
X148776000Y-74100000D02*
X149479000Y-74803000D01*
X203180000Y-58420000D02*
X201760000Y-57000000D01*
X147700000Y-74100000D02*
X148776000Y-74100000D01*
X206883000Y-71374000D02*
X206883000Y-60325000D01*
X149479000Y-74803000D02*
X152654000Y-74803000D01*
X152654000Y-74803000D02*
X156464000Y-78613000D01*
X156464000Y-78613000D02*
X199644000Y-78613000D01*
X199644000Y-78613000D02*
X206883000Y-71374000D01*
X148814000Y-74900000D02*
X147700000Y-74900000D01*
X149225000Y-75311000D02*
X148814000Y-74900000D01*
X204300000Y-57000000D02*
X207391000Y-60091000D01*
X207391000Y-60091000D02*
X207391000Y-71628000D01*
X207391000Y-71628000D02*
X199898000Y-79121000D01*
X199898000Y-79121000D02*
X156210000Y-79121000D01*
X156210000Y-79121000D02*
X152400000Y-75311000D01*
X152400000Y-75311000D02*
X149225000Y-75311000D01*
D28*
X116000000Y-58550000D02*
X116081000Y-58550000D01*
D27*
X116244000Y-58000000D02*
X116250000Y-58000000D01*
X114998500Y-59245500D02*
X116244000Y-58000000D01*
X114998500Y-60642500D02*
X114998500Y-59245500D01*
X114744500Y-60896500D02*
X114998500Y-60642500D01*
X114744500Y-64205500D02*
X114744500Y-60896500D01*
X114000000Y-64950000D02*
X114744500Y-64205500D01*
X125475000Y-71500000D02*
X126050000Y-71500000D01*
X124206000Y-70231000D02*
X125475000Y-71500000D01*
X117475000Y-70231000D02*
X124206000Y-70231000D01*
X114744500Y-67500500D02*
X117475000Y-70231000D01*
X114744500Y-65694500D02*
X114744500Y-67500500D01*
X114000000Y-64950000D02*
X114744500Y-65694500D01*
X116250000Y-60153000D02*
X116250000Y-60000000D01*
X115252500Y-61150500D02*
X116250000Y-60153000D01*
X116000000Y-64950000D02*
X115252500Y-64202500D01*
X115252500Y-64202500D02*
X115252500Y-61150500D01*
X115252500Y-65697500D02*
X116000000Y-64950000D01*
X115252500Y-67246500D02*
X115252500Y-65697500D01*
X117729000Y-69723000D02*
X115252500Y-67246500D01*
X124206000Y-69723000D02*
X117729000Y-69723000D01*
X126050000Y-68500000D02*
X125429000Y-68500000D01*
X125429000Y-68500000D02*
X124206000Y-69723000D01*
G36*
X145273815Y-68001185D02*
G01*
X145370506Y-68080537D01*
X145393667Y-68092917D01*
X145485750Y-68185000D01*
X145599337Y-68175454D01*
X145600518Y-68175812D01*
X145725000Y-68188072D01*
X146275000Y-68188072D01*
X146315962Y-68184038D01*
X146311928Y-68225000D01*
X146311928Y-68775000D01*
X146324188Y-68899482D01*
X146324345Y-68900000D01*
X146324188Y-68900518D01*
X146311928Y-69025000D01*
X146311928Y-69575000D01*
X146324188Y-69699482D01*
X146324345Y-69700000D01*
X146324188Y-69700518D01*
X146311928Y-69825000D01*
X146311928Y-70375000D01*
X146324188Y-70499482D01*
X146324345Y-70500000D01*
X146324188Y-70500518D01*
X146311928Y-70625000D01*
X146311928Y-71175000D01*
X146324188Y-71299482D01*
X146324345Y-71300000D01*
X146324188Y-71300518D01*
X146311928Y-71425000D01*
X146311928Y-71975000D01*
X146324188Y-72099482D01*
X146324345Y-72100000D01*
X146324188Y-72100518D01*
X146311928Y-72225000D01*
X146311928Y-72775000D01*
X146324188Y-72899482D01*
X146324345Y-72900000D01*
X146324188Y-72900518D01*
X146311928Y-73025000D01*
X146311928Y-73575000D01*
X146324188Y-73699482D01*
X146324345Y-73700000D01*
X146324188Y-73700518D01*
X146311928Y-73825000D01*
X146311928Y-74375000D01*
X146324188Y-74499482D01*
X146324345Y-74500000D01*
X146324188Y-74500518D01*
X146311928Y-74625000D01*
X146311928Y-75175000D01*
X146324188Y-75299482D01*
X146324345Y-75300000D01*
X146324188Y-75300518D01*
X146311928Y-75425000D01*
X146311928Y-75975000D01*
X146324188Y-76099482D01*
X146324546Y-76100663D01*
X146315000Y-76214250D01*
X146407083Y-76306333D01*
X146419463Y-76329494D01*
X146498815Y-76426185D01*
X146595506Y-76505537D01*
X146705820Y-76564502D01*
X146825518Y-76600812D01*
X146873000Y-76605488D01*
X146873000Y-76627000D01*
X146473750Y-76627000D01*
X146315000Y-76785750D01*
X146317552Y-76816119D01*
X146275000Y-76811928D01*
X145725000Y-76811928D01*
X145600518Y-76824188D01*
X145600000Y-76824345D01*
X145599482Y-76824188D01*
X145475000Y-76811928D01*
X144925000Y-76811928D01*
X144800518Y-76824188D01*
X144800000Y-76824345D01*
X144799482Y-76824188D01*
X144675000Y-76811928D01*
X144125000Y-76811928D01*
X144000518Y-76824188D01*
X144000000Y-76824345D01*
X143999482Y-76824188D01*
X143875000Y-76811928D01*
X143325000Y-76811928D01*
X143200518Y-76824188D01*
X143200000Y-76824345D01*
X143199482Y-76824188D01*
X143075000Y-76811928D01*
X142525000Y-76811928D01*
X142400518Y-76824188D01*
X142400000Y-76824345D01*
X142399482Y-76824188D01*
X142275000Y-76811928D01*
X141725000Y-76811928D01*
X141600518Y-76824188D01*
X141600000Y-76824345D01*
X141599482Y-76824188D01*
X141475000Y-76811928D01*
X140925000Y-76811928D01*
X140800518Y-76824188D01*
X140799337Y-76824546D01*
X140685750Y-76815000D01*
X140593667Y-76907083D01*
X140570506Y-76919463D01*
X140473815Y-76998815D01*
X140400000Y-77088759D01*
X140326185Y-76998815D01*
X140229494Y-76919463D01*
X140206333Y-76907083D01*
X140114250Y-76815000D01*
X140000663Y-76824546D01*
X139999482Y-76824188D01*
X139875000Y-76811928D01*
X139325000Y-76811928D01*
X139200518Y-76824188D01*
X139200000Y-76824345D01*
X139199482Y-76824188D01*
X139075000Y-76811928D01*
X138525000Y-76811928D01*
X138400518Y-76824188D01*
X138400000Y-76824345D01*
X138399482Y-76824188D01*
X138275000Y-76811928D01*
X137725000Y-76811928D01*
X137684038Y-76815962D01*
X137688072Y-76775000D01*
X137688072Y-76225000D01*
X137675812Y-76100518D01*
X137675655Y-76100000D01*
X137675812Y-76099482D01*
X137688072Y-75975000D01*
X137688072Y-75425000D01*
X137675812Y-75300518D01*
X137675655Y-75300000D01*
X137675812Y-75299482D01*
X137688072Y-75175000D01*
X137688072Y-74625000D01*
X137675812Y-74500518D01*
X137675655Y-74500000D01*
X137675812Y-74499482D01*
X137688072Y-74375000D01*
X137688072Y-73825000D01*
X137675812Y-73700518D01*
X137675655Y-73700000D01*
X137675812Y-73699482D01*
X137688072Y-73575000D01*
X137688072Y-73025000D01*
X137675812Y-72900518D01*
X137675655Y-72900000D01*
X137675812Y-72899482D01*
X137688072Y-72775000D01*
X137688072Y-72225000D01*
X137675812Y-72100518D01*
X137675454Y-72099337D01*
X137685000Y-71985750D01*
X137592917Y-71893667D01*
X137580537Y-71870506D01*
X137501185Y-71773815D01*
X137411241Y-71700000D01*
X137501185Y-71626185D01*
X137580537Y-71529494D01*
X137592917Y-71506333D01*
X137685000Y-71414250D01*
X137675454Y-71300663D01*
X137675812Y-71299482D01*
X137688072Y-71175000D01*
X137688072Y-70625000D01*
X137675812Y-70500518D01*
X137675655Y-70500000D01*
X137675812Y-70499482D01*
X137688072Y-70375000D01*
X137688072Y-69825000D01*
X137675812Y-69700518D01*
X137675655Y-69700000D01*
X137675812Y-69699482D01*
X137688072Y-69575000D01*
X137688072Y-69025000D01*
X137675812Y-68900518D01*
X137675655Y-68900000D01*
X137675812Y-68899482D01*
X137688072Y-68775000D01*
X137688072Y-68225000D01*
X137684038Y-68184038D01*
X137725000Y-68188072D01*
X138275000Y-68188072D01*
X138399482Y-68175812D01*
X138400663Y-68175454D01*
X138514250Y-68185000D01*
X138606333Y-68092917D01*
X138629494Y-68080537D01*
X138726185Y-68001185D01*
X138800000Y-67911241D01*
X138873815Y-68001185D01*
X138970506Y-68080537D01*
X138993667Y-68092917D01*
X139085750Y-68185000D01*
X139199337Y-68175454D01*
X139200518Y-68175812D01*
X139325000Y-68188072D01*
X139875000Y-68188072D01*
X139999482Y-68175812D01*
X140000000Y-68175655D01*
X140000518Y-68175812D01*
X140125000Y-68188072D01*
X140675000Y-68188072D01*
X140799482Y-68175812D01*
X140800000Y-68175655D01*
X140800518Y-68175812D01*
X140925000Y-68188072D01*
X141475000Y-68188072D01*
X141599482Y-68175812D01*
X141600000Y-68175655D01*
X141600518Y-68175812D01*
X141725000Y-68188072D01*
X142275000Y-68188072D01*
X142399482Y-68175812D01*
X142400000Y-68175655D01*
X142400518Y-68175812D01*
X142525000Y-68188072D01*
X143075000Y-68188072D01*
X143199482Y-68175812D01*
X143200000Y-68175655D01*
X143200518Y-68175812D01*
X143325000Y-68188072D01*
X143875000Y-68188072D01*
X143999482Y-68175812D01*
X144000000Y-68175655D01*
X144000518Y-68175812D01*
X144125000Y-68188072D01*
X144675000Y-68188072D01*
X144799482Y-68175812D01*
X144800663Y-68175454D01*
X144914250Y-68185000D01*
X145006333Y-68092917D01*
X145029494Y-68080537D01*
X145126185Y-68001185D01*
X145200000Y-67911241D01*
X145273815Y-68001185D01*
X145273815Y-68001185D01*
G37*
X145273815Y-68001185D02*
X145370506Y-68080537D01*
X145393667Y-68092917D01*
X145485750Y-68185000D01*
X145599337Y-68175454D01*
X145600518Y-68175812D01*
X145725000Y-68188072D01*
X146275000Y-68188072D01*
X146315962Y-68184038D01*
X146311928Y-68225000D01*
X146311928Y-68775000D01*
X146324188Y-68899482D01*
X146324345Y-68900000D01*
X146324188Y-68900518D01*
X146311928Y-69025000D01*
X146311928Y-69575000D01*
X146324188Y-69699482D01*
X146324345Y-69700000D01*
X146324188Y-69700518D01*
X146311928Y-69825000D01*
X146311928Y-70375000D01*
X146324188Y-70499482D01*
X146324345Y-70500000D01*
X146324188Y-70500518D01*
X146311928Y-70625000D01*
X146311928Y-71175000D01*
X146324188Y-71299482D01*
X146324345Y-71300000D01*
X146324188Y-71300518D01*
X146311928Y-71425000D01*
X146311928Y-71975000D01*
X146324188Y-72099482D01*
X146324345Y-72100000D01*
X146324188Y-72100518D01*
X146311928Y-72225000D01*
X146311928Y-72775000D01*
X146324188Y-72899482D01*
X146324345Y-72900000D01*
X146324188Y-72900518D01*
X146311928Y-73025000D01*
X146311928Y-73575000D01*
X146324188Y-73699482D01*
X146324345Y-73700000D01*
X146324188Y-73700518D01*
X146311928Y-73825000D01*
X146311928Y-74375000D01*
X146324188Y-74499482D01*
X146324345Y-74500000D01*
X146324188Y-74500518D01*
X146311928Y-74625000D01*
X146311928Y-75175000D01*
X146324188Y-75299482D01*
X146324345Y-75300000D01*
X146324188Y-75300518D01*
X146311928Y-75425000D01*
X146311928Y-75975000D01*
X146324188Y-76099482D01*
X146324546Y-76100663D01*
X146315000Y-76214250D01*
X146407083Y-76306333D01*
X146419463Y-76329494D01*
X146498815Y-76426185D01*
X146595506Y-76505537D01*
X146705820Y-76564502D01*
X146825518Y-76600812D01*
X146873000Y-76605488D01*
X146873000Y-76627000D01*
X146473750Y-76627000D01*
X146315000Y-76785750D01*
X146317552Y-76816119D01*
X146275000Y-76811928D01*
X145725000Y-76811928D01*
X145600518Y-76824188D01*
X145600000Y-76824345D01*
X145599482Y-76824188D01*
X145475000Y-76811928D01*
X144925000Y-76811928D01*
X144800518Y-76824188D01*
X144800000Y-76824345D01*
X144799482Y-76824188D01*
X144675000Y-76811928D01*
X144125000Y-76811928D01*
X144000518Y-76824188D01*
X144000000Y-76824345D01*
X143999482Y-76824188D01*
X143875000Y-76811928D01*
X143325000Y-76811928D01*
X143200518Y-76824188D01*
X143200000Y-76824345D01*
X143199482Y-76824188D01*
X143075000Y-76811928D01*
X142525000Y-76811928D01*
X142400518Y-76824188D01*
X142400000Y-76824345D01*
X142399482Y-76824188D01*
X142275000Y-76811928D01*
X141725000Y-76811928D01*
X141600518Y-76824188D01*
X141600000Y-76824345D01*
X141599482Y-76824188D01*
X141475000Y-76811928D01*
X140925000Y-76811928D01*
X140800518Y-76824188D01*
X140799337Y-76824546D01*
X140685750Y-76815000D01*
X140593667Y-76907083D01*
X140570506Y-76919463D01*
X140473815Y-76998815D01*
X140400000Y-77088759D01*
X140326185Y-76998815D01*
X140229494Y-76919463D01*
X140206333Y-76907083D01*
X140114250Y-76815000D01*
X140000663Y-76824546D01*
X139999482Y-76824188D01*
X139875000Y-76811928D01*
X139325000Y-76811928D01*
X139200518Y-76824188D01*
X139200000Y-76824345D01*
X139199482Y-76824188D01*
X139075000Y-76811928D01*
X138525000Y-76811928D01*
X138400518Y-76824188D01*
X138400000Y-76824345D01*
X138399482Y-76824188D01*
X138275000Y-76811928D01*
X137725000Y-76811928D01*
X137684038Y-76815962D01*
X137688072Y-76775000D01*
X137688072Y-76225000D01*
X137675812Y-76100518D01*
X137675655Y-76100000D01*
X137675812Y-76099482D01*
X137688072Y-75975000D01*
X137688072Y-75425000D01*
X137675812Y-75300518D01*
X137675655Y-75300000D01*
X137675812Y-75299482D01*
X137688072Y-75175000D01*
X137688072Y-74625000D01*
X137675812Y-74500518D01*
X137675655Y-74500000D01*
X137675812Y-74499482D01*
X137688072Y-74375000D01*
X137688072Y-73825000D01*
X137675812Y-73700518D01*
X137675655Y-73700000D01*
X137675812Y-73699482D01*
X137688072Y-73575000D01*
X137688072Y-73025000D01*
X137675812Y-72900518D01*
X137675655Y-72900000D01*
X137675812Y-72899482D01*
X137688072Y-72775000D01*
X137688072Y-72225000D01*
X137675812Y-72100518D01*
X137675454Y-72099337D01*
X137685000Y-71985750D01*
X137592917Y-71893667D01*
X137580537Y-71870506D01*
X137501185Y-71773815D01*
X137411241Y-71700000D01*
X137501185Y-71626185D01*
X137580537Y-71529494D01*
X137592917Y-71506333D01*
X137685000Y-71414250D01*
X137675454Y-71300663D01*
X137675812Y-71299482D01*
X137688072Y-71175000D01*
X137688072Y-70625000D01*
X137675812Y-70500518D01*
X137675655Y-70500000D01*
X137675812Y-70499482D01*
X137688072Y-70375000D01*
X137688072Y-69825000D01*
X137675812Y-69700518D01*
X137675655Y-69700000D01*
X137675812Y-69699482D01*
X137688072Y-69575000D01*
X137688072Y-69025000D01*
X137675812Y-68900518D01*
X137675655Y-68900000D01*
X137675812Y-68899482D01*
X137688072Y-68775000D01*
X137688072Y-68225000D01*
X137684038Y-68184038D01*
X137725000Y-68188072D01*
X138275000Y-68188072D01*
X138399482Y-68175812D01*
X138400663Y-68175454D01*
X138514250Y-68185000D01*
X138606333Y-68092917D01*
X138629494Y-68080537D01*
X138726185Y-68001185D01*
X138800000Y-67911241D01*
X138873815Y-68001185D01*
X138970506Y-68080537D01*
X138993667Y-68092917D01*
X139085750Y-68185000D01*
X139199337Y-68175454D01*
X139200518Y-68175812D01*
X139325000Y-68188072D01*
X139875000Y-68188072D01*
X139999482Y-68175812D01*
X140000000Y-68175655D01*
X140000518Y-68175812D01*
X140125000Y-68188072D01*
X140675000Y-68188072D01*
X140799482Y-68175812D01*
X140800000Y-68175655D01*
X140800518Y-68175812D01*
X140925000Y-68188072D01*
X141475000Y-68188072D01*
X141599482Y-68175812D01*
X141600000Y-68175655D01*
X141600518Y-68175812D01*
X141725000Y-68188072D01*
X142275000Y-68188072D01*
X142399482Y-68175812D01*
X142400000Y-68175655D01*
X142400518Y-68175812D01*
X142525000Y-68188072D01*
X143075000Y-68188072D01*
X143199482Y-68175812D01*
X143200000Y-68175655D01*
X143200518Y-68175812D01*
X143325000Y-68188072D01*
X143875000Y-68188072D01*
X143999482Y-68175812D01*
X144000000Y-68175655D01*
X144000518Y-68175812D01*
X144125000Y-68188072D01*
X144675000Y-68188072D01*
X144799482Y-68175812D01*
X144800663Y-68175454D01*
X144914250Y-68185000D01*
X145006333Y-68092917D01*
X145029494Y-68080537D01*
X145126185Y-68001185D01*
X145200000Y-67911241D01*
X145273815Y-68001185D01*
G36*
X140438001Y-81750368D02*
G01*
X139060654Y-83127716D01*
X139031578Y-83151578D01*
X138975983Y-83219322D01*
X138936355Y-83267608D01*
X138916167Y-83305378D01*
X138865598Y-83399986D01*
X138822026Y-83543623D01*
X138812724Y-83638072D01*
X138807314Y-83693000D01*
X138811000Y-83730424D01*
X138811001Y-85560567D01*
X138807314Y-85598000D01*
X138822027Y-85747378D01*
X138865599Y-85891015D01*
X138936355Y-86023392D01*
X138969887Y-86064250D01*
X139031579Y-86139422D01*
X139060649Y-86163279D01*
X139561928Y-86664558D01*
X139561928Y-86950000D01*
X139574188Y-87074482D01*
X139610498Y-87194180D01*
X139669463Y-87304494D01*
X139748815Y-87401185D01*
X139845506Y-87480537D01*
X139955820Y-87539502D01*
X140075518Y-87575812D01*
X140200000Y-87588072D01*
X140238001Y-87588072D01*
X140238000Y-88295023D01*
X140145506Y-88344463D01*
X140048815Y-88423815D01*
X139969463Y-88520506D01*
X139910498Y-88630820D01*
X139874188Y-88750518D01*
X139861928Y-88875000D01*
X139861928Y-90125000D01*
X139874188Y-90249482D01*
X139910498Y-90369180D01*
X139969463Y-90479494D01*
X140048815Y-90576185D01*
X140145506Y-90655537D01*
X140255820Y-90714502D01*
X140375518Y-90750812D01*
X140500000Y-90763072D01*
X141500000Y-90763072D01*
X141624482Y-90750812D01*
X141744180Y-90714502D01*
X141854494Y-90655537D01*
X141951185Y-90576185D01*
X142000000Y-90516704D01*
X142048815Y-90576185D01*
X142145506Y-90655537D01*
X142255820Y-90714502D01*
X142375518Y-90750812D01*
X142500000Y-90763072D01*
X142714250Y-90760000D01*
X142873000Y-90601250D01*
X142873000Y-89627000D01*
X143127000Y-89627000D01*
X143127000Y-90601250D01*
X143285750Y-90760000D01*
X143500000Y-90763072D01*
X143624482Y-90750812D01*
X143744180Y-90714502D01*
X143854494Y-90655537D01*
X143951185Y-90576185D01*
X144030537Y-90479494D01*
X144089502Y-90369180D01*
X144125812Y-90249482D01*
X144138072Y-90125000D01*
X144135000Y-89785750D01*
X143976250Y-89627000D01*
X143127000Y-89627000D01*
X142873000Y-89627000D01*
X142853000Y-89627000D01*
X142853000Y-89373000D01*
X142873000Y-89373000D01*
X142873000Y-88398750D01*
X143127000Y-88398750D01*
X143127000Y-89373000D01*
X143976250Y-89373000D01*
X144135000Y-89214250D01*
X144138072Y-88875000D01*
X144125812Y-88750518D01*
X144089502Y-88630820D01*
X144030537Y-88520506D01*
X143951185Y-88423815D01*
X143854494Y-88344463D01*
X143744180Y-88285498D01*
X143624482Y-88249188D01*
X143500000Y-88236928D01*
X143285750Y-88240000D01*
X143127000Y-88398750D01*
X142873000Y-88398750D01*
X142714250Y-88240000D01*
X142500000Y-88236928D01*
X142375518Y-88249188D01*
X142255820Y-88285498D01*
X142145506Y-88344463D01*
X142048815Y-88423815D01*
X142000000Y-88483296D01*
X141951185Y-88423815D01*
X141854494Y-88344463D01*
X141762000Y-88295023D01*
X141762000Y-87564431D01*
X141844180Y-87539502D01*
X141954494Y-87480537D01*
X142000000Y-87443191D01*
X142045506Y-87480537D01*
X142155820Y-87539502D01*
X142275518Y-87575812D01*
X142400000Y-87588072D01*
X142814250Y-87585000D01*
X142973000Y-87426250D01*
X142973000Y-86477000D01*
X143227000Y-86477000D01*
X143227000Y-87426250D01*
X143385750Y-87585000D01*
X143800000Y-87588072D01*
X143924482Y-87575812D01*
X144044180Y-87539502D01*
X144154494Y-87480537D01*
X144251185Y-87401185D01*
X144330537Y-87304494D01*
X144389502Y-87194180D01*
X144425812Y-87074482D01*
X144433147Y-87000000D01*
X145236928Y-87000000D01*
X145249188Y-87124482D01*
X145285498Y-87244180D01*
X145344463Y-87354494D01*
X145423815Y-87451185D01*
X145520506Y-87530537D01*
X145630820Y-87589502D01*
X145750518Y-87625812D01*
X145875000Y-87638072D01*
X146214250Y-87635000D01*
X146373000Y-87476250D01*
X146373000Y-86627000D01*
X146627000Y-86627000D01*
X146627000Y-87476250D01*
X146785750Y-87635000D01*
X147125000Y-87638072D01*
X147249482Y-87625812D01*
X147369180Y-87589502D01*
X147479494Y-87530537D01*
X147576185Y-87451185D01*
X147655537Y-87354494D01*
X147714502Y-87244180D01*
X147750812Y-87124482D01*
X147763072Y-87000000D01*
X147760000Y-86785750D01*
X147601250Y-86627000D01*
X146627000Y-86627000D01*
X146373000Y-86627000D01*
X145398750Y-86627000D01*
X145240000Y-86785750D01*
X145236928Y-87000000D01*
X144433147Y-87000000D01*
X144438072Y-86950000D01*
X144435000Y-86635750D01*
X144276250Y-86477000D01*
X143227000Y-86477000D01*
X142973000Y-86477000D01*
X142953000Y-86477000D01*
X142953000Y-86223000D01*
X142973000Y-86223000D01*
X142973000Y-86203000D01*
X143227000Y-86203000D01*
X143227000Y-86223000D01*
X144276250Y-86223000D01*
X144435000Y-86064250D01*
X144438072Y-85750000D01*
X144425812Y-85625518D01*
X144389502Y-85505820D01*
X144386391Y-85500000D01*
X144389502Y-85494180D01*
X144425812Y-85374482D01*
X144436890Y-85262000D01*
X145295023Y-85262000D01*
X145344463Y-85354494D01*
X145423815Y-85451185D01*
X145483296Y-85500000D01*
X145423815Y-85548815D01*
X145344463Y-85645506D01*
X145285498Y-85755820D01*
X145249188Y-85875518D01*
X145236928Y-86000000D01*
X145240000Y-86214250D01*
X145398750Y-86373000D01*
X146373000Y-86373000D01*
X146373000Y-86353000D01*
X146627000Y-86353000D01*
X146627000Y-86373000D01*
X147601250Y-86373000D01*
X147760000Y-86214250D01*
X147763072Y-86000000D01*
X147750812Y-85875518D01*
X147714502Y-85755820D01*
X147655537Y-85645506D01*
X147576185Y-85548815D01*
X147516704Y-85500000D01*
X147576185Y-85451185D01*
X147655537Y-85354494D01*
X147714502Y-85244180D01*
X147750812Y-85124482D01*
X147763072Y-85000000D01*
X147763072Y-84000000D01*
X147750812Y-83875518D01*
X147714502Y-83755820D01*
X147655537Y-83645506D01*
X147576185Y-83548815D01*
X147479494Y-83469463D01*
X147369180Y-83410498D01*
X147249482Y-83374188D01*
X147125000Y-83361928D01*
X145875000Y-83361928D01*
X145750518Y-83374188D01*
X145630820Y-83410498D01*
X145520506Y-83469463D01*
X145423815Y-83548815D01*
X145344463Y-83645506D01*
X145295023Y-83738000D01*
X144353251Y-83738000D01*
X144330537Y-83695506D01*
X144251185Y-83598815D01*
X144154494Y-83519463D01*
X144044180Y-83460498D01*
X143924482Y-83424188D01*
X143862000Y-83418034D01*
X143862000Y-83193423D01*
X143865686Y-83156000D01*
X143855872Y-83056355D01*
X143850974Y-83006622D01*
X143807402Y-82862985D01*
X143736646Y-82730609D01*
X143736645Y-82730607D01*
X143665279Y-82643648D01*
X143641422Y-82614578D01*
X143612353Y-82590722D01*
X142762000Y-81740370D01*
X142762000Y-80212630D01*
X144722721Y-82173352D01*
X144746578Y-82202422D01*
X144862608Y-82297645D01*
X144994985Y-82368402D01*
X145138622Y-82411974D01*
X145250574Y-82423000D01*
X145250576Y-82423000D01*
X145287999Y-82426686D01*
X145325422Y-82423000D01*
X150373000Y-82423000D01*
X150373000Y-93373000D01*
X137127000Y-93373000D01*
X137127000Y-85389267D01*
X137155537Y-85354494D01*
X137214502Y-85244180D01*
X137250812Y-85124482D01*
X137263072Y-85000000D01*
X137260000Y-84785750D01*
X137127000Y-84652750D01*
X137127000Y-84347250D01*
X137260000Y-84214250D01*
X137263072Y-84000000D01*
X137250812Y-83875518D01*
X137214502Y-83755820D01*
X137155537Y-83645506D01*
X137127000Y-83610733D01*
X137127000Y-83389267D01*
X137155537Y-83354494D01*
X137214502Y-83244180D01*
X137250812Y-83124482D01*
X137263072Y-83000000D01*
X137263072Y-82852360D01*
X140155041Y-79960392D01*
X140186541Y-79934541D01*
X140242445Y-79866422D01*
X140289699Y-79808843D01*
X140366353Y-79665434D01*
X140378012Y-79627000D01*
X140438000Y-79627000D01*
X140438001Y-81750368D01*
X140438001Y-81750368D01*
G37*
X140438001Y-81750368D02*
X139060654Y-83127716D01*
X139031578Y-83151578D01*
X138975983Y-83219322D01*
X138936355Y-83267608D01*
X138916167Y-83305378D01*
X138865598Y-83399986D01*
X138822026Y-83543623D01*
X138812724Y-83638072D01*
X138807314Y-83693000D01*
X138811000Y-83730424D01*
X138811001Y-85560567D01*
X138807314Y-85598000D01*
X138822027Y-85747378D01*
X138865599Y-85891015D01*
X138936355Y-86023392D01*
X138969887Y-86064250D01*
X139031579Y-86139422D01*
X139060649Y-86163279D01*
X139561928Y-86664558D01*
X139561928Y-86950000D01*
X139574188Y-87074482D01*
X139610498Y-87194180D01*
X139669463Y-87304494D01*
X139748815Y-87401185D01*
X139845506Y-87480537D01*
X139955820Y-87539502D01*
X140075518Y-87575812D01*
X140200000Y-87588072D01*
X140238001Y-87588072D01*
X140238000Y-88295023D01*
X140145506Y-88344463D01*
X140048815Y-88423815D01*
X139969463Y-88520506D01*
X139910498Y-88630820D01*
X139874188Y-88750518D01*
X139861928Y-88875000D01*
X139861928Y-90125000D01*
X139874188Y-90249482D01*
X139910498Y-90369180D01*
X139969463Y-90479494D01*
X140048815Y-90576185D01*
X140145506Y-90655537D01*
X140255820Y-90714502D01*
X140375518Y-90750812D01*
X140500000Y-90763072D01*
X141500000Y-90763072D01*
X141624482Y-90750812D01*
X141744180Y-90714502D01*
X141854494Y-90655537D01*
X141951185Y-90576185D01*
X142000000Y-90516704D01*
X142048815Y-90576185D01*
X142145506Y-90655537D01*
X142255820Y-90714502D01*
X142375518Y-90750812D01*
X142500000Y-90763072D01*
X142714250Y-90760000D01*
X142873000Y-90601250D01*
X142873000Y-89627000D01*
X143127000Y-89627000D01*
X143127000Y-90601250D01*
X143285750Y-90760000D01*
X143500000Y-90763072D01*
X143624482Y-90750812D01*
X143744180Y-90714502D01*
X143854494Y-90655537D01*
X143951185Y-90576185D01*
X144030537Y-90479494D01*
X144089502Y-90369180D01*
X144125812Y-90249482D01*
X144138072Y-90125000D01*
X144135000Y-89785750D01*
X143976250Y-89627000D01*
X143127000Y-89627000D01*
X142873000Y-89627000D01*
X142853000Y-89627000D01*
X142853000Y-89373000D01*
X142873000Y-89373000D01*
X142873000Y-88398750D01*
X143127000Y-88398750D01*
X143127000Y-89373000D01*
X143976250Y-89373000D01*
X144135000Y-89214250D01*
X144138072Y-88875000D01*
X144125812Y-88750518D01*
X144089502Y-88630820D01*
X144030537Y-88520506D01*
X143951185Y-88423815D01*
X143854494Y-88344463D01*
X143744180Y-88285498D01*
X143624482Y-88249188D01*
X143500000Y-88236928D01*
X143285750Y-88240000D01*
X143127000Y-88398750D01*
X142873000Y-88398750D01*
X142714250Y-88240000D01*
X142500000Y-88236928D01*
X142375518Y-88249188D01*
X142255820Y-88285498D01*
X142145506Y-88344463D01*
X142048815Y-88423815D01*
X142000000Y-88483296D01*
X141951185Y-88423815D01*
X141854494Y-88344463D01*
X141762000Y-88295023D01*
X141762000Y-87564431D01*
X141844180Y-87539502D01*
X141954494Y-87480537D01*
X142000000Y-87443191D01*
X142045506Y-87480537D01*
X142155820Y-87539502D01*
X142275518Y-87575812D01*
X142400000Y-87588072D01*
X142814250Y-87585000D01*
X142973000Y-87426250D01*
X142973000Y-86477000D01*
X143227000Y-86477000D01*
X143227000Y-87426250D01*
X143385750Y-87585000D01*
X143800000Y-87588072D01*
X143924482Y-87575812D01*
X144044180Y-87539502D01*
X144154494Y-87480537D01*
X144251185Y-87401185D01*
X144330537Y-87304494D01*
X144389502Y-87194180D01*
X144425812Y-87074482D01*
X144433147Y-87000000D01*
X145236928Y-87000000D01*
X145249188Y-87124482D01*
X145285498Y-87244180D01*
X145344463Y-87354494D01*
X145423815Y-87451185D01*
X145520506Y-87530537D01*
X145630820Y-87589502D01*
X145750518Y-87625812D01*
X145875000Y-87638072D01*
X146214250Y-87635000D01*
X146373000Y-87476250D01*
X146373000Y-86627000D01*
X146627000Y-86627000D01*
X146627000Y-87476250D01*
X146785750Y-87635000D01*
X147125000Y-87638072D01*
X147249482Y-87625812D01*
X147369180Y-87589502D01*
X147479494Y-87530537D01*
X147576185Y-87451185D01*
X147655537Y-87354494D01*
X147714502Y-87244180D01*
X147750812Y-87124482D01*
X147763072Y-87000000D01*
X147760000Y-86785750D01*
X147601250Y-86627000D01*
X146627000Y-86627000D01*
X146373000Y-86627000D01*
X145398750Y-86627000D01*
X145240000Y-86785750D01*
X145236928Y-87000000D01*
X144433147Y-87000000D01*
X144438072Y-86950000D01*
X144435000Y-86635750D01*
X144276250Y-86477000D01*
X143227000Y-86477000D01*
X142973000Y-86477000D01*
X142953000Y-86477000D01*
X142953000Y-86223000D01*
X142973000Y-86223000D01*
X142973000Y-86203000D01*
X143227000Y-86203000D01*
X143227000Y-86223000D01*
X144276250Y-86223000D01*
X144435000Y-86064250D01*
X144438072Y-85750000D01*
X144425812Y-85625518D01*
X144389502Y-85505820D01*
X144386391Y-85500000D01*
X144389502Y-85494180D01*
X144425812Y-85374482D01*
X144436890Y-85262000D01*
X145295023Y-85262000D01*
X145344463Y-85354494D01*
X145423815Y-85451185D01*
X145483296Y-85500000D01*
X145423815Y-85548815D01*
X145344463Y-85645506D01*
X145285498Y-85755820D01*
X145249188Y-85875518D01*
X145236928Y-86000000D01*
X145240000Y-86214250D01*
X145398750Y-86373000D01*
X146373000Y-86373000D01*
X146373000Y-86353000D01*
X146627000Y-86353000D01*
X146627000Y-86373000D01*
X147601250Y-86373000D01*
X147760000Y-86214250D01*
X147763072Y-86000000D01*
X147750812Y-85875518D01*
X147714502Y-85755820D01*
X147655537Y-85645506D01*
X147576185Y-85548815D01*
X147516704Y-85500000D01*
X147576185Y-85451185D01*
X147655537Y-85354494D01*
X147714502Y-85244180D01*
X147750812Y-85124482D01*
X147763072Y-85000000D01*
X147763072Y-84000000D01*
X147750812Y-83875518D01*
X147714502Y-83755820D01*
X147655537Y-83645506D01*
X147576185Y-83548815D01*
X147479494Y-83469463D01*
X147369180Y-83410498D01*
X147249482Y-83374188D01*
X147125000Y-83361928D01*
X145875000Y-83361928D01*
X145750518Y-83374188D01*
X145630820Y-83410498D01*
X145520506Y-83469463D01*
X145423815Y-83548815D01*
X145344463Y-83645506D01*
X145295023Y-83738000D01*
X144353251Y-83738000D01*
X144330537Y-83695506D01*
X144251185Y-83598815D01*
X144154494Y-83519463D01*
X144044180Y-83460498D01*
X143924482Y-83424188D01*
X143862000Y-83418034D01*
X143862000Y-83193423D01*
X143865686Y-83156000D01*
X143855872Y-83056355D01*
X143850974Y-83006622D01*
X143807402Y-82862985D01*
X143736646Y-82730609D01*
X143736645Y-82730607D01*
X143665279Y-82643648D01*
X143641422Y-82614578D01*
X143612353Y-82590722D01*
X142762000Y-81740370D01*
X142762000Y-80212630D01*
X144722721Y-82173352D01*
X144746578Y-82202422D01*
X144862608Y-82297645D01*
X144994985Y-82368402D01*
X145138622Y-82411974D01*
X145250574Y-82423000D01*
X145250576Y-82423000D01*
X145287999Y-82426686D01*
X145325422Y-82423000D01*
X150373000Y-82423000D01*
X150373000Y-93373000D01*
X137127000Y-93373000D01*
X137127000Y-85389267D01*
X137155537Y-85354494D01*
X137214502Y-85244180D01*
X137250812Y-85124482D01*
X137263072Y-85000000D01*
X137260000Y-84785750D01*
X137127000Y-84652750D01*
X137127000Y-84347250D01*
X137260000Y-84214250D01*
X137263072Y-84000000D01*
X137250812Y-83875518D01*
X137214502Y-83755820D01*
X137155537Y-83645506D01*
X137127000Y-83610733D01*
X137127000Y-83389267D01*
X137155537Y-83354494D01*
X137214502Y-83244180D01*
X137250812Y-83124482D01*
X137263072Y-83000000D01*
X137263072Y-82852360D01*
X140155041Y-79960392D01*
X140186541Y-79934541D01*
X140242445Y-79866422D01*
X140289699Y-79808843D01*
X140366353Y-79665434D01*
X140378012Y-79627000D01*
X140438000Y-79627000D01*
X140438001Y-81750368D01*
G36*
X141027000Y-84523000D02*
G01*
X141047000Y-84523000D01*
X141047000Y-84777000D01*
X141027000Y-84777000D01*
X141027000Y-84797000D01*
X140773000Y-84797000D01*
X140773000Y-84777000D01*
X140753000Y-84777000D01*
X140753000Y-84523000D01*
X140773000Y-84523000D01*
X140773000Y-84503000D01*
X141027000Y-84503000D01*
X141027000Y-84523000D01*
X141027000Y-84523000D01*
G37*
X141027000Y-84523000D02*
X141047000Y-84523000D01*
X141047000Y-84777000D01*
X141027000Y-84777000D01*
X141027000Y-84797000D01*
X140773000Y-84797000D01*
X140773000Y-84777000D01*
X140753000Y-84777000D01*
X140753000Y-84523000D01*
X140773000Y-84523000D01*
X140773000Y-84503000D01*
X141027000Y-84503000D01*
X141027000Y-84523000D01*
M02*
