M48
;DRILL file {KiCad (5.0.2)-1} date 3/13/2019 3:57:10 AM
;FORMAT={-:-/ absolute / inch / decimal}
FMAT,2
INCH,TZ
T1C0.0157
T2C0.0236
T3C0.0394
%
G90
G05
T1
X4.37Y-2.255
X4.465Y-2.22
X4.465Y-2.255
X4.575Y-2.255
X4.585Y-2.22
X4.685Y-2.255
X5.125Y-2.935
X5.125Y-2.97
X5.125Y-3.005
X5.125Y-3.04
X5.125Y-3.075
X5.295Y-2.675
X5.295Y-3.245
X5.3Y-2.885
X5.88Y-2.51
X6.005Y-3.01
T3
X3.7402Y-2.9528
X7.8433Y-2.2441
X7.9433Y-2.2441
X8.0433Y-2.2441
X8.1433Y-2.2441
X8.2433Y-2.2441
X8.3433Y-2.2441
X8.4433Y-2.2441
X8.5433Y-2.2441
X5.6693Y-2.126
X5.7693Y-2.126
X5.8693Y-2.126
X5.9693Y-2.126
X6.0693Y-2.126
X6.1693Y-2.126
X6.2693Y-2.126
X6.3693Y-2.126
X6.4693Y-2.126
X6.5693Y-2.126
X6.6693Y-2.126
X6.7693Y-2.126
X6.8693Y-2.126
X6.9693Y-2.126
X7.0693Y-2.126
X7.1693Y-2.126
T2
X4.3575Y-1.9646G85X4.3575Y-1.9409
G05
X4.3575Y-2.139G85X4.3575Y-2.0957
G05
X4.6976Y-1.9646G85X4.6976Y-1.9409
G05
X4.6976Y-2.139G85X4.6976Y-2.0957
G05
T0
M30
