G04 #@! TF.GenerationSoftware,KiCad,Pcbnew,(5.0.2)-1*
G04 #@! TF.CreationDate,2019-03-13T03:57:08-07:00*
G04 #@! TF.ProjectId,ssk-controller,73736b2d-636f-46e7-9472-6f6c6c65722e,rev?*
G04 #@! TF.SameCoordinates,Original*
G04 #@! TF.FileFunction,Other,Fab,Top*
%FSLAX46Y46*%
G04 Gerber Fmt 4.6, Leading zero omitted, Abs format (unit mm)*
G04 Created by KiCad (PCBNEW (5.0.2)-1) date 3/13/2019 3:57:08 AM*
%MOMM*%
%LPD*%
G01*
G04 APERTURE LIST*
%ADD10C,0.100000*%
%ADD11C,0.150000*%
%ADD12C,0.075000*%
%ADD13C,0.105000*%
G04 APERTURE END LIST*
D10*
G04 #@! TO.C,F1*
X119200000Y-66100000D02*
X119200000Y-62900000D01*
X119200000Y-62900000D02*
X120800000Y-62900000D01*
X120800000Y-62900000D02*
X120800000Y-66100000D01*
X120800000Y-66100000D02*
X119200000Y-66100000D01*
G04 #@! TO.C,J1*
X143365000Y-55270000D02*
X142730000Y-54635000D01*
X183370000Y-55270000D02*
X143365000Y-55270000D01*
X183370000Y-52730000D02*
X183370000Y-55270000D01*
X142730000Y-52730000D02*
X183370000Y-52730000D01*
X142730000Y-54635000D02*
X142730000Y-52730000D01*
G04 #@! TO.C,J2*
X217635000Y-55730000D02*
X218270000Y-56365000D01*
X197950000Y-55730000D02*
X217635000Y-55730000D01*
X197950000Y-58270000D02*
X197950000Y-55730000D01*
X218270000Y-58270000D02*
X197950000Y-58270000D01*
X218270000Y-56365000D02*
X218270000Y-58270000D01*
G04 #@! TO.C,R67*
X117120000Y-65000000D02*
X115880000Y-65000000D01*
X117120000Y-63000000D02*
X117120000Y-65000000D01*
X115880000Y-63000000D02*
X117120000Y-63000000D01*
X115880000Y-65000000D02*
X115880000Y-63000000D01*
G04 #@! TO.C,R68*
X112880000Y-65000000D02*
X112880000Y-63000000D01*
X112880000Y-63000000D02*
X114120000Y-63000000D01*
X114120000Y-63000000D02*
X114120000Y-65000000D01*
X114120000Y-65000000D02*
X112880000Y-65000000D01*
G04 #@! TO.C,R70*
X114000000Y-79380000D02*
X116000000Y-79380000D01*
X116000000Y-79380000D02*
X116000000Y-80620000D01*
X116000000Y-80620000D02*
X114000000Y-80620000D01*
X114000000Y-80620000D02*
X114000000Y-79380000D01*
G04 #@! TO.C,R71*
X150380000Y-66000000D02*
X151620000Y-66000000D01*
X150380000Y-68000000D02*
X150380000Y-66000000D01*
X151620000Y-68000000D02*
X150380000Y-68000000D01*
X151620000Y-66000000D02*
X151620000Y-68000000D01*
G04 #@! TO.C,R73*
X119620000Y-60500000D02*
X118380000Y-60500000D01*
X119620000Y-58500000D02*
X119620000Y-60500000D01*
X118380000Y-58500000D02*
X119620000Y-58500000D01*
X118380000Y-60500000D02*
X118380000Y-58500000D01*
G04 #@! TO.C,R74*
X110380000Y-60500000D02*
X110380000Y-58500000D01*
X110380000Y-58500000D02*
X111620000Y-58500000D01*
X111620000Y-58500000D02*
X111620000Y-60500000D01*
X111620000Y-60500000D02*
X110380000Y-60500000D01*
D11*
G04 #@! TO.C,SW1*
X117600000Y-73900000D02*
X116100000Y-72400000D01*
X112400000Y-73900000D02*
X113900000Y-72400000D01*
X112400000Y-76100000D02*
X113900000Y-77600000D01*
X117600000Y-76100000D02*
X116100000Y-77600000D01*
X116000000Y-75000000D02*
G75*
G03X116000000Y-75000000I-1000000J0D01*
G01*
X119200000Y-76100000D02*
X119200000Y-77600000D01*
X117600000Y-76100000D02*
X119200000Y-76100000D01*
X117600000Y-73900000D02*
X117600000Y-76100000D01*
X119200000Y-73900000D02*
X117600000Y-73900000D01*
X119200000Y-72400000D02*
X119200000Y-73900000D01*
X110800000Y-72400000D02*
X119200000Y-72400000D01*
X110800000Y-73900000D02*
X110800000Y-72400000D01*
X112400000Y-73900000D02*
X110800000Y-73900000D01*
X112400000Y-76100000D02*
X112400000Y-73900000D01*
X110800000Y-76100000D02*
X112400000Y-76100000D01*
X110800000Y-77600000D02*
X110800000Y-76200000D01*
X119200000Y-77600000D02*
X110800000Y-77600000D01*
G04 #@! TO.C,U2*
X116450000Y-60050000D02*
X115650000Y-60050000D01*
X115650000Y-58950000D02*
X116450000Y-58950000D01*
X113550000Y-60050000D02*
X114350000Y-60050000D01*
X114350000Y-59400000D02*
X113550000Y-59400000D01*
X114350000Y-60950000D02*
X114350000Y-58050000D01*
X115650000Y-58050000D02*
X115650000Y-60950000D01*
X113550000Y-58050000D02*
X116450000Y-58050000D01*
X113550000Y-60950000D02*
X113550000Y-58050000D01*
X116450000Y-60950000D02*
X113550000Y-60950000D01*
X116450000Y-58050000D02*
X116450000Y-60950000D01*
D10*
G04 #@! TO.C,Y1*
X143600000Y-85250000D02*
X142600000Y-84250000D01*
X140400000Y-86750000D02*
X143600000Y-86750000D01*
X140400000Y-84250000D02*
X140400000Y-86750000D01*
X143600000Y-84250000D02*
X140400000Y-84250000D01*
X143600000Y-86750000D02*
X143600000Y-84250000D01*
D11*
G04 #@! TO.C,U1*
X137000000Y-68500000D02*
X138000000Y-67500000D01*
X137000000Y-77500000D02*
X137000000Y-68500000D01*
X147000000Y-77500000D02*
X137000000Y-77500000D01*
X147000000Y-67500000D02*
X147000000Y-77500000D01*
X138000000Y-67500000D02*
X147000000Y-67500000D01*
D10*
G04 #@! TO.C,C2*
X133620000Y-66000000D02*
X133620000Y-68000000D01*
X133620000Y-68000000D02*
X132380000Y-68000000D01*
X132380000Y-68000000D02*
X132380000Y-66000000D01*
X132380000Y-66000000D02*
X133620000Y-66000000D01*
G04 #@! TO.C,C3*
X146000000Y-64120000D02*
X146000000Y-62880000D01*
X148000000Y-64120000D02*
X146000000Y-64120000D01*
X148000000Y-62880000D02*
X148000000Y-64120000D01*
X146000000Y-62880000D02*
X148000000Y-62880000D01*
G04 #@! TO.C,C4*
X135380000Y-84500000D02*
X135380000Y-82500000D01*
X135380000Y-82500000D02*
X136620000Y-82500000D01*
X136620000Y-82500000D02*
X136620000Y-84500000D01*
X136620000Y-84500000D02*
X135380000Y-84500000D01*
G04 #@! TO.C,C5*
X151620000Y-78500000D02*
X150380000Y-78500000D01*
X151620000Y-76500000D02*
X151620000Y-78500000D01*
X150380000Y-76500000D02*
X151620000Y-76500000D01*
X150380000Y-78500000D02*
X150380000Y-76500000D01*
G04 #@! TO.C,C6*
X133000000Y-73120000D02*
X131000000Y-73120000D01*
X131000000Y-73120000D02*
X131000000Y-71880000D01*
X131000000Y-71880000D02*
X133000000Y-71880000D01*
X133000000Y-71880000D02*
X133000000Y-73120000D01*
G04 #@! TO.C,C7*
X145880000Y-84500000D02*
X147120000Y-84500000D01*
X145880000Y-86500000D02*
X145880000Y-84500000D01*
X147120000Y-86500000D02*
X145880000Y-86500000D01*
X147120000Y-84500000D02*
X147120000Y-86500000D01*
G04 #@! TO.C,C8*
X141000000Y-88880000D02*
X143000000Y-88880000D01*
X143000000Y-88880000D02*
X143000000Y-90120000D01*
X143000000Y-90120000D02*
X141000000Y-90120000D01*
X141000000Y-90120000D02*
X141000000Y-88880000D01*
G04 #@! TO.C,J3*
X93730000Y-74365000D02*
X94365000Y-73730000D01*
X93730000Y-76270000D02*
X93730000Y-74365000D01*
X96270000Y-76270000D02*
X93730000Y-76270000D01*
X96270000Y-73730000D02*
X96270000Y-76270000D01*
X94365000Y-73730000D02*
X96270000Y-73730000D01*
G04 #@! TD*
G04 #@! TO.C,F1*
D11*
X122652380Y-66759523D02*
X122652380Y-67235714D01*
X123128571Y-67283333D01*
X123080952Y-67235714D01*
X123033333Y-67140476D01*
X123033333Y-66902380D01*
X123080952Y-66807142D01*
X123128571Y-66759523D01*
X123223809Y-66711904D01*
X123461904Y-66711904D01*
X123557142Y-66759523D01*
X123604761Y-66807142D01*
X123652380Y-66902380D01*
X123652380Y-67140476D01*
X123604761Y-67235714D01*
X123557142Y-67283333D01*
X122652380Y-66092857D02*
X122652380Y-65997619D01*
X122700000Y-65902380D01*
X122747619Y-65854761D01*
X122842857Y-65807142D01*
X123033333Y-65759523D01*
X123271428Y-65759523D01*
X123461904Y-65807142D01*
X123557142Y-65854761D01*
X123604761Y-65902380D01*
X123652380Y-65997619D01*
X123652380Y-66092857D01*
X123604761Y-66188095D01*
X123557142Y-66235714D01*
X123461904Y-66283333D01*
X123271428Y-66330952D01*
X123033333Y-66330952D01*
X122842857Y-66283333D01*
X122747619Y-66235714D01*
X122700000Y-66188095D01*
X122652380Y-66092857D01*
X122652380Y-65140476D02*
X122652380Y-65045238D01*
X122700000Y-64950000D01*
X122747619Y-64902380D01*
X122842857Y-64854761D01*
X123033333Y-64807142D01*
X123271428Y-64807142D01*
X123461904Y-64854761D01*
X123557142Y-64902380D01*
X123604761Y-64950000D01*
X123652380Y-65045238D01*
X123652380Y-65140476D01*
X123604761Y-65235714D01*
X123557142Y-65283333D01*
X123461904Y-65330952D01*
X123271428Y-65378571D01*
X123033333Y-65378571D01*
X122842857Y-65330952D01*
X122747619Y-65283333D01*
X122700000Y-65235714D01*
X122652380Y-65140476D01*
X123652380Y-64378571D02*
X122985714Y-64378571D01*
X123080952Y-64378571D02*
X123033333Y-64330952D01*
X122985714Y-64235714D01*
X122985714Y-64092857D01*
X123033333Y-63997619D01*
X123128571Y-63950000D01*
X123652380Y-63950000D01*
X123128571Y-63950000D02*
X123033333Y-63902380D01*
X122985714Y-63807142D01*
X122985714Y-63664285D01*
X123033333Y-63569047D01*
X123128571Y-63521428D01*
X123652380Y-63521428D01*
X123366666Y-63092857D02*
X123366666Y-62616666D01*
X123652380Y-63188095D02*
X122652380Y-62854761D01*
X123652380Y-62521428D01*
G04 #@! TO.C,J1*
X184787142Y-57738095D02*
X184834761Y-57785714D01*
X184882380Y-57928571D01*
X184882380Y-58023809D01*
X184834761Y-58166666D01*
X184739523Y-58261904D01*
X184644285Y-58309523D01*
X184453809Y-58357142D01*
X184310952Y-58357142D01*
X184120476Y-58309523D01*
X184025238Y-58261904D01*
X183930000Y-58166666D01*
X183882380Y-58023809D01*
X183882380Y-57928571D01*
X183930000Y-57785714D01*
X183977619Y-57738095D01*
X184882380Y-57166666D02*
X184834761Y-57261904D01*
X184787142Y-57309523D01*
X184691904Y-57357142D01*
X184406190Y-57357142D01*
X184310952Y-57309523D01*
X184263333Y-57261904D01*
X184215714Y-57166666D01*
X184215714Y-57023809D01*
X184263333Y-56928571D01*
X184310952Y-56880952D01*
X184406190Y-56833333D01*
X184691904Y-56833333D01*
X184787142Y-56880952D01*
X184834761Y-56928571D01*
X184882380Y-57023809D01*
X184882380Y-57166666D01*
X184215714Y-56404761D02*
X184882380Y-56404761D01*
X184310952Y-56404761D02*
X184263333Y-56357142D01*
X184215714Y-56261904D01*
X184215714Y-56119047D01*
X184263333Y-56023809D01*
X184358571Y-55976190D01*
X184882380Y-55976190D01*
X184215714Y-55500000D02*
X184882380Y-55500000D01*
X184310952Y-55500000D02*
X184263333Y-55452380D01*
X184215714Y-55357142D01*
X184215714Y-55214285D01*
X184263333Y-55119047D01*
X184358571Y-55071428D01*
X184882380Y-55071428D01*
X184977619Y-54833333D02*
X184977619Y-54071428D01*
X183882380Y-53642857D02*
X183882380Y-53547619D01*
X183930000Y-53452380D01*
X183977619Y-53404761D01*
X184072857Y-53357142D01*
X184263333Y-53309523D01*
X184501428Y-53309523D01*
X184691904Y-53357142D01*
X184787142Y-53404761D01*
X184834761Y-53452380D01*
X184882380Y-53547619D01*
X184882380Y-53642857D01*
X184834761Y-53738095D01*
X184787142Y-53785714D01*
X184691904Y-53833333D01*
X184501428Y-53880952D01*
X184263333Y-53880952D01*
X184072857Y-53833333D01*
X183977619Y-53785714D01*
X183930000Y-53738095D01*
X183882380Y-53642857D01*
X184882380Y-52357142D02*
X184882380Y-52928571D01*
X184882380Y-52642857D02*
X183882380Y-52642857D01*
X184025238Y-52738095D01*
X184120476Y-52833333D01*
X184168095Y-52928571D01*
X184882380Y-52023809D02*
X184215714Y-51500000D01*
X184215714Y-52023809D02*
X184882380Y-51500000D01*
X184882380Y-50595238D02*
X184882380Y-51166666D01*
X184882380Y-50880952D02*
X183882380Y-50880952D01*
X184025238Y-50976190D01*
X184120476Y-51071428D01*
X184168095Y-51166666D01*
X183882380Y-49738095D02*
X183882380Y-49928571D01*
X183930000Y-50023809D01*
X183977619Y-50071428D01*
X184120476Y-50166666D01*
X184310952Y-50214285D01*
X184691904Y-50214285D01*
X184787142Y-50166666D01*
X184834761Y-50119047D01*
X184882380Y-50023809D01*
X184882380Y-49833333D01*
X184834761Y-49738095D01*
X184787142Y-49690476D01*
X184691904Y-49642857D01*
X184453809Y-49642857D01*
X184358571Y-49690476D01*
X184310952Y-49738095D01*
X184263333Y-49833333D01*
X184263333Y-50023809D01*
X184310952Y-50119047D01*
X184358571Y-50166666D01*
X184453809Y-50214285D01*
X162716666Y-53452380D02*
X162716666Y-54166666D01*
X162669047Y-54309523D01*
X162573809Y-54404761D01*
X162430952Y-54452380D01*
X162335714Y-54452380D01*
X163716666Y-54452380D02*
X163145238Y-54452380D01*
X163430952Y-54452380D02*
X163430952Y-53452380D01*
X163335714Y-53595238D01*
X163240476Y-53690476D01*
X163145238Y-53738095D01*
G04 #@! TO.C,J2*
X197247142Y-60738095D02*
X197294761Y-60785714D01*
X197342380Y-60928571D01*
X197342380Y-61023809D01*
X197294761Y-61166666D01*
X197199523Y-61261904D01*
X197104285Y-61309523D01*
X196913809Y-61357142D01*
X196770952Y-61357142D01*
X196580476Y-61309523D01*
X196485238Y-61261904D01*
X196390000Y-61166666D01*
X196342380Y-61023809D01*
X196342380Y-60928571D01*
X196390000Y-60785714D01*
X196437619Y-60738095D01*
X197342380Y-60166666D02*
X197294761Y-60261904D01*
X197247142Y-60309523D01*
X197151904Y-60357142D01*
X196866190Y-60357142D01*
X196770952Y-60309523D01*
X196723333Y-60261904D01*
X196675714Y-60166666D01*
X196675714Y-60023809D01*
X196723333Y-59928571D01*
X196770952Y-59880952D01*
X196866190Y-59833333D01*
X197151904Y-59833333D01*
X197247142Y-59880952D01*
X197294761Y-59928571D01*
X197342380Y-60023809D01*
X197342380Y-60166666D01*
X196675714Y-59404761D02*
X197342380Y-59404761D01*
X196770952Y-59404761D02*
X196723333Y-59357142D01*
X196675714Y-59261904D01*
X196675714Y-59119047D01*
X196723333Y-59023809D01*
X196818571Y-58976190D01*
X197342380Y-58976190D01*
X196675714Y-58500000D02*
X197342380Y-58500000D01*
X196770952Y-58500000D02*
X196723333Y-58452380D01*
X196675714Y-58357142D01*
X196675714Y-58214285D01*
X196723333Y-58119047D01*
X196818571Y-58071428D01*
X197342380Y-58071428D01*
X197437619Y-57833333D02*
X197437619Y-57071428D01*
X196342380Y-56642857D02*
X196342380Y-56547619D01*
X196390000Y-56452380D01*
X196437619Y-56404761D01*
X196532857Y-56357142D01*
X196723333Y-56309523D01*
X196961428Y-56309523D01*
X197151904Y-56357142D01*
X197247142Y-56404761D01*
X197294761Y-56452380D01*
X197342380Y-56547619D01*
X197342380Y-56642857D01*
X197294761Y-56738095D01*
X197247142Y-56785714D01*
X197151904Y-56833333D01*
X196961428Y-56880952D01*
X196723333Y-56880952D01*
X196532857Y-56833333D01*
X196437619Y-56785714D01*
X196390000Y-56738095D01*
X196342380Y-56642857D01*
X197342380Y-55357142D02*
X197342380Y-55928571D01*
X197342380Y-55642857D02*
X196342380Y-55642857D01*
X196485238Y-55738095D01*
X196580476Y-55833333D01*
X196628095Y-55928571D01*
X197342380Y-55023809D02*
X196675714Y-54500000D01*
X196675714Y-55023809D02*
X197342380Y-54500000D01*
X196342380Y-53928571D02*
X196342380Y-53833333D01*
X196390000Y-53738095D01*
X196437619Y-53690476D01*
X196532857Y-53642857D01*
X196723333Y-53595238D01*
X196961428Y-53595238D01*
X197151904Y-53642857D01*
X197247142Y-53690476D01*
X197294761Y-53738095D01*
X197342380Y-53833333D01*
X197342380Y-53928571D01*
X197294761Y-54023809D01*
X197247142Y-54071428D01*
X197151904Y-54119047D01*
X196961428Y-54166666D01*
X196723333Y-54166666D01*
X196532857Y-54119047D01*
X196437619Y-54071428D01*
X196390000Y-54023809D01*
X196342380Y-53928571D01*
X196770952Y-53023809D02*
X196723333Y-53119047D01*
X196675714Y-53166666D01*
X196580476Y-53214285D01*
X196532857Y-53214285D01*
X196437619Y-53166666D01*
X196390000Y-53119047D01*
X196342380Y-53023809D01*
X196342380Y-52833333D01*
X196390000Y-52738095D01*
X196437619Y-52690476D01*
X196532857Y-52642857D01*
X196580476Y-52642857D01*
X196675714Y-52690476D01*
X196723333Y-52738095D01*
X196770952Y-52833333D01*
X196770952Y-53023809D01*
X196818571Y-53119047D01*
X196866190Y-53166666D01*
X196961428Y-53214285D01*
X197151904Y-53214285D01*
X197247142Y-53166666D01*
X197294761Y-53119047D01*
X197342380Y-53023809D01*
X197342380Y-52833333D01*
X197294761Y-52738095D01*
X197247142Y-52690476D01*
X197151904Y-52642857D01*
X196961428Y-52642857D01*
X196866190Y-52690476D01*
X196818571Y-52738095D01*
X196770952Y-52833333D01*
X207776666Y-56452380D02*
X207776666Y-57166666D01*
X207729047Y-57309523D01*
X207633809Y-57404761D01*
X207490952Y-57452380D01*
X207395714Y-57452380D01*
X208205238Y-56547619D02*
X208252857Y-56500000D01*
X208348095Y-56452380D01*
X208586190Y-56452380D01*
X208681428Y-56500000D01*
X208729047Y-56547619D01*
X208776666Y-56642857D01*
X208776666Y-56738095D01*
X208729047Y-56880952D01*
X208157619Y-57452380D01*
X208776666Y-57452380D01*
G04 #@! TO.C,R67*
X117797619Y-64761904D02*
X117750000Y-64714285D01*
X117702380Y-64619047D01*
X117702380Y-64380952D01*
X117750000Y-64285714D01*
X117797619Y-64238095D01*
X117892857Y-64190476D01*
X117988095Y-64190476D01*
X118130952Y-64238095D01*
X118702380Y-64809523D01*
X118702380Y-64190476D01*
X117797619Y-63809523D02*
X117750000Y-63761904D01*
X117702380Y-63666666D01*
X117702380Y-63428571D01*
X117750000Y-63333333D01*
X117797619Y-63285714D01*
X117892857Y-63238095D01*
X117988095Y-63238095D01*
X118130952Y-63285714D01*
X118702380Y-63857142D01*
X118702380Y-63238095D01*
D12*
X116726190Y-64321428D02*
X116488095Y-64488095D01*
X116726190Y-64607142D02*
X116226190Y-64607142D01*
X116226190Y-64416666D01*
X116250000Y-64369047D01*
X116273809Y-64345238D01*
X116321428Y-64321428D01*
X116392857Y-64321428D01*
X116440476Y-64345238D01*
X116464285Y-64369047D01*
X116488095Y-64416666D01*
X116488095Y-64607142D01*
X116226190Y-63892857D02*
X116226190Y-63988095D01*
X116250000Y-64035714D01*
X116273809Y-64059523D01*
X116345238Y-64107142D01*
X116440476Y-64130952D01*
X116630952Y-64130952D01*
X116678571Y-64107142D01*
X116702380Y-64083333D01*
X116726190Y-64035714D01*
X116726190Y-63940476D01*
X116702380Y-63892857D01*
X116678571Y-63869047D01*
X116630952Y-63845238D01*
X116511904Y-63845238D01*
X116464285Y-63869047D01*
X116440476Y-63892857D01*
X116416666Y-63940476D01*
X116416666Y-64035714D01*
X116440476Y-64083333D01*
X116464285Y-64107142D01*
X116511904Y-64130952D01*
X116226190Y-63678571D02*
X116226190Y-63345238D01*
X116726190Y-63559523D01*
G04 #@! TO.C,R68*
D11*
X114797619Y-64761904D02*
X114750000Y-64714285D01*
X114702380Y-64619047D01*
X114702380Y-64380952D01*
X114750000Y-64285714D01*
X114797619Y-64238095D01*
X114892857Y-64190476D01*
X114988095Y-64190476D01*
X115130952Y-64238095D01*
X115702380Y-64809523D01*
X115702380Y-64190476D01*
X114797619Y-63809523D02*
X114750000Y-63761904D01*
X114702380Y-63666666D01*
X114702380Y-63428571D01*
X114750000Y-63333333D01*
X114797619Y-63285714D01*
X114892857Y-63238095D01*
X114988095Y-63238095D01*
X115130952Y-63285714D01*
X115702380Y-63857142D01*
X115702380Y-63238095D01*
D12*
X113726190Y-64321428D02*
X113488095Y-64488095D01*
X113726190Y-64607142D02*
X113226190Y-64607142D01*
X113226190Y-64416666D01*
X113250000Y-64369047D01*
X113273809Y-64345238D01*
X113321428Y-64321428D01*
X113392857Y-64321428D01*
X113440476Y-64345238D01*
X113464285Y-64369047D01*
X113488095Y-64416666D01*
X113488095Y-64607142D01*
X113226190Y-63892857D02*
X113226190Y-63988095D01*
X113250000Y-64035714D01*
X113273809Y-64059523D01*
X113345238Y-64107142D01*
X113440476Y-64130952D01*
X113630952Y-64130952D01*
X113678571Y-64107142D01*
X113702380Y-64083333D01*
X113726190Y-64035714D01*
X113726190Y-63940476D01*
X113702380Y-63892857D01*
X113678571Y-63869047D01*
X113630952Y-63845238D01*
X113511904Y-63845238D01*
X113464285Y-63869047D01*
X113440476Y-63892857D01*
X113416666Y-63940476D01*
X113416666Y-64035714D01*
X113440476Y-64083333D01*
X113464285Y-64107142D01*
X113511904Y-64130952D01*
X113440476Y-63559523D02*
X113416666Y-63607142D01*
X113392857Y-63630952D01*
X113345238Y-63654761D01*
X113321428Y-63654761D01*
X113273809Y-63630952D01*
X113250000Y-63607142D01*
X113226190Y-63559523D01*
X113226190Y-63464285D01*
X113250000Y-63416666D01*
X113273809Y-63392857D01*
X113321428Y-63369047D01*
X113345238Y-63369047D01*
X113392857Y-63392857D01*
X113416666Y-63416666D01*
X113440476Y-63464285D01*
X113440476Y-63559523D01*
X113464285Y-63607142D01*
X113488095Y-63630952D01*
X113535714Y-63654761D01*
X113630952Y-63654761D01*
X113678571Y-63630952D01*
X113702380Y-63607142D01*
X113726190Y-63559523D01*
X113726190Y-63464285D01*
X113702380Y-63416666D01*
X113678571Y-63392857D01*
X113630952Y-63369047D01*
X113535714Y-63369047D01*
X113488095Y-63392857D01*
X113464285Y-63416666D01*
X113440476Y-63464285D01*
G04 #@! TO.C,R70*
D11*
X114404761Y-82202380D02*
X113833333Y-82202380D01*
X114119047Y-82202380D02*
X114119047Y-81202380D01*
X114023809Y-81345238D01*
X113928571Y-81440476D01*
X113833333Y-81488095D01*
X115023809Y-81202380D02*
X115119047Y-81202380D01*
X115214285Y-81250000D01*
X115261904Y-81297619D01*
X115309523Y-81392857D01*
X115357142Y-81583333D01*
X115357142Y-81821428D01*
X115309523Y-82011904D01*
X115261904Y-82107142D01*
X115214285Y-82154761D01*
X115119047Y-82202380D01*
X115023809Y-82202380D01*
X114928571Y-82154761D01*
X114880952Y-82107142D01*
X114833333Y-82011904D01*
X114785714Y-81821428D01*
X114785714Y-81583333D01*
X114833333Y-81392857D01*
X114880952Y-81297619D01*
X114928571Y-81250000D01*
X115023809Y-81202380D01*
X115785714Y-82202380D02*
X115785714Y-81202380D01*
X115880952Y-81821428D02*
X116166666Y-82202380D01*
X116166666Y-81535714D02*
X115785714Y-81916666D01*
D12*
X114678571Y-80226190D02*
X114511904Y-79988095D01*
X114392857Y-80226190D02*
X114392857Y-79726190D01*
X114583333Y-79726190D01*
X114630952Y-79750000D01*
X114654761Y-79773809D01*
X114678571Y-79821428D01*
X114678571Y-79892857D01*
X114654761Y-79940476D01*
X114630952Y-79964285D01*
X114583333Y-79988095D01*
X114392857Y-79988095D01*
X114845238Y-79726190D02*
X115178571Y-79726190D01*
X114964285Y-80226190D01*
X115464285Y-79726190D02*
X115511904Y-79726190D01*
X115559523Y-79750000D01*
X115583333Y-79773809D01*
X115607142Y-79821428D01*
X115630952Y-79916666D01*
X115630952Y-80035714D01*
X115607142Y-80130952D01*
X115583333Y-80178571D01*
X115559523Y-80202380D01*
X115511904Y-80226190D01*
X115464285Y-80226190D01*
X115416666Y-80202380D01*
X115392857Y-80178571D01*
X115369047Y-80130952D01*
X115345238Y-80035714D01*
X115345238Y-79916666D01*
X115369047Y-79821428D01*
X115392857Y-79773809D01*
X115416666Y-79750000D01*
X115464285Y-79726190D01*
G04 #@! TO.C,R71*
D11*
X149702380Y-67119047D02*
X149702380Y-67690476D01*
X149702380Y-67404761D02*
X148702380Y-67404761D01*
X148845238Y-67500000D01*
X148940476Y-67595238D01*
X148988095Y-67690476D01*
X149702380Y-66690476D02*
X148702380Y-66690476D01*
X149321428Y-66595238D02*
X149702380Y-66309523D01*
X149035714Y-66309523D02*
X149416666Y-66690476D01*
D12*
X151226190Y-67321428D02*
X150988095Y-67488095D01*
X151226190Y-67607142D02*
X150726190Y-67607142D01*
X150726190Y-67416666D01*
X150750000Y-67369047D01*
X150773809Y-67345238D01*
X150821428Y-67321428D01*
X150892857Y-67321428D01*
X150940476Y-67345238D01*
X150964285Y-67369047D01*
X150988095Y-67416666D01*
X150988095Y-67607142D01*
X150726190Y-67154761D02*
X150726190Y-66821428D01*
X151226190Y-67035714D01*
X151226190Y-66369047D02*
X151226190Y-66654761D01*
X151226190Y-66511904D02*
X150726190Y-66511904D01*
X150797619Y-66559523D01*
X150845238Y-66607142D01*
X150869047Y-66654761D01*
G04 #@! TO.C,R73*
D11*
X120202380Y-60380952D02*
X120202380Y-60857142D01*
X120678571Y-60904761D01*
X120630952Y-60857142D01*
X120583333Y-60761904D01*
X120583333Y-60523809D01*
X120630952Y-60428571D01*
X120678571Y-60380952D01*
X120773809Y-60333333D01*
X121011904Y-60333333D01*
X121107142Y-60380952D01*
X121154761Y-60428571D01*
X121202380Y-60523809D01*
X121202380Y-60761904D01*
X121154761Y-60857142D01*
X121107142Y-60904761D01*
X121107142Y-59904761D02*
X121154761Y-59857142D01*
X121202380Y-59904761D01*
X121154761Y-59952380D01*
X121107142Y-59904761D01*
X121202380Y-59904761D01*
X121202380Y-58904761D02*
X121202380Y-59476190D01*
X121202380Y-59190476D02*
X120202380Y-59190476D01*
X120345238Y-59285714D01*
X120440476Y-59380952D01*
X120488095Y-59476190D01*
X121202380Y-58476190D02*
X120202380Y-58476190D01*
X120821428Y-58380952D02*
X121202380Y-58095238D01*
X120535714Y-58095238D02*
X120916666Y-58476190D01*
D12*
X119226190Y-59821428D02*
X118988095Y-59988095D01*
X119226190Y-60107142D02*
X118726190Y-60107142D01*
X118726190Y-59916666D01*
X118750000Y-59869047D01*
X118773809Y-59845238D01*
X118821428Y-59821428D01*
X118892857Y-59821428D01*
X118940476Y-59845238D01*
X118964285Y-59869047D01*
X118988095Y-59916666D01*
X118988095Y-60107142D01*
X118726190Y-59654761D02*
X118726190Y-59321428D01*
X119226190Y-59535714D01*
X118726190Y-59178571D02*
X118726190Y-58869047D01*
X118916666Y-59035714D01*
X118916666Y-58964285D01*
X118940476Y-58916666D01*
X118964285Y-58892857D01*
X119011904Y-58869047D01*
X119130952Y-58869047D01*
X119178571Y-58892857D01*
X119202380Y-58916666D01*
X119226190Y-58964285D01*
X119226190Y-59107142D01*
X119202380Y-59154761D01*
X119178571Y-59178571D01*
G04 #@! TO.C,R74*
D11*
X112202380Y-60380952D02*
X112202380Y-60857142D01*
X112678571Y-60904761D01*
X112630952Y-60857142D01*
X112583333Y-60761904D01*
X112583333Y-60523809D01*
X112630952Y-60428571D01*
X112678571Y-60380952D01*
X112773809Y-60333333D01*
X113011904Y-60333333D01*
X113107142Y-60380952D01*
X113154761Y-60428571D01*
X113202380Y-60523809D01*
X113202380Y-60761904D01*
X113154761Y-60857142D01*
X113107142Y-60904761D01*
X113107142Y-59904761D02*
X113154761Y-59857142D01*
X113202380Y-59904761D01*
X113154761Y-59952380D01*
X113107142Y-59904761D01*
X113202380Y-59904761D01*
X113202380Y-58904761D02*
X113202380Y-59476190D01*
X113202380Y-59190476D02*
X112202380Y-59190476D01*
X112345238Y-59285714D01*
X112440476Y-59380952D01*
X112488095Y-59476190D01*
X113202380Y-58476190D02*
X112202380Y-58476190D01*
X112821428Y-58380952D02*
X113202380Y-58095238D01*
X112535714Y-58095238D02*
X112916666Y-58476190D01*
D12*
X111226190Y-59821428D02*
X110988095Y-59988095D01*
X111226190Y-60107142D02*
X110726190Y-60107142D01*
X110726190Y-59916666D01*
X110750000Y-59869047D01*
X110773809Y-59845238D01*
X110821428Y-59821428D01*
X110892857Y-59821428D01*
X110940476Y-59845238D01*
X110964285Y-59869047D01*
X110988095Y-59916666D01*
X110988095Y-60107142D01*
X110726190Y-59654761D02*
X110726190Y-59321428D01*
X111226190Y-59535714D01*
X110892857Y-58916666D02*
X111226190Y-58916666D01*
X110702380Y-59035714D02*
X111059523Y-59154761D01*
X111059523Y-58845238D01*
G04 #@! TO.C,SW1*
D11*
X111952380Y-79468761D02*
X112095238Y-79516380D01*
X112333333Y-79516380D01*
X112428571Y-79468761D01*
X112476190Y-79421142D01*
X112523809Y-79325904D01*
X112523809Y-79230666D01*
X112476190Y-79135428D01*
X112428571Y-79087809D01*
X112333333Y-79040190D01*
X112142857Y-78992571D01*
X112047619Y-78944952D01*
X112000000Y-78897333D01*
X111952380Y-78802095D01*
X111952380Y-78706857D01*
X112000000Y-78611619D01*
X112047619Y-78564000D01*
X112142857Y-78516380D01*
X112380952Y-78516380D01*
X112523809Y-78564000D01*
X112857142Y-78516380D02*
X113095238Y-79516380D01*
X113285714Y-78802095D01*
X113476190Y-79516380D01*
X113714285Y-78516380D01*
X113857142Y-79611619D02*
X114619047Y-79611619D01*
X114857142Y-79516380D02*
X114857142Y-78516380D01*
X115238095Y-78516380D01*
X115333333Y-78564000D01*
X115380952Y-78611619D01*
X115428571Y-78706857D01*
X115428571Y-78849714D01*
X115380952Y-78944952D01*
X115333333Y-78992571D01*
X115238095Y-79040190D01*
X114857142Y-79040190D01*
X116285714Y-78849714D02*
X116285714Y-79516380D01*
X115857142Y-78849714D02*
X115857142Y-79373523D01*
X115904761Y-79468761D01*
X116000000Y-79516380D01*
X116142857Y-79516380D01*
X116238095Y-79468761D01*
X116285714Y-79421142D01*
X116714285Y-79468761D02*
X116809523Y-79516380D01*
X117000000Y-79516380D01*
X117095238Y-79468761D01*
X117142857Y-79373523D01*
X117142857Y-79325904D01*
X117095238Y-79230666D01*
X117000000Y-79183047D01*
X116857142Y-79183047D01*
X116761904Y-79135428D01*
X116714285Y-79040190D01*
X116714285Y-78992571D01*
X116761904Y-78897333D01*
X116857142Y-78849714D01*
X117000000Y-78849714D01*
X117095238Y-78897333D01*
X117571428Y-79516380D02*
X117571428Y-78516380D01*
X118000000Y-79516380D02*
X118000000Y-78992571D01*
X117952380Y-78897333D01*
X117857142Y-78849714D01*
X117714285Y-78849714D01*
X117619047Y-78897333D01*
X117571428Y-78944952D01*
G04 #@! TO.C,U2*
X117752380Y-64000000D02*
X116752380Y-64000000D01*
X116752380Y-63619047D01*
X116800000Y-63523809D01*
X116847619Y-63476190D01*
X116942857Y-63428571D01*
X117085714Y-63428571D01*
X117180952Y-63476190D01*
X117228571Y-63523809D01*
X117276190Y-63619047D01*
X117276190Y-64000000D01*
X117752380Y-62428571D02*
X117276190Y-62761904D01*
X117752380Y-63000000D02*
X116752380Y-63000000D01*
X116752380Y-62619047D01*
X116800000Y-62523809D01*
X116847619Y-62476190D01*
X116942857Y-62428571D01*
X117085714Y-62428571D01*
X117180952Y-62476190D01*
X117228571Y-62523809D01*
X117276190Y-62619047D01*
X117276190Y-63000000D01*
X116752380Y-62142857D02*
X116752380Y-61571428D01*
X117752380Y-61857142D02*
X116752380Y-61857142D01*
X117752380Y-60666666D02*
X117276190Y-61000000D01*
X117752380Y-61238095D02*
X116752380Y-61238095D01*
X116752380Y-60857142D01*
X116800000Y-60761904D01*
X116847619Y-60714285D01*
X116942857Y-60666666D01*
X117085714Y-60666666D01*
X117180952Y-60714285D01*
X117228571Y-60761904D01*
X117276190Y-60857142D01*
X117276190Y-61238095D01*
X116752380Y-59761904D02*
X116752380Y-60238095D01*
X117228571Y-60285714D01*
X117180952Y-60238095D01*
X117133333Y-60142857D01*
X117133333Y-59904761D01*
X117180952Y-59809523D01*
X117228571Y-59761904D01*
X117323809Y-59714285D01*
X117561904Y-59714285D01*
X117657142Y-59761904D01*
X117704761Y-59809523D01*
X117752380Y-59904761D01*
X117752380Y-60142857D01*
X117704761Y-60238095D01*
X117657142Y-60285714D01*
X116752380Y-59428571D02*
X117752380Y-59095238D01*
X116752380Y-58761904D01*
X116752380Y-58238095D02*
X116752380Y-58142857D01*
X116800000Y-58047619D01*
X116847619Y-58000000D01*
X116942857Y-57952380D01*
X117133333Y-57904761D01*
X117371428Y-57904761D01*
X117561904Y-57952380D01*
X117657142Y-58000000D01*
X117704761Y-58047619D01*
X117752380Y-58142857D01*
X117752380Y-58238095D01*
X117704761Y-58333333D01*
X117657142Y-58380952D01*
X117561904Y-58428571D01*
X117371428Y-58476190D01*
X117133333Y-58476190D01*
X116942857Y-58428571D01*
X116847619Y-58380952D01*
X116800000Y-58333333D01*
X116752380Y-58238095D01*
X116752380Y-57476190D02*
X117561904Y-57476190D01*
X117657142Y-57428571D01*
X117704761Y-57380952D01*
X117752380Y-57285714D01*
X117752380Y-57095238D01*
X117704761Y-57000000D01*
X117657142Y-56952380D01*
X117561904Y-56904761D01*
X116752380Y-56904761D01*
X116847619Y-56476190D02*
X116800000Y-56428571D01*
X116752380Y-56333333D01*
X116752380Y-56095238D01*
X116800000Y-56000000D01*
X116847619Y-55952380D01*
X116942857Y-55904761D01*
X117038095Y-55904761D01*
X117180952Y-55952380D01*
X117752380Y-56523809D01*
X117752380Y-55904761D01*
X116752380Y-55571428D02*
X117752380Y-54904761D01*
X116752380Y-54904761D02*
X117752380Y-55571428D01*
G04 #@! TO.C,USB1*
X113261904Y-55702380D02*
X113261904Y-56511904D01*
X113309523Y-56607142D01*
X113357142Y-56654761D01*
X113452380Y-56702380D01*
X113642857Y-56702380D01*
X113738095Y-56654761D01*
X113785714Y-56607142D01*
X113833333Y-56511904D01*
X113833333Y-55702380D01*
X114261904Y-56654761D02*
X114404761Y-56702380D01*
X114642857Y-56702380D01*
X114738095Y-56654761D01*
X114785714Y-56607142D01*
X114833333Y-56511904D01*
X114833333Y-56416666D01*
X114785714Y-56321428D01*
X114738095Y-56273809D01*
X114642857Y-56226190D01*
X114452380Y-56178571D01*
X114357142Y-56130952D01*
X114309523Y-56083333D01*
X114261904Y-55988095D01*
X114261904Y-55892857D01*
X114309523Y-55797619D01*
X114357142Y-55750000D01*
X114452380Y-55702380D01*
X114690476Y-55702380D01*
X114833333Y-55750000D01*
X115595238Y-56178571D02*
X115738095Y-56226190D01*
X115785714Y-56273809D01*
X115833333Y-56369047D01*
X115833333Y-56511904D01*
X115785714Y-56607142D01*
X115738095Y-56654761D01*
X115642857Y-56702380D01*
X115261904Y-56702380D01*
X115261904Y-55702380D01*
X115595238Y-55702380D01*
X115690476Y-55750000D01*
X115738095Y-55797619D01*
X115785714Y-55892857D01*
X115785714Y-55988095D01*
X115738095Y-56083333D01*
X115690476Y-56130952D01*
X115595238Y-56178571D01*
X115261904Y-56178571D01*
X116785714Y-56702380D02*
X116214285Y-56702380D01*
X116500000Y-56702380D02*
X116500000Y-55702380D01*
X116404761Y-55845238D01*
X116309523Y-55940476D01*
X116214285Y-55988095D01*
G04 #@! TO.C,Y1*
X140380952Y-83502380D02*
X139809523Y-83502380D01*
X140095238Y-83502380D02*
X140095238Y-82502380D01*
X140000000Y-82645238D01*
X139904761Y-82740476D01*
X139809523Y-82788095D01*
X141238095Y-82502380D02*
X141047619Y-82502380D01*
X140952380Y-82550000D01*
X140904761Y-82597619D01*
X140809523Y-82740476D01*
X140761904Y-82930952D01*
X140761904Y-83311904D01*
X140809523Y-83407142D01*
X140857142Y-83454761D01*
X140952380Y-83502380D01*
X141142857Y-83502380D01*
X141238095Y-83454761D01*
X141285714Y-83407142D01*
X141333333Y-83311904D01*
X141333333Y-83073809D01*
X141285714Y-82978571D01*
X141238095Y-82930952D01*
X141142857Y-82883333D01*
X140952380Y-82883333D01*
X140857142Y-82930952D01*
X140809523Y-82978571D01*
X140761904Y-83073809D01*
X141761904Y-83502380D02*
X141761904Y-82502380D01*
X142095238Y-83216666D01*
X142428571Y-82502380D01*
X142428571Y-83502380D01*
X142904761Y-83502380D02*
X142904761Y-82502380D01*
X143333333Y-83502380D02*
X143333333Y-82978571D01*
X143285714Y-82883333D01*
X143190476Y-82835714D01*
X143047619Y-82835714D01*
X142952380Y-82883333D01*
X142904761Y-82930952D01*
X143714285Y-82835714D02*
X144238095Y-82835714D01*
X143714285Y-83502380D01*
X144238095Y-83502380D01*
D13*
X141666666Y-85483333D02*
X141666666Y-85816666D01*
X141433333Y-85116666D02*
X141666666Y-85483333D01*
X141900000Y-85116666D01*
X142500000Y-85816666D02*
X142100000Y-85816666D01*
X142300000Y-85816666D02*
X142300000Y-85116666D01*
X142233333Y-85216666D01*
X142166666Y-85283333D01*
X142100000Y-85316666D01*
G04 #@! TO.C,U1*
D11*
X135857142Y-80116666D02*
X136333333Y-80116666D01*
X135761904Y-80402380D02*
X136095238Y-79402380D01*
X136428571Y-80402380D01*
X136619047Y-79402380D02*
X137190476Y-79402380D01*
X136904761Y-80402380D02*
X136904761Y-79402380D01*
X137523809Y-80402380D02*
X137523809Y-79735714D01*
X137523809Y-79830952D02*
X137571428Y-79783333D01*
X137666666Y-79735714D01*
X137809523Y-79735714D01*
X137904761Y-79783333D01*
X137952380Y-79878571D01*
X137952380Y-80402380D01*
X137952380Y-79878571D02*
X138000000Y-79783333D01*
X138095238Y-79735714D01*
X138238095Y-79735714D01*
X138333333Y-79783333D01*
X138380952Y-79878571D01*
X138380952Y-80402380D01*
X139238095Y-80354761D02*
X139142857Y-80402380D01*
X138952380Y-80402380D01*
X138857142Y-80354761D01*
X138809523Y-80259523D01*
X138809523Y-79878571D01*
X138857142Y-79783333D01*
X138952380Y-79735714D01*
X139142857Y-79735714D01*
X139238095Y-79783333D01*
X139285714Y-79878571D01*
X139285714Y-79973809D01*
X138809523Y-80069047D01*
X140142857Y-79735714D02*
X140142857Y-80545238D01*
X140095238Y-80640476D01*
X140047619Y-80688095D01*
X139952380Y-80735714D01*
X139809523Y-80735714D01*
X139714285Y-80688095D01*
X140142857Y-80354761D02*
X140047619Y-80402380D01*
X139857142Y-80402380D01*
X139761904Y-80354761D01*
X139714285Y-80307142D01*
X139666666Y-80211904D01*
X139666666Y-79926190D01*
X139714285Y-79830952D01*
X139761904Y-79783333D01*
X139857142Y-79735714D01*
X140047619Y-79735714D01*
X140142857Y-79783333D01*
X141047619Y-80402380D02*
X141047619Y-79878571D01*
X141000000Y-79783333D01*
X140904761Y-79735714D01*
X140714285Y-79735714D01*
X140619047Y-79783333D01*
X141047619Y-80354761D02*
X140952380Y-80402380D01*
X140714285Y-80402380D01*
X140619047Y-80354761D01*
X140571428Y-80259523D01*
X140571428Y-80164285D01*
X140619047Y-80069047D01*
X140714285Y-80021428D01*
X140952380Y-80021428D01*
X141047619Y-79973809D01*
X141428571Y-79402380D02*
X142047619Y-79402380D01*
X141714285Y-79783333D01*
X141857142Y-79783333D01*
X141952380Y-79830952D01*
X142000000Y-79878571D01*
X142047619Y-79973809D01*
X142047619Y-80211904D01*
X142000000Y-80307142D01*
X141952380Y-80354761D01*
X141857142Y-80402380D01*
X141571428Y-80402380D01*
X141476190Y-80354761D01*
X141428571Y-80307142D01*
X142428571Y-79497619D02*
X142476190Y-79450000D01*
X142571428Y-79402380D01*
X142809523Y-79402380D01*
X142904761Y-79450000D01*
X142952380Y-79497619D01*
X143000000Y-79592857D01*
X143000000Y-79688095D01*
X142952380Y-79830952D01*
X142380952Y-80402380D01*
X143000000Y-80402380D01*
X143428571Y-79402380D02*
X143428571Y-80211904D01*
X143476190Y-80307142D01*
X143523809Y-80354761D01*
X143619047Y-80402380D01*
X143809523Y-80402380D01*
X143904761Y-80354761D01*
X143952380Y-80307142D01*
X144000000Y-80211904D01*
X144000000Y-79402380D01*
X144904761Y-79735714D02*
X144904761Y-80402380D01*
X144666666Y-79354761D02*
X144428571Y-80069047D01*
X145047619Y-80069047D01*
X145428571Y-80021428D02*
X146190476Y-80021428D01*
X146619047Y-80116666D02*
X147095238Y-80116666D01*
X146523809Y-80402380D02*
X146857142Y-79402380D01*
X147190476Y-80402380D01*
X147523809Y-79402380D02*
X147523809Y-80211904D01*
X147571428Y-80307142D01*
X147619047Y-80354761D01*
X147714285Y-80402380D01*
X147904761Y-80402380D01*
X148000000Y-80354761D01*
X148047619Y-80307142D01*
X148095238Y-80211904D01*
X148095238Y-79402380D01*
X141238095Y-71952380D02*
X141238095Y-72761904D01*
X141285714Y-72857142D01*
X141333333Y-72904761D01*
X141428571Y-72952380D01*
X141619047Y-72952380D01*
X141714285Y-72904761D01*
X141761904Y-72857142D01*
X141809523Y-72761904D01*
X141809523Y-71952380D01*
X142809523Y-72952380D02*
X142238095Y-72952380D01*
X142523809Y-72952380D02*
X142523809Y-71952380D01*
X142428571Y-72095238D01*
X142333333Y-72190476D01*
X142238095Y-72238095D01*
G04 #@! TO.C,REF\002A\002A*
X125966666Y-55452380D02*
X125633333Y-54976190D01*
X125395238Y-55452380D02*
X125395238Y-54452380D01*
X125776190Y-54452380D01*
X125871428Y-54500000D01*
X125919047Y-54547619D01*
X125966666Y-54642857D01*
X125966666Y-54785714D01*
X125919047Y-54880952D01*
X125871428Y-54928571D01*
X125776190Y-54976190D01*
X125395238Y-54976190D01*
X126395238Y-54928571D02*
X126728571Y-54928571D01*
X126871428Y-55452380D02*
X126395238Y-55452380D01*
X126395238Y-54452380D01*
X126871428Y-54452380D01*
X127633333Y-54928571D02*
X127300000Y-54928571D01*
X127300000Y-55452380D02*
X127300000Y-54452380D01*
X127776190Y-54452380D01*
X128300000Y-54452380D02*
X128300000Y-54690476D01*
X128061904Y-54595238D02*
X128300000Y-54690476D01*
X128538095Y-54595238D01*
X128157142Y-54880952D02*
X128300000Y-54690476D01*
X128442857Y-54880952D01*
X129061904Y-54452380D02*
X129061904Y-54690476D01*
X128823809Y-54595238D02*
X129061904Y-54690476D01*
X129300000Y-54595238D01*
X128919047Y-54880952D02*
X129061904Y-54690476D01*
X129204761Y-54880952D01*
X101966666Y-55452380D02*
X101633333Y-54976190D01*
X101395238Y-55452380D02*
X101395238Y-54452380D01*
X101776190Y-54452380D01*
X101871428Y-54500000D01*
X101919047Y-54547619D01*
X101966666Y-54642857D01*
X101966666Y-54785714D01*
X101919047Y-54880952D01*
X101871428Y-54928571D01*
X101776190Y-54976190D01*
X101395238Y-54976190D01*
X102395238Y-54928571D02*
X102728571Y-54928571D01*
X102871428Y-55452380D02*
X102395238Y-55452380D01*
X102395238Y-54452380D01*
X102871428Y-54452380D01*
X103633333Y-54928571D02*
X103300000Y-54928571D01*
X103300000Y-55452380D02*
X103300000Y-54452380D01*
X103776190Y-54452380D01*
X104300000Y-54452380D02*
X104300000Y-54690476D01*
X104061904Y-54595238D02*
X104300000Y-54690476D01*
X104538095Y-54595238D01*
X104157142Y-54880952D02*
X104300000Y-54690476D01*
X104442857Y-54880952D01*
X105061904Y-54452380D02*
X105061904Y-54690476D01*
X104823809Y-54595238D02*
X105061904Y-54690476D01*
X105300000Y-54595238D01*
X104919047Y-54880952D02*
X105061904Y-54690476D01*
X105204761Y-54880952D01*
G04 #@! TO.C,C2*
X131702380Y-68071428D02*
X131702380Y-68642857D01*
X131702380Y-68357142D02*
X130702380Y-68357142D01*
X130845238Y-68452380D01*
X130940476Y-68547619D01*
X130988095Y-68642857D01*
X130702380Y-67452380D02*
X130702380Y-67357142D01*
X130750000Y-67261904D01*
X130797619Y-67214285D01*
X130892857Y-67166666D01*
X131083333Y-67119047D01*
X131321428Y-67119047D01*
X131511904Y-67166666D01*
X131607142Y-67214285D01*
X131654761Y-67261904D01*
X131702380Y-67357142D01*
X131702380Y-67452380D01*
X131654761Y-67547619D01*
X131607142Y-67595238D01*
X131511904Y-67642857D01*
X131321428Y-67690476D01*
X131083333Y-67690476D01*
X130892857Y-67642857D01*
X130797619Y-67595238D01*
X130750000Y-67547619D01*
X130702380Y-67452380D01*
X131035714Y-66261904D02*
X131702380Y-66261904D01*
X131035714Y-66690476D02*
X131559523Y-66690476D01*
X131654761Y-66642857D01*
X131702380Y-66547619D01*
X131702380Y-66404761D01*
X131654761Y-66309523D01*
X131607142Y-66261904D01*
X131178571Y-65452380D02*
X131178571Y-65785714D01*
X131702380Y-65785714D02*
X130702380Y-65785714D01*
X130702380Y-65309523D01*
X134857142Y-67166666D02*
X134904761Y-67214285D01*
X134952380Y-67357142D01*
X134952380Y-67452380D01*
X134904761Y-67595238D01*
X134809523Y-67690476D01*
X134714285Y-67738095D01*
X134523809Y-67785714D01*
X134380952Y-67785714D01*
X134190476Y-67738095D01*
X134095238Y-67690476D01*
X134000000Y-67595238D01*
X133952380Y-67452380D01*
X133952380Y-67357142D01*
X134000000Y-67214285D01*
X134047619Y-67166666D01*
X134047619Y-66785714D02*
X134000000Y-66738095D01*
X133952380Y-66642857D01*
X133952380Y-66404761D01*
X134000000Y-66309523D01*
X134047619Y-66261904D01*
X134142857Y-66214285D01*
X134238095Y-66214285D01*
X134380952Y-66261904D01*
X134952380Y-66833333D01*
X134952380Y-66214285D01*
G04 #@! TO.C,C3*
X145357142Y-64702380D02*
X145452380Y-64702380D01*
X145547619Y-64750000D01*
X145595238Y-64797619D01*
X145642857Y-64892857D01*
X145690476Y-65083333D01*
X145690476Y-65321428D01*
X145642857Y-65511904D01*
X145595238Y-65607142D01*
X145547619Y-65654761D01*
X145452380Y-65702380D01*
X145357142Y-65702380D01*
X145261904Y-65654761D01*
X145214285Y-65607142D01*
X145166666Y-65511904D01*
X145119047Y-65321428D01*
X145119047Y-65083333D01*
X145166666Y-64892857D01*
X145214285Y-64797619D01*
X145261904Y-64750000D01*
X145357142Y-64702380D01*
X146119047Y-65607142D02*
X146166666Y-65654761D01*
X146119047Y-65702380D01*
X146071428Y-65654761D01*
X146119047Y-65607142D01*
X146119047Y-65702380D01*
X147119047Y-65702380D02*
X146547619Y-65702380D01*
X146833333Y-65702380D02*
X146833333Y-64702380D01*
X146738095Y-64845238D01*
X146642857Y-64940476D01*
X146547619Y-64988095D01*
X147976190Y-65035714D02*
X147976190Y-65702380D01*
X147547619Y-65035714D02*
X147547619Y-65559523D01*
X147595238Y-65654761D01*
X147690476Y-65702380D01*
X147833333Y-65702380D01*
X147928571Y-65654761D01*
X147976190Y-65607142D01*
X148785714Y-65178571D02*
X148452380Y-65178571D01*
X148452380Y-65702380D02*
X148452380Y-64702380D01*
X148928571Y-64702380D01*
X146833333Y-62357142D02*
X146785714Y-62404761D01*
X146642857Y-62452380D01*
X146547619Y-62452380D01*
X146404761Y-62404761D01*
X146309523Y-62309523D01*
X146261904Y-62214285D01*
X146214285Y-62023809D01*
X146214285Y-61880952D01*
X146261904Y-61690476D01*
X146309523Y-61595238D01*
X146404761Y-61500000D01*
X146547619Y-61452380D01*
X146642857Y-61452380D01*
X146785714Y-61500000D01*
X146833333Y-61547619D01*
X147166666Y-61452380D02*
X147785714Y-61452380D01*
X147452380Y-61833333D01*
X147595238Y-61833333D01*
X147690476Y-61880952D01*
X147738095Y-61928571D01*
X147785714Y-62023809D01*
X147785714Y-62261904D01*
X147738095Y-62357142D01*
X147690476Y-62404761D01*
X147595238Y-62452380D01*
X147309523Y-62452380D01*
X147214285Y-62404761D01*
X147166666Y-62357142D01*
G04 #@! TO.C,C4*
X137202380Y-85142857D02*
X137202380Y-85047619D01*
X137250000Y-84952380D01*
X137297619Y-84904761D01*
X137392857Y-84857142D01*
X137583333Y-84809523D01*
X137821428Y-84809523D01*
X138011904Y-84857142D01*
X138107142Y-84904761D01*
X138154761Y-84952380D01*
X138202380Y-85047619D01*
X138202380Y-85142857D01*
X138154761Y-85238095D01*
X138107142Y-85285714D01*
X138011904Y-85333333D01*
X137821428Y-85380952D01*
X137583333Y-85380952D01*
X137392857Y-85333333D01*
X137297619Y-85285714D01*
X137250000Y-85238095D01*
X137202380Y-85142857D01*
X138107142Y-84380952D02*
X138154761Y-84333333D01*
X138202380Y-84380952D01*
X138154761Y-84428571D01*
X138107142Y-84380952D01*
X138202380Y-84380952D01*
X138202380Y-83380952D02*
X138202380Y-83952380D01*
X138202380Y-83666666D02*
X137202380Y-83666666D01*
X137345238Y-83761904D01*
X137440476Y-83857142D01*
X137488095Y-83952380D01*
X137535714Y-82523809D02*
X138202380Y-82523809D01*
X137535714Y-82952380D02*
X138059523Y-82952380D01*
X138154761Y-82904761D01*
X138202380Y-82809523D01*
X138202380Y-82666666D01*
X138154761Y-82571428D01*
X138107142Y-82523809D01*
X137678571Y-81714285D02*
X137678571Y-82047619D01*
X138202380Y-82047619D02*
X137202380Y-82047619D01*
X137202380Y-81571428D01*
X134857142Y-83666666D02*
X134904761Y-83714285D01*
X134952380Y-83857142D01*
X134952380Y-83952380D01*
X134904761Y-84095238D01*
X134809523Y-84190476D01*
X134714285Y-84238095D01*
X134523809Y-84285714D01*
X134380952Y-84285714D01*
X134190476Y-84238095D01*
X134095238Y-84190476D01*
X134000000Y-84095238D01*
X133952380Y-83952380D01*
X133952380Y-83857142D01*
X134000000Y-83714285D01*
X134047619Y-83666666D01*
X134285714Y-82809523D02*
X134952380Y-82809523D01*
X133904761Y-83047619D02*
X134619047Y-83285714D01*
X134619047Y-82666666D01*
G04 #@! TO.C,C5*
X152202380Y-79142857D02*
X152202380Y-79047619D01*
X152250000Y-78952380D01*
X152297619Y-78904761D01*
X152392857Y-78857142D01*
X152583333Y-78809523D01*
X152821428Y-78809523D01*
X153011904Y-78857142D01*
X153107142Y-78904761D01*
X153154761Y-78952380D01*
X153202380Y-79047619D01*
X153202380Y-79142857D01*
X153154761Y-79238095D01*
X153107142Y-79285714D01*
X153011904Y-79333333D01*
X152821428Y-79380952D01*
X152583333Y-79380952D01*
X152392857Y-79333333D01*
X152297619Y-79285714D01*
X152250000Y-79238095D01*
X152202380Y-79142857D01*
X153107142Y-78380952D02*
X153154761Y-78333333D01*
X153202380Y-78380952D01*
X153154761Y-78428571D01*
X153107142Y-78380952D01*
X153202380Y-78380952D01*
X153202380Y-77380952D02*
X153202380Y-77952380D01*
X153202380Y-77666666D02*
X152202380Y-77666666D01*
X152345238Y-77761904D01*
X152440476Y-77857142D01*
X152488095Y-77952380D01*
X152535714Y-76523809D02*
X153202380Y-76523809D01*
X152535714Y-76952380D02*
X153059523Y-76952380D01*
X153154761Y-76904761D01*
X153202380Y-76809523D01*
X153202380Y-76666666D01*
X153154761Y-76571428D01*
X153107142Y-76523809D01*
X152678571Y-75714285D02*
X152678571Y-76047619D01*
X153202380Y-76047619D02*
X152202380Y-76047619D01*
X152202380Y-75571428D01*
X149857142Y-77666666D02*
X149904761Y-77714285D01*
X149952380Y-77857142D01*
X149952380Y-77952380D01*
X149904761Y-78095238D01*
X149809523Y-78190476D01*
X149714285Y-78238095D01*
X149523809Y-78285714D01*
X149380952Y-78285714D01*
X149190476Y-78238095D01*
X149095238Y-78190476D01*
X149000000Y-78095238D01*
X148952380Y-77952380D01*
X148952380Y-77857142D01*
X149000000Y-77714285D01*
X149047619Y-77666666D01*
X148952380Y-76761904D02*
X148952380Y-77238095D01*
X149428571Y-77285714D01*
X149380952Y-77238095D01*
X149333333Y-77142857D01*
X149333333Y-76904761D01*
X149380952Y-76809523D01*
X149428571Y-76761904D01*
X149523809Y-76714285D01*
X149761904Y-76714285D01*
X149857142Y-76761904D01*
X149904761Y-76809523D01*
X149952380Y-76904761D01*
X149952380Y-77142857D01*
X149904761Y-77238095D01*
X149857142Y-77285714D01*
G04 #@! TO.C,C6*
X131404761Y-71202380D02*
X130833333Y-71202380D01*
X131119047Y-71202380D02*
X131119047Y-70202380D01*
X131023809Y-70345238D01*
X130928571Y-70440476D01*
X130833333Y-70488095D01*
X132261904Y-70535714D02*
X132261904Y-71202380D01*
X131833333Y-70535714D02*
X131833333Y-71059523D01*
X131880952Y-71154761D01*
X131976190Y-71202380D01*
X132119047Y-71202380D01*
X132214285Y-71154761D01*
X132261904Y-71107142D01*
X133071428Y-70678571D02*
X132738095Y-70678571D01*
X132738095Y-71202380D02*
X132738095Y-70202380D01*
X133214285Y-70202380D01*
X131833333Y-74357142D02*
X131785714Y-74404761D01*
X131642857Y-74452380D01*
X131547619Y-74452380D01*
X131404761Y-74404761D01*
X131309523Y-74309523D01*
X131261904Y-74214285D01*
X131214285Y-74023809D01*
X131214285Y-73880952D01*
X131261904Y-73690476D01*
X131309523Y-73595238D01*
X131404761Y-73500000D01*
X131547619Y-73452380D01*
X131642857Y-73452380D01*
X131785714Y-73500000D01*
X131833333Y-73547619D01*
X132690476Y-73452380D02*
X132500000Y-73452380D01*
X132404761Y-73500000D01*
X132357142Y-73547619D01*
X132261904Y-73690476D01*
X132214285Y-73880952D01*
X132214285Y-74261904D01*
X132261904Y-74357142D01*
X132309523Y-74404761D01*
X132404761Y-74452380D01*
X132595238Y-74452380D01*
X132690476Y-74404761D01*
X132738095Y-74357142D01*
X132785714Y-74261904D01*
X132785714Y-74023809D01*
X132738095Y-73928571D01*
X132690476Y-73880952D01*
X132595238Y-73833333D01*
X132404761Y-73833333D01*
X132309523Y-73880952D01*
X132261904Y-73928571D01*
X132214285Y-74023809D01*
G04 #@! TO.C,C7*
X144297619Y-87142857D02*
X144250000Y-87095238D01*
X144202380Y-87000000D01*
X144202380Y-86761904D01*
X144250000Y-86666666D01*
X144297619Y-86619047D01*
X144392857Y-86571428D01*
X144488095Y-86571428D01*
X144630952Y-86619047D01*
X145202380Y-87190476D01*
X145202380Y-86571428D01*
X144297619Y-86190476D02*
X144250000Y-86142857D01*
X144202380Y-86047619D01*
X144202380Y-85809523D01*
X144250000Y-85714285D01*
X144297619Y-85666666D01*
X144392857Y-85619047D01*
X144488095Y-85619047D01*
X144630952Y-85666666D01*
X145202380Y-86238095D01*
X145202380Y-85619047D01*
X144535714Y-85190476D02*
X145535714Y-85190476D01*
X144583333Y-85190476D02*
X144535714Y-85095238D01*
X144535714Y-84904761D01*
X144583333Y-84809523D01*
X144630952Y-84761904D01*
X144726190Y-84714285D01*
X145011904Y-84714285D01*
X145107142Y-84761904D01*
X145154761Y-84809523D01*
X145202380Y-84904761D01*
X145202380Y-85095238D01*
X145154761Y-85190476D01*
X144678571Y-83952380D02*
X144678571Y-84285714D01*
X145202380Y-84285714D02*
X144202380Y-84285714D01*
X144202380Y-83809523D01*
X148357142Y-85666666D02*
X148404761Y-85714285D01*
X148452380Y-85857142D01*
X148452380Y-85952380D01*
X148404761Y-86095238D01*
X148309523Y-86190476D01*
X148214285Y-86238095D01*
X148023809Y-86285714D01*
X147880952Y-86285714D01*
X147690476Y-86238095D01*
X147595238Y-86190476D01*
X147500000Y-86095238D01*
X147452380Y-85952380D01*
X147452380Y-85857142D01*
X147500000Y-85714285D01*
X147547619Y-85666666D01*
X147452380Y-85333333D02*
X147452380Y-84666666D01*
X148452380Y-85095238D01*
G04 #@! TO.C,C8*
X140357142Y-90797619D02*
X140404761Y-90750000D01*
X140500000Y-90702380D01*
X140738095Y-90702380D01*
X140833333Y-90750000D01*
X140880952Y-90797619D01*
X140928571Y-90892857D01*
X140928571Y-90988095D01*
X140880952Y-91130952D01*
X140309523Y-91702380D01*
X140928571Y-91702380D01*
X141309523Y-90797619D02*
X141357142Y-90750000D01*
X141452380Y-90702380D01*
X141690476Y-90702380D01*
X141785714Y-90750000D01*
X141833333Y-90797619D01*
X141880952Y-90892857D01*
X141880952Y-90988095D01*
X141833333Y-91130952D01*
X141261904Y-91702380D01*
X141880952Y-91702380D01*
X142309523Y-91035714D02*
X142309523Y-92035714D01*
X142309523Y-91083333D02*
X142404761Y-91035714D01*
X142595238Y-91035714D01*
X142690476Y-91083333D01*
X142738095Y-91130952D01*
X142785714Y-91226190D01*
X142785714Y-91511904D01*
X142738095Y-91607142D01*
X142690476Y-91654761D01*
X142595238Y-91702380D01*
X142404761Y-91702380D01*
X142309523Y-91654761D01*
X143547619Y-91178571D02*
X143214285Y-91178571D01*
X143214285Y-91702380D02*
X143214285Y-90702380D01*
X143690476Y-90702380D01*
X141833333Y-88357142D02*
X141785714Y-88404761D01*
X141642857Y-88452380D01*
X141547619Y-88452380D01*
X141404761Y-88404761D01*
X141309523Y-88309523D01*
X141261904Y-88214285D01*
X141214285Y-88023809D01*
X141214285Y-87880952D01*
X141261904Y-87690476D01*
X141309523Y-87595238D01*
X141404761Y-87500000D01*
X141547619Y-87452380D01*
X141642857Y-87452380D01*
X141785714Y-87500000D01*
X141833333Y-87547619D01*
X142404761Y-87880952D02*
X142309523Y-87833333D01*
X142261904Y-87785714D01*
X142214285Y-87690476D01*
X142214285Y-87642857D01*
X142261904Y-87547619D01*
X142309523Y-87500000D01*
X142404761Y-87452380D01*
X142595238Y-87452380D01*
X142690476Y-87500000D01*
X142738095Y-87547619D01*
X142785714Y-87642857D01*
X142785714Y-87690476D01*
X142738095Y-87785714D01*
X142690476Y-87833333D01*
X142595238Y-87880952D01*
X142404761Y-87880952D01*
X142309523Y-87928571D01*
X142261904Y-87976190D01*
X142214285Y-88071428D01*
X142214285Y-88261904D01*
X142261904Y-88357142D01*
X142309523Y-88404761D01*
X142404761Y-88452380D01*
X142595238Y-88452380D01*
X142690476Y-88404761D01*
X142738095Y-88357142D01*
X142785714Y-88261904D01*
X142785714Y-88071428D01*
X142738095Y-87976190D01*
X142690476Y-87928571D01*
X142595238Y-87880952D01*
G04 #@! TO.C,J3*
X91261904Y-77687142D02*
X91214285Y-77734761D01*
X91071428Y-77782380D01*
X90976190Y-77782380D01*
X90833333Y-77734761D01*
X90738095Y-77639523D01*
X90690476Y-77544285D01*
X90642857Y-77353809D01*
X90642857Y-77210952D01*
X90690476Y-77020476D01*
X90738095Y-76925238D01*
X90833333Y-76830000D01*
X90976190Y-76782380D01*
X91071428Y-76782380D01*
X91214285Y-76830000D01*
X91261904Y-76877619D01*
X91833333Y-77782380D02*
X91738095Y-77734761D01*
X91690476Y-77687142D01*
X91642857Y-77591904D01*
X91642857Y-77306190D01*
X91690476Y-77210952D01*
X91738095Y-77163333D01*
X91833333Y-77115714D01*
X91976190Y-77115714D01*
X92071428Y-77163333D01*
X92119047Y-77210952D01*
X92166666Y-77306190D01*
X92166666Y-77591904D01*
X92119047Y-77687142D01*
X92071428Y-77734761D01*
X91976190Y-77782380D01*
X91833333Y-77782380D01*
X92595238Y-77115714D02*
X92595238Y-77782380D01*
X92595238Y-77210952D02*
X92642857Y-77163333D01*
X92738095Y-77115714D01*
X92880952Y-77115714D01*
X92976190Y-77163333D01*
X93023809Y-77258571D01*
X93023809Y-77782380D01*
X93500000Y-77115714D02*
X93500000Y-77782380D01*
X93500000Y-77210952D02*
X93547619Y-77163333D01*
X93642857Y-77115714D01*
X93785714Y-77115714D01*
X93880952Y-77163333D01*
X93928571Y-77258571D01*
X93928571Y-77782380D01*
X94166666Y-77877619D02*
X94928571Y-77877619D01*
X95357142Y-76782380D02*
X95452380Y-76782380D01*
X95547619Y-76830000D01*
X95595238Y-76877619D01*
X95642857Y-76972857D01*
X95690476Y-77163333D01*
X95690476Y-77401428D01*
X95642857Y-77591904D01*
X95595238Y-77687142D01*
X95547619Y-77734761D01*
X95452380Y-77782380D01*
X95357142Y-77782380D01*
X95261904Y-77734761D01*
X95214285Y-77687142D01*
X95166666Y-77591904D01*
X95119047Y-77401428D01*
X95119047Y-77163333D01*
X95166666Y-76972857D01*
X95214285Y-76877619D01*
X95261904Y-76830000D01*
X95357142Y-76782380D01*
X96642857Y-77782380D02*
X96071428Y-77782380D01*
X96357142Y-77782380D02*
X96357142Y-76782380D01*
X96261904Y-76925238D01*
X96166666Y-77020476D01*
X96071428Y-77068095D01*
X96976190Y-77782380D02*
X97500000Y-77115714D01*
X96976190Y-77115714D02*
X97500000Y-77782380D01*
X98071428Y-76782380D02*
X98166666Y-76782380D01*
X98261904Y-76830000D01*
X98309523Y-76877619D01*
X98357142Y-76972857D01*
X98404761Y-77163333D01*
X98404761Y-77401428D01*
X98357142Y-77591904D01*
X98309523Y-77687142D01*
X98261904Y-77734761D01*
X98166666Y-77782380D01*
X98071428Y-77782380D01*
X97976190Y-77734761D01*
X97928571Y-77687142D01*
X97880952Y-77591904D01*
X97833333Y-77401428D01*
X97833333Y-77163333D01*
X97880952Y-76972857D01*
X97928571Y-76877619D01*
X97976190Y-76830000D01*
X98071428Y-76782380D01*
X99357142Y-77782380D02*
X98785714Y-77782380D01*
X99071428Y-77782380D02*
X99071428Y-76782380D01*
X98976190Y-76925238D01*
X98880952Y-77020476D01*
X98785714Y-77068095D01*
X94452380Y-75333333D02*
X95166666Y-75333333D01*
X95309523Y-75380952D01*
X95404761Y-75476190D01*
X95452380Y-75619047D01*
X95452380Y-75714285D01*
X94452380Y-74952380D02*
X94452380Y-74333333D01*
X94833333Y-74666666D01*
X94833333Y-74523809D01*
X94880952Y-74428571D01*
X94928571Y-74380952D01*
X95023809Y-74333333D01*
X95261904Y-74333333D01*
X95357142Y-74380952D01*
X95404761Y-74428571D01*
X95452380Y-74523809D01*
X95452380Y-74809523D01*
X95404761Y-74904761D01*
X95357142Y-74952380D01*
G04 #@! TD*
M02*
